<?xml version="1.0" encoding="utf-8"?>
<!-- Generator: Adobe Illustrator 21.0.0, SVG Export Plug-In . SVG Version: 6.00 Build 0)  -->
<svg version="1.1" id="图层_1" xmlns="http://www.w3.org/2000/svg" xmlns:xlink="http://www.w3.org/1999/xlink" x="0px" y="0px"
	 viewBox="0 0 173.3 120" style="enable-background:new 0 0 173.3 120;" xml:space="preserve">
<style type="text/css">
	.st0{fill:#FFFFFF;}
	.st1{fill-rule:evenodd;clip-rule:evenodd;fill:url(#SVGID_1_);}
	.st2{fill-rule:evenodd;clip-rule:evenodd;fill:url(#SVGID_2_);}
</style>
<g>
	<g>
		<path class="st0" d="M13.8,110.7h-1.2c-0.3-1-0.9-1.6-1.9-1.6c-1.5,0.1-2.2,1.2-2.3,3.1c0.1,1.9,0.9,3,2.6,3.1
			c1.1,0,2.1-0.6,2.9-1.9v1.1c-0.7,1-1.7,1.6-3.2,1.5c-2.2-0.1-3.4-1.4-3.5-3.9c0.1-2.5,1.3-3.8,3.5-3.9
			C12.3,108.3,13.4,109.1,13.8,110.7z"/>
		<path class="st0" d="M14.3,114v-3.4h1.2v3.3c0,1,0.4,1.4,1.4,1.4H18v-4.7h1.2v5.4h-2.8C15,116,14.3,115.3,14.3,114z"/>
		<path class="st0" d="M19.8,115v-0.9c0.7,0.8,1.5,1.3,2.4,1.3c0.8,0,1.2-0.3,1.2-0.8s-0.4-0.8-1.2-0.9c-1.5-0.3-2.3-0.8-2.3-1.7
			c0.1-1,0.8-1.4,2.2-1.5c1.3,0,2.1,0.6,2.3,1.6h-1.1c-0.1-0.5-0.5-0.8-1.1-0.8c-0.7,0-1,0.2-1,0.7s0.4,0.8,1.4,0.9
			c1.4,0.2,2.1,0.8,2.2,1.7c0,1-0.8,1.5-2.4,1.5C21.3,116,20.4,115.7,19.8,115z"/>
		<path class="st0" d="M24.9,111.3v-0.8h0.9v-2.1H27v2.2h1.2v0.8H27v3.1c0,0.5,0.2,0.8,0.6,0.8c0.2,0,0.4-0.1,0.7-0.2v0.6
			c-0.3,0.3-0.6,0.4-1.1,0.4c-1,0-1.4-0.5-1.4-1.5v-3.2L24.9,111.3L24.9,111.3z"/>
		<path class="st0" d="M31.3,116c-1.7-0.1-2.6-1-2.7-2.7c0.1-1.8,1-2.8,2.8-2.9c1.7,0.1,2.6,1,2.7,2.8C34,115.1,33.1,116,31.3,116z
			 M31.3,115.3c1,0,1.5-0.7,1.5-2s-0.5-2-1.5-2.1c-1,0-1.5,0.7-1.5,2.1C29.8,114.6,30.3,115.2,31.3,115.3z"/>
		<path class="st0" d="M34.6,115.9v-5.5h6.1c1.4,0,2.1,0.6,2.1,1.8v3.7h-1.2v-3.5c0-0.8-0.4-1.1-1.2-1.1h-1v4.7h-1.2v-3.7
			c0-0.7-0.3-1-1-1H36v4.7L34.6,115.9L34.6,115.9z"/>
		<path class="st0" d="M43.5,109.5v-1.1h1.2v1.1H43.5z M43.5,115.9v-5.3h1.2v5.3H43.5z"/>
		<path class="st0" d="M45.3,115.9v-0.7l3.3-3.8h-3.2v-0.8h4.7v0.8l-3.3,3.8h3.5v0.7H45.3z"/>
		<path class="st0" d="M56,113.6h-4.2c0.1,1.1,0.8,1.7,1.9,1.7c0.9,0,1.6-0.4,2.2-1.1v0.9c-0.5,0.6-1.4,1-2.5,1
			c-1.9-0.1-2.9-1-2.9-2.7c0-1.9,1-2.8,2.7-2.9C55.1,110.4,56,111.5,56,113.6z M51.7,112.8h3c0-1-0.6-1.5-1.5-1.6
			C52.4,111.3,51.9,111.8,51.7,112.8z"/>
		<path class="st0" d="M59.4,110.4h1.1v-2.5h1.2v8.1h-2.3c-1.9,0-2.9-0.9-2.9-2.7C56.5,111.4,57.5,110.5,59.4,110.4z M60.5,115.3v-4
			h-0.9c-1.3,0-1.9,0.7-1.9,2.1c0,1.3,0.6,2,1.9,2L60.5,115.3L60.5,115.3z"/>
		<path class="st0" d="M64.7,115.9l3-7.5h1.5l3,7.5h-1.3l-0.8-2h-3.3l-0.8,2H64.7z M68.4,109.5L67,113h2.7L68.4,109.5z"/>
		<path class="st0" d="M72.4,115.9v-5.5h2.7c1.5,0,2.2,0.7,2.2,2.1v3.4h-1.2v-3.3c0-0.9-0.4-1.4-1.3-1.4h-1.2v4.7L72.4,115.9
			L72.4,115.9z"/>
		<path class="st0" d="M80.4,112.5h1.3c0-0.9-0.4-1.4-1.4-1.3c-0.8,0-1.3,0.3-1.6,1h-0.9c0.3-1.2,1.1-1.8,2.5-1.8
			c1.5,0,2.2,0.6,2.2,1.9v3.7h-2.4c-1.5,0-2.3-0.6-2.3-1.6C77.9,113.1,78.7,112.5,80.4,112.5z M81.7,115.3v-2h-1.4
			c-1,0-1.6,0.3-1.6,1c0,0.6,0.5,1,1.4,1H81.7z"/>
		<path class="st0" d="M83.5,115.9V108h1.2v7.9H83.5z"/>
		<path class="st0" d="M85.1,117.8v-0.7c0.2,0.1,0.5,0.2,0.8,0.2c0.4,0,0.8-0.3,1-1l0.3-0.6l-2.3-5.2h1.3l1.5,3.9l1.4-3.9h1.3
			l-2.3,5.5c-0.5,1.4-1.2,2.1-2.1,2C85.8,118.1,85.4,118,85.1,117.8z"/>
		<path class="st0" d="M90.6,115v-0.9c0.7,0.8,1.5,1.3,2.4,1.3c0.8,0,1.2-0.3,1.2-0.8s-0.4-0.8-1.2-0.9c-1.5-0.3-2.3-0.8-2.3-1.7
			c0.1-1,0.8-1.4,2.2-1.5c1.3,0,2.1,0.6,2.3,1.6h-1.1c-0.1-0.5-0.5-0.8-1.1-0.8c-0.7,0-1,0.2-1,0.7s0.4,0.8,1.4,0.9
			c1.4,0.2,2.1,0.8,2.2,1.7c0,1-0.8,1.5-2.4,1.5C92.1,116,91.3,115.7,90.6,115z"/>
		<path class="st0" d="M101.3,113.6h-4.2c0.1,1.1,0.8,1.7,1.9,1.7c0.9,0,1.6-0.4,2.2-1.1v0.9c-0.5,0.6-1.4,1-2.5,1
			c-1.9-0.1-2.9-1-2.9-2.7c0-1.9,1-2.8,2.7-2.9C100.4,110.4,101.3,111.5,101.3,113.6z M97.1,112.8h3c0-1-0.6-1.5-1.5-1.6
			C97.7,111.3,97.2,111.8,97.1,112.8z"/>
		<path class="st0" d="M101.8,115v-0.9c0.7,0.8,1.5,1.3,2.4,1.3c0.8,0,1.2-0.3,1.2-0.8s-0.4-0.8-1.2-0.9c-1.5-0.3-2.3-0.8-2.3-1.7
			c0.1-1,0.8-1.4,2.2-1.5c1.3,0,2.1,0.6,2.3,1.6h-1.1c-0.1-0.5-0.5-0.8-1.1-0.8c-0.7,0-1,0.2-1,0.7s0.4,0.8,1.4,0.9
			c1.4,0.2,2.1,0.8,2.2,1.7c0,1-0.8,1.5-2.4,1.5C103.3,116,102.5,115.7,101.8,115z"/>
		<path class="st0" d="M112.2,112.5h1.3c0-0.9-0.4-1.4-1.4-1.3c-0.8,0-1.3,0.3-1.6,1h-0.9c0.3-1.2,1.1-1.8,2.5-1.8
			c1.5,0,2.2,0.6,2.2,1.9v3.7h-2.4c-1.5,0-2.3-0.6-2.3-1.6C109.6,113.1,110.5,112.5,112.2,112.5z M113.5,115.3v-2h-1.4
			c-1,0-1.6,0.3-1.6,1c0,0.6,0.5,1,1.4,1H113.5z"/>
		<path class="st0" d="M114.9,115v-0.9c0.7,0.8,1.5,1.3,2.4,1.3c0.8,0,1.2-0.3,1.2-0.8s-0.4-0.8-1.2-0.9c-1.5-0.3-2.3-0.8-2.3-1.7
			c0.1-1,0.8-1.4,2.2-1.5c1.3,0,2.1,0.6,2.3,1.6h-1.1c-0.1-0.5-0.5-0.8-1.1-0.8c-0.7,0-1,0.2-1,0.7s0.4,0.8,1.4,0.9
			c1.4,0.2,2.1,0.8,2.2,1.7c0,1-0.8,1.5-2.4,1.5C116.4,116,115.6,115.7,114.9,115z"/>
		<path class="st0" d="M125.3,112.5h1.3c0-0.9-0.4-1.4-1.4-1.3c-0.8,0-1.3,0.3-1.6,1h-0.9c0.3-1.2,1.1-1.8,2.5-1.8
			c1.5,0,2.2,0.6,2.2,1.9v3.7H125c-1.5,0-2.3-0.6-2.3-1.6C122.7,113.1,123.6,112.5,125.3,112.5z M126.6,115.3v-2h-1.4
			c-1,0-1.6,0.3-1.6,1c0,0.6,0.5,1,1.4,1H126.6z"/>
		<path class="st0" d="M130.7,114.5v-1c0.8,1.2,1.8,1.8,3,1.8s1.8-0.5,1.8-1.4c0-0.7-0.6-1.2-1.8-1.4c-2-0.3-2.9-1-2.9-2.2
			c0-1.3,1-2,2.7-2s2.7,0.7,3,2.2h-1.2c-0.3-1-0.9-1.4-1.8-1.4c-1,0-1.5,0.4-1.5,1.2c0,0.7,0.5,1.1,1.7,1.3c2,0.3,3,1.1,3,2.3
			c0,1.4-1,2.2-2.9,2.2C132.5,116,131.4,115.5,130.7,114.5z"/>
		<path class="st0" d="M142.8,113.6h-4.2c0.1,1.1,0.8,1.7,1.9,1.7c0.9,0,1.6-0.4,2.2-1.1v0.9c-0.5,0.6-1.4,1-2.5,1
			c-1.9-0.1-2.9-1-2.9-2.7c0-1.9,1-2.8,2.7-2.9C141.9,110.4,142.8,111.5,142.8,113.6z M138.5,112.8h3c0-1-0.6-1.5-1.5-1.6
			C139.2,111.3,138.7,111.8,138.5,112.8z"/>
		<path class="st0" d="M143.5,116v-3.7c0-1.2,0.6-1.8,1.8-1.8h1.7v0.8h-1.4c-0.6,0-1,0.3-1,0.9v3.8L143.5,116L143.5,116z"/>
		<path class="st0" d="M149,115.9l-2.1-5.3h1.3l1.5,4.3l1.5-4.3h1.3l-2.1,5.3H149z"/>
		<path class="st0" d="M152.8,109.5v-1.1h1.2v1.1H152.8z M152.8,115.9v-5.3h1.2v5.3H152.8z"/>
		<path class="st0" d="M160,112.3h-1.2c-0.2-0.7-0.7-1-1.4-1c-1,0.1-1.4,0.8-1.5,2.1c0,1.3,0.6,2,1.9,2c0.8,0,1.5-0.4,2.2-1.3v1
			c-0.5,0.7-1.4,1-2.5,1c-1.8-0.1-2.7-1-2.8-2.7c0.1-1.8,1-2.8,2.7-2.9C158.8,110.5,159.7,111.1,160,112.3z"/>
		<path class="st0" d="M165.9,113.6h-4.2c0.1,1.1,0.8,1.7,1.9,1.7c0.9,0,1.6-0.4,2.2-1.1v0.9c-0.5,0.6-1.4,1-2.5,1
			c-1.9-0.1-2.9-1-2.9-2.7c0-1.9,1-2.8,2.7-2.9C165.1,110.4,166,111.5,165.9,113.6z M161.7,112.8h3c0-1-0.6-1.5-1.5-1.6
			C162.4,111.3,161.9,111.8,161.7,112.8z"/>
	</g>
	<path class="st0" d="M124.6,87.7v-2.2h19.1v2.3h-7.8v8.5h8.7v2.4h-8.7v7h-3.7v-7h-8.8v-2.4h8.8v-8.5L124.6,87.7L124.6,87.7z
		 M127.2,94.5c-0.8-1.5-1.4-3.2-1.7-5h3.5c0.3,1.8,0.7,3.5,1.4,5H127.2z M138,94.5c0.8-1.8,1.2-3.5,1.4-5h3.5
		c-0.4,1.9-0.9,3.6-1.8,5H138z"/>
	<g>
		<path class="st0" d="M148.4,105.4H162c2.4,0.1,3.4-1,3.4-3.3v-6.2h-17V105.4z M151.7,98.4h10.1v3.6c0.1,0.9-0.4,1.4-1.3,1.3h-8.9
			L151.7,98.4L151.7,98.4z"/>
		<path class="st0" d="M166.1,92.1c-0.1-0.2-0.2-0.4-0.2-0.6c-0.5-1.2-1.1-2.4-1.8-3.5h-3.4c0.6,0.9,1.6,3.1,1.8,3.5h-10.7
			c2.3-2,3.1-3.4,4.6-5.7h-3.9c-1.2,2-2.4,3.3-4.4,5c-0.5,0.4-0.7,0.9-0.7,1.5V93c0,0.6,0.5,1.1,1.1,1.1h14.9h1.2
			C165.8,94.2,166.5,93.1,166.1,92.1z"/>
	</g>
	<g>
		<path class="st0" d="M7.1,105.7V87.5h5.3c0.2-0.5,0.4-1.2,0.5-2h4.6c-0.2,0.8-0.4,1.4-0.5,2h8v14.4c0.1,2.6-1.1,3.9-3.6,3.8
			L7.1,105.7L7.1,105.7z M21,90.2h-9.8v2.4H21V90.2z M11.2,95.3v2.6H21v-2.6H11.2z M19.7,103.2c0.9,0,1.3-0.5,1.3-1.4v-1.4h-9.8v2.7
			L19.7,103.2L19.7,103.2z"/>
		<path class="st0" d="M30,94.4v-2.7h18.7v2.7h-6.9v2.4h6.3v2.6h-6.3v3.6h7.9v2.5h-9.2c-3.2,0.1-5.6-0.8-7.2-2.5
			c-1,1.1-2.4,1.7-4.4,2.6v-2.4c1.8-1.8,2.7-4.1,2.7-7.6h3.9c-0.1,1.6-0.3,3-0.6,4.3c0.7,1.1,1.7,2,2.8,2.5v-8H30z M49.2,86.7V91
			h-3.8v-1.6H33.2V91h-3.9v-4.3H37v-1.2h4.7v1.2H49.2z"/>
		<path class="st0" d="M57.8,86.6c1.2,4.7,2.8,8.1,4.7,10.2c1.9-2.1,3.5-5.5,4.7-10.2h4.3c-1.5,5.8-3.7,10-6.4,12.6
			c1.8,1.4,4.4,2.7,7.9,3.9v2.5c-4.8-1.4-8.3-2.9-10.4-4.3c-2.1,1.4-5.5,2.9-10.4,4.3v-2.5c3.5-1.1,6.1-2.4,7.9-3.9
			c-2.8-2.6-4.9-6.8-6.4-12.6H57.8z M63.3,85.5c0.6,1.6,1,3,1.4,4.6h-3.8c-0.1-1.3-0.4-2.7-1-4.6H63.3z"/>
		<path class="st0" d="M96.1,95.7c-0.4-0.2-1-0.4-1.8-0.7c-0.5-0.2-0.9-0.4-1.2-0.5v7.8c0.1,2.3-1.1,3.4-3.6,3.4H86v-2.5h1.8
			c0.8,0.1,1.1-0.3,1.1-1.2v-5.7h-4c-0.2,5-3.2,7.9-9.1,9.5v-2.3c3.4-1.8,5.1-3.9,5.1-7.2h-2.4v-1.9c-0.9,0.5-2,1-3.3,1.4v-2.5
			c3-1.6,4.8-4.2,5.4-7.6h4.2c-0.9,3.8-2.6,6.4-5.1,7.9h11.8c-2.5-1.4-4.2-4.1-5.1-7.9h4.2c0.7,3.4,2.5,6,5.4,7.6L96.1,95.7
			L96.1,95.7z"/>
		<path class="st0" d="M98.5,90.5v-2.6h2.2v-2.4h3.7v2.4h1.9v2.6h-1.9v0.1c0.3,1.6,0.9,2.7,1.8,4.2v3.7c-0.7-0.7-1.3-1.5-1.8-2.4
			v9.4h-3.7v-8.1c-0.8,1.5-1.6,2.8-2.5,3.8v-4c1.1-2.4,1.9-4.4,2.4-6.8L98.5,90.5L98.5,90.5z M116.7,105.6H113V94h-2.2v4.6
			c0.2,3.3-1.5,5.7-5,7.1v-2.4c0.8-0.8,1.1-2.1,1.1-3.8V86.3h7.6c1.4,0.1,2.9-0.2,4.4-0.8v2.7c-1.3,0.4-2.6,0.6-3.9,0.6h-4.3v2.7
			h8.6V94h-2.7L116.7,105.6L116.7,105.6z"/>
	</g>
</g>
<g>
	<g>
		<g>
			<path class="st0" d="M86.8,79.5c-1.3,0-2.5-0.5-3.7-1.1c-1.3-0.6-2.5-1.2-3.8-1.8c-1.1-0.5-2.2-1-3.3-1.6
				c-1.2-0.5-2.3-1.1-3.5-1.6c-1.9-0.8-3.8-1.6-5.8-2.2c-1.3-0.4-2.7-0.8-4-1.2c-1.6-0.4-3.1-1.1-4.5-2c-0.3-0.2-0.5-0.4-0.7-0.5
				c-0.5-0.3-0.6-0.6-0.4-1.2c0.4-1.2,0.8-2.5,1.2-3.7c0.1-0.2,0.1-0.4,0.3-0.1c0.8,0.8,1.9,1.3,2.9,1.8c1.2,0.6,2.5,1.1,3.7,1.5
				c1.3,0.4,2.6,0.9,3.9,1.3c1.5,0.4,3,1,4.4,1.6c1.3,0.6,2.7,1.1,4,1.7c1.7,0.7,3.3,1.4,4.9,2.2c1.6,0.8,3.2,1.3,5,1.4
				c1.4,0.1,2.8-0.3,4-0.8c2.1-0.9,4.2-2,6.3-3c3-1.4,6.1-2.8,9.2-3.8c1.9-0.6,3.7-1.2,5.5-2c1.2-0.6,2.3-1.2,3.4-2
				c0.4-0.3,0.4,0,0.4,0.2c0.2,1.1,0.4,2.1,0.7,3.2c0.3,1-0.4,1.5-1,2c-0.8,0.6-1.7,1-2.7,1.4c-2.1,0.9-4.2,1.4-6.3,2.2
				c-1.5,0.6-3,1.3-4.5,2c-1.6,0.7-3.2,1.4-4.7,2.2c-1.6,0.8-3.1,1.6-4.7,2.4c-1.5,0.7-3,1.3-4.7,1.7C87.9,79.5,87.3,79.5,86.8,79.5
				z"/>
			<path class="st0" d="M79.6,54.7c1,0.1,1.8,0.5,2.6,1c0.9,0.8,1.9,1.5,3,2.1c1.1,0.6,2.2,0.8,3.5,0.6c1.2-0.2,2.3-0.5,3.3-1
				c0.8-0.5,1.6-1.1,2.3-1.7c0.7-0.6,1.6-1,2.5-0.9c0.9,0.1,1.8,1.3,1.4,2c-0.3,0.5-0.7,0.9-1.1,1.2c-1,0.7-2,1.2-3.2,1.5
				c-0.7,0.1-1.4,0.3-2,0.5c-0.5,0.1-0.7,0.6-0.8,1.1c-0.3,1.3-0.3,2.6,0.2,3.8c0.1,0.3,0.3,0.6,0.2,0.8c-0.1,0.3-0.5,0-0.8,0
				c-1.4-0.1-2.7-0.1-4.1-0.1c-0.6,0-1.2,0.1-1.8,0.3c-0.4,0.1-0.5,0-0.4-0.3c0.2-0.8,0.5-1.6,0.6-2.5c0.2-1.1,0.1-2.1-0.5-3.1
				c-0.1-0.1-0.1-0.2-0.3-0.2c-1.8,0.2-3.2-0.6-4.7-1.4c-0.6-0.3-1.2-0.7-1.6-1.3c-0.5-0.8-0.2-1.8,0.7-2.1
				C78.9,54.8,79.3,54.7,79.6,54.7z"/>
			<path class="st0" d="M49,60.6c1.5-0.4,2.9-0.9,4.2-1.2c0.4-0.1,0.4-0.3,0.2-0.6c-0.6-1.2-1.3-2.3-1.9-3.5
				c0.8,0.1,1.5,0.4,2.2,0.6c2.5,0.7,5,1.5,7.5,2.3c1.1,0.3,2.1,0.8,2.8,1.8c-0.2,0.1-0.5-0.1-0.8-0.1c-1.5,0-2.9-0.1-4.4,0.1
				c-0.4,0.1-0.6,0.2-0.7,0.6c-0.2,0.9-0.6,1.8-0.8,2.7c-0.1,0.5-0.3,0.5-0.7,0.4c-1.7-0.5-3.4-1.1-5-1.9C50.8,61.4,49.9,61,49,60.6
				z"/>
			<path class="st0" d="M87.6,73.3c-1.4,0.1-2.8-0.4-4.1-1.1c-2.7-1.2-5.3-2.5-8-3.6c-1.7-0.7-3.5-1.4-5.2-2.1
				c-1.6-0.5-3.2-0.9-4.8-1.4c-2.2-0.8-4.3-1.6-6.2-2.8c-0.7-0.4-0.8-0.7-0.5-1.1c0.1-0.1,0.1-0.3,0.3-0.1c0.7,0.9,1.8,1.2,2.7,1.7
				c1.4,0.7,2.9,1.2,4.4,1.7c1.8,0.6,3.7,1.1,5.5,1.7c2.2,0.8,4.4,1.6,6.5,2.6c1.9,0.9,3.8,1.8,5.8,2.7c1,0.5,2.1,0.6,3.2,0.8
				c1.6,0.3,3.1-0.2,4.5-0.8c3.1-1.5,6.3-2.9,9.4-4.3c1.8-0.8,3.7-1.3,5.5-2c2.2-0.9,4.4-1.7,6.5-2.7c0.9-0.4,1.9-0.8,2.5-1.6
				c0.1-0.1,0.2-0.3,0.3,0c0.1,0.2,0.4,0.5,0.1,0.7c-0.4,0.3-0.8,0.5-1.2,0.7c-3,1.6-6.1,2.9-9.2,4.1c-2.5,0.9-4.8,2-7.2,3
				c-2.3,1-4.6,2-6.9,3.1C90.2,73,89,73.4,87.6,73.3z"/>
			<path class="st0" d="M111.8,59.5c0.1-0.6,0.4-0.9,1-1.1c2.5-0.8,5-1.7,7.6-2.6c0.7-0.2,1.4-0.5,2.3-0.7c-0.6,1.1-1.1,2.2-1.7,3.2
				c-0.4,0.7-0.4,0.8,0.4,1c1,0.3,1.9,0.6,2.9,0.9c0.1,0,0.1,0,0.2,0.2c-0.8,0.4-1.6,1-2.4,1.3c-1.3,0.6-2.6,1.1-3.9,1.4
				c-0.4,0.1-0.6,0.1-0.6-0.4c0-0.8-0.2-1.5-0.4-2.3c-0.2-0.7-0.5-0.9-1.3-1C114.4,59.3,113.1,59.3,111.8,59.5z"/>
			<path class="st0" d="M64.2,50.3c0,1,0.6,1.8,1.1,2.6c0.3,0.4,0.6,0.6,0.6,1.1c0,0.6,0.4,1,0.6,1.6c-0.8-0.5-1.4-1.2-2.1-1.9
				c-1-1-1.8-2-2.3-3.4c-0.4-1.1-0.6-2.2-0.8-3.3c-0.1-0.6-0.1-1.3-0.2-1.9c0-0.3,0-0.5,0.4-0.3c1.2,0.5,2.2,1.3,3.2,2.1
				c0.9,0.7,1.6,1.5,2.4,2.3c1,1.1,1.8,2.4,2.3,3.9c0.1,0.3,0.1,0.4-0.3,0.3c-0.9-0.1-1.8-0.2-2.7-0.3c-0.2,0-0.3-0.1-0.4-0.3
				c-0.4-0.9-1-1.7-1.7-2.4C64.3,50.3,64.2,50.3,64.2,50.3z"/>
			<path class="st0" d="M87.9,80.6c-2.1,0-3.9-0.6-5.5-1.4c-1.8-0.9-3.5-1.7-5.3-2.6c-3-1.6-6.2-2.8-9.4-4.1c-2-0.8-4-1.5-6.1-2
				c-1.5-0.4-3-0.8-4.3-1.7c-0.3-0.2-0.5-0.5-0.7-0.7c-0.1-0.2,0-0.3,0.1-0.5c0.1-0.1,0.2,0,0.3,0.1c0.7,0.8,1.6,1.2,2.5,1.6
				c2.7,1.2,5.6,1.8,8.4,2.7c1.6,0.5,3.3,1.1,4.8,1.8c1.1,0.5,2.3,0.9,3.4,1.5c1.3,0.7,2.6,1.2,3.9,1.9c0.8,0.4,1.6,0.8,2.5,1.2
				c0.7,0.3,1.3,0.7,2,0.9c2.1,0.8,4.2,0.8,6.2-0.1c1.9-0.9,3.8-1.8,5.7-2.8c2.4-1.2,4.8-2.4,7.3-3.4c1.9-0.8,3.8-1.6,5.8-2.2
				c1.2-0.4,2.4-0.7,3.5-1.2c1.5-0.6,2.9-1.3,4.1-2.4c0.1-0.1,0.1-0.2,0.2-0.1c0.2,0.1,0.1,0.3,0,0.5c-0.3,0.5-0.8,0.9-1.3,1.2
				c-1.5,0.9-3.2,1.3-4.8,1.9c-2.6,0.8-5,1.9-7.5,2.9c-1,0.4-2.1,0.9-3.1,1.4c-1.5,0.8-3,1.6-4.5,2.4c-1.2,0.6-2.4,1.2-3.6,1.8
				c-0.8,0.4-1.6,0.8-2.5,1.1C89.3,80.4,88.5,80.5,87.9,80.6z"/>
			<path class="st0" d="M62.7,45.1c-0.6-0.4-1.3-0.7-1.6-1.5c-0.3-0.8-0.8-1.6-1.4-2.2c-0.1-0.2-0.3-0.3-0.5-0.5
				c-0.1,1,0.3,1.7,0.7,2.4c0.2,0.3,0.3,0.6,0.6,0.8c0.3,0.3,0.2,0.7,0.3,1.1c0.1,0.6,0.1,1.1,0.2,1.8c-0.8-0.5-1.3-1.1-1.7-1.8
				c-1.2-1.8-1.7-3.8-2-5.8c-0.2-1.6-0.1-3.2-0.1-4.9c1,1,1.9,2,2.8,2.9c1.1,1.1,1.9,2.5,2.7,3.8c0.1,0.2,0.1,0.4,0.1,0.6
				C62.5,42.9,62.8,44,62.7,45.1z"/>
			<path class="st0" d="M48.9,53.2c4.7,1.4,9.3,2.7,14.1,4.1c-0.2,0.1-0.3,0.2-0.4,0.2c-0.6,0-0.5,0.3-0.2,0.7
				c-0.7,0-1.3-0.3-1.9-0.5c-2.4-0.7-4.8-1.4-7.1-2.2c-0.7-0.2-1.4-0.4-2.1-0.7c-0.1,0-0.2-0.1-0.3,0c-0.1,0.1,0,0.2,0.1,0.3
				c0.7,1.2,1.3,2.4,2,3.6c0.2,0.3,0.1,0.4-0.2,0.5c-1.4,0.4-2.8,0.7-4.2,1.1c-0.1,0-0.3,0.1-0.3,0.2c0.6,0.5,1.3,0.8,2,1.1
				c2.1,0.9,4.2,1.6,6.4,2.3c0.2,0.1,0.2,0.2,0.1,0.3c-0.1,0.2-0.1,0.6-0.5,0.5c-0.9-0.3-1.8-0.6-2.7-0.9c-1.1-0.4-2.2-0.9-3.3-1.4
				c-1.4-0.6-2.7-1.3-3.9-2.2c-0.1-0.1-0.3-0.2-0.3-0.3c0-0.2,0.2-0.1,0.4-0.2c1.5-0.5,2.9-1,4.4-1.5c0.4-0.1,0.5-0.3,0.2-0.7
				c-0.9-1.3-1.6-2.7-2.4-4.1C48.9,53.3,48.9,53.3,48.9,53.2z"/>
			<path class="st0" d="M79.7,63.1c-0.8,0-1.4,0.2-2,0.1c-0.3,0-0.6,0-0.8,0.1c-0.1,0-0.3,0-0.3,0.1c0,0.2,0.1,0.2,0.2,0.2
				c0.9,0.2,1.7,0.5,2.6,0.3c0,0,0.1,0,0.2,0c-0.7,0.6-1.4,0.8-2.1,1.2c-1.1,0.5-2.1,0.3-3.2-0.1c-1.2-0.5-2.5-1-3.7-1.6
				c-0.4-0.2-0.7-0.4-1.1-0.6c-0.3-0.1-0.2-0.3,0-0.4c0.9-0.5,1.8-0.9,2.8-1.2c1.4-0.3,2.8-0.5,4.2-0.6c0.7,0,1.1,0.3,1.5,0.9
				C78.4,62.2,79,62.6,79.7,63.1z"/>
			<path class="st0" d="M108.8,55.5c0.3-0.6,0.5-1.1,0.6-1.8c0.1-0.5,0.5-0.7,0.7-1.1c0.5-0.7,0.9-1.4,1-2.3c-0.5,0.3-0.8,0.7-1,1.1
				c-0.3,0.4-0.6,0.8-0.8,1.3c-0.1,0.3-0.3,0.4-0.6,0.5c-0.5,0.1-1,0.2-1.7,0.3c0.4-0.5,0.7-0.9,1-1.3c0.7-1,1.3-2,1.4-3.2
				c0-0.5,0.5-0.8,0.7-1.1c0.6-0.7,1.3-1.4,2-2c0.5-0.3,1-0.6,1.6-0.8c0.3-0.1,0.3,0,0.3,0.2c0,0.8-0.1,1.6-0.3,2.4
				c-0.2,1.1-0.5,2.2-0.9,3.3c-0.4,1.1-1.1,1.9-1.9,2.6c-0.6,0.6-1.2,1.2-1.9,1.7C109.2,55.4,109.1,55.5,108.8,55.5z"/>
			<path class="st0" d="M118.2,35.6c0.2,1.8,0.1,3.4-0.2,5c-0.2,1.4-0.6,2.6-1.3,3.9c-0.5,1-1.1,1.8-2,2.5c-0.1,0.1-0.2,0.2-0.3,0.1
				c-0.1-0.1,0-0.2,0-0.3c0-0.9,0.4-1.6,0.8-2.4c0.4-0.8,0.7-1.7,0.8-2.5c0-0.2,0-0.4,0-0.6c-0.7,0.5-1,1.1-1.3,1.8
				c-0.1,0.3-0.2,0.7-0.3,1c0,0.2-0.1,0.3-0.3,0.4c-0.5,0.3-1,0.5-1.5,0.8c0-0.9,0.3-1.6,0.3-2.4c0.2-2,1.4-3.4,2.7-4.8
				C116.4,37.3,117.3,36.5,118.2,35.6z"/>
			<path class="st0" d="M95.9,64c1,0,1.8,0.1,2.7-0.3c0.1-0.1,0.3,0,0.3-0.2c0-0.2-0.2-0.2-0.4-0.2c-0.9-0.2-1.8,0-2.7-0.1
				c0.1-0.3,0.4-0.3,0.5-0.4c0.6-0.5,1.1-1,1.6-1.6c0.2-0.3,0.5-0.4,0.8-0.4c1.5-0.1,2.9,0.3,4.4,0.5c1,0.2,1.9,0.4,2.8,0.9
				c0.1,0.1,0.3,0.1,0.4,0.3c0,0.2-0.2,0.2-0.3,0.2c-1.9,1.2-4,2-6,2.8c-0.3,0.1-0.7,0.1-1-0.1C97.9,65,96.9,64.7,95.9,64z"/>
			<path class="st0" d="M125.3,52.9c-0.6,1.2-1.3,2.2-1.9,3.2c-0.3,0.5-0.6,0.9-0.9,1.4c-0.2,0.3-0.2,0.5,0.3,0.6
				c1.1,0.3,2.2,0.7,3.3,1.1c0.3,0.1,0.5,0.2,0.8,0.2c-0.3,0.6-0.9,1-1.4,1.3c-1.5,1-3.2,1.8-4.9,2.4c-1,0.3-1.9,0.6-2.9,1
				c-0.2,0.1-0.3,0.1-0.4-0.1c0-0.2-0.2-0.4,0.2-0.5c0.7-0.2,1.5-0.5,2.2-0.7c1.9-0.6,3.6-1.5,5.3-2.5c0.1-0.1,0.2-0.1,0.2-0.2
				c0-0.1-0.1-0.1-0.2-0.1c-1.2-0.4-2.3-0.8-3.5-1.2c-0.3-0.1-0.4-0.2-0.2-0.5c0.5-1,1.1-2,1.6-3c0.1-0.2,0.3-0.5,0.4-0.8
				c-3.5,0.6-6.7,1.9-10,3.1c0.2-0.5-0.1-0.6-0.5-0.7C116.8,55.4,120.9,53.8,125.3,52.9z"/>
			<path class="st0" d="M56.8,34.3c-0.2-0.7-0.5-1.5-1-2.1c0,1,0.2,1.9,0.6,2.8c-1-0.7-1.7-1.6-2.4-2.5c-0.2-0.3-0.2-0.6-0.2-0.9
				c-0.2-1.6-0.2-3.1,0.1-4.7c0.3-1.4,0.7-2.7,1.3-3.9c0.1-0.1,0.1-0.2,0.2-0.4c0.2,1.6,0.7,3,1.3,4.3c0.1,0.2,0.1,0.3,0.2,0.4
				c0.6,0.5,0.4,1.1,0.2,1.7c-0.5,1.4-0.4,2.8-0.3,4.2C56.8,33.7,56.8,34,56.8,34.3z"/>
			<path class="st0" d="M59.7,17c-0.1,1.2-0.1,2.2,0.1,3.3c0.2,0.8,0.3,1.6-0.1,2.4c-0.4,0.8-0.3,1.7-0.5,2.6
				c-0.2,0.8-0.8,1.3-1.3,1.9c-0.1-1,0-1.9-0.4-2.9c-0.5,1.1-0.2,2.2-0.2,3.2c-0.2-0.6-0.5-1.1-0.7-1.7c-0.3-0.9-0.6-1.8-0.9-2.7
				c0-0.1-0.1-0.2,0-0.3c0.4-1.3,1-2.6,1.8-3.7c0.5-0.7,1.1-1.3,1.8-1.8C59.5,17.2,59.6,17.1,59.7,17z"/>
			<path class="st0" d="M65.9,47.4c-0.2-0.1-0.3-0.2-0.4-0.3c-0.4-0.4-0.8-0.7-0.7-1.5c0.2-0.7,0.1-1.5-0.2-2.3
				c-0.3,0.5-0.3,1.1-0.3,1.6c0,0.3,0.1,0.7-0.1,1c-0.3-0.2-0.5-0.4-0.8-0.5c-0.2-0.1-0.2-0.2-0.2-0.4c-0.1-1,0-2.1-0.1-3.1
				c-0.2-1.5,0.5-2.6,1.4-3.7c0.3-0.3,0.4-0.3,0.7,0c1.1,1.4,1.8,3,2.1,4.7c0.1,0.3,0.1,0.6,0.1,0.9c0,0.6,0,1.2-0.6,1.6
				C66,46,66.1,46.7,65.9,47.4z"/>
			<path class="st0" d="M74.8,57.6c0.2,1,0.9,1.9,1.4,2.8c-0.8,0.2-1-0.5-1.4-0.9c-1.1-1.5-2.1-3-3.3-4.4c-0.7-0.9-0.8-1.7-0.6-2.8
				c0.1-0.7,0-1.4,0.1-2c0-0.1,0-0.2,0.1-0.4c2.2,1.6,3.8,3.7,5.1,6.1c-0.6-0.1-0.6,0.2-0.7,0.7c0,0.9,0.2,1.6,0.4,2.5
				c-0.4-0.5-0.7-1.1-1.1-1.6C74.9,57.5,74.8,57.6,74.8,57.6z"/>
			<path class="st0" d="M58.5,35.3c-0.6-0.4-0.9-1-1.4-1.5C57,33.8,57,33.7,57,33.6c-0.1-1.6,0-3.2,0.5-4.7c0.3-0.9,0.8-1.7,1.5-2.4
				c0.2-0.2,0.4-0.1,0.5,0.1c0.5,0.7,1,1.4,0.9,2.5c-0.2,1.5-0.1,3.1,0.6,4.6c0.3,0.6,0,1.1-0.2,1.7c-0.1,0.5-0.4,1-0.5,1.4
				C60.1,37,60,37,59.9,36.8c-0.2-0.3-0.5-0.5-0.7-0.8c-0.2-0.3,0-0.5,0.1-0.8c0.2-0.9-0.1-1.8-0.4-2.7c0-0.1,0-0.1-0.1-0.1
				c-0.1,0-0.1,0.1-0.2,0.2c-0.3,0.8-0.4,1.7-0.1,2.6C58.5,35.2,58.4,35.2,58.5,35.3z"/>
			<path class="st0" d="M75.1,60.3c-0.5,0.2-0.8,0.1-1.2-0.3c-0.8-0.8-1.6-1.5-2.6-2.1c-0.1-0.1-0.3-0.3-0.5-0.2
				c-0.1,0.1,0.1,0.3,0.2,0.5c0.6,0.9,1.6,1.4,2.4,2c-0.9,0.2-1.4,0.1-2.3-0.6C70,58.8,69,58.1,68,57.1c-1-0.9-1.5-2.1-1.7-3.4
				c-0.1-0.2,0.1-0.3,0.3-0.3c1.2,0.2,2.4,0.3,3.5,0.6c0.7,0.2,0.9,0.7,1.3,1.2c1.1,1.6,2.3,3.2,3.5,4.7
				C74.9,60.1,75.1,60.1,75.1,60.3z"/>
			<path class="st0" d="M99.3,60.3c0.5-1,1.2-1.8,1.4-2.9c-0.5,0.5-0.8,1.2-1.3,1.8c0.1-0.5,0.2-0.9,0.3-1.2
				c0.2-0.5,0.2-0.9,0.2-1.4c0-0.4,0.1-0.8-0.6-0.5c1.3-2.5,2.8-4.5,5-6.1c0.3,0.7,0.1,1.5,0.3,2.1c0.1,0.5,0,1.1,0.1,1.6
				c0.1,0.2-0.2,0.5-0.3,0.7c-1,1.5-2.1,3-3.3,4.5c-0.3,0.3-0.5,0.7-0.8,1C100,60.3,99.7,60.4,99.3,60.3z"/>
			<path class="st0" d="M102,60.3c0.5-0.4,1-0.7,1.5-1.1c0.4-0.3,0.7-0.7,1-1.1c0.1-0.1,0.1-0.2,0.1-0.3c-0.1-0.1-0.2,0-0.3,0
				c-1,0.6-1.9,1.4-2.7,2.2c-0.4,0.3-0.7,0.4-1.2,0.3c0.4-0.4,0.8-0.9,1.1-1.3c1.1-1.3,2.1-2.7,3-4.1c0.3-0.4,0.6-0.6,1-0.7
				c1.1-0.3,2.2-0.4,3.2-0.5c0.6-0.1,0.4,0.3,0.3,0.6c-0.3,1.4-1.1,2.6-2.2,3.5c-1,0.8-2.1,1.6-3.2,2.4
				C103.1,60.4,102.6,60.3,102,60.3z"/>
			<path class="st0" d="M57.5,50c1.1,0.4,2,1,3,1.2c0.5,0.1,1,0.2,1.5,0.3c0.2,0,0.3,0.1,0.3,0.2c1,1.7,2.3,3.1,3.9,4.4
				c0.3,0.2,0.6,0.5,0.9,0.8c-1-0.6-2-1.3-3.3-1.5c0.5,0.8,1.2,1.1,1.9,1.6c-0.8,0-1.6,0.2-2.4-0.1c-1.2-0.5-2.3-1-3.1-2
				c-0.6-0.7-1-1.6-1.5-2.4C58.3,51.7,58,50.9,57.5,50z"/>
			<path class="st0" d="M61.4,49.4c-0.8-0.4-1.5-1-2.4-1c0.6,0.9,1.4,1.5,2.3,1.9c0.4,0.2,0.6,0.4,0.7,0.8c-0.3,0.1-0.6-0.1-0.9-0.1
				c-0.6-0.1-1.1-0.3-1.6-0.4c-0.9-0.2-1.5-0.8-2.1-1.5c-1.2-1.6-1.9-3.3-2-5.3c0,0,0,0,0-0.1c-0.1-0.3-0.3-0.8,0-0.9
				c0.3-0.2,0.6,0.2,1,0.3c0,0,0.1,0.1,0.1,0.1c1,0.4,1.7,0.9,2.2,1.9c0.5,0.9,1.1,1.7,2,2.3c0.2,0.2,0.4,0.4,0.5,0.7
				C61.1,48.5,61.3,48.9,61.4,49.4z"/>
			<path class="st0" d="M108.4,44.7c0.1-1.6,0.6-3,1.4-4.4c0.3-0.5,0.7-1,1.1-1.5c0.1-0.1,0.3-0.3,0.5-0.1c0.6,0.8,1.2,1.6,1.4,2.6
				c0.1,0.5,0,0.9-0.1,1.4c-0.1,0.8-0.3,1.6-0.4,2.3c-0.1,0.3-0.8,1.1-1.1,1.1c-0.2,0-0.1-0.2-0.1-0.3c0-0.7,0-1.3-0.2-2
				c0-0.1,0-0.3-0.2-0.2c-0.1,0-0.1,0.1-0.1,0.2c-0.2,0.8-0.3,1.6,0,2.4c0,0.1,0,0.3-0.1,0.4c-0.3,0.3-0.6,0.6-0.9,0.8
				c-0.2,0.2-0.3,0.2-0.3-0.1c-0.1-0.7-0.2-1.3-0.7-1.9C108.4,45.2,108.4,44.9,108.4,44.7z"/>
			<path class="st0" d="M76.1,56.3c0.5,0.2,0.9,0.5,1.2,0.8c0.3,0.4,0.7,0.7,1.1,1.1c0.6,0.6,1.5,0.9,2.3,1.2
				c1.2,0.5,2.4,1.1,3.4,2.1c0.2,0.2,0.3,0.4,0.4,0.7c0.1,0.2,0,0.6-0.2,0.7c-0.3,0.2-0.7,0-0.9-0.2c-0.6-0.7-1.5-1-2.3-1.4
				c-0.1-0.1-0.3-0.2-0.4,0c-0.1,0.2,0,0.3,0.2,0.4c0.6,0.6,1.3,1,2.2,1.5c-0.8,0.5-1.6,0.5-2.3,0.1c-1.7-0.8-3-2.1-4-3.7
				C76.1,58.5,76,57.4,76.1,56.3z"/>
			<path class="st0" d="M120.7,24.9c0.5,0.8,0.7,1.6,0.9,2.5c0.2,0.8,0.3,1.7,0.3,2.5c0,1.1-0.1,2.3-0.4,3.4c-0.1,0.4-0.5,0.6-0.7,1
				c-0.5,0.6-1.1,1.3-1.7,1.9c0.6-1.2,1.1-2.4,1-3.7c-0.7,0.9-1.1,1.8-1.5,2.8c-0.3-0.4-0.1-0.9-0.1-1.3c0.2-1.4,0.2-2.8-0.3-4.1
				c-0.1-0.2-0.1-0.3,0-0.5c0.9-1.2,1.8-2.4,2.2-3.9C120.5,25.2,120.6,25,120.7,24.9z"/>
			<path class="st0" d="M95,61c-1.1,0.3-1.9,0.7-2.7,1.4c-0.2,0.2-0.3,0.4-0.6,0.4c-0.2,0-0.4,0.1-0.5-0.1c-0.1-0.2-0.1-0.5,0-0.7
				c0.6-1,1.5-1.6,2.5-2c0.7-0.3,1.5-0.6,2.2-0.9c0.8-0.4,1.5-1,2.1-1.6c0.3-0.3,0.7-0.7,1.1-0.9c0.2-0.1,0.3-0.1,0.3,0.2
				c0.1,1.6-0.4,3-1.5,4.2c-0.8,0.8-1.7,1.6-2.7,2.2c-0.8,0.5-1.5,0.5-2.3,0.2c-0.1,0-0.2-0.1-0.2-0.2c0-0.1,0.1-0.1,0.2-0.1
				C93.6,62.4,94.5,62,95,61z"/>
			<path class="st0" d="M117.4,50.8c-0.9,1.6-1.6,3.2-2.9,4.5c-0.8,0.8-1.9,1.4-3,1.7c-0.7,0.2-1.4,0-2.2,0c0.7-0.4,1.3-0.7,1.8-1.2
				c0.1-0.1,0.2-0.1,0.2-0.3c-0.1-0.2-0.2,0-0.3,0c-0.8,0.2-1.4,0.6-2.1,1c-0.2,0.2-0.5,0.3-0.9,0.4c0.5-0.5,0.9-0.8,1.4-1.1
				c1.3-1.1,2.5-2.3,3.3-3.7c0.4-0.6,1-0.7,1.5-0.7c1-0.1,1.9-0.4,2.8-0.6C117.1,50.8,117.2,50.8,117.4,50.8z"/>
			<path class="st0" d="M110.1,14.1c1.2,0.5,2.2,1.1,3.1,1.7c1.1,0.7,2,1.6,2.9,2.7c0.5,0.6,0.6,1.1,0.5,1.8
				c-0.1,0.9-0.2,1.8-0.4,2.7c0,0.1,0,0.2-0.2,0.3c-0.5-1.4-0.8-2.8-1.9-4c-0.1,1,0.3,1.8,0.6,2.7c-0.5-0.6-1-1-1.5-1.3
				c-1-0.4-1.3-1.2-1.4-2.1C111.5,17,110.8,15.6,110.1,14.1z"/>
			<path class="st0" d="M57.9,43.4c-0.9-0.4-1.7-0.8-2.5-1.3c-0.4-0.2-0.5-0.6-0.7-1c-0.7-1.4-1.1-2.8-1.3-4.4
				c-0.1-1.2-0.1-2.3,0-3.4c0-0.2,0.1-0.3,0.2-0.6c0.9,1.2,1.9,2.1,3,3c0.2,0.2,0.2,0.3,0.2,0.5c0,1.2,0,2.4,0.2,3.6
				c0,0.2,0.1,0.4,0.1,0.6c-0.4-0.5-0.8-0.9-1.1-1.3c-0.1-0.1-0.2-0.3-0.3-0.2c-0.1,0.1-0.1,0.3,0,0.4c0.4,1,1,1.9,1.8,2.6
				C57.7,42.5,57.7,42.5,57.9,43.4z"/>
			<path class="st0" d="M116.3,48.4c-0.9,0.1-1.6,0.7-2.5,1.1c0.4-0.8,0.3-1.6,1-2.1c0.8-0.6,1.5-1.5,2-2.4c0.4-0.7,0.9-1.1,1.6-1.4
				c0.1,0,0.2-0.1,0.3-0.1c1.1-0.3,1.1-0.3,1,0.8c-0.3,2.3-1.1,4.3-2.8,5.9c-0.2,0.2-0.5,0.3-0.8,0.4c-0.8,0.2-1.6,0.4-2.4,0.6
				c-0.1,0-0.2,0.1-0.3,0c-0.1-0.1,0-0.2,0-0.3c0.1-0.2,0.2-0.4,0.5-0.5C114.8,50,115.6,49.4,116.3,48.4z"/>
			<path class="st0" d="M71.2,60.2c-0.9-0.1-1.7-0.3-2.5,0c1,0.5,1.9,0.6,3,0.9c-0.5,0.3-1,0.3-1.4,0.5c-1.3,0.6-2.4-0.1-3.6-0.6
				c-1.3-0.6-2.5-1.4-3.5-2.5c-0.2-0.2-0.3-0.5-0.6-0.8c0.8-0.1,1.5-0.3,2.2-0.3c0.7-0.1,1.4-0.1,2.1-0.1c0.4,0,0.7,0.1,1.1,0.4
				c0.9,0.8,1.9,1.7,3,2.3C70.9,60,71,60.1,71.2,60.2z"/>
			<path class="st0" d="M117.4,35.9c0.1-1.1,0-2.1-0.2-3.3c-0.4,0.4-0.4,0.9-0.5,1.4c-0.1,0.7-0.1,1.3-0.1,2c0,0.3-0.7,1.2-1,1.3
				c-0.2,0-0.2-0.1-0.3-0.2c-0.1-0.2-0.2-0.5-0.2-0.8c-0.3-1.3-0.2-2.7,0.2-4c0.2-0.7,0.3-1.4,0.3-2.2c0-1,0.6-1.8,1.1-2.6
				c0.1-0.2,0.3-0.1,0.4,0.1c0.6,0.9,1,1.8,1.2,2.9c0.2,1.2,0.2,2.4,0.2,3.6c0,0.5-0.1,0.9-0.5,1.2
				C117.7,35.5,117.6,35.8,117.4,35.9z"/>
			<path class="st0" d="M118.3,28.6c0.2-1,0.4-1.8,0.4-2.7c0-0.3-0.1-0.6-0.1-0.8c0-0.1,0-0.2-0.1-0.2c-0.2,0-0.2,0.1-0.2,0.2
				c-0.2,0.9-0.5,1.9-0.5,3c-0.5-0.6-1-1-1-1.8c0-0.8,0-1.5-0.4-2.3c-0.2-0.4,0-0.9,0.1-1.3c0.3-1.1,0.4-2.2,0.4-3.4
				c0-0.2,0-0.3-0.1-0.6c0.6,0.6,1.2,1.1,1.6,1.7c0.8,1.2,1.4,2.6,1.9,4c0.1,0.3-0.1,0.6-0.2,0.8c-0.4,1.1-0.7,2.3-1.6,3.2
				C118.5,28.5,118.4,28.5,118.3,28.6z"/>
			<path class="st0" d="M66,13.2c-1,1.9-1.7,3.8-2,5.8c0,0.3-0.2,0.5-0.5,0.7c-0.6,0.4-1.2,0.8-1.9,1.2c0.3-0.6,0.4-1.2,0.5-1.9
				c0-0.2,0.1-0.4-0.1-0.5c-0.2-0.1-0.3,0.1-0.4,0.2c-0.5,0.6-0.8,1.2-1,1.9c0,0.2-0.1,0.3-0.2,0.6c-0.2-1.2-0.3-2.3-0.3-3.4
				c0-0.1,0-0.3,0.1-0.4C61.6,15.4,63.5,14.1,66,13.2z"/>
			<path class="st0" d="M107.1,53c0.2-0.7,0.3-1.4,0.3-2.1c-0.6,0.8-1,1.7-1.4,2.6c-0.1,0.2-0.2,0.3-0.4,0.4
				c-0.4,0.2-0.6,0.1-0.6-0.4c0-1.2,0-2.4,0-3.6c0-0.6,0.2-0.8,0.8-0.9c0.5-0.1,1-0.8,0.9-1.3c-0.2-0.9,0.3-1.8,1.2-2.1
				c0.2-0.1,0.3,0.1,0.3,0.2c0.5,0.5,0.7,1.2,0.9,1.9c0.3,1.8-0.5,3.3-1.5,4.7C107.4,52.6,107.4,52.9,107.1,53z"/>
			<path class="st0" d="M74.7,66.4c3.4-0.9,6.4-2.7,10-3.3c-0.2,0.7-0.4,1.3-0.6,1.9c-0.1,0.3-0.3,0.5-0.7,0.7
				c-1.4,0.6-2.9,1.1-4.2,1.8c-0.7,0.4-1.2,0-1.8-0.2C76.4,67.1,75.6,66.7,74.7,66.4z"/>
			<path class="st0" d="M62.5,40.7c-0.3-0.5-0.6-0.8-0.6-1.2c-0.1-0.3,0.1-0.7,0.2-1.1c0.1-0.4,0-0.8,0.1-1.2c0-0.1,0-0.2-0.1-0.2
				c-0.2-0.1-0.1,0.1-0.2,0.2c-0.3,0.5-0.2,1.2-0.3,1.7c-0.8-0.7-1-1.4-0.7-2.7c0.3-1.4,0.9-2.6,2-3.6c0.1-0.1,0.1-0.1,0.2-0.2
				c0.5-0.3,0.5-0.3,0.6,0.2c0.3,1.1,0.8,2.2,1,3.4c0.1,0.4,0,0.8,0,1.3c0,0.2-0.1,0.3-0.3,0.4C63.4,38.3,62.9,39.4,62.5,40.7z"/>
			<path class="st0" d="M103.9,61.1c0.9-0.3,1.8-0.5,2.8-0.8c-0.9-0.4-1.6-0.1-2.4-0.1c0.5-0.4,1.1-0.8,1.6-1.2
				c0.6-0.5,1.1-1,1.7-1.4c0.1-0.1,0.3-0.3,0.5-0.3c0.8,0,1.6-0.1,2.4,0c0.7,0.1,1.4,0,2.1,0.2c-0.3,0.6-0.8,1.2-1.4,1.6
				c-1.4,1.1-2.9,1.9-4.6,2.4c-0.7,0.2-1.3-0.1-1.9-0.2C104.4,61.3,104.1,61.3,103.9,61.1z"/>
			<path class="st0" d="M119.7,39.2c-0.6,0.5-1.1,1-1.5,1.5c0.3-1.1,0.3-2.2,0.3-3.3c0-0.2,0.1-0.3,0.2-0.4c0.9-0.7,1.6-1.7,2.4-2.5
				c0.1-0.1,0.2-0.2,0.3-0.4c0.3,0.6,0.4,1.2,0.4,1.7c0.1,2.2-0.5,4.3-1.7,6.2c-0.1,0.1-0.2,0.2-0.3,0.3c-0.7,0.4-1.4,0.7-2.1,1
				c-0.1,0-0.2,0.2-0.3,0c-0.1-0.1,0-0.2,0-0.3c0.2-0.6,0.7-0.9,1.1-1.4C119.1,41,119.6,40.3,119.7,39.2z"/>
			<path class="st0" d="M100.7,66c-1.2,0.6-2.5,1-3.9,1.3c-0.2,0-0.4,0-0.5-0.1C95,66.6,93.5,66,92,65.6c-0.3-0.1-0.4-0.4-0.5-0.7
				c-0.2-0.4-0.2-0.9-0.3-1.4c-0.1-0.3,0.2-0.5,0.5-0.4c1.5,0.5,3.1,0.8,4.6,1.5c0.8,0.4,1.6,0.9,2.6,1.1
				C99.5,65.8,100.1,65.9,100.7,66z"/>
			<path class="st0" d="M113.1,41.1c-0.3-1.2-0.7-2.1-1.6-2.8c-0.6-0.4-0.4-1-0.3-1.5c0.1-1.3,0.7-2.5,1.1-3.8
				c0.1-0.2,0.1-0.3,0.3-0.1c1.5,1.2,2.2,2.9,2.3,4.8c0.1,0.8-0.5,1.2-0.8,1.7c0-0.6-0.2-1.1-0.3-1.7c0,0,0-0.1,0-0.1
				c-0.1-0.2-0.1-0.6-0.4-0.6c-0.2,0-0.1,0.4-0.1,0.6c-0.1,0.6,0.1,1.3,0.2,1.9C113.6,40.2,113.3,40.6,113.1,41.1z"/>
			<path class="st0" d="M66.3,47.5c0.1-0.7,0.4-1.4,0.9-1.9c0.1-0.1,0.2-0.1,0.4-0.1c0.3,0.2,0.7,0.4,1,0.6c0.2,0.1,0.3,0.3,0.3,0.6
				c-0.1,0.4,0,0.9,0,1.4c0,0.4,0.3,0.4,0.6,0.5c0.7,0.2,1.2,0.6,1.1,1.2c-0.1,0.5,0,1.1-0.1,1.6c-0.1,0.7-0.1,1.4-0.1,2.1
				c0,0.2,0,0.4-0.3,0.4c-0.3,0-0.4-0.1-0.4-0.4c-0.3-1.5-1-2.8-2-4c-0.4-0.5-0.9-1.1-1.3-1.6C66.4,47.8,66.3,47.7,66.3,47.5z"/>
			<path class="st0" d="M60,26.5c-0.4-0.8-0.4-1.6-0.2-2.4c0.4-1.4,1.3-2.3,2.4-3.2c0.4-0.3,0.9-0.7,1.5-0.9c-0.1,0.4-0.2,0.7-0.3,1
				c-0.1,1.1-0.3,2.1-0.1,3.2c0.1,0.6-0.3,1.1-0.6,1.5c-0.6,0.6-1.1,1.3-1.9,1.7c-0.2,0.1-0.3,0.1-0.4-0.1c-0.1-0.3-0.2-0.6,0.1-0.9
				c0.4-0.4,0.6-0.9,0.7-1.4c0-0.1,0.1-0.4-0.1-0.4c-0.2-0.1-0.3,0.1-0.4,0.2C60.3,25.3,60.2,25.9,60,26.5z"/>
			<path class="st0" d="M112.7,26.6c0.7,0.9,1.4,1.6,2.2,2.3c0.2,0.1,0.2,0.3,0.2,0.4c0,0.8,0.1,1.6-0.2,2.5
				c-0.2-0.7-0.3-1.4-0.8-1.9c-0.2,0.5,0,1,0,1.5c0,0.3,0.1,0.6,0.3,0.8c0.5,0.6,0,1.2,0.1,1.8c0,0.1-0.1,0.2-0.2,0.1
				c-0.7-0.6-1.5-1.1-2.1-1.8c-0.3-0.4-0.4-0.8-0.2-1.3c0.6-1.3,0.8-2.7,0.7-4.2C112.7,26.7,112.7,26.7,112.7,26.6z"/>
			<path class="st0" d="M112.3,20.8c2.3,1.1,4.2,4.1,3,6.2c0-0.6-0.2-1-0.5-1.4c-0.1-0.2-0.3-0.6-0.6-0.5c-0.3,0.1-0.1,0.5,0,0.7
				c0.1,0.5,0.3,0.9,0.6,1.3c0.1,0.1,0.2,0.2,0.1,0.4c-0.1,0.2,0,0.5-0.2,0.6c-0.2,0.1-0.3-0.2-0.5-0.3c-0.5-0.4-0.9-0.9-1.3-1.5
				c-0.7-0.9-0.5-1.9-0.4-2.9c0.1-0.8-0.1-1.5-0.2-2.2C112.3,21.1,112.2,21,112.3,20.8z"/>
			<path class="st0" d="M63.3,25.7c-0.1,0.6-0.2,1.1-0.2,1.7c-0.1,1.2,0.3,2.3,0.5,3.4c0.1,0.3,0,0.6-0.2,0.9
				c-0.5,0.7-1.2,1.2-1.9,1.7c-0.2-0.5-0.4-0.9,0-1.5c0.4-0.7,0.7-1.5,0.7-2.4c-0.7,0.4-1,1.1-1.4,1.8c0-0.5-0.1-0.9-0.1-1.4
				c0-0.5,0.1-1.1,0.2-1.6c0.1-0.3,0.4-0.4,0.6-0.6c0.6-0.6,1.2-1.2,1.7-1.9c0-0.1,0-0.1,0.1-0.2C63.2,25.6,63.3,25.6,63.3,25.7z"/>
			<path class="st0" d="M59.1,60.6c0.2-0.3,0.6-0.3,0.8-0.3c0.8,0,1.6-0.1,2.3,0c0.5,0.1,1.1,0.1,1.6,0c0.7-0.2,1.2,0.2,1.7,0.6
				c0.1,0.1,0,0.2,0,0.3c-0.1,0.6-0.2,1.1-0.3,1.7c-0.1,0.4-0.5,0.3-0.7,0.2c-0.6-0.1-1.2-0.3-1.7-0.5c-0.7-0.2-1.4-0.5-2-0.8
				C60.3,61.4,59.6,61.2,59.1,60.6z"/>
			<path class="st0" d="M115.4,60.4c-1.1,0.9-2.4,1.6-3.6,2.2c-0.2,0.1-0.5,0.2-0.7,0.3c-0.7,0.3-0.9,0.2-1.1-0.5
				c-0.1-0.4-0.3-0.7-0.4-1.1c-0.2-0.5-0.1-0.8,0.5-0.8c0.3,0,0.6,0,0.9,0c1.3,0.1,2.5-0.3,3.8-0.2
				C114.9,60.2,115.2,60.2,115.4,60.4z"/>
		</g>
	</g>
	<g>
		
			<radialGradient id="SVGID_1_" cx="-342.6961" cy="159.2533" r="14.3662" gradientTransform="matrix(2.7187 0 0 2.7187 1008.5767 -419.6205)" gradientUnits="userSpaceOnUse">
			<stop  offset="2.000000e-02" style="stop-color:#E60012"/>
			<stop  offset="0.1352" style="stop-color:#E60012"/>
			<stop  offset="0.98" style="stop-color:#B60005"/>
		</radialGradient>
		<path class="st1" d="M63.9,26.4L63.9,26.4l0,0.9c0,0,0,0.8,0,0.8c0,0,0.1,1.2,0.1,1.2l0.2,0.4l0.4,0c0.7,3.3,2.1,6.3,4,9l0,0.4
			l0,0.1l0.1,0.3l1.7,2l0.1,0c0,0,0.1-0.1,0.1,0c0,0,0.1,0,0.1,0l-1.2,6.8l1.6,0.3l0,0.7l1.7,0.4l0,0.8l1.5,0.5l0,0.4l3.6,0.5
			l-0.1-1.3l1.9-0.8l-0.3,0.6l-0.1,0.9l1.2,0.2l0.1,0.2l2.2,0.4l0.3-0.1c0,0,0.4,0.2,0.4,0.2c0,0,2.5,0.2,2.5,0.3
			c0,0,0.2-0.3,0.2-0.3l2.7,0l0.2,0.2l2.2-0.1l0.3,0l0.3-0.2l0.1,0l0.3,0.1l2.2-0.3l0.1-0.2l1.1-0.2l0-0.8l-0.4-0.6l1.9,0.8l0,0.2
			l-0.1,1l3.6-0.4l0-0.3l0.1,0l1.5-0.4l0-0.8l0.1-0.1l1.7-0.4l0-0.6l0-0.1l1.6-0.2l-1-6.8l0.4,0.1l1.5-1.7l0.3-0.5l-0.1-0.6
			c1.9-2.6,3.4-5.6,4.2-8.8l0.2,0l0.2,0l0.2-0.1l0.1-0.4L112,27l0-0.2l-0.1-0.1l-0.1-0.1l-0.1-0.1c0-0.6,0.1-1.2,0.1-1.8
			c0-4.4-1.2-8.5-3.3-12c0-0.1,0-0.2,0-0.2c0,0,0.1-0.2,0.1-0.2l0-0.2l-0.6-0.9l-0.2-0.3l-0.5-0.6h-0.2l-0.1,0
			C102.6,4.8,95.6,1,87.8,1c-7.6,0-14.3,3.6-18.6,9.1l-0.1,0l-0.2-0.1l-0.2,0.2l-1.1,1.5l-0.1,0.2l0.1,0.2
			c-2.3,3.7-3.6,7.8-3.6,12.5c0,0.4,0,1,0,1.4l-0.2,0L63.9,26.4L63.9,26.4z"/>
		
			<radialGradient id="SVGID_2_" cx="-342.0785" cy="158.6811" r="14.7638" gradientTransform="matrix(2.7187 0 0 2.7187 1008.5767 -419.6205)" gradientUnits="userSpaceOnUse">
			<stop  offset="5.000000e-02" style="stop-color:#FFFFFF"/>
			<stop  offset="0.113" style="stop-color:#FFFFFF"/>
			<stop  offset="0.554" style="stop-color:#FFF100"/>
			<stop  offset="0.941" style="stop-color:#F7AD00"/>
			<stop  offset="0.95" style="stop-color:#F7AD00"/>
		</radialGradient>
		<path class="st2" d="M97.2,13.9l0.5,2l2,0.2l-1.7,1l0.5,2l-1.5-1.3l-1.7,1l0.8-1.9l-1.5-1.3l2,0.2L97.2,13.9L97.2,13.9L97.2,13.9z
			 M90.1,51.9L90.1,51.9l1.6-0.1l0-0.3L91,51.5l0,0l-0.1-1.7l-0.4,0l0,1.5l-2.3,0.1l0-0.8l-0.4,0l0,1.2l2.2-0.1L90.1,51.9L90.1,51.9
			z M64.6,26.6L64.6,26.6l0.1,0.7c0,0,2.3-2.4,2.6-2.9c0.3-0.4,2.7-2.7,3.3-3.2c0,0.2-0.1,0.5-0.1,0.7c-0.2,0.2-0.6,0.5-0.7,0.6
			c-0.1,0.1-2,1.9-2.3,2.3c-0.3,0.3-2.8,3-2.8,3l0.1,0.9c0,0,2.1-2.3,2.5-2.8c0.3-0.4,2.5-2.5,3-3.1c-0.1,0.6-0.1,1.2-0.1,1.8
			c0,5.8,2.8,10.9,7.1,14.1l0.9,4.2l-0.1,0c0,0-0.1-0.1-0.2-0.2c0,0-0.2-0.3-0.2-0.3c0-0.1,0-0.3,0-0.3s-0.2-0.2-0.3-0.3
			c-0.1-0.1-0.5-0.6-0.5-0.6c0,0-0.1-0.1-0.2-0.1c-0.1,0,0,0.1,0,0.1c0,0.1,0.1,0.1,0.2,0.2c0.1,0.1,0,0.3,0.1,0.4
			c0.1,0.1,0,0.1-0.1,0c-0.1,0-0.1-0.2-0.1-0.2c0-0.1,0-0.2-0.1-0.2s-0.1-0.2-0.1-0.3c0-0.1,0.1-0.1,0.1-0.2c0,0,0.2-0.1,0.2-0.1
			s-0.4-0.3-0.5-0.4c-0.1-0.1-0.3-0.4-0.3-0.4c0,0-0.1,0-0.2,0c0,0-0.2-0.1-0.3-0.1c-0.1,0-0.1,0-0.1,0c0,0,0.1,0.2,0.1,0.3
			c0,0.1,0,0.2,0.1,0.3c0,0.2,0,0.3,0,0.3l-0.2-0.1l-0.4,0l-1-0.9h-0.2l-1-1.1l-0.1,0l-0.9-1.2L72,37.8l1,1.2l0.2,0l1,1.1h0.2l1,0.9
			c0,0,0.4,0,0.4,0c0,0,1,0.8,1,0.8c0,0,0.8,0.6,1.2,0.8c0,0.1,0.2,1.1,0.9,1.6c0.7,0.6,1.4,1.1,2.5,1.4c1,0.3,1.7,0.2,2.1,0.2
			c0.3,0,1.2-0.1,1.6-0.2c0.4-0.1,0.7-0.2,0.9-0.3c0.1-0.1,0.5-0.2,0.5-0.2l0,0c0,0.1,0,0.2,0,0.3c0,0.1-0.2,0.2-0.7,0.5
			c-0.5,0.3-1.3,0.5-2,0.7c-0.7,0.1-1.4,0.3-2.9,0.1c-1.5-0.1-2.5-1.1-2.5-1.1l-0.1,0c0,0-0.3-0.3-0.5-0.5c-0.2-0.2-0.6-0.6-0.6-0.6
			l-0.1,0.1c0,0-0.5-0.8-0.9-1.6c-0.4-0.8-0.5-1.8-0.5-1.8l-0.3,0l0,0.2c0,0,0.1,0.7,0.3,1.3c0.2,0.5,0.4,1.1,1.4,2.3
			c1,1.2,2.3,1.7,2.3,1.7l0.2-0.1c0,0,0.1,0.1,0.6,0.2c0.5,0.1,2,0.2,2.4,0.2c0.3,0,1.6-0.2,2.4-0.4c0.6-0.2,1.4-0.7,1.7-1l0.1,0.2
			L86.2,46L86.1,46c0.4,0.5,1,0.7,1.7,0.7c0.6,0,1.2-0.3,1.6-0.7l0,0l-0.5-0.4l0.1-0.1c0.2,0.2,1.1,0.8,1.7,1
			c0.8,0.2,2.1,0.4,2.4,0.4c0.3,0,1.9,0,2.4-0.1c0.5-0.1,0.6-0.2,0.6-0.2l0.2,0.1c0,0,1.3-0.5,2.3-1.6c1-1.2,1.2-1.8,1.4-2.3
			c0.2-0.5,0.3-1.2,0.3-1.2l0-0.2l-0.3,0c0,0-0.1,1-0.5,1.8c-0.4,0.8-0.9,1.5-0.9,1.5l-0.1-0.1c0,0-0.4,0.4-0.6,0.6
			c-0.2,0.2-0.6,0.5-0.6,0.5l-0.1,0c0,0-1,0.9-2.5,1.1c-1.5,0.1-2.1,0-2.9-0.2c-0.7-0.2-1.5-0.5-2-0.7c-0.5-0.3-0.7-0.4-0.7-0.5
			c0,0,0-0.1,0-0.3l0,0c0,0,0.3,0.2,0.5,0.2c0.1,0.1,0.4,0.1,0.9,0.3c0.4,0.1,1.2,0.2,1.6,0.2c0.3,0,1.1,0.1,2.1-0.1
			c1-0.2,1.8-0.8,2.5-1.3c0.7-0.5,0.9-1.6,0.9-1.6l-0.4,0.2c0,0,0,0.2-0.2,0.6c-0.2,0.4-0.3,0.5-1.1,1c-0.8,0.6-1.7,0.9-2.2,0.9
			c-0.6,0.1-1.7,0.1-2.7-0.1c-1-0.2-1.8-0.8-1.8-0.8c0-0.3,0-0.5,0-0.6c0,0,0,0,0,0c0,0,0-0.1,0.1-0.2c0.2-0.1,0.3-0.1,0.5-0.1
			c0.1,0,0.2,0,0.3,0.1l0,0l0.6,0.1c0,0,0,0,0,0c0.2,0,0.3,0.1,0.5,0.1c0.1,0,0.2,0,0.4,0c0,0,0,0,0,0l0.6,0.1l0,0
			c0.3,0,0.5,0.1,0.7,0.1c0.3,0,0.7,0,0.7,0l0.1,0l0,0c0.2,0,0.3-0.1,0.5-0.1c0.3-0.1,0.9-0.3,0.9-0.3L94.9,44l0.1-0.6l-1.5,0.4
			l-0.1,0.1l0.1,0l0,0.3l-0.1,0L93.5,44L93,43.9l-0.2-0.6l0.5-0.3l-0.4-1l-0.5,0.1l-0.4-0.7l0.3-0.6l-0.7-0.6l-0.5,0.3L90.4,40
			l0.1-0.6L89.5,39l-0.4,0.5l-0.8-0.2l-0.2-0.6h-0.9l-0.2,0.6l-0.9,0.2L85.9,39l-0.8,0.3l0,0.7l-0.6,0.5L84,40.1l-0.6,0.6l0.3,0.6
			L83.2,42l-0.6,0l-0.4,0.8l0.4,0.3l0,0.7l-0.6,0l0,0.2l-0.2,0l0-0.3l0.2,0l0,0l-1.5-0.5l0.1,0.6l-0.1,0.1c0,0,0.5,0.2,0.8,0.2
			c0.3,0.1,0.8,0.1,0.8,0.1l0,0c0.3,0,1,0,1.6,0c0,0,0,0,0,0l0.4,0c0,0,0,0,0,0c0.2,0,0.3,0,0.4,0c0.1,0,0.3,0,0.5-0.1l0,0l0.7-0.1
			l0,0c0.2,0,0.3-0.1,0.3-0.1c0.1,0,0.3,0.1,0.3,0.2c0,0,0,0,0,0c0,0,0,0.3,0,0.6c0,0-0.9,0.6-1.8,0.8c-1,0.1-2.1,0.1-2.7,0
			c-0.6-0.1-1.4-0.4-2.2-1c-0.8-0.6-0.9-0.7-1.1-1c-0.2-0.4-0.2-0.6-0.2-0.6l-0.1,0l0.9,0.5l-0.9-4c0.1,0.1,0.2,0.1,0.3,0.2l0.8,3.9
			l0.8,0.3l-0.7-3.7c1.1,0.6,2.3,1.1,3.6,1.4l0-0.2c-1.3-0.4-2.5-0.9-3.7-1.5l0,0l-1-0.5l0,0c-0.1-0.1-0.3-0.2-0.4-0.3l-0.9-0.7l0,0
			c-0.3-0.2-0.6-0.5-0.9-0.8l22.6,0.3l0,0c-1.9,1.6-4.2,2.8-6.7,3.5l0.1,0.1c1.2-0.3,2.4-0.8,3.5-1.3L95.1,44l0.8-0.3l0.9-4
			c0.1-0.1,0.2-0.1,0.3-0.2l-1,4.1l1-0.4l1-4.3c4.4-3.2,7.3-8.4,7.3-14.3c0-0.5,0-0.9-0.1-1.4c0.6,0.6,2.7,2.7,3,3.2
			c0.4,0.5,2.5,2.8,2.5,2.8l0.1-0.9c0,0-2.5-2.7-2.8-3c-0.3-0.3-2.1-2.2-2.2-2.3c-0.1-0.1-0.5-0.4-0.7-0.6c0-0.2-0.1-0.5-0.1-0.7
			c0.5,0.5,2.9,2.9,3.3,3.3c0.4,0.4,2.6,2.9,2.6,2.9l0.1-0.7c0,0-2.3-2.5-2.9-3.1c-0.5-0.5-2.7-2.7-3.2-3.3
			c-1.8-7.9-8.8-13.7-17.2-13.7c-8.2,0-15.1,5.7-17.1,13.4c-0.6,0.6-2.8,2.7-3.3,3.2C67,24.1,64.6,26.5,64.6,26.6L64.6,26.6z
			 M90.5,19.3l1.3,1.5l1.9-0.8l-1,1.7l1.3,1.5l-2-0.4l-1,1.7l-0.2-2l-2-0.4l1.9-0.8L90.5,19.3L90.5,19.3L90.5,19.3z M85.3,19.3
			l-0.2,2l1.9,0.8l-2,0.5l-0.2,2l-1-1.7l-2,0.5l1.3-1.5l-1-1.7l1.9,0.8L85.3,19.3L85.3,19.3L85.3,19.3z M78.6,13.7l0.8,1.9l2-0.2
			l-1.5,1.3l0.8,1.9l-1.7-1.1l-1.5,1.3l0.5-2l-1.7-1l2-0.2L78.6,13.7L78.6,13.7L78.6,13.7z M82.2,28.7l0.1-0.1l0-0.1l0.1,0
			c0,0,0.2,0.1,0.1,0.1l-0.1,0.2l0,0.1L93.4,29v-0.1l-0.2-0.2l0-0.1l0.1-0.1l0.1,0l0,0.2c0,0,0.2,0.1,0.3,0.2c0,0.1,0,0.2,0,0.2
			l0,1.3l-0.1,0l0-1.2l-0.1,0l0,1.4l-0.1,0l0-1.3l-11.3-0.2l0,1.4l-0.1,0l0-0.1l0-1.3l-0.1,0l0,1.2l-0.1,0l0-1.3c0,0,0-0.1,0.1-0.2
			C82.1,28.8,82.2,28.7,82.2,28.7L82.2,28.7L82.2,28.7z M82.3,30.6l0-1.3l0.1-0.1l11.1,0.2l0,1.3l0,0v0l0,0l0.1,0l0,0.1l0.1,0l0-0.1
			l0-0.1l0.1-0.1l0.1,0l0.1,0l0,0.1l0.1,0l0.1,0l0-0.1l0-0.1l0-0.1l0.1,0l0.1,0.1l0.1,0.1l-0.1,0.1l0,0.1l0,0l0.1,0l0,0.1h0l0.2,0
			l0.1,0l0,0.1l-0.2,0.1h-1.1v0L81.2,31L81,30.9l0-0.1l0.1,0h0.2h0l0-0.1l0.1,0l0,0l0-0.1l-0.1-0.1l0.1-0.1l0.1-0.1l0.1,0l0,0.1
			l0,0.1v0.1l0.1,0l0.1,0l0-0.1l0.1,0l0.1,0l0.1,0.1l0,0.1l0,0.1h0.1l0-0.1L82.3,30.6L82.3,30.6L82.3,30.6L82.3,30.6z M81.4,31.2
			l13,0.1l-0.1,0.2l-12.8-0.1L81.4,31.2L81.4,31.2L81.4,31.2z M81,31.7l0.3-0.2l13,0.2l0.4,0.1l0-0.1l0-0.1l0,0l0.1,0l0,0.1l0,0.1
			l0,0L95,32h0.2l0,0l-0.1,0.2L80.6,32l-0.1-0.1l0-0.1h0.2l0.2-0.1l0-0.1l0,0v-0.1l0.1-0.1l0.1,0L81,31.7L81,31.7L81,31.7L81,31.7z
			 M81.1,32.4l-0.2-0.2l14,0.2l-0.2,0.1L81.1,32.4L81.1,32.4L81.1,32.4z M87.1,32.7L87.1,32.7l1.5-0.1l0,0.1l0.1,0.1
			c0,0,0.1,0.1,0.1,0.1c0,0,0,0.1,0,0.1l0,0.6l-0.1,0c0,0-0.2,0-0.2,0c0,0-0.1,0.1-0.1,0.1l0,0.1l0,0.1l-1.2,0c0,0,0-0.1,0-0.1
			c0,0-0.1-0.1-0.1-0.1l-0.2,0l-0.1,0l0-0.6l0.1-0.1L87.1,32.7L87.1,32.7L87.1,32.7L87.1,32.7z M94.3,33.6L94.3,33.6l0.1,0l0,0.1
			l0,0.1l-0.1,0h-0.1l0,0l0-0.1c0,0,0.1,0,0.1,0C94.2,33.7,94.2,33.7,94.3,33.6L94.3,33.6L94.3,33.6L94.3,33.6L94.3,33.6z M94,33.7
			L94,33.7l-0.1-0.1l0,0.1l-0.1,0c0,0-0.1,0-0.1,0c0,0,0,0.1,0,0.1c0,0,0,0,0,0L94,33.7C93.9,33.8,93.9,33.8,94,33.7
			C94,33.8,94,33.7,94,33.7L94,33.7L94,33.7z M92.6,33.6L92.6,33.6l-0.1,0c0,0,0,0,0,0c0,0-0.1,0-0.1,0c0,0,0,0,0,0c0,0,0,0,0,0.1
			c0,0,0.1,0,0.1,0c0,0,0.2,0,0.2,0S92.6,33.8,92.6,33.6C92.6,33.7,92.6,33.6,92.6,33.6L92.6,33.6L92.6,33.6z M91,33.7L91,33.7
			L91,33.7l0.1-0.1l0.1,0l0,0c0,0,0.1,0,0.1,0c0,0,0.1,0.1,0.1,0.1v0.1l0,0L91,33.7L91,33.7L91,33.7z M89.7,33.7L89.7,33.7
			L89.7,33.7l0.1,0l0,0l0,0c0,0,0,0,0,0c0,0,0.1,0,0.1,0l0,0.1l0,0.1l0,0l-0.1,0l-0.1,0L89.7,33.7L89.7,33.7L89.7,33.7L89.7,33.7z
			 M88.8,32.7L88.8,32.7l0.6,0l0,0l-0.1,0l-0.1,0l0,0.1l0,0.8l0.1,0l0.1,0l0.1,0l0.1,0l0-0.1l0-0.1c0,0,0-0.1-0.1-0.1
			c-0.1,0-0.1,0-0.1,0.1c0,0,0,0.1,0,0.1h0l0-0.7c0,0,0.1,0,0.1-0.1c0,0,0.1,0,0.1-0.1c0,0,0-0.1,0-0.1l0.5,0c0,0,0.1,0.1,0.1,0.1
			c0,0,0,0,0,0.1c0,0,0.1,0,0.1,0.1c0,0,0.1,0,0.1,0c0,0,0,0.6,0,0.6c0,0,0,0.1,0,0.1c0,0-0.2,0-0.2,0l0,0.1h0.3v-0.9
			c0,0-0.1-0.1-0.1-0.1c0,0,0-0.1,0-0.1v0l0.5,0l0,0.1l-0.1,0l0,0.1l0,0.9h0.3c0,0,0-0.1,0-0.2c0,0-0.1-0.1-0.1,0
			c0,0-0.1,0.1-0.1,0.1l0,0V33c0,0,0,0,0.1,0c0,0,0.2-0.1,0.2-0.2c0,0,0.1,0,0.1,0c0,0,0.3,0,0.3,0l0.1,0.1l0.1,0.1l0.1,0.1l0,0.6
			c0,0,0,0-0.1,0.1c0,0-0.1,0-0.1,0c0,0,0,0.1,0,0.1h0.3c0,0,0-0.1,0-0.1c0,0,0-0.8,0-0.8s-0.1,0-0.1,0c0,0-0.1,0-0.1,0l0,0l0.6,0
			c0,0,0,0.1,0,0.1c0,0-0.1,0-0.1,0c0,0-0.1,0-0.1,0c0,0,0,0.8,0,0.9c0,0,0,0.1,0,0.1c0.1,0,0.2,0,0.2,0c0,0,0.1,0,0.1,0
			c0,0,0-0.1,0-0.1c0,0,0-0.1-0.1-0.1c0,0-0.1,0-0.1,0c0,0,0,0.1,0,0.1c0,0-0.1,0-0.1,0c0,0,0-0.6,0-0.6c0,0,0.2-0.1,0.2-0.1
			c0,0,0.1-0.1,0.1-0.1c0,0,0.1,0,0.1,0c0.1,0,0.3,0,0.3,0c0,0,0,0.1,0,0.1c0,0,0.2,0.1,0.2,0.1c0,0,0,0.7,0,0.7c0,0-0.1,0-0.1,0
			c0,0,0,0,0,0.1c0,0,0.1,0,0.1,0H93c0,0,0.1,0,0.1,0c0,0,0-0.9,0-0.9c0,0,0,0-0.1-0.1c0,0-0.1,0-0.1,0c0,0,0-0.1,0-0.1
			c0,0,0.5,0,0.5,0l0,0.1c0,0-0.1,0-0.1,0c0,0,0,0-0.1,0c0,0,0,0.9,0,0.9c0,0,0,0,0.1,0c0,0,0.1,0,0.2,0c0,0,0.1,0,0.1,0
			c0,0,0,0,0-0.1c0-0.1,0-0.1,0-0.1c0,0-0.1,0-0.1,0c0,0,0,0.1-0.1,0.1s-0.1,0-0.1,0c0,0,0-0.7,0-0.7c0,0,0.1-0.1,0.1-0.1
			c0,0,0,0,0.1-0.1c0.1-0.1,0.1-0.1,0.2-0.1c0.1,0,0.2,0,0.2,0c0,0,0.1,0,0.2,0.1c0,0,0.1,0.1,0.1,0.1c0,0,0.1,0,0.1,0.1
			c0,0,0,0.4,0,0.5c0,0,0,0,0.1,0c0,0,0.1,0,0.1,0c0,0,0-0.5,0-0.6c0,0,0-0.1,0-0.1c-0.1,0-0.1,0-0.1,0c0,0,0-0.1,0-0.1l0.3,0v0.9
			c0,0,0,0.1,0,0.1c0,0,0,0,0.1,0c0.1,0,0.2,0,0.2,0c0,0,0.1,0,0.1,0c0,0,0-0.1,0-0.1s0,0,0,0c0,0,0.1,0,0.1,0c0,0,0,0,0,0
			c0,0,0,0.2,0,0.2l-6.5-0.1c0,0,0-0.1,0-0.1c0,0,0,0,0.1,0c0,0,0.3,0,0.3,0c0,0,0-0.8,0-0.9C89,32.8,88.9,32.8,88.8,32.7
			C88.8,32.8,88.8,32.7,88.8,32.7L88.8,32.7L88.8,32.7z M81.4,33.5L81.4,33.5l-0.1,0c0,0,0,0.1,0,0.1c0,0,0,0.1,0,0.1c0,0,0,0,0,0
			l0.2,0c0,0,0,0,0,0c0,0,0-0.1,0-0.1l-0.1,0C81.5,33.5,81.5,33.5,81.4,33.5C81.5,33.5,81.4,33.5,81.4,33.5L81.4,33.5L81.4,33.5z
			 M81.7,33.5L81.7,33.5L81.7,33.5l0.1-0.1l0.1,0l0.1,0c0,0,0,0,0,0c0,0,0,0.1,0,0.1c0,0,0,0,0,0l-0.2,0
			C81.8,33.6,81.7,33.6,81.7,33.5C81.7,33.6,81.7,33.5,81.7,33.5L81.7,33.5L81.7,33.5z M83.1,33.5L83.1,33.5L83.1,33.5l0.1,0l0,0
			l0.1,0l0,0l0,0l-0.2,0l0,0C83.1,33.6,83.1,33.6,83.1,33.5C83.1,33.6,83.1,33.5,83.1,33.5L83.1,33.5L83.1,33.5L83.1,33.5z
			 M85.7,33.6L85.7,33.6L85.7,33.6l0.1,0c0,0,0,0,0,0c0,0,0,0,0,0c0,0,0,0,0,0l0,0c0,0,0,0,0,0c0,0,0,0.1,0,0.1c0,0,0,0,0,0l0,0
			l-0.3,0C85.7,33.7,85.7,33.6,85.7,33.6C85.7,33.6,85.7,33.6,85.7,33.6L85.7,33.6L85.7,33.6z M81.1,33.6l0-1l0.3,0l0,0l-0.1,0.1
			v0.6l0.1,0l0.1,0v-0.5l0.2-0.1l0.1-0.1l0.1,0l0.2,0l0.1,0.1l0.1,0.1l0,0.1l0,0.5l0,0.1l-0.1,0l0,0l-0.1,0l0,0.1l0,0.2l0.3,0l0.1,0
			l0,0l0-0.9l-0.2-0.1v-0.1l0.5,0l0,0.1c0,0-0.1,0-0.2,0.1c0,0,0,0.2,0,0.2v0.7l0,0.1h0.3l0-0.1l-0.1-0.1l0-0.3l0-0.3l0.1-0.1
			l0.1-0.1l0.1,0l0.3,0l0.3,0.2l0,0.1l0,0.3l0,0.2l0,0.1l-0.1-0.1l-0.1,0l-0.1,0l0,0.1c0,0,0.1,0,0.1,0c0,0,0,0.1,0,0.1l0.3,0v-0.9
			l-0.2-0.1l-0.1,0l0-0.1h0.6l0,0.1l-0.1,0l-0.1,0v0.9l0.3,0l0-0.1c0,0-0.1,0-0.1,0c0,0,0-0.7,0-0.7l0.1-0.1l0.2-0.1l0.1,0l0.3,0
			l0.1,0.1l0.2,0.2l0,0.1l0,0.5l0,0.1l-0.1,0l-0.1,0l0,0.1l0.3,0l0,0l0-0.9l-0.2,0l0,0v0l0.5,0l0,0l0,0l-0.2,0l0,0l0,0.8l0,0.1
			l0.3,0l0-0.1l-0.2,0l-0.1-0.1l0-0.5l0.1-0.1l0.2-0.2l0.1,0l0.4,0l0.1,0l0.1,0.1l0.1,0l0,0.1l0,0.5l0,0.1l0,0l0-0.1l-0.1,0l0,0.1
			l0,0.1l0,0h0.3l0-0.9c0,0,0,0-0.1,0c0,0-0.1-0.1-0.1-0.1l0,0l0.6,0l0,0.1c0,0-0.2,0-0.2,0.1c0,0,0,0.1,0,0.1l0,0.8l0.2,0l0.1,0
			l0.1,0l0,0l-6.5-0.1v-0.3h0.1l0,0.1l0,0L81.1,33.6L81.1,33.6L81.1,33.6L81.1,33.6z M74.1,34.1l0-0.3l27.4,0.3l0.1,0.3l-8.9-0.1
			v-0.2h-0.3l0,0.2l-9-0.1l0-0.2L83,34l0,0.2L74.1,34.1L74.1,34.1L74.1,34.1z M83,34.6l0-0.1c0,0,0.2,0,0.2,0l0,0.2H83L83,34.6
			L83,34.6z M83.3,34.7H83l0,0.2l-0.2,0l-0.1,0l-0.1-0.1l-0.1,0c0,0,0.1,0.2,0.1,0.2c0.1,0,0.2,0,0.2,0c0,0,0.1,0,0.1,0l0,0v1.8
			c0,0-0.1,0-0.1,0c0,0,0,0-0.1,0c0,0,0-0.1,0-0.1l0,0l-0.1,0l0,0.2c0,0-0.3,0-0.3,0c0,0-0.1-0.2-0.1-0.2l-0.1-0.1l-0.3,0l0,0h-0.1
			l0,0l-0.1,0l0-0.1h-0.1l0,0.1l-0.1,0l0-0.1h-0.1l-0.1,0.1l-0.1,0l0,0h0l-0.2,0.3l2.6,0l0-0.3l-0.1,0l0,0.1l-0.2,0l-0.1-0.1l0-1.7
			l0,0l0.1,0c0,0,0.2,0,0.2,0c0,0,0.1-0.2,0.1-0.2l0-0.1l-0.1,0.1l-0.1,0l-0.1,0l0-0.1L83.3,34.7L83.3,34.7L83.3,34.7z M81.8,35.8
			c-0.2,0-0.3,0.1-0.3,0.2v0.6l0.1,0v0h0.1l0,0l0.1,0v0l0.1,0v0l0.1,0v0.1H82l0-0.7C82,36,82,35.8,81.8,35.8L81.8,35.8L81.8,35.8z
			 M77.9,36.8v-0.2l0.1,0l0,0l0,0.1l0,0l0.1,0l0,0l0,0l0,0l0,0.1l0,0h0L77.9,36.8L77.9,36.8L77.9,36.8L77.9,36.8L77.9,36.8z
			 M78.3,36.8l0-0.1l0,0l0,0l0,0l0,0l0,0l0,0l0.1,0l0,0l0,0l0.1,0l0,0l0,0.1l-0.1,0L78.3,36.8L78.3,36.8L78.3,36.8L78.3,36.8
			L78.3,36.8z M79,36.6l-0.1,0v0.1l0,0.1l0.1,0h0.1l0.1,0l0,0l0-0.1l0,0l0,0l-0.1,0L79,36.6L79,36.6L79,36.6L79,36.6z M79.5,36.7
			L79.5,36.7l0.1,0l0.1,0h0.1l0.1,0l0,0.1l-0.1,0l-0.1,0l-0.1,0L79.5,36.7L79.5,36.7L79.5,36.7L79.5,36.7z M80.1,36.6L80.1,36.6
			C80,36.6,80,36.7,80.1,36.6C80,36.7,80,36.8,80,36.8c0,0,0,0,0,0l0,0l0,0l0.1,0l0.1,0l0-0.1v-0.1l-0.1,0L80.1,36.6L80.1,36.6
			L80.1,36.6L80.1,36.6z M80.7,36.6L80.7,36.6L80.7,36.6l-0.1,0.1l0,0.1l0,0.1l0.1,0h0.1l0,0l0,0H81l0-0.1l0,0l-0.2,0L80.7,36.6
			L80.7,36.6L80.7,36.6L80.7,36.6L80.7,36.6z M77.4,36.8l0-0.3l0.1,0l0.1,0.1l0.1,0l0,0l0,0h0l0,0l0,0.1c0,0-0.1,0-0.1,0
			c0,0-0.1,0.1-0.1,0.1s0,0,0,0c0,0,0,0,0,0L77.4,36.8L77.4,36.8L77.4,36.8L77.4,36.8L77.4,36.8z M84.3,36.1l0,0.7l0.6,0l0-0.7
			c0,0,0-0.2-0.3-0.2C84.3,35.8,84.3,36.1,84.3,36.1L84.3,36.1L84.3,36.1z M84.1,36.9L84.1,36.9l0.1-0.1h0.1v-0.1h0.1l0,0.1h0.1
			l0-0.1h0.1v0.1l0.1,0v0h0.1v0l0.3,0l0.1,0.1l0.1,0.1l0,0.1l-1.3,0L84.1,36.9L84.1,36.9L84.1,36.9L84.1,36.9z M88.2,36.8l-0.7,0
			l0-0.8c0,0,0.1-0.3,0.4-0.3c0.3,0,0.4,0.3,0.4,0.3L88.2,36.8L88.2,36.8L88.2,36.8z M87.3,36.9L87.3,36.9L87.2,37l-0.1,0.1l0,0.1
			l1.5,0l-0.2-0.3l-0.1-0.1l-0.1,0l0,0.1l-0.1,0v-0.1H88l0,0.1h-0.1l0-0.1h-0.1l0,0.1h-0.1l0-0.1l-0.1,0l0,0.1l-0.1,0l0-0.1
			L87.3,36.9L87.3,36.9L87.3,36.9z M91.4,36.8l-0.6,0v-0.6c0,0,0-0.3,0.3-0.3c0.3,0,0.3,0.2,0.3,0.2L91.4,36.8L91.4,36.8L91.4,36.8z
			 M91.6,37.2l-1.3,0l0-0.1l0-0.1l0.1-0.1l0.3,0v0l0.1,0l0,0.1l0.1,0l0,0h0.1l0,0.1l0.1,0l0-0.1h0.1l0,0l0.1,0l0.1,0l0,0L91.6,37.2
			L91.6,37.2L91.6,37.2L91.6,37.2L91.6,37.2z M92.4,34.7l0-0.2l0,0l0.2,0.1l0,0l0,0.1H92.4L92.4,34.7L92.4,34.7z M92,35L92,35
			l0.1,0.1l0.1,0.1c0,0,0.1,0,0.1,0c0,0,0.1,0,0.1,0l0-0.3l0.1,0c0,0,0.1,0,0.1,0c0,0,0,0,0,0v0.2h0.1h0.1l0.1,0l0.1,0l0.1-0.1l0,0
			l0,0.1L93,35.2l-0.1,0l-0.1,0l-0.1,0l0,1.7l0.1,0l0.1,0l0,0l0,0l0.1,0l0,0l0,0.1l0,0v0l0,0l0.1,0l0.1,0l0,0l-1.2,0l0-0.1l0,0
			l0-0.1l0-0.1l0.1,0l0.1,0l0.1,0l0.1,0l0.1,0l0,0l0.1-0.1l0-1.6l-0.1,0l-0.1,0l-0.1,0l0-0.1L92,35L92,35L92,35z M94.2,36.9l-0.7,0
			l0-0.7c0,0,0-0.2,0.3-0.2c0.3,0,0.3,0.2,0.3,0.2L94.2,36.9L94.2,36.9L94.2,36.9z M94.5,37.3l-1.3,0l0.1-0.1l0.1-0.1l0,0l0.1,0
			l0.1,0l0.1,0l0-0.1h0.1c0,0,0,0.1,0,0.1c0,0,0.1,0,0.1,0V37H94c0,0,0,0,0,0.1c0,0,0.1,0,0.1,0v0h0.1V37l0.1,0l0,0l0,0.1L94.5,37.3
			C94.5,37.2,94.5,37.2,94.5,37.3C94.5,37.2,94.5,37.3,94.5,37.3L94.5,37.3L94.5,37.3z M89,36.7L89,36.7l0.1,0l0,0.1l0,0.2l-0.1,0.1
			l-0.2,0v-0.1l0.1,0l0.1,0V36.7L89,36.7L89,36.7z M85.9,36.9l0-0.2l0.1,0l0.1,0.1l0.1,0c0,0,0-0.1,0-0.1c0,0,0-0.1,0-0.1l0.1,0
			l0,0.2l-0.1,0L85.9,36.9L85.9,36.9L85.9,36.9L85.9,36.9z M86.5,36.9l0-0.2l0.1,0l0,0v0.2l0,0l0,0l0.1,0l0.1,0l0,0.1l-0.1,0
			L86.5,36.9L86.5,36.9L86.5,36.9L86.5,36.9z M89.4,36.9L89.4,36.9l0-0.1l0.1,0h0.1l0,0l0-0.1l0.1,0v0.3l-0.1,0l-0.1,0L89.4,36.9
			L89.4,36.9L89.4,36.9L89.4,36.9z M92.2,34.6l-8.7-0.1l0,0.1l0.1,0l0,0.1l-0.1,0l0,0l0,0l0,0l0.1,0l0.1,0l0.1,0l0.1,0.1l0,0.1
			c0,0,0,0.1,0,0.2c0,0.1,0,0.1-0.1,0.2c0,0-0.1,0.1-0.1,0.1c-0.1,0-0.1,0-0.1,0c-0.1,0-0.1,0-0.1,0l0,1.4l0,0.1l0.1,0l0.1-0.1l0,0
			c0,0,0.1,0,0.1,0c0,0,0.1,0,0.1,0.1c0,0,0,0.1,0,0.1c0,0,0,0.1,0,0.1s0,0,0,0.1c0,0,0,0,0,0.1c0,0,0.1-0.1,0.1-0.1c0,0,0,0,0-0.1
			c0,0,0.1,0,0.1,0s0-0.1,0-0.1c0,0,0-0.5,0-0.6c0,0,0.1-0.4,0.5-0.4c0.4,0,0.5,0.4,0.5,0.4l0,0.7l0.2,0l0,0.1c0,0,0,0,0.1,0
			c0,0,0.1,0.1,0.1,0.1c0,0,0,0.1,0,0.1c0,0,0,0.1,0,0.1c0,0,1.5,0,1.5,0S87,37,87,37c0,0,0-0.1,0-0.1c0,0,0.1-0.1,0.1-0.1
			c0,0,0-0.1,0-0.1l0.2,0l0-0.7c0,0,0-0.4,0.5-0.4c0.5,0,0.5,0.4,0.5,0.4l0,0.7l0,0l0.2,0v0.1l0.1,0l0,0l0.2,0.3l1.5,0l0-0.1l0-0.1
			l0.2-0.3h0.2l0-0.8c0,0,0.1-0.3,0.5-0.3c0.4,0,0.4,0.3,0.4,0.3l0,0.7l0.2,0.2l0-0.3l0.2,0l0.1,0.1l0.1,0.1l0.1,0l0-1.4L92,35.4
			l-0.1-0.1L91.8,35l0-0.2l0.1-0.1l0.1,0l0.2,0.1L92.2,34.6L92.2,34.6L92.2,34.6z M95.6,36.8L95.6,36.8l-0.1,0.1l-0.1,0.1l0,0l0,0
			l0,0c0,0-0.1,0-0.1,0c0,0,0,0.1,0,0.1c0,0,0.1,0,0.1,0l0.1,0l0.1,0c0,0,0,0,0,0c0,0,0.1,0,0.1,0l0-0.1c0,0,0,0,0-0.1
			C95.6,36.9,95.6,36.8,95.6,36.8C95.6,36.8,95.6,36.8,95.6,36.8L95.6,36.8L95.6,36.8z M95.8,36.9L95.8,36.9l0.2,0l0,0l0-0.1h0
			l0.1,0.1l0,0.2l-0.1,0H96l0,0l-0.1,0l0,0l-0.1,0c0,0,0,0,0,0C95.8,37,95.8,36.9,95.8,36.9L95.8,36.9L95.8,36.9L95.8,36.9z
			 M96.7,36.9L96.7,36.9l-0.1,0.1l0,0h0l0-0.1l-0.1,0c0,0-0.1,0.1-0.1,0.1c0,0,0,0,0,0.1c0,0,0.1,0.1,0.1,0.1l0.1,0l0.1,0l0.1,0
			l0.1,0L96.7,36.9L96.7,36.9L96.7,36.9L96.7,36.9L96.7,36.9z M96.9,37.1L96.9,37.1l0.1-0.1l0.1,0l0,0.1l0.1,0l0-0.1l0-0.1l0.1,0
			l0.1,0.1l0,0.1l-0.1,0.1l-0.1,0.1L96.9,37.1L96.9,37.1L96.9,37.1L96.9,37.1z M97.9,37.1l0-0.2l0.1,0l0.1,0.1l0.1-0.1l0.1,0l0.1,0
			l0,0.2l-0.1,0l-0.1,0l0,0l-0.1,0l0-0.1L97.9,37.1L97.9,37.1L97.9,37.1L97.9,37.1z M97.4,37L97.4,37l0.1,0l0.1,0l0-0.1l0.1,0h0.1
			l0,0.2l-0.1,0.1L97.4,37L97.4,37L97.4,37L97.4,37L97.4,37z M94.7,37L94.7,37L94.7,37l0.2,0l0.1,0l0-0.1l0,0l0,0l0,0.2l0,0.1
			l-0.1,0h-0.1l0,0l-0.1,0l0,0C94.8,37.1,94.7,37,94.7,37C94.7,37,94.7,37,94.7,37L94.7,37L94.7,37z M104.7,47.8l-0.6-5.2l-2,1.6
			l0.2,3.9L104.7,47.8L104.7,47.8L104.7,47.8z M101.7,41.8l0-1l-0.2,0.1c0,0,0,1.6-0.4,2.3c-0.4,0.8-0.8,1.4-1.2,1.8
			c-0.4,0.3-0.6,0.7-1.1,0.9c-0.5,0.2-1.3,0.7-1.6,0.8c-0.2,0.1-0.5,0.2-0.5,0.2l0.1,0.1c0,0,1.3-0.4,1.5-0.6
			c0.2-0.2,0.6-0.3,0.6-0.3l0,4.6l1.3-0.1l0,0.5l-2.1,0.1l0.2-1.4l0.6-1.6l-0.1-0.1L98,49.9l-0.6,0.9L92,48.5l0,0.1l1,0.5l0.1,2.2
			l-0.2,0.1l0,0.3l1-0.1l0-0.3l1.4-0.2l0.1-1l0.3,0.4l1.7,0.7l0.4-0.6l-0.1,1.1l2.8-0.2l0-0.8l1.6-0.1l0-1l1.8-0.2l-0.1-1.1l1.2-0.1
			l-0.7-6.3l-1.2,1.1c0,0,0.5-1,0.7-1.6c0.2-0.6,0.3-1.4,0.3-1.4l-0.3-0.6c0,0,0.1,1.2-0.2,2c-0.3,0.8-0.7,1.3-0.9,1.7
			c-0.2,0.4-1.1,1.1-1.2,1.1c0,0,0.7-1.1,0.9-2c0.2-1,0.2-2,0.2-2.1c0-0.1,0-0.4,0-0.4l-0.3,0c0,0,0,1.8-0.2,2.4
			c-0.2,0.5-0.1,0.8-0.4,1.2c-0.3,0.5-0.5,1.1-0.7,1.3c-0.2,0.2-0.9,0.7-0.9,0.7s0.9-1.1,1.1-1.8C101.5,42.7,101.6,42.3,101.7,41.8
			L101.7,41.8L101.7,41.8z M91.3,2.1l-2.5-0.3l-0.2,0.1l0,0.2l0.1,0.1l2.6,0.3L93,2.8c0,0,0.5,0.2,0.6,0.3C93.7,3.1,94,3.6,94,3.7
			c0.1,0.1,0.5,0.5,0.6,0.5c0.2,0,0.6-0.1,0.5-0.4c0-0.3-0.4-0.5-0.6-0.5c-0.2-0.1-0.6-0.2-0.7-0.2c-0.1-0.1-0.3-0.4-0.5-0.5
			C93.4,2.5,91.8,2.2,91.3,2.1L91.3,2.1L91.3,2.1z M92.9,3.9l0.8-0.1c0,0,0-0.4-0.3-0.5c-0.3-0.2-1-0.3-1.3-0.3
			c-0.4-0.1-1.2-0.2-1.6-0.2c-0.4,0-1.8-0.1-1.8-0.1l-0.1,0.1l0,0.1l0,0.1c0,0,1.4,0.1,1.8,0.1c0.4,0,1.3,0.1,1.6,0.2
			c0.3,0.1,0.7,0.3,0.8,0.4C92.9,3.7,92.9,3.9,92.9,3.9L92.9,3.9L92.9,3.9z M89.5,3l-0.8,0l-0.1,0.1l0.1,0.1c0,0,1.6,0.1,2,0.2
			c0.3,0.1,1.4,0.2,1.5,0.3c0.1,0.1,0.1,0.2,0,0.2c0,0-1.3-0.1-1.6-0.2c-0.4,0-1.4-0.1-1.6-0.1c-0.1,0-0.2,0.1-0.2,0.1l0,0.1
			l0.1,0.1c0,0,1.4,0.1,1.9,0.1C91.2,4,92,4.1,92.1,4.2c0.1,0,0.5,0,0.6,0c0.1-0.1,0.2-0.1,0.1-0.3c-0.1-0.1-0.1-0.3-0.2-0.3
			c-0.2-0.1-0.2-0.2-0.7-0.2c-0.4-0.1-1.2-0.2-1.4-0.2C90.3,3.1,89.8,3,89.5,3L89.5,3L89.5,3z M93.5,4c0.1,0,0.2,0,0.3,0
			c0.1,0.1,0.2,0.1,0.2,0.2c0,0.2-0.3,0.4-0.4,0.4c-0.1,0-0.6,0-0.8,0c-0.1,0-0.6,0-0.7,0c-0.1,0-0.5-0.1-0.9-0.2
			c-0.4-0.1-0.8-0.1-1.1-0.1c-0.2,0-1-0.1-1.1,0c-0.1,0-0.2-0.1-0.2-0.1c0,0,0.1-0.2,0.2-0.2c0.1,0,1.5,0.1,2.1,0.2
			c0.7,0.1,1,0.2,1.1,0.2c0.1,0,0.4-0.1,0.5-0.1C93.1,4.2,93.2,4.1,93.5,4L93.5,4L93.5,4z M89.4,5.3L89,4.9c0,0,0.2,0,0.3-0.1
			c0.1,0,0.4-0.2,0.9-0.2c0.5,0,0.9,0.5,0.9,0.5s-0.2,0.1-0.3,0.1c-0.1,0-0.4,0.2-0.4,0.2c0,0.1,0.1,0.4,0.1,0.4c0.1,0-0.2,0-0.3,0
			c-0.1,0-0.5-0.1-0.6-0.3C89.5,5.5,89.5,5.4,89.4,5.3L89.4,5.3L89.4,5.3z M94.3,3l0-0.2c0,0,0.7,0.2,0.9,0.2
			c0.2,0.1,0.7,0.2,0.8,0.3c0.1,0.1,0,0.2,0,0.2c0,0,0.1,0.3,0.6,0.4c0.5,0.2,0.6,0.6,0.6,0.6c0,0-0.1,0.1-0.1,0.2
			c-0.1,0-0.6,0-0.9-0.2c-0.3-0.2-0.5-0.4-0.5-0.5c-0.1-0.1-0.1-0.3-0.3-0.5c-0.2-0.2-0.2-0.3-0.5-0.4C94.7,3.1,94.3,3,94.3,3
			L94.3,3L94.3,3z M95.6,4.4l-0.4-0.1c-0.4,0-0.7,0.1-0.9,0.2c-0.1,0.1-0.2,0.3-0.4,0.3c-0.2,0.1-0.7,0.1-0.7,0.1l1,0.3
			c0,0,0.1-0.2,0.4-0.2c0.3,0,0.5,0.1,0.8,0c0.3-0.1,0.4-0.2,0.4-0.3C95.9,4.6,95.8,4.5,95.6,4.4L95.6,4.4L95.6,4.4z M90.9,5.8
			l-0.2-0.2c0,0,0-0.1,0.1-0.1c0.1,0,0.3-0.2,0.7-0.2c0.3,0.1,0.5,0.1,0.7,0.3c0.2,0.2,0.3,0.4,0.3,0.5c0,0.1,0.1,0.1,0.1,0.2
			c0,0-0.4,0.3-0.7,0.3c-0.3-0.1-0.7-0.2-0.8-0.3C91.1,6.1,90.9,5.8,90.9,5.8L90.9,5.8L90.9,5.8z M92.3,5.4l-0.2-0.1
			c0,0,0.2,0,0.3,0c0.1,0,0.2-0.1,0.6-0.1c0.5,0,0.9,0.3,0.9,0.3s-0.5,0.1-0.6,0.3c-0.1,0.2,0.1,0.6,0.1,0.6s-0.3,0.1-0.3,0.1
			c0,0-0.2-0.1-0.2-0.2c0-0.1-0.1-0.4-0.2-0.6C92.6,5.6,92.4,5.5,92.3,5.4L92.3,5.4L92.3,5.4z M90.6,6.5l0.3-0.2
			c0.1,0,0.3,0.3,0.7,0.4c0.4,0.1,1,0,1,0s-0.1,0.2,0,0.2c0,0.1,0.4,0.4,0.4,0.4s-0.7-0.2-1-0.3C91.6,7,91.2,7,91.2,7
			c0,0-0.2-0.1-0.3-0.3C90.8,6.5,90.6,6.5,90.6,6.5L90.6,6.5L90.6,6.5z M94.8,5.2l-0.2,0l1.5,0.6c0,0,0.2-0.2,0.6-0.1
			c0.4,0.1,0.7,0.1,0.8,0c0.1-0.1,0.4-0.2,0.3-0.3c-0.1-0.1-0.3-0.4-0.5-0.4C97,5,96.7,4.9,96.3,5C96,5,95.7,5.2,95.5,5.3
			C95.3,5.3,94.9,5.2,94.8,5.2L94.8,5.2L94.8,5.2z M95.2,6.2L95.5,6c-0.1,0,0,0-0.3-0.1c-0.2-0.1-0.3-0.2-0.7-0.2
			c-0.3,0-0.5,0.1-0.6,0.1c-0.1,0-0.4,0.1-0.4,0.2c0,0.1,0.1,0.3,0.3,0.4c0.1,0.1,0.2,0.3,0.2,0.4c0,0,0.8,0.3,0.9,0.4
			c0.1,0,0.3,0,0.3,0c0,0-0.1-0.1-0.1-0.2c-0.1-0.1-0.2-0.3-0.1-0.4C95,6.3,95.1,6.2,95.2,6.2L95.2,6.2L95.2,6.2z M93.6,6.6
			L93.6,6.6c0.1,0,0.2,0.3,0.4,0.4c0.2,0.2,0.8,0.3,0.8,0.3s-0.4,0-0.4,0.1c-0.1,0.1-0.1,0.3-0.1,0.3s-0.4,0-0.5,0
			c-0.1,0-0.3,0-0.4-0.1c-0.1-0.1-0.1-0.2-0.3-0.3c-0.2-0.2-0.3-0.3-0.4-0.3c0,0,0.1-0.1,0.3-0.1C93.2,6.8,93.6,6.6,93.6,6.6
			L93.6,6.6L93.6,6.6z M97.1,3.8l-0.7-0.3l0,0.1l0.1,0.1c0,0,0.4,0,0.7,0.3c0.2,0.3,0.5,1.1,0.8,1.4c0.4,0.2,1,0.5,1.1,0.3
			c0.1-0.2,0-0.4-0.2-0.6c-0.2-0.1-0.5-0.3-0.7-0.4c-0.2-0.1-0.2-0.5-0.3-0.5C97.8,4.1,97.5,3.9,97.1,3.8L97.1,3.8L97.1,3.8z
			 M96.9,6.9L97,6.7c0,0-0.6-0.3-0.7-0.3c-0.1,0-0.2-0.1-0.3-0.1c-0.2,0-0.4,0.1-0.5,0.1c-0.1,0.1-0.3,0.1-0.3,0.2
			c0,0,0.1,0.2,0.2,0.3C95.4,6.9,95.4,7,95.4,7s0.5-0.1,0.7,0.1c0.3,0.1,0.5,0.3,0.5,0.3l0.5,0c0,0,0-0.1,0-0.2
			C97,7.1,96.9,7,96.9,6.9L96.9,6.9L96.9,6.9z M98.5,4.7l0-0.2c0,0,0.6,0.3,0.8,0.4c0.2,0.1,0.4,0.3,0.5,0.3c0,0,0.1,0.4,0.2,0.5
			c0.1,0.1,0.5,0.2,0.7,0.4c0.2,0.2,0.2,0.5,0.2,0.5c0,0.1-0.3,0.1-0.4,0.1c-0.1,0-0.5-0.1-0.6-0.3c-0.1-0.2-0.4-0.4-0.4-0.6
			c0-0.2,0-0.3-0.1-0.5C99.3,5.3,99.1,5,99,5C98.8,4.9,98.6,4.8,98.5,4.7L98.5,4.7L98.5,4.7z M96.7,6l0.4,0.1c0.1,0,0.8-0.2,1.1-0.2
			c0.2,0,0.8,0,1,0.1c0.2,0.1,0.4,0.3,0.3,0.5c-0.1,0.2-0.3,0.2-0.5,0.2c-0.2,0-0.5-0.1-0.7-0.1c-0.2,0-0.4,0-0.5,0
			c-0.1,0-0.7-0.2-0.8-0.3c-0.1-0.1-0.5-0.3-0.5-0.3s0,0,0-0.1C96.6,6,96.7,6,96.7,6L96.7,6L96.7,6z M97.4,7.4l-0.2-0.5
			c0,0,0.8,0.2,1.3,0.5c0.5,0.3,0.9,0.8,0.9,0.8L99,8.2l0,0.5l-0.4-0.2c0,0-0.1-0.4-0.4-0.7C97.9,7.5,97.4,7.4,97.4,7.4L97.4,7.4
			L97.4,7.4z M95.9,7.5l0.3-0.1c0,0-0.4-0.2-0.7-0.2c-0.3,0.1-0.4,0.2-0.6,0.3c-0.1,0.1-0.4,0.1-0.4,0.1c0,0-0.1,0.1-0.1,0.1
			c0,0,0.6,0.5,0.8,0.5c0.3,0.1,0.9,0.1,0.9,0.1s0-0.1,0-0.2C96.2,8.1,95.9,7.8,95.9,7.5L95.9,7.5L95.9,7.5z M97.7,7.7
			c-0.5-0.2-1-0.1-1.5-0.1c0,0,0.1,0.2,0.2,0.4c0.1,0.2,0.2,0.6,0.5,0.7c0.3,0.1,0.9,0,1.1,0c0.2,0,0.4,0,0.4,0S98.2,7.8,97.7,7.7
			L97.7,7.7L97.7,7.7z M98,9.7c-0.3-0.2-0.5-0.4-0.7-0.7c0,0,0.6-0.1,0.8-0.1c0.2,0,0.8,0.2,0.8,0.3c0,0.1,0,0.2,0,0.2
			c0,0-0.1,0-0.1,0c0,0,0,0.3,0,0.5c0,0.2,0,0.4,0,0.4S98.2,9.9,98,9.7L98,9.7L98,9.7z M100.6,7l0.4,0.2c0,0,0.3,0.5,0.2,0.7
			c-0.2,0.2-0.6,0-0.6,0c-0.1,0-0.2-0.1-0.4-0.1c-0.2,0-0.4,0-0.4,0s-0.6-0.3-0.8-0.5c-0.2-0.1-0.7-0.4-0.7-0.4c0,0,0-0.1,0.1-0.1
			C98.3,6.8,98.8,7,99,7c0.2,0,0.9-0.1,1-0.1C100.1,6.9,100.4,6.9,100.6,7L100.6,7L100.6,7z M99.2,9.1l0.1-0.7c0,0,0.4,0.1,0.7,0.2
			c0.2,0.1,0.4,0.3,0.6,0.4c0.1,0.2,0.1,0.2,0.1,0.2s-0.2,0-0.2,0c0,0,0,0.9,0,0.9s-0.3,0-0.4-0.1c-0.1-0.1-0.5-0.4-0.6-0.6
			C99.2,9.3,99.2,9.1,99.2,9.1L99.2,9.1L99.2,9.1z M99,9.7L99,9.5c0,0,0.2,0,0.2,0c0,0,0.4,0.4,0.5,0.5c0.1,0.1,0.6,0.3,0.6,0.3
			l0,0.1c0,0-0.1-0.1-0.1-0.1c0,0-0.1,0-0.2,0.1c0,0.1,0.1,0.3,0.1,0.4c0,0.1,0.1,0.3,0,0.3c0,0.1-0.7-0.4-0.7-0.5
			c-0.1-0.2-0.3-0.3-0.3-0.5C99.1,10,99.1,9.8,99,9.7L99,9.7L99,9.7z M100.7,9.9l0-0.4c0,0,0.3,0.2,0.5,0.3c0.2,0.1,0.6,0.2,0.7,0.5
			c0.2,0.3,0.2,0.9,0.2,0.9s-0.1,0-0.1,0c0,0-0.3-0.3-0.5-0.3c-0.2,0.1-0.1,0.3-0.1,0.3s-0.6-0.5-0.6-0.7
			C100.7,10.4,100.7,10.1,100.7,9.9L100.7,9.9L100.7,9.9z M100.3,11.3l-0.1-0.7c0,0,0.3,0.1,0.4,0.2c0.1,0.1,0.7,0.7,0.7,0.7
			s0,0.4,0,0.5c0,0.1,0,0.1,0,0.1s-0.2,0-0.3,0c-0.1,0-0.6-0.4-0.7-0.5C100.3,11.5,100.3,11.5,100.3,11.3L100.3,11.3L100.3,11.3z
			 M100.1,5.4L100.1,5.4c0.1-0.1,1,0.4,1.3,0.7c0.3,0.3,0.8,0.7,0.8,0.7l-0.4,0.4c0,0,1.2,1,1.7,1.5c0.5,0.5,1.2,1.3,1.2,1.3
			c0,0,0.4,0.2,0.5,0.5c0.1,0.3,0,1,0,1s-0.1,0-0.2,0c0,0-0.5-0.3-0.5-0.3s0-0.7,0-0.8c0-0.1-1-1.1-1.2-1.3
			c-0.2-0.2-1.4-1.2-1.5-1.4c-0.1-0.2-0.6-0.2-0.8-0.8c-0.2-0.6,0-0.5-0.1-0.6c-0.1-0.1-0.2-0.3-0.5-0.5
			C100.2,5.5,100.1,5.4,100.1,5.4L100.1,5.4L100.1,5.4z M101.5,7.7l-0.1,0c0,0,0,0.1,0,0.1c0,0,1.2,1,1.3,1.2c0.1,0.1,0.9,0.9,0.9,1
			c0,0,0.1,0.1,0.1,0.1c0,0.1-0.1,0.1-0.1,0c0,0-0.8-0.7-1-0.9c-0.2-0.2-0.6-0.5-0.7-0.6c-0.1-0.1-0.4-0.3-0.4-0.4
			c-0.1-0.1-0.1-0.1-0.2,0c-0.1,0-0.1,0.1-0.1,0.1c0,0.1,0.6,0.6,0.7,0.7c0.1,0.1,0.8,0.7,0.9,0.8c0.1,0.1,0.6,0.6,0.7,0.7
			c0,0.1,0.4,0.4,0.6,0.5c0.2,0,0.4-0.1,0.4-0.1c0-0.1,0.1-0.4,0-0.4c-0.1-0.1-0.8-0.8-1-0.9c-0.1-0.1-0.5-0.4-0.6-0.6
			c-0.1-0.2-0.5-0.4-0.6-0.6C102,8.1,101.6,7.8,101.5,7.7L101.5,7.7L101.5,7.7z M102.6,7.2l-0.1-0.1c0,0-0.1,0.1-0.1,0.1
			c0,0,0,0.1,0.1,0.2c0.1,0.1,1.4,1.4,1.6,1.5c0.2,0.2,1.2,1.2,1.3,1.5c0.1,0.3,0.2,0.5,0.2,0.7c0,0.1,0,0.6,0,0.8
			c0,0.2,0,0.5,0.3,0.6c0.3,0.1,0.4-0.1,0.5-0.2c0-0.1,0-0.5-0.1-0.7c-0.1-0.2-0.3-0.4-0.3-0.5c0-0.1-0.1-0.6-0.1-0.6
			s-1.1-1.3-1.5-1.7c-0.3-0.3-1-0.9-1.2-1.1C102.8,7.4,102.6,7.2,102.6,7.2L102.6,7.2L102.6,7.2z M101,8.8l0.2-0.1
			c0,0,1.1,1,1.5,1.3c0.3,0.3,1,1.1,1.1,1.1c0.1,0.1,0.5,0.1,0.6,0.1c0.1,0,0.6,0.3,0.7,0.4c0.1,0.1,0.3,0.4,0.3,0.5
			c0,0.1-0.4,0.1-0.5,0c-0.1-0.1-0.3-0.4-0.5-0.4c-0.2-0.1-0.5-0.1-0.5-0.1s-1-1.1-1.2-1.3c-0.2-0.2-1.5-1.4-1.5-1.4
			S100.9,8.8,101,8.8L101,8.8L101,8.8z M101.6,11.4l0-0.3c0.1,0,0.2,0.3,0.3,0.3c0.1,0,0.5-0.1,0.7,0c0.2,0.1,0.4,0.5,0.4,0.6
			c0,0.1-0.1,1.1-0.1,1.2c0,0.1,0,0.3,0.1,0.4c0.1,0,0.1,0.2,0.1,0.2s-0.3-0.1-0.3-0.1c0,0,0-0.1-0.1-0.4c-0.1-0.2-0.3-0.4-0.5-0.5
			c-0.2-0.1-0.4-0.3-0.4-0.4c-0.1-0.1-0.2-0.3-0.2-0.4C101.6,11.9,101.6,11.5,101.6,11.4L101.6,11.4L101.6,11.4z M106.4,11.1
			l-0.2-0.2c0,0-0.1,0-0.1,0l-0.1,0.1l0.1,0.1c0,0,0.2,0.3,0.2,0.3c0,0,0.2,0.3,0.2,0.3l0.1-0.1c0,0,0-0.1,0-0.2
			C106.6,11.3,106.5,11.2,106.4,11.1L106.4,11.1L106.4,11.1z M104.1,11.9l-0.2-0.1c0,0-0.1,0.1-0.1,0.1s0.5,0.8,0.6,0.8
			c0.1,0,0.4-0.1,0.5,0c0.1,0.1,0.4,0.5,0.5,0.6c0.1,0.1,0.6,0.1,0.6,0.1s0.2-0.2-0.1-0.5c-0.3-0.3-0.5-0.3-0.8-0.4
			c-0.3-0.1-0.5-0.1-0.6-0.1C104.6,12.3,104.2,11.9,104.1,11.9L104.1,11.9L104.1,11.9z M103.2,12.4l0-0.4c0,0,0.1,0.2,0.1,0.2
			c0,0,0.4,0.1,0.5,0.2c0.1,0.1,0.3,0.3,0.3,0.4c0,0,0.2,0.2,0.3,0.4c0.1,0.2,0.1,0.4,0.1,0.4s-0.5-0.3-0.7-0.2
			c-0.2,0.1-0.2,0.2-0.2,0.2s-0.5-0.4-0.5-0.6C103.1,12.7,103.2,12.6,103.2,12.4L103.2,12.4L103.2,12.4z M101.9,13.2l-0.6-0.9
			c0,0,0.2,0.2,0.3,0.2c0,0,0.6,0.5,0.6,0.6c0.1,0.1,0.3,0.4,0.3,0.4c0,0.1,0,0.2-0.1,0.2C102.3,13.7,102,13.3,101.9,13.2
			L101.9,13.2L101.9,13.2z M107.1,10.8L107.1,10.8c0.1,0,0.3,0.2,0.3,0.2c0,0,0.2,0.3,0.1,0.3c0,0-0.4,0.4-0.5,0.5
			c0,0.1-0.1,0.5-0.1,0.5c0,0,0.4-0.2,0.4-0.3c0.1-0.1,0.4-0.3,0.4-0.2c0,0,0.2,0.3,0.2,0.3c0,0,0.2,0.2,0.2,0.2
			c0,0-0.1,0.2-0.2,0.2c-0.1,0-0.6,0-0.7,0.1c-0.2,0-0.3,0-0.4,0c-0.1,0-0.2-0.2-0.2-0.3s0.1-0.6,0.1-0.7c0-0.1,0.1-0.5,0.1-0.6
			C107,10.9,107.1,10.8,107.1,10.8L107.1,10.8L107.1,10.8z M106.5,13l0-0.5c0,0,0.2,0.3,0.2,0.3c0.1,0,0.3,0,0.4,0.1
			c0,0,0.2,0.4,0.2,0.5c0,0.2,0,0.4,0,0.5c0,0.1-0.2,0.2-0.3,0.1c-0.1-0.1-0.3-0.3-0.3-0.4C106.6,13.4,106.5,13.2,106.5,13L106.5,13
			L106.5,13z M105.1,13l-0.2-0.2c-0.1,0,0,0.1,0,0.1c0,0,0.7,1.1,0.7,1.1c0,0,0.3,0.1,0.6,0.3c0.2,0.2,0.3,0.4,0.4,0.5
			c0.1,0.1,0.5,0.2,0.6,0c0.1-0.2,0.1-0.5-0.2-0.8c-0.3-0.3-0.5-0.4-0.8-0.5c-0.3-0.1-0.5-0.1-0.7-0.2
			C105.3,13.3,105.2,13.1,105.1,13L105.1,13L105.1,13z M104,14l-0.1-0.5c0,0,0.4,0.2,0.5,0.2c0.1,0,0.3,0,0.4,0.1
			c0.1,0.1,0.5,0.5,0.6,0.7c0.1,0.2,0,0.4,0,0.4c0,0-0.3,0-0.5-0.1c-0.1-0.1-0.3-0.1-0.3-0.1c0,0-0.1,0.2-0.1,0.3c0,0.1,0,0.3,0,0.3
			c0,0-0.1,0-0.1,0s0-0.2,0-0.3c0-0.1,0.1-0.3,0-0.5C104.4,14.5,104.1,14.1,104,14L104,14L104,14z M102.7,13.9l0.1-0.2
			c0.1,0.1,0.3,0.2,0.4,0.2c0.1,0,0.5,0,0.7,0.1c0.2,0.2,0.4,0.3,0.5,0.6c0.1,0.3,0,0.6,0,0.7c0,0.1-0.7,0-0.7,0
			c0,0-0.5-0.6-0.7-0.8C102.8,14.2,102.7,14,102.7,13.9L102.7,13.9L102.7,13.9z M107.4,13l0-0.2c0,0,0.3,0.4,0.5,0.7
			c0.1,0.3,0.2,0.4,0.2,0.4c0,0-0.2,0.5,0,1c0.3,0.5,0.2,0.9,0.1,1c-0.1,0.1-0.4,0.1-0.6-0.4c-0.3-0.4-0.3-1-0.2-1.1
			c0.1-0.1,0.2-0.6,0.2-0.8C107.6,13.5,107.5,13.1,107.4,13L107.4,13L107.4,13z M104.9,15.6l-0.1-0.6c0,0,0.5,0.2,0.6,0.3
			c0.2,0.1,0.4,0.1,0.4,0.2c0.1,0.1,0.4,0.5,0.4,0.6c0,0.1,0.1,0.3,0.1,0.4c-0.1,0-0.2-0.1-0.3-0.2c-0.1-0.1-0.2-0.2-0.3-0.2
			c-0.1,0-0.1,0.3-0.2,0.3c-0.1,0-0.2-0.2-0.2-0.3C105.3,16,105,15.7,104.9,15.6L104.9,15.6L104.9,15.6z M106.6,15.9l-0.6-1.3
			c0.1,0,0.4,0.4,0.5,0.5c0.1,0.1,0.6,0.2,1,0.5c0.4,0.4,0.7,0.7,0.7,0.8c0,0.2-0.1,0.4-0.2,0.5c-0.1,0-0.6-0.3-0.8-0.7
			C106.9,16,106.7,15.9,106.6,15.9L106.6,15.9L106.6,15.9z M108.5,14.7L108.5,14.7c-0.1-0.1-0.1,0-0.1,0c0,0,0.3,0.7,0.3,0.9
			c-0.1,0.2-0.3,0.8-0.3,1.2c0,0.4,0.4,0.9,0.5,0.9c0.1,0.1,0.4-0.3,0.4-0.5c0-0.2-0.2-0.6-0.3-0.8c0-0.2,0.1-0.6,0.1-0.6
			C109,15.8,108.5,14.8,108.5,14.7L108.5,14.7L108.5,14.7z M103.8,15.8l-0.1-0.2c0,0,0.4,0.1,0.5,0.1c0.1,0,0.3,0,0.5,0.1
			c0.1,0.1,0.5,0.6,0.5,0.6c0,0.1-0.4-0.2-0.4,0c-0.1,0.2,0,0.5,0,0.6c0,0.1-0.1,0.3-0.1,0.3c0,0-0.1-0.2-0.3-0.3
			c-0.2-0.1-0.4-0.6-0.4-0.7C104,16.1,103.8,15.8,103.8,15.8L103.8,15.8L103.8,15.8z M109.3,16.3l0-0.1l-0.1,0c0,0,0.3,0.8,0.3,1
			c0,0.2-0.3,0.7-0.3,0.7c0,0.1,0,0.7,0,0.7l1-0.1c0,0-0.2-1-0.4-1.3C109.6,17,109.3,16.3,109.3,16.3L109.3,16.3L109.3,16.3z
			 M107,16.5l-0.1-0.2l-0.1,0c0,0,0.6,1.6,0.7,1.7c0.1,0.1,0.4,0.2,0.4,0.3c0.1,0.1,0.5,0.8,0.7,0.7c0.2-0.1,0.4-0.6,0.2-1
			c-0.2-0.4-0.8-0.6-1.1-0.8C107.3,16.9,107,16.5,107,16.5L107,16.5L107,16.5z M105.8,16.5L105.8,16.5c0-0.1,0.1,0.1,0.2,0.1
			c0.1,0,0.4-0.1,0.7,0.7c0.3,0.7,0.1,1.4,0.1,1.4s-0.2-0.3-0.2-0.8c0-0.4-0.2-0.5-0.3-0.7c-0.2-0.2-0.3-0.4-0.4-0.4
			C105.9,16.7,105.8,16.6,105.8,16.5L105.8,16.5L105.8,16.5z M105,17l0-0.5c0,0,0.2,0.2,0.3,0.2c0.1,0,0.2,0,0.3,0
			c0.2,0.1,0.6,0.4,0.7,0.8c0.1,0.4,0.2,0.8,0.2,0.9c0,0.1,0.4,0.5,0.4,0.5l-0.1,0.2l0-0.1c0,0-0.2-0.2-0.3-0.3
			c0-0.1-0.1-0.2-0.2-0.3c-0.1-0.1-0.3-0.1-0.5-0.1c-0.2-0.1-0.6-0.5-0.6-0.7C105,17.4,105,17.1,105,17L105,17L105,17z M105.3,19.3
			l0.1-0.8c0,0,0.3,0.4,0.5,0.5c0.2,0.1,0.2,0.2,0.3,0.4c0.1,0.1,0.1,0.5,0.1,0.5s-0.3-0.3-0.4-0.3c-0.1,0-0.2,0.2-0.2,0.2
			c0,0-0.1,0.2-0.1,0.2c0,0-0.1,0.5-0.1,0.5s-0.1-0.3-0.1-0.5C105.4,19.8,105.2,19.4,105.3,19.3L105.3,19.3L105.3,19.3z M107.2,19.2
			l0-0.2l-0.1,0c0,0,0,0.1-0.1,0.2c-0.1,0.1-0.3,0.3-0.4,0.5c-0.1,0.2-0.1,0.6,0,0.8c0.1,0.1,0.2,0.6,0.2,0.6s0.1-0.1,0.2-0.2
			c0.1,0,0.1-0.1,0.1-0.1c0,0,0.1-0.5,0.3-0.5c0.1,0,0.3,0.3,0.3,0.3s0-0.7-0.1-0.9C107.4,19.4,107.2,19.2,107.2,19.2L107.2,19.2
			L107.2,19.2z M106.3,20.2l-0.4-0.5c0,0-0.3,0.7-0.1,1c0.1,0.3,0.9,1,0.9,1c0,0,0.1-0.4,0.1-0.4s-0.3-0.2-0.3-0.3
			C106.5,20.8,106.4,20.3,106.3,20.2L106.3,20.2L106.3,20.2z M107.3,20.9l0.2-0.3l0.1,0.1c0,0,0.1,0.3,0.2,0.4
			c0.1,0.1,0.2,0.3,0.2,0.4c0,0.1,0,0.9,0,0.9s-0.1-0.1-0.2-0.1c0,0-0.3,0.3-0.3,0.3l-0.6-0.6c0,0,0.1-0.6,0.1-0.7c0,0,0,0,0.1-0.1
			C107.2,21,107.3,20.9,107.3,20.9L107.3,20.9L107.3,20.9z M107.9,22.6l-0.1-0.1c0,0-0.2,0.2-0.2,0.2c0,0,0.4,0.4,0.4,0.4
			s0-0.3,0-0.3C108,22.7,107.9,22.6,107.9,22.6L107.9,22.6L107.9,22.6z M109.3,19.3L109.3,19.3l-0.1-0.1l-0.1,0.1c0,0,0,0.1,0,0.1
			c0,0,0.3,1.1,0.3,1.6c0.1,0.5,0.2,1.6,0.2,1.6l-0.1,0.1l-0.1,0c0,0-0.2-1.5-0.2-1.7c0-0.2-0.1-0.8-0.2-0.9c0-0.1-0.1-0.4-0.1-0.4
			c0,0-0.1-0.1-0.1-0.1c0,0-0.1,0.1-0.1,0.1c0,0,0,0.1,0,0.1c0,0,0.2,0.8,0.3,1.1c0,0.3,0.2,1.5,0.2,1.8c0,0.2,0.1,0.5,0.1,0.6
			c0.1,0.1,0.2,0.3,0.2,0.3c0,0,0.4-0.2,0.4-0.3c0-0.1,0.1-0.3,0.1-0.4c0-0.1-0.1-0.1-0.1-0.2c0-0.1-0.1-1.2-0.2-1.4
			c0-0.1-0.1-0.8-0.1-0.9c0-0.1-0.1-0.6-0.1-0.7C109.4,19.6,109.3,19.3,109.3,19.3L109.3,19.3L109.3,19.3z M109.8,19.2l0-0.1l-0.1,0
			l-0.1,0l-0.1,0.1c0,0,0.3,1.3,0.4,1.8c0.1,0.5,0.3,2,0.3,2.1c0,0.2-0.1,0.4-0.2,0.5c-0.1,0.1-0.4,0.4-0.4,0.4l0.1,0.6
			c0,0,0.1,0.2,0.1,0.2c0,0,0.6-0.4,0.6-0.8c0.1-0.4,0-0.6,0-0.7c0-0.1-0.2-1.7-0.2-1.9c0-0.2-0.2-1.2-0.2-1.4
			C110,19.8,109.8,19.2,109.8,19.2L109.8,19.2L109.8,19.2z M108.4,19.9L108.4,19.9c-0.1-0.1-0.2-0.1-0.2,0c0,0.1,0.2,1.4,0.3,1.8
			c0.1,0.4,0.2,1.9,0.2,1.9c0,0,0.9,1.2,0.9,1.2c0,0,0-0.1,0-0.2c0-0.1-0.1-0.5-0.2-0.6c-0.1-0.1-0.4-0.5-0.5-0.6
			c0-0.1-0.2-1.5-0.2-1.7c0-0.2-0.3-1.6-0.3-1.7C108.4,20,108.4,19.9,108.4,19.9L108.4,19.9L108.4,19.9z M110.5,19.6l-0.1-0.2
			c0,0-0.1,0-0.1,0.1c0,0.1,0.1,0.9,0.2,1.5c0.1,0.5,0.2,1.8,0.2,2c0,0.2,0.1,0.8,0,1.2c-0.2,0.4-0.4,0.6-0.4,0.6
			c0,0-0.3,0.3-0.3,0.3c0,0,0,0.1,0,0.1c0,0,0.5,0.6,0.5,0.6s0.2-0.4,0.2-0.6c0-0.2,0-0.4,0.1-0.6c0.1-0.1,0.3-0.3,0.3-0.4
			c0.1-0.1-0.1-1.8-0.2-2.2c0-0.4-0.2-1.1-0.2-1.4C110.7,20.2,110.5,19.6,110.5,19.6L110.5,19.6L110.5,19.6z M111.1,24.8L111.1,24.8
			l-0.1-0.1l-0.1,0l-0.1,0.1c0,0,0,0.5-0.1,0.7c-0.1,0.2-0.2,0.4-0.2,0.4s0,0.1,0,0.1c0,0,0.3,0.3,0.3,0.3l0.1,0c0,0,0-0.7,0-0.8
			C111.1,25.3,111.1,24.8,111.1,24.8L111.1,24.8L111.1,24.8z M106.4,25.1l-0.1-0.2c0,0-0.2,0.6-0.3,1c-0.1,0.4,0,0.5-0.1,0.8
			c0,0.3-0.1,0.4,0,0.5c0,0.1,0.1,0.2,0.1,0.2s0.1-0.2,0.2-0.3c0-0.1,0.1-0.1,0.1-0.1l0.3,0.3c0,0,0-0.2,0-0.2c0,0-0.1-0.2-0.2-0.3
			c0-0.1,0-0.3,0-0.5c0-0.2,0.2-0.4,0.2-0.6C106.5,25.5,106.4,25.1,106.4,25.1L106.4,25.1L106.4,25.1z M106.8,25.5l0.3-0.2l0.6,0.6
			c0,0-0.1,0.6-0.3,0.8c-0.2,0.2-0.6,0.4-0.6,0.4s-0.3-0.3-0.3-0.6c0-0.3,0.1-0.4,0.1-0.5C106.6,25.9,106.7,25.6,106.8,25.5
			L106.8,25.5L106.8,25.5z M107.5,26.8l0.3-0.5c0,0,0,0.3,0,0.4c0.1,0.1,0.2,0.3,0.2,0.6c0,0.3-0.2,1-0.2,1c0,0-0.2-0.6-0.5-0.6
			c-0.3,0-0.5,0.2-0.5,0.2l-0.2-0.3c0,0,0.1-0.2,0.3-0.3C107.2,27.1,107.4,27,107.5,26.8L107.5,26.8L107.5,26.8z M106.4,27.5
			l-0.1-0.3l-0.1,0c0,0-0.1,0.2-0.3,0.4c-0.1,0.1-0.3,0.2-0.4,0.4c-0.1,0.2,0,0.8,0,0.8s0.2,0,0.3,0.1c0.1,0.1,0.2,0.4,0.2,0.4
			s0.1-0.4,0.2-0.7c0.1-0.3,0.4-0.5,0.4-0.5s-0.1-0.2-0.1-0.2C106.6,27.7,106.4,27.6,106.4,27.5L106.4,27.5L106.4,27.5z M109.7,28.3
			l0.1-0.1l-1.1-1.3l0,0.1c0,0,0.2,0.1,0.2,0.3c0,0.2,0,0.8,0.2,1c0.2,0.2,0.3,0.3,0.4,0.2C109.5,28.5,109.7,28.4,109.7,28.3
			L109.7,28.3L109.7,28.3z M109.7,28.5l0.2-0.2l0.4,0.5c0,0-0.1,0.6-0.2,0.8c-0.1,0.2-0.2,0.3-0.3,0.3c-0.1,0-0.3-0.2-0.3-0.7
			C109.5,28.8,109.6,28.6,109.7,28.5L109.7,28.5L109.7,28.5z M108.7,27.7l0-0.1c0,0,0-0.1,0-0.1c0,0-0.1,0.1-0.1,0.1l-0.2,0.9
			c0,0-0.1,0.3,0,0.5c0.1,0.2,0.2,0.4,0.2,0.5c0,0.2,0,0.6,0.1,0.8c0.1,0.1,0.1,0.3,0.2,0.3s0.4-0.1,0.4-0.4c0-0.3,0-0.7-0.1-1.2
			c-0.1-0.4-0.4-0.6-0.5-0.8C108.7,28.2,108.7,27.8,108.7,27.7L108.7,27.7L108.7,27.7z M107.1,28l0.2-0.2l0.1,0.1l0.1,0.2
			c0,0,0.3,0.5,0.3,0.6c0,0.2-0.1,0.6-0.2,0.7c0,0.1-0.1,0.4-0.1,0.4s-0.2-0.5-0.4-0.5c-0.2,0-0.5,0.4-0.5,0.4s-0.2-0.1-0.1-0.3
			c0-0.3,0.1-0.7,0.3-0.9C106.8,28.2,107,28,107.1,28L107.1,28L107.1,28z M105.6,29.1l0.1-0.1c0,0,0.2,0.2,0.2,0.2
			c0,0.1,0.1,0.3,0.1,0.3c0.1,0.1,0.2,0.2,0.3,0.4c0,0.2,0,0.7-0.1,0.7c0,0-0.2-0.3-0.3-0.2c-0.2,0.1-0.4,0.4-0.4,0.4
			c0,0-0.1,0-0.1,0c0,0.1-0.2-0.1-0.2-0.5c0.1-0.4,0.1-0.8,0.2-0.9C105.6,29.3,105.6,29.1,105.6,29.1L105.6,29.1L105.6,29.1z
			 M110.4,29.2L110.4,29.2c0-0.1,0.1,0,0.1,0c0,0,0,0.1,0,0.1c0,0-0.2,0.9-0.2,0.9c0,0.1-0.1,0.2-0.2,0.3c-0.1,0-0.3,0.1-0.3,0.2
			c-0.1,0.1,0,0.2-0.1,0.4c0,0.2,0,0.3-0.2,0.4c-0.2,0.1-0.3,0.2-0.3,0.3c0,0.1-0.5,1.3-0.6,1.5c-0.1,0.2-0.8,1.6-0.8,1.7
			c-0.1,0.2-0.2,0.6-0.3,0.8c-0.1,0.2-0.3,0.4-0.5,0.5c-0.2,0.1-0.5,0.2-0.6,0.2c-0.1,0-0.1-0.1-0.1-0.1c0-0.1,0.2-0.5,0.3-0.6
			c0.1-0.1,0.6-0.2,0.7-0.3c0.1-0.1,0.3-0.5,0.3-0.6c0.1-0.2,0.7-1.4,0.8-1.7c0.1-0.2,0.4-1.2,0.5-1.3c0-0.1,0-0.6,0.1-0.8
			c0.1-0.2,0.4-0.6,0.7-0.8c0.3-0.2,0.4-0.1,0.4-0.2c0.1-0.1,0.2-0.4,0.2-0.5C110.4,29.5,110.4,29.2,110.4,29.2L110.4,29.2
			L110.4,29.2z M108.2,29.4L108.2,29.4c0.1-0.1,0.1,0,0.1,0c0,0-0.1,0.9,0,1.1c0.1,0.2,0.4,0.7,0.4,1.1c0,0.4-0.1,0.5-0.1,0.5
			c0,0.1-0.2,0.2-0.4,0.7c-0.2,0.6-0.3,0.9-0.5,1.1c-0.1,0.2-0.3,0.5-0.4,0.7c-0.1,0.2,0,0.3-0.1,0.4c0,0.1-0.1,0.3-0.3,0.3
			c-0.2,0.1-0.4,0.1-0.4,0.1c0,0-0.2-0.2,0-0.7c0.2-0.5,0.6-1.1,0.8-1.6c0.2-0.5,0.5-1.1,0.5-1.4c0-0.3,0-0.5-0.1-0.6
			c0-0.1-0.1-0.2,0-0.3c0-0.1,0.2-0.8,0.3-1C108.1,29.7,108.2,29.4,108.2,29.4L108.2,29.4L108.2,29.4z M108.1,32.5L108.1,32.5
			c-0.1,0-0.2,0-0.4,0.6c-0.2,0.6-0.3,0.8-0.4,1c-0.1,0.1-0.1,0.3-0.1,0.3c0,0,0.1,0,0.1,0c0,0,0.3-0.4,0.5-0.8
			c0.2-0.4,0.3-0.7,0.3-0.8C108.1,32.6,108.1,32.5,108.1,32.5L108.1,32.5L108.1,32.5z M107.1,29.7l-0.1-0.3c0,0-0.1,0-0.1,0.1
			c0,0-0.3,0.3-0.3,0.3s0.1,0.4,0,0.6c0,0.2-0.2,0.5-0.2,0.6c0,0,0,0.2,0,0.2c0,0,0,0.4,0,0.4s0.3-0.3,0.4-0.3c0.1,0,0.3,0,0.3,0
			c0,0,0.4-0.9,0.3-1.2C107.3,29.9,107.2,29.9,107.1,29.7L107.1,29.7L107.1,29.7z M105.9,30.7L105.9,30.7c0.1,0,0.2,0.6,0.2,1
			c0,0.4-0.2,0.9-0.4,1c-0.2,0.1-0.5,0.3-0.5,0.3c0,0,0-0.2-0.1-0.4c-0.1-0.2-0.2-0.4-0.2-0.6c0-0.2,0-0.5,0.2-0.7
			c0.1-0.2,0.4-0.2,0.5-0.3C105.7,30.9,105.9,30.7,105.9,30.7L105.9,30.7L105.9,30.7z M106.8,31.9l0-0.4l-0.5,0.3c0,0,0,0.4-0.2,0.8
			c-0.2,0.3-0.8,0.7-0.8,0.7l-0.1,0.4c0,0,0.4-0.1,0.5-0.1c0.1,0,0,0.3,0,0.3c0,0,0.6-0.7,0.8-1.2C106.8,32.2,106.8,32.1,106.8,31.9
			L106.8,31.9L106.8,31.9z M104.8,32.1L104.8,32.1L104.8,32.1l-0.5,0.4l0.4,1.2l0.1,0.1c0,0,0.2-0.3,0.2-0.5c0-0.3,0-0.3,0-0.4
			c0-0.1-0.1-0.2-0.1-0.3C104.9,32.3,104.8,32.1,104.8,32.1L104.8,32.1L104.8,32.1z M105.6,34.1l0-0.3c0,0-0.3,0.1-0.4,0.1
			c-0.1,0-0.3,0-0.3,0c0,0-0.1,0.1-0.1,0.1c0,0,0.4,1.2,0.4,1.2s0.3-0.4,0.3-0.6C105.6,34.3,105.6,34.2,105.6,34.1L105.6,34.1
			L105.6,34.1z M105.7,35.6l0-0.2l-0.1-0.1l-0.1,0.1l-0.1,0.3c0,0,0.1,0.2,0.1,0.2C105.6,35.9,105.7,35.6,105.7,35.6L105.7,35.6
			L105.7,35.6z M107.4,31.5L107.4,31.5l0.2,0l0,0.2c0,0-0.4,1.1-0.5,1.4c-0.1,0.3-0.6,1.2-0.7,1.4c-0.1,0.2-0.2,0.3-0.2,0.4
			c0,0.1,0.1,0.6,0,1c-0.1,0.4-0.4,0.9-0.4,0.9l-0.2-0.5c0,0,0.2-0.3,0.2-0.6c0-0.3-0.1-0.5,0-0.6c0.1-0.1,0.7-1.5,0.9-1.9
			c0.2-0.4,0.5-1.1,0.5-1.3C107.3,31.8,107.4,31.5,107.4,31.5L107.4,31.5L107.4,31.5z M109.5,32.4l0.1-0.1l0,0.1c0,0-0.6,1.4-0.8,2
			c-0.2,0.5-1.1,2.1-1.2,2.2c-0.1,0.1-0.2,0.2-0.3,0.2c-0.1,0-0.2,0.1-0.3,0.1c-0.1,0.1-0.4,0.5-0.6,0.6c-0.2,0.1-0.3,0.1-0.3,0.1
			S106,36.9,106,37c0,0,0.7-0.2,0.9-0.3c0.2-0.1,0.6-0.3,0.6-0.3c0-0.1,0.6-0.9,1.1-2c0.5-1,0.7-1.8,0.8-1.8
			C109.3,32.5,109.5,32.4,109.5,32.4L109.5,32.4L109.5,32.4z M107.2,37.1l0.1,0l0,0.1c0,0-0.4,0.6-0.5,0.8c-0.1,0.2-0.4,0.5-0.4,0.5
			l-0.1-0.5l0.1,0c0,0,0.4-0.1,0.5-0.3C106.9,37.4,107.1,37.1,107.2,37.1L107.2,37.1L107.2,37.1z M103.3,33.5l2.5,6.5
			c0,0,0.4-0.5,0.5-0.6c0,0,0-0.5-0.1-0.6c0-0.2-2.4-6.4-2.4-6.4l-1.2,2.1L105,41l0.5-0.6l-2.5-6.4L103.3,33.5L103.3,33.5
			L103.3,33.5z M102.3,36l0.3-0.5l0.3,0.8c0,0-0.3,0-0.3,0.1c-0.1,0-0.3,0.1-0.3,0.1C102.3,36.5,102.2,36.2,102.3,36L102.3,36
			L102.3,36z M102.6,36.6l0.4,0l0.2,0.2c0,0,0.1,0.6,0.1,0.6c0,0-0.5,0.6-0.7,0.6c-0.2,0-0.9,0-1.2,0.1c-0.2,0.1-0.4,0.1-0.4,0.1
			c0,0,0,0.1,0,0.1s0-0.2,0.1-0.3c0.2-0.1,0.2,0,0.4-0.2c0.2-0.2,0.2-0.6,0.3-0.7C101.8,37,102.4,36.6,102.6,36.6L102.6,36.6
			L102.6,36.6z M100.2,38.3l0.6-0.4c0,0-0.1,0.3-0.1,0.6c0,0.3,0,0.5-0.1,0.7c-0.1,0.1-0.5,0.6-0.7,0.7c-0.1,0-0.6,0-0.6,0
			s0-0.5,0-0.6c0-0.1-0.1-0.1-0.1-0.1S100,38.4,100.2,38.3L100.2,38.3L100.2,38.3z M102.2,38.3l0.4-0.1c0,0-0.1,0.2-0.1,0.4
			c0,0.2-0.1,0.4-0.2,0.5c-0.1,0.1-0.5,0.6-0.7,0.6c-0.1,0-0.4,0.2-0.4,0.2s0.1-0.4,0.1-0.5c0-0.2,0-0.3,0-0.3c0,0-0.2,0-0.2,0
			s0-0.3,0.4-0.5C101.9,38.2,102.1,38.4,102.2,38.3L102.2,38.3L102.2,38.3z M101,39.7l0.2-0.5c0,0-0.4,0.1-0.4,0.1
			c0,0-0.6,0.6-0.7,0.7c-0.1,0.1-0.4,0.1-0.4,0.1l-0.2,0l-0.1,0.1c0,0,0.2,0,0.2,0c0,0,0.3-0.1,0.4,0c0,0,0.1,0.1,0,0.2
			c0,0.1-0.2,0.6-0.2,0.6c0,0,0.3,0,0.4-0.1c0.1-0.1,0.7-0.5,0.7-0.7C101,40,100.9,39.9,101,39.7L101,39.7L101,39.7z M99.1,39.6
			l0-0.3c0,0-0.1,0-0.3,0c-0.1,0-0.7,0.4-0.7,0.4L98,40.6c0,0,0.4-0.1,0.5,0c0.1,0.1,0.1,0.4,0.1,0.4s0.4-0.3,0.4-0.5
			c0.1-0.2,0.1-0.2,0.1-0.4C99.1,39.9,99.1,39.7,99.1,39.6L99.1,39.6L99.1,39.6z M103.6,38.2l-0.1-0.1l-1,1.1l-0.1,0l-1,1.1l-0.2,0
			l-1,0.9l-0.4,0l-0.2,0.1c0,0-0.1-0.2,0-0.3c0-0.2,0-0.3,0.1-0.3c0-0.1,0.1-0.2,0.1-0.3c0,0,0-0.1-0.1,0c-0.1,0-0.2,0.1-0.3,0.1
			c0,0-0.1,0-0.2,0c0,0-0.2,0.3-0.3,0.4c-0.1,0.1-0.5,0.4-0.5,0.4s0.2,0.1,0.2,0.1c0,0,0.1,0.1,0.1,0.2c0,0.1,0,0.2-0.1,0.3
			c-0.1,0.1-0.1,0.2-0.1,0.2c0,0.1-0.1,0.2-0.1,0.2c-0.1,0-0.2,0-0.1,0c0.1-0.1,0-0.3,0.1-0.4c0.1-0.1,0.2-0.2,0.2-0.2
			c0-0.1,0.1-0.1,0-0.1c-0.1,0-0.2,0-0.2,0.1c0,0-0.4,0.5-0.5,0.6c-0.1,0.1-0.3,0.3-0.3,0.3s0,0.2,0,0.3c0,0.1-0.1,0.3-0.2,0.3
			c0,0-0.2,0.2-0.2,0.2s1.4-0.9,1.5-1c0.1-0.1,1-0.8,1-0.8c0,0,0.4,0,0.4,0l1-0.9l0.2,0l1.1-1.1l0.2,0L103.6,38.2L103.6,38.2
			L103.6,38.2z M98.3,40.9l0.1-0.2L98,40.7L97.7,42c0,0,0.5-0.4,0.5-0.6C98.3,41.3,98.2,40.9,98.3,40.9L98.3,40.9L98.3,40.9z
			 M94.2,41.4l1.2-0.5l-0.1,0.5c0,0-0.8,0.3-1,0.4c-0.3,0.1-1.1,0.4-1.1,0.4l-0.2-0.4C93.1,41.7,93.9,41.5,94.2,41.4L94.2,41.4
			L94.2,41.4z M94.2,42l1-0.4l-0.1,0.3c0,0-0.7,0.3-0.9,0.3c-0.2,0.1-1,0.4-1,0.3l0-0.3C93.3,42.2,93.9,42.1,94.2,42L94.2,42
			L94.2,42z M93.4,42.8l1.8-0.7l-0.1,0.3l-1.9,0.7l0-0.1l0.1-0.1L93.4,42.8L93.4,42.8L93.4,42.8z M93.9,43.1l1.2-0.4L95,43.1
			c0,0-0.7,0.2-1,0.3c-0.3,0.1-0.9,0.3-0.9,0.2l0.1-0.3C93.1,43.3,93.6,43.2,93.9,43.1L93.9,43.1L93.9,43.1z M94.9,44.2L94.9,44.2
			l0.3,0.1c0,0-1.3,0.8-1.7,0.9c-0.3,0.1-1.3,0-1.5,0c-0.1,0-1.7-0.1-1.8-0.1c-0.1,0-0.4,0-0.5-0.1c-0.1-0.1-0.2-0.2-0.2-0.3
			c0-0.1,0-0.2,0-0.2c0,0,0.1,0,0.2,0c0,0,0.2,0.2,0.3,0.2c0.1,0,1.2,0.1,1.6,0.2c0.4,0,1.3,0.1,1.6,0c0.3-0.1,0.8-0.3,1-0.4
			C94.4,44.5,94.9,44.2,94.9,44.2L94.9,44.2L94.9,44.2z M94.8,50.8l0-1l-1.6-0.7l0.1,1.8L94.8,50.8L94.8,50.8L94.8,50.8z
			 M100.3,49.7l0-4.2l-1,0.5l-0.1,4.5l2.5-0.2l-0.1-0.6L100.3,49.7L100.3,49.7L100.3,49.7z M102,48.4l-0.2-3.9c0,0-0.5,0.4-0.5,0.4
			c0,0-0.1-0.1-0.1-0.1l-0.5,0.4l0,4.2l2.9-0.3l-0.1-0.9L102,48.4L102,48.4L102,48.4z M98.4,48.4l0.2-0.3l-2-1L96,47.2L98.4,48.4
			L98.4,48.4L98.4,48.4z M98.1,48.9l0.1-0.3l-2.8-1.3l-0.8,0L98.1,48.9L98.1,48.9L98.1,48.9z M97.8,49.5l0.2-0.3l-4.1-1.9l-0.9,0
			L97.8,49.5L97.8,49.5L97.8,49.5z M93.1,47.6l4.7,2.1L97.6,50l-5.3-2.4L93.1,47.6L93.1,47.6L93.1,47.6z M97.2,50.5l0.2-0.3L92,47.8
			l0.3,0.5L97.2,50.5L97.2,50.5L97.2,50.5z M87.6,43.9l0.1,0.2c0,0-0.5,0.1-0.5,0.6c0,0.5,0.4,0.6,0.4,0.6l0,0.1
			c0,0-0.6-0.1-0.5-0.7C87,44.1,87.6,43.9,87.6,43.9L87.6,43.9L87.6,43.9z M88.9,44.3l0,1.1l-0.2,0.2c0,0-0.5,0.2-0.7,0.3
			c-0.2,0-0.8,0-1-0.1c-0.2,0-0.3-0.2-0.4-0.3c0,0,0,0,0,0l0-1.2c0,0,0,0,0,0c0,0,0,0,0,0l0-0.1c0,0,0,0,0,0c0,0,0-0.1,0-0.1
			c0-0.1,0.5-0.5,1-0.5c0.5,0,0.6,0,0.9,0.1c0.2,0.1,0.3,0.2,0.4,0.3C88.9,44.1,88.9,44.3,88.9,44.3L88.9,44.3L88.9,44.3z M85,2
			l2.5-0.2l0.2,0.1l0,0.2l-0.1,0.1L85,2.3l-1.7,0.3c0,0-0.5,0.2-0.6,0.3c-0.1,0.1-0.4,0.5-0.5,0.7C82.1,3.7,81.7,4,81.5,4
			C81.4,4,81,3.9,81,3.6c0-0.3,0.4-0.5,0.6-0.5c0.2-0.1,0.6-0.2,0.7-0.2c0.1-0.1,0.3-0.4,0.5-0.5C82.9,2.3,84.4,2,85,2L85,2L85,2z
			 M82.7,47.2L82.6,47c0,0,0.5,0,0.7,0c0.3-0.1,1-0.2,1-0.2l0.1,0c0.7,1.1,2,1.8,3.4,1.8c1.3,0,2.5-0.6,3.2-1.6l0,0l0.8,0.2l0.4,0.1
			l0.4,0.1l-0.1,0.1h-0.6l-0.3,0.4l0.3,0.6L91.4,49l-0.5-0.3l-0.7,0.4l0.1,0.6L89.6,50l-0.5-0.5l-0.8,0.1l-0.1,0.6l-1,0l-0.1-0.6
			l-0.8-0.2L86,49.9l-0.9-0.4l0-0.6l-0.5-0.4l-0.5,0.4l-0.7-0.6l0.3-0.6l-0.3-0.5L82.7,47.2L82.7,47.2L82.7,47.2z M84.9,46.6
			l0.8-0.4l0,0c0.5,0.6,1.3,1,2.1,1c0.8,0,1.5-0.3,2-0.9l0,0l0.8,0.4l0,0c-0.7,0.8-1.7,1.3-2.8,1.3C86.6,48.1,85.5,47.5,84.9,46.6
			L84.9,46.6L84.9,46.6z M83.3,3.7l-0.8-0.1c0,0,0-0.4,0.3-0.5c0.3-0.2,1-0.3,1.4-0.3c0.4-0.1,1.2-0.2,1.6-0.2
			c0.4,0,1.8-0.1,1.8-0.1l0.1,0.1l0,0.1l0,0.1c0,0-1.4,0.1-1.8,0.1c-0.4,0-1.3,0.1-1.6,0.2c-0.3,0.1-0.7,0.3-0.8,0.4
			C83.3,3.5,83.3,3.7,83.3,3.7L83.3,3.7L83.3,3.7z M86.7,2.9l0.8,0L87.7,3l-0.1,0.1c0,0-1.6,0.1-2,0.1c-0.3,0.1-1.4,0.2-1.5,0.2
			C84,3.6,84,3.7,84,3.7c0,0,1.3-0.1,1.6-0.2c0.4,0,1.4-0.1,1.6-0.1c0.1,0,0.2,0.1,0.2,0.1v0.1l-0.1,0.1c0,0-1.4,0-1.9,0.1
			C85,3.9,84.3,4,84.1,4c-0.1,0-0.5,0-0.6,0c-0.1-0.1-0.2-0.1-0.1-0.3c0.1-0.1,0.1-0.3,0.2-0.3c0.2-0.1,0.2-0.2,0.7-0.2
			C84.8,3.1,85.6,3,85.8,3C85.9,3,86.4,2.9,86.7,2.9L86.7,2.9L86.7,2.9z M82.7,3.8c-0.1,0-0.2,0-0.3,0c-0.1,0.1-0.2,0.1-0.2,0.2
			c0,0.2,0.3,0.4,0.4,0.4c0.1,0,0.6,0,0.8,0c0.1,0,0.6,0,0.7,0c0.1,0,0.5-0.1,0.9-0.2c0.4-0.1,0.8-0.1,1.1-0.1c0.2,0,1,0,1.1,0
			c0.1,0,0.2-0.1,0.2-0.1c0,0-0.1-0.2-0.1-0.2c-0.1,0-1.5,0.1-2.1,0.2c-0.7,0.1-1,0.2-1.1,0.2c-0.1,0-0.4-0.1-0.5-0.1
			C83.1,4.1,83,3.9,82.7,3.8L82.7,3.8L82.7,3.8z M86.8,5.2l0.4-0.3c0,0-0.2,0-0.3-0.1c-0.1,0-0.4-0.2-0.9-0.2
			c-0.5,0-0.9,0.5-0.9,0.5s0.2,0.1,0.3,0.1c0.1,0,0.3,0.2,0.4,0.3c0,0.1-0.1,0.4-0.1,0.4c-0.1,0,0.2,0,0.3,0c0.1,0,0.5-0.1,0.6-0.2
			C86.7,5.4,86.7,5.3,86.8,5.2L86.8,5.2L86.8,5.2z M82,2.8l0-0.2c0,0-0.7,0.2-0.9,0.2c-0.2,0.1-0.7,0.2-0.8,0.3
			c-0.1,0.1,0,0.2,0,0.2c0,0-0.1,0.3-0.7,0.4c-0.5,0.2-0.6,0.6-0.6,0.6c0,0,0.1,0.1,0.1,0.2c0.1,0,0.6,0,0.9-0.1
			c0.3-0.2,0.5-0.4,0.5-0.5c0.1-0.1,0.1-0.3,0.3-0.5C81,3.1,81,3.1,81.3,3C81.6,2.9,81.9,2.8,82,2.8L82,2.8L82,2.8z M80.6,4.2
			l0.4-0.1c0.4,0,0.7,0.1,0.9,0.2c0.1,0.1,0.2,0.3,0.4,0.3C82.4,4.7,83,4.7,83,4.7L82,5c0,0-0.1-0.2-0.4-0.2c-0.3-0.1-0.5,0.1-0.8,0
			c-0.3-0.1-0.4-0.2-0.4-0.3C80.3,4.4,80.5,4.3,80.6,4.2L80.6,4.2L80.6,4.2z M85.3,5.7l0.2-0.2c0,0,0-0.1-0.1-0.1
			c-0.1,0-0.3-0.3-0.7-0.2c-0.3,0.1-0.5,0.1-0.8,0.3c-0.2,0.2-0.3,0.4-0.3,0.5c0,0.1-0.1,0.1-0.1,0.2c0,0,0.3,0.3,0.7,0.3
			c0.3-0.1,0.7-0.2,0.8-0.3C85.1,6,85.3,5.7,85.3,5.7L85.3,5.7L85.3,5.7z M83.9,5.3l0.2-0.1c0,0-0.2,0-0.3,0c-0.1,0-0.1-0.1-0.6-0.1
			c-0.5,0-0.9,0.3-0.9,0.3s0.5,0.1,0.6,0.3c0.1,0.2-0.2,0.6-0.2,0.6S83,6.3,83,6.3c0,0,0.2-0.1,0.2-0.2c0-0.1,0.1-0.4,0.2-0.5
			C83.6,5.4,83.8,5.3,83.9,5.3L83.9,5.3L83.9,5.3z M85.6,6.3l-0.3-0.2c-0.1,0-0.3,0.3-0.7,0.4c-0.4,0.1-1,0-1,0s0.1,0.2,0,0.2
			c0,0.1-0.4,0.4-0.4,0.4s0.7-0.2,1-0.2C84.6,6.9,85,6.9,85,6.8c0,0,0.2-0.1,0.3-0.3C85.4,6.4,85.6,6.3,85.6,6.3L85.6,6.3L85.6,6.3z
			 M81.4,5l0.2,0.1l-1.5,0.6c0,0-0.2-0.2-0.5-0.1c-0.4,0.1-0.7,0.1-0.8,0c-0.1-0.1-0.3-0.2-0.3-0.3c0.1-0.1,0.3-0.4,0.5-0.4
			c0.2-0.1,0.5-0.1,0.9,0C80.2,4.8,80.5,5,80.7,5C80.9,5.1,81.3,5,81.4,5L81.4,5L81.4,5z M80.9,6l-0.2-0.2c0.1,0,0,0,0.3-0.1
			c0.2-0.1,0.3-0.2,0.7-0.2c0.3,0,0.5,0.1,0.6,0.1c0.1,0,0.4,0.1,0.4,0.2c0,0.1-0.1,0.3-0.3,0.4c-0.1,0.1-0.2,0.3-0.2,0.4
			c0,0-0.8,0.3-0.9,0.3c-0.1,0-0.3,0-0.3,0c0,0,0.1-0.1,0.1-0.2c0.1-0.1,0.2-0.3,0.1-0.4C81.2,6.1,81,6,80.9,6L80.9,6L80.9,6z
			 M82.6,6.4L82.6,6.4c-0.1,0-0.2,0.3-0.4,0.4c-0.2,0.1-0.8,0.3-0.8,0.3s0.4,0,0.4,0.1c0.1,0.1,0.1,0.3,0.1,0.3s0.4,0,0.5,0
			c0.1,0,0.3,0,0.4-0.1c0.1-0.1,0.1-0.2,0.3-0.3c0.2-0.1,0.3-0.3,0.4-0.3c0,0-0.1-0.1-0.3-0.1C82.9,6.7,82.6,6.4,82.6,6.4L82.6,6.4
			L82.6,6.4z M79.1,3.5l0.7-0.3l0,0.1l-0.1,0.1c0,0-0.4,0-0.7,0.3c-0.3,0.3-0.5,1.1-0.9,1.4c-0.4,0.2-1,0.4-1.1,0.2
			c-0.1-0.2,0-0.4,0.2-0.5c0.2-0.1,0.5-0.3,0.7-0.4c0.2-0.1,0.2-0.5,0.3-0.5C78.4,3.9,78.7,3.6,79.1,3.5L79.1,3.5L79.1,3.5z
			 M79.3,6.7l-0.1-0.3c0,0,0.6-0.3,0.7-0.3C79.9,6.1,80,6,80.2,6c0.2,0,0.4,0.1,0.5,0.1C80.9,6.2,81,6.2,81,6.3c0,0-0.1,0.2-0.2,0.3
			c-0.1,0.1-0.1,0.2-0.1,0.2S80.3,6.7,80,6.8c-0.3,0.1-0.5,0.3-0.5,0.3l-0.5,0c0,0,0-0.1,0-0.2C79.2,6.9,79.2,6.8,79.3,6.7L79.3,6.7
			L79.3,6.7z M77.7,4.4V4.2c0,0-0.6,0.3-0.8,0.4c-0.2,0.1-0.4,0.3-0.5,0.3c0,0-0.1,0.4-0.2,0.5c-0.1,0.1-0.5,0.2-0.7,0.4
			c-0.2,0.2-0.2,0.5-0.2,0.5c0,0.1,0.3,0.1,0.4,0.1c0.1,0,0.5-0.1,0.6-0.3c0.1-0.2,0.4-0.4,0.4-0.6c0-0.2,0-0.3,0.1-0.5
			c0.1-0.1,0.3-0.3,0.4-0.4C77.4,4.6,77.6,4.5,77.7,4.4L77.7,4.4L77.7,4.4z M79.5,5.8l-0.4,0.1c-0.1,0-0.8-0.2-1.1-0.2
			c-0.2,0-0.8,0-1,0.1c-0.2,0.1-0.4,0.3-0.3,0.5c0.1,0.2,0.3,0.2,0.5,0.2c0.2,0,0.5-0.1,0.7-0.1c0.2,0,0.4,0,0.5,0.1
			c0.1,0,0.7-0.2,0.8-0.3c0.1-0.1,0.5-0.3,0.5-0.3s0,0,0-0.1C79.6,5.8,79.5,5.7,79.5,5.8L79.5,5.8L79.5,5.8z M78.8,7.1L79,6.6
			c0,0-0.8,0.2-1.3,0.5c-0.5,0.3-0.9,0.8-0.9,0.8L77.1,8l0,0.5l0.4-0.2c0,0,0.1-0.4,0.5-0.7C78.3,7.3,78.8,7.1,78.8,7.1L78.8,7.1
			L78.8,7.1z M80.2,7.3l-0.3-0.1c0,0,0.4-0.2,0.7-0.2c0.3,0.1,0.4,0.2,0.6,0.3c0.1,0.1,0.4,0.1,0.4,0.1c0,0,0.1,0.1,0.1,0.1
			c0,0-0.6,0.4-0.8,0.5c-0.3,0.1-0.9,0.1-0.9,0.1s0-0.1,0-0.2C79.9,7.8,80.3,7.6,80.2,7.3L80.2,7.3L80.2,7.3z M78.4,7.5
			c0.5-0.2,1-0.1,1.5,0c0,0-0.1,0.2-0.2,0.4c-0.1,0.2-0.3,0.6-0.5,0.6c-0.3,0.1-0.9,0-1.1-0.1c-0.2,0-0.4,0-0.4,0S77.9,7.6,78.4,7.5
			L78.4,7.5L78.4,7.5z M78.1,9.5c0.3-0.2,0.5-0.4,0.7-0.7c0,0-0.6-0.1-0.8-0.1c-0.2,0-0.8,0.2-0.8,0.3c0,0.1,0,0.2,0,0.2
			c0,0,0.1,0,0.1,0c0,0,0,0.3,0,0.5c0,0.2,0,0.4,0,0.4S77.9,9.6,78.1,9.5L78.1,9.5L78.1,9.5z M75.6,6.7l-0.4,0.2
			c0,0-0.3,0.5-0.2,0.7c0.2,0.2,0.5,0,0.6,0c0.1,0,0.2-0.1,0.4-0.1c0.2,0,0.4,0.1,0.4,0.1S77,7.1,77.3,7C77.5,6.9,78,6.7,78,6.6
			c0,0,0-0.1-0.1-0.1c-0.1,0-0.6,0.2-0.8,0.2c-0.2,0-0.9-0.1-1-0.1C76.1,6.6,75.8,6.6,75.6,6.7L75.6,6.7L75.6,6.7z M76.9,8.8
			l-0.1-0.7c0,0-0.4,0.1-0.7,0.2c-0.2,0.1-0.4,0.3-0.6,0.4c-0.1,0.2-0.1,0.2-0.1,0.2S75.7,9,75.7,9c0,0,0,0.9,0,0.9s0.3,0,0.4-0.1
			c0.1-0.1,0.5-0.4,0.6-0.5C76.9,9,76.9,8.8,76.9,8.8L76.9,8.8L76.9,8.8z M77.1,9.4l0.1-0.2c0,0-0.2,0-0.2,0c0,0-0.4,0.4-0.5,0.5
			c-0.1,0.1-0.6,0.3-0.6,0.3l0,0.1c0,0,0.1-0.1,0.1-0.1c0,0,0.1,0,0.2,0.1c0,0.1-0.1,0.3-0.1,0.4c0,0.1-0.1,0.3-0.1,0.3
			c0,0.1,0.7-0.3,0.8-0.5c0.1-0.2,0.3-0.3,0.3-0.5C77,9.7,77,9.5,77.1,9.4L77.1,9.4L77.1,9.4z M75.4,9.6V9.1c0,0-0.3,0.2-0.5,0.3
			c-0.2,0.1-0.6,0.2-0.7,0.5C74,10.2,74,10.8,74,10.8s0.1,0,0.1,0c0,0,0.3-0.3,0.5-0.3c0.2,0.1,0.1,0.3,0.1,0.3s0.6-0.5,0.6-0.7
			C75.4,10.1,75.4,9.8,75.4,9.6L75.4,9.6L75.4,9.6z M75.8,11l0.1-0.7c0,0-0.3,0.1-0.4,0.2c-0.1,0.1-0.7,0.7-0.7,0.7s0,0.4,0,0.5
			c0,0.1,0,0.1,0,0.1s0.2,0,0.3,0c0.1,0,0.6-0.4,0.7-0.5C75.7,11.2,75.8,11.2,75.8,11L75.8,11L75.8,11z M76.1,5.1L76.1,5.1
			c-0.1-0.1-1,0.4-1.3,0.7C74.6,6,74,6.5,74,6.5l0.4,0.4c0,0-1.2,1-1.7,1.5c-0.5,0.5-1.2,1.2-1.3,1.3s-0.4,0.2-0.5,0.5
			c-0.1,0.3,0,1,0,1s0.1,0,0.2,0c0,0,0.5-0.3,0.5-0.3s0-0.7,0-0.8c0-0.1,1-1.1,1.2-1.3c0.2-0.2,1.4-1.2,1.6-1.4
			c0.1-0.1,0.6-0.2,0.8-0.8c0.2-0.6,0-0.5,0.1-0.6c0.1-0.1,0.2-0.3,0.5-0.5C76,5.2,76.1,5.1,76.1,5.1L76.1,5.1L76.1,5.1z M74.6,7.4
			l0.1,0c0,0,0,0.1,0,0.1c0,0-1.2,1-1.3,1.1c-0.1,0.1-0.9,0.9-0.9,1c0,0-0.1,0.1-0.1,0.1c0,0.1,0.1,0.1,0.1,0c0,0,0.8-0.7,1-0.9
			c0.2-0.2,0.6-0.5,0.7-0.6c0.1-0.1,0.4-0.3,0.4-0.4c0.1-0.1,0.1-0.1,0.2,0c0.1,0,0.1,0.1,0.1,0.1c0,0.1-0.6,0.6-0.7,0.6
			c-0.1,0.1-0.8,0.7-0.9,0.8c-0.1,0.1-0.6,0.6-0.7,0.7c0,0.1-0.4,0.4-0.6,0.4c-0.2,0-0.4-0.1-0.4-0.1c0-0.1-0.1-0.4,0-0.4
			c0.1-0.1,0.8-0.8,1-0.9c0.1-0.1,0.5-0.4,0.6-0.6C73.5,8.3,73.9,8,74,7.9C74.1,7.8,74.5,7.5,74.6,7.4L74.6,7.4L74.6,7.4z M73.6,6.8
			l0.1-0.1c0,0,0.1,0.1,0.1,0.1c0,0,0,0.1-0.1,0.2c-0.1,0.1-1.4,1.4-1.6,1.5c-0.2,0.1-1.2,1.2-1.4,1.4c-0.1,0.3-0.2,0.5-0.2,0.7
			c0,0.1,0,0.6,0,0.8c0,0.2,0,0.5-0.3,0.6c-0.3,0.1-0.4-0.1-0.5-0.2c0-0.1,0-0.5,0.2-0.7c0.1-0.2,0.3-0.4,0.3-0.5
			c0-0.1,0.1-0.6,0.1-0.6s1.2-1.3,1.5-1.6c0.3-0.3,1-0.9,1.2-1.1C73.3,7,73.5,6.9,73.6,6.8L73.6,6.8L73.6,6.8z M75.2,8.4L75,8.4
			c0,0-1.1,1-1.5,1.3c-0.3,0.3-1,1-1.1,1.1c-0.1,0.1-0.5,0.1-0.6,0.1c-0.1,0-0.6,0.3-0.7,0.4c-0.1,0.1-0.3,0.4-0.3,0.5
			c0,0.1,0.4,0.1,0.5,0c0.1-0.1,0.3-0.3,0.5-0.4c0.2-0.1,0.5-0.1,0.5-0.1s1.1-1.1,1.3-1.3c0.2-0.2,1.6-1.3,1.6-1.3
			S75.2,8.5,75.2,8.4L75.2,8.4L75.2,8.4z M74.5,11.1l0-0.3c-0.1,0-0.2,0.3-0.3,0.3c-0.1,0-0.5-0.1-0.7,0c-0.2,0.1-0.5,0.5-0.5,0.6
			c0,0.1,0.1,1.1,0.1,1.2c0,0.1,0,0.3-0.1,0.3c-0.1,0-0.1,0.2-0.1,0.2s0.3-0.1,0.3-0.1c0,0,0-0.1,0.1-0.3c0.1-0.2,0.3-0.4,0.5-0.5
			c0.2-0.1,0.4-0.3,0.4-0.4c0.1-0.1,0.2-0.3,0.2-0.4C74.5,11.6,74.5,11.2,74.5,11.1L74.5,11.1L74.5,11.1z M69.6,10.7l0.2-0.2
			c0,0,0.1,0,0.1,0l0.1,0.1L70,10.7c0,0-0.2,0.3-0.2,0.3c0,0-0.2,0.3-0.2,0.3l-0.1-0.1c0,0,0-0.1,0-0.2
			C69.5,10.9,69.6,10.8,69.6,10.7L69.6,10.7L69.6,10.7z M71.9,11.5l0.2-0.1c0,0,0.1,0.1,0.1,0.1s-0.5,0.8-0.6,0.8
			c-0.1,0-0.4-0.1-0.5,0c-0.1,0.1-0.4,0.5-0.5,0.6c-0.1,0.1-0.6,0.1-0.6,0.1s-0.1-0.2,0.1-0.5c0.3-0.2,0.5-0.3,0.8-0.4
			c0.3-0.1,0.5-0.1,0.6-0.1C71.5,11.9,71.9,11.5,71.9,11.5L71.9,11.5L71.9,11.5z M72.9,12l0-0.4c0,0-0.1,0.2-0.1,0.2
			c0,0-0.4,0.1-0.5,0.2c-0.1,0.1-0.3,0.3-0.3,0.4c0,0-0.2,0.2-0.3,0.4c-0.1,0.2-0.1,0.4-0.1,0.4s0.5-0.3,0.7-0.2
			c0.2,0.1,0.1,0.2,0.1,0.2s0.5-0.4,0.5-0.6C72.9,12.4,72.9,12.3,72.9,12L72.9,12L72.9,12z M74.2,12.8l0.6-0.9c0,0-0.2,0.2-0.3,0.2
			c0,0-0.6,0.5-0.6,0.6c-0.1,0.1-0.3,0.4-0.3,0.4c0,0.1,0,0.2,0.1,0.2C73.7,13.4,74.1,13,74.2,12.8L74.2,12.8L74.2,12.8z M69,10.3
			L69,10.3c-0.1,0-0.3,0.2-0.3,0.2c0,0-0.2,0.3-0.1,0.3c0,0,0.4,0.4,0.4,0.5c0,0.1,0.1,0.5,0.1,0.5c0,0-0.4-0.2-0.4-0.3
			c0-0.1-0.4-0.3-0.4-0.2c0,0-0.2,0.3-0.2,0.3c0,0-0.2,0.2-0.2,0.2c0,0,0.1,0.2,0.2,0.2c0.1,0,0.6,0,0.7,0.1c0.2,0,0.3,0,0.4,0
			c0.1,0,0.2-0.2,0.2-0.3c0-0.1-0.1-0.6-0.1-0.7c0-0.1-0.1-0.5-0.1-0.6C69.1,10.4,69,10.4,69,10.3L69,10.3L69,10.3z M69.6,12.5
			l0-0.5c0,0-0.2,0.3-0.2,0.3c-0.1,0-0.3,0-0.4,0.1c0,0-0.2,0.4-0.2,0.5c0,0.2,0,0.4,0,0.5c0,0.1,0.2,0.2,0.3,0.1
			c0.1-0.1,0.3-0.3,0.3-0.4C69.5,13,69.6,12.7,69.6,12.5L69.6,12.5L69.6,12.5z M71,12.7l0.2-0.2c0.1,0,0,0.1,0,0.1
			c0,0-0.7,1.1-0.7,1.1c0,0-0.3,0.1-0.6,0.3c-0.2,0.2-0.3,0.4-0.4,0.5c-0.1,0-0.5,0.2-0.6,0c-0.1-0.2-0.1-0.5,0.2-0.8
			c0.3-0.3,0.5-0.4,0.9-0.5c0.3-0.1,0.5-0.1,0.7-0.2C70.7,12.9,70.9,12.8,71,12.7L71,12.7L71,12.7z M72,13.6l0.1-0.5
			c0,0-0.4,0.2-0.5,0.2c-0.1,0-0.3,0-0.4,0.1c-0.1,0-0.5,0.5-0.6,0.7c-0.1,0.2,0,0.4,0,0.4c0,0,0.3,0,0.5-0.1
			c0.1-0.1,0.3-0.1,0.3-0.1c0,0,0.1,0.2,0.1,0.3c0,0.1,0,0.3,0,0.3c0,0,0.1,0,0.1,0s0-0.2,0-0.3c0-0.1-0.1-0.3,0-0.5
			C71.6,14.1,71.9,13.7,72,13.6L72,13.6L72,13.6z M73.4,13.6l-0.1-0.2c-0.1,0-0.3,0.2-0.4,0.2c-0.1,0-0.5,0-0.7,0.1
			c-0.2,0.2-0.4,0.3-0.5,0.6c-0.1,0.3,0,0.6,0,0.7c0,0.1,0.7,0,0.7,0c0,0,0.5-0.6,0.7-0.8C73.2,13.9,73.4,13.7,73.4,13.6L73.4,13.6
			L73.4,13.6z M68.6,12.6l0-0.2c0,0-0.3,0.4-0.5,0.7c-0.1,0.3-0.2,0.4-0.2,0.4c0,0,0.2,0.5,0,1c-0.3,0.5-0.2,0.9-0.1,1
			c0,0.1,0.4,0.1,0.7-0.4c0.3-0.4,0.3-0.9,0.2-1.1c0-0.1-0.2-0.6-0.2-0.8C68.4,13,68.5,12.7,68.6,12.6L68.6,12.6L68.6,12.6z
			 M71.1,15.3l0.1-0.6c0,0-0.5,0.2-0.6,0.3c-0.2,0.1-0.4,0.1-0.4,0.2c-0.1,0.1-0.4,0.5-0.4,0.6c0,0.1-0.1,0.3-0.1,0.4
			c0.1,0,0.2-0.1,0.3-0.2c0.1-0.1,0.2-0.2,0.3-0.2c0.1,0,0.1,0.3,0.2,0.3c0.1,0,0.2-0.2,0.2-0.3C70.7,15.6,71,15.4,71.1,15.3
			L71.1,15.3L71.1,15.3z M69.4,15.5l0.7-1.3c-0.1,0-0.4,0.4-0.5,0.5c-0.1,0.1-0.6,0.2-1,0.5c-0.4,0.3-0.7,0.6-0.7,0.8
			c0,0.2,0.1,0.4,0.2,0.5c0.1,0,0.6-0.3,0.8-0.6C69.1,15.5,69.3,15.5,69.4,15.5L69.4,15.5L69.4,15.5z M67.5,14.3L67.5,14.3
			c0.1,0,0.1,0,0.1,0c0,0-0.3,0.7-0.3,0.9c0.1,0.2,0.3,0.8,0.3,1.2c0,0.4-0.4,0.9-0.5,0.9c-0.1,0-0.4-0.3-0.3-0.5
			c0-0.2,0.2-0.6,0.3-0.8c0-0.2-0.1-0.6-0.1-0.6C67,15.4,67.5,14.3,67.5,14.3L67.5,14.3L67.5,14.3z M72.2,15.4l0.1-0.2
			c0,0-0.4,0.1-0.5,0.1c-0.1,0-0.3,0-0.5,0c-0.1,0.1-0.5,0.6-0.5,0.6c0,0.1,0.4-0.1,0.4,0c0,0.2,0,0.5,0,0.6c0,0.1,0,0.3,0.1,0.3
			c0,0,0.1-0.2,0.3-0.3c0.2-0.1,0.4-0.6,0.5-0.7C72,15.8,72.2,15.4,72.2,15.4L72.2,15.4L72.2,15.4z M66.7,15.8l0-0.1l0.1,0
			c0,0-0.3,0.8-0.3,1c0,0.2,0.3,0.7,0.3,0.8c0,0.1,0,0.7,0,0.7l-1-0.1c0,0,0.3-1,0.4-1.3C66.4,16.5,66.7,15.8,66.7,15.8L66.7,15.8
			L66.7,15.8z M69,16l0.1-0.2h0.1c0,0-0.7,1.6-0.7,1.7c-0.1,0-0.4,0.2-0.4,0.3c-0.1,0.1-0.5,0.8-0.7,0.7c-0.2-0.1-0.4-0.7-0.1-1
			c0.2-0.4,0.9-0.6,1.1-0.8C68.7,16.5,69,16.1,69,16L69,16L69,16z M70.2,16.1L70.2,16.1c0-0.1-0.1,0.1-0.2,0.1
			c-0.1,0-0.4-0.1-0.8,0.6c-0.3,0.7-0.1,1.4-0.1,1.4s0.2-0.3,0.2-0.8c0-0.4,0.2-0.5,0.4-0.7c0.2-0.2,0.3-0.4,0.4-0.4
			C70.1,16.3,70.2,16.2,70.2,16.1L70.2,16.1L70.2,16.1z M71,16.6l0-0.5c0,0-0.2,0.2-0.3,0.2c-0.1,0-0.2,0-0.3,0
			c-0.2,0.1-0.6,0.4-0.7,0.8c-0.1,0.4-0.2,0.8-0.2,0.9s-0.4,0.5-0.4,0.5l0.1,0.2l0-0.1c0,0,0.2-0.2,0.3-0.3c0-0.1,0.1-0.2,0.2-0.3
			c0.1,0,0.3,0,0.5-0.1c0.2,0,0.6-0.5,0.7-0.7C71,17,71,16.7,71,16.6L71,16.6L71,16.6z M70.7,18.9L70.6,18c0,0-0.3,0.4-0.5,0.4
			c-0.2,0.1-0.2,0.2-0.3,0.4c-0.1,0.1-0.1,0.5-0.1,0.5S70,19,70.1,19c0.1,0,0.1,0.2,0.1,0.2c0,0,0.1,0.2,0.1,0.2c0,0,0,0.5,0,0.5
			s0.1-0.3,0.1-0.5C70.6,19.4,70.7,19,70.7,18.9L70.7,18.9L70.7,18.9z M68.8,18.7l0-0.2h0.1c0,0,0,0.1,0.1,0.2
			c0,0.1,0.3,0.3,0.4,0.5c0,0.2,0.1,0.6,0,0.8c-0.1,0.1-0.2,0.6-0.2,0.6s-0.1-0.1-0.2-0.2c-0.1,0-0.1-0.1-0.1-0.1
			c0,0-0.1-0.5-0.2-0.5c-0.1,0-0.3,0.3-0.3,0.3s0-0.7,0.2-0.9C68.5,19,68.8,18.7,68.8,18.7L68.8,18.7L68.8,18.7z M69.6,19.8l0.4-0.5
			c0,0,0.3,0.7,0.1,1c-0.1,0.3-0.9,1-0.9,1c0,0-0.1-0.4-0.1-0.4s0.3-0.2,0.3-0.3C69.4,20.4,69.5,19.9,69.6,19.8L69.6,19.8L69.6,19.8
			z M68.6,20.4l-0.1-0.3l-0.1,0.1c0,0-0.1,0.3-0.2,0.4c-0.1,0.1-0.2,0.3-0.2,0.4c0,0.1,0,0.9,0,0.9s0.1-0.1,0.2-0.1
			c0,0,0.3,0.3,0.3,0.3l0.6-0.6c0,0,0-0.6-0.1-0.7c0,0,0,0-0.1-0.1C68.7,20.6,68.6,20.5,68.6,20.4L68.6,20.4L68.6,20.4z M68,22.1
			l0.1-0.1c0,0,0.2,0.2,0.2,0.2c0,0-0.4,0.4-0.4,0.4s0-0.3,0-0.3C67.8,22.3,68,22.1,68,22.1L68,22.1L68,22.1z M66.6,18.9L66.6,18.9
			l0.1-0.1l0.1,0.1c0,0,0,0.1,0,0.1c0,0-0.3,1.1-0.4,1.6c-0.1,0.5-0.2,1.6-0.2,1.6l0.1,0.1l0.1,0c0,0,0.2-1.5,0.2-1.7
			c0-0.2,0.1-0.8,0.2-0.9c0-0.1,0.1-0.4,0.1-0.4c0,0,0.1-0.1,0.1-0.1c0,0,0.1,0.1,0.1,0.1c0,0,0,0.1,0,0.1c0,0-0.2,0.8-0.3,1.1
			c0,0.3-0.2,1.5-0.2,1.8c0,0.2-0.1,0.5-0.1,0.6c-0.1,0.1-0.2,0.3-0.3,0.3c0,0-0.4-0.3-0.4-0.3c0-0.1-0.1-0.3-0.1-0.4
			c0-0.1,0.1-0.1,0.1-0.2c0-0.1,0.2-1.2,0.2-1.4c0-0.1,0.1-0.8,0.1-0.9c0-0.1,0.1-0.6,0.1-0.7C66.5,19.1,66.6,18.9,66.6,18.9
			L66.6,18.9L66.6,18.9z M66.1,18.7l0-0.1l0.1,0l0.1,0l0,0.1c0,0-0.3,1.3-0.4,1.8c-0.1,0.5-0.3,2-0.3,2.1c0,0.2,0.1,0.4,0.1,0.5
			c0.1,0.1,0.4,0.4,0.4,0.4L66.1,24c0,0-0.1,0.2-0.1,0.2c0,0-0.5-0.5-0.6-0.8c-0.1-0.4,0.1-0.6,0.1-0.7c0-0.1,0.2-1.7,0.3-1.9
			c0-0.2,0.2-1.2,0.3-1.3C66,19.3,66.1,18.7,66.1,18.7L66.1,18.7L66.1,18.7z M67.5,19.4L67.5,19.4c0.1-0.1,0.2-0.1,0.2,0
			c0,0.1-0.3,1.4-0.3,1.8c-0.1,0.4-0.2,1.9-0.2,1.9c0,0-1,1.2-1,1.2c0,0,0-0.1,0-0.2c0-0.1,0.1-0.5,0.2-0.6c0.1-0.1,0.5-0.5,0.5-0.6
			c0-0.1,0.2-1.5,0.2-1.7c0-0.2,0.3-1.6,0.3-1.6C67.5,19.5,67.5,19.5,67.5,19.4L67.5,19.4L67.5,19.4z M65.4,19.1l0.1-0.2
			c0,0,0.1,0,0.1,0.1c0,0.1-0.1,0.9-0.2,1.5c-0.1,0.5-0.3,1.8-0.3,2c0,0.2-0.1,0.8,0,1.2c0.1,0.4,0.4,0.6,0.4,0.6
			c0,0,0.3,0.3,0.3,0.3c0,0,0,0.1,0,0.1c0,0-0.5,0.5-0.5,0.5s-0.2-0.4-0.2-0.6c0-0.2,0-0.4-0.1-0.6c-0.1-0.1-0.3-0.3-0.3-0.4
			c-0.1-0.1,0.2-1.8,0.2-2.2c0-0.4,0.2-1.1,0.2-1.4C65.2,19.7,65.4,19.1,65.4,19.1L65.4,19.1L65.4,19.1z M64.7,24.3L64.7,24.3
			l0.1-0.1l0.1,0l0.1,0.1c0,0-0.1,0.5,0,0.7c0.1,0.2,0.2,0.4,0.2,0.4s0,0.1,0,0.1c0,0-0.3,0.3-0.3,0.3l-0.1,0c0,0,0-0.7,0-0.8
			C64.7,24.8,64.7,24.3,64.7,24.3L64.7,24.3L64.7,24.3z M69.5,24.7l0.1-0.2c0,0,0.2,0.6,0.3,1c0.1,0.4,0,0.5,0,0.8
			c0,0.3,0,0.4,0,0.5c0,0.1-0.1,0.2-0.1,0.2s-0.1-0.2-0.1-0.3c0-0.1-0.1-0.1-0.1-0.1l-0.3,0.3c0,0,0-0.2,0-0.2c0,0,0.1-0.2,0.2-0.3
			c0-0.1,0-0.3,0-0.5c0-0.2-0.2-0.4-0.1-0.6C69.3,25.1,69.5,24.7,69.5,24.7L69.5,24.7L69.5,24.7z M69.1,25.1l-0.3-0.3l-0.6,0.6
			c0,0,0.1,0.6,0.3,0.8c0.2,0.2,0.5,0.4,0.5,0.4s0.3-0.3,0.3-0.6c0-0.3-0.1-0.4-0.1-0.5C69.2,25.5,69.1,25.2,69.1,25.1L69.1,25.1
			L69.1,25.1z M68.3,26.4L68,25.8c0,0,0,0.3-0.1,0.4c-0.1,0.1-0.2,0.3-0.2,0.6c0,0.3,0.2,1,0.2,1c0,0,0.2-0.6,0.5-0.6
			c0.3,0,0.5,0.3,0.5,0.3l0.2-0.3c0,0-0.1-0.2-0.3-0.3C68.6,26.7,68.4,26.5,68.3,26.4L68.3,26.4L68.3,26.4z M69.4,27.1l0.1-0.3
			l0.1,0c0,0,0.1,0.3,0.3,0.4c0.1,0.1,0.3,0.2,0.4,0.4c0.1,0.2,0,0.8,0,0.8s-0.2,0-0.3,0.1c-0.1,0.1-0.2,0.4-0.2,0.4
			s-0.1-0.5-0.2-0.7c-0.1-0.3-0.4-0.5-0.4-0.5s0.1-0.2,0.1-0.2C69.2,27.3,69.4,27.2,69.4,27.1L69.4,27.1L69.4,27.1z M66.1,27.9
			L66,27.7l1.1-1.2v0.1c0,0-0.2,0.1-0.2,0.3c0,0.2,0,0.8-0.2,1c-0.2,0.2-0.4,0.3-0.4,0.2C66.2,28,66.1,27.9,66.1,27.9L66.1,27.9
			L66.1,27.9z M66.1,28.1l-0.2-0.2l-0.4,0.5c0,0,0.1,0.6,0.2,0.8c0.1,0.2,0.2,0.3,0.3,0.3c0.1,0,0.3-0.2,0.3-0.7
			C66.3,28.3,66.1,28.2,66.1,28.1L66.1,28.1L66.1,28.1z M67.1,27.3l0-0.1c0,0,0-0.1,0-0.1c0,0,0.1,0.1,0.1,0.1l0.2,0.9
			c0,0,0.1,0.3,0,0.5c-0.1,0.2-0.2,0.4-0.2,0.5c0,0.2,0,0.6-0.1,0.8c-0.1,0.1-0.2,0.3-0.2,0.3c-0.1,0-0.4-0.1-0.4-0.4
			c0-0.3,0-0.7,0.1-1.2c0.1-0.4,0.4-0.6,0.5-0.7C67.1,27.7,67.1,27.3,67.1,27.3L67.1,27.3L67.1,27.3z M68.7,27.6l-0.2-0.2l-0.1,0.1
			l-0.1,0.2c0,0-0.3,0.5-0.3,0.6c0,0.2,0.1,0.6,0.1,0.7c0,0.1,0.1,0.4,0.1,0.4s0.2-0.5,0.5-0.5c0.2,0,0.5,0.4,0.5,0.4
			s0.2-0.1,0.1-0.3c0-0.3-0.1-0.7-0.3-0.9C69,27.8,68.7,27.6,68.7,27.6L68.7,27.6L68.7,27.6z M70.2,28.7L70.2,28.7
			c-0.1-0.1-0.3,0.1-0.3,0.1c0,0.1-0.1,0.3-0.1,0.3c-0.1,0.1-0.3,0.2-0.3,0.4c0,0.2,0,0.7,0,0.7c0,0,0.2-0.3,0.4-0.2
			c0.2,0.1,0.4,0.4,0.4,0.4c0,0,0.1,0,0.1,0c0,0.1,0.2-0.1,0.2-0.5c0-0.4-0.1-0.8-0.2-0.9C70.2,28.9,70.2,28.7,70.2,28.7L70.2,28.7
			L70.2,28.7z M65.3,28.7L65.3,28.7c0-0.1-0.1,0-0.1,0c0,0,0,0.1,0,0.1c0,0,0.2,0.9,0.2,0.9c0,0.1,0.1,0.2,0.2,0.3
			c0.1,0,0.3,0.1,0.3,0.2c0.1,0.1,0,0.2,0.1,0.4c0,0.2,0,0.3,0.2,0.4c0.2,0.1,0.3,0.2,0.3,0.3c0,0.1,0.5,1.3,0.6,1.5
			c0.1,0.2,0.7,1.6,0.8,1.8c0.1,0.2,0.2,0.6,0.3,0.8c0.1,0.2,0.3,0.4,0.5,0.5c0.2,0.1,0.5,0.2,0.6,0.2c0.1,0,0.1-0.1,0.1-0.1
			c0-0.1-0.2-0.5-0.3-0.6c-0.1-0.1-0.6-0.2-0.7-0.3c-0.1-0.1-0.3-0.5-0.3-0.6c-0.1-0.2-0.7-1.4-0.7-1.7c-0.1-0.2-0.4-1.2-0.5-1.3
			c0-0.1,0-0.6,0-0.8c-0.1-0.2-0.4-0.6-0.7-0.8c-0.3-0.2-0.4-0.1-0.4-0.2c-0.1-0.1-0.2-0.4-0.2-0.5C65.4,29,65.3,28.7,65.3,28.7
			L65.3,28.7L65.3,28.7z M67.6,28.9L67.6,28.9c-0.1-0.1-0.1,0-0.1,0c0,0,0.1,0.9,0,1.1c-0.1,0.2-0.4,0.7-0.4,1.1
			c0,0.4,0.1,0.5,0.1,0.5c0,0.1,0.2,0.2,0.4,0.7c0.2,0.6,0.3,0.9,0.4,1.1c0.1,0.2,0.3,0.5,0.4,0.7c0.1,0.2,0,0.3,0.1,0.4
			c0,0.1,0.1,0.3,0.3,0.3C68.7,35,69,35,69,35c0,0,0.2-0.2,0-0.7c-0.2-0.5-0.6-1.2-0.7-1.6c-0.2-0.5-0.5-1.1-0.5-1.4
			c0-0.3,0.1-0.5,0.1-0.6c0-0.1,0.1-0.2,0.1-0.3c0-0.1-0.2-0.8-0.3-1C67.6,29.3,67.6,29,67.6,28.9L67.6,28.9L67.6,28.9z M68.6,29.3
			l0.1-0.3c0,0,0.1,0,0.1,0.1c0,0,0.3,0.3,0.3,0.3s-0.1,0.4,0,0.6c0,0.2,0.2,0.5,0.2,0.6c0,0,0,0.2,0,0.2c0,0,0,0.4,0,0.4
			S69,30.9,69,30.9c-0.1,0-0.3,0-0.3,0c0,0-0.3-1-0.3-1.2C68.4,29.5,68.5,29.4,68.6,29.3L68.6,29.3L68.6,29.3z M69.8,30.3L69.8,30.3
			c-0.1,0-0.3,0.6-0.3,1c0,0.4,0.2,0.9,0.4,1c0.2,0.1,0.5,0.3,0.5,0.3c0,0,0-0.2,0.1-0.4c0.1-0.2,0.2-0.4,0.2-0.6
			c0-0.2,0-0.5-0.1-0.7c-0.1-0.2-0.4-0.2-0.4-0.3C70,30.5,69.8,30.3,69.8,30.3L69.8,30.3L69.8,30.3z M68.9,31.4l0-0.4l0.5,0.4
			c0,0,0,0.4,0.2,0.8c0.2,0.3,0.8,0.7,0.8,0.7l0.1,0.4c0,0-0.4-0.1-0.5-0.1c-0.1,0,0,0.3,0,0.3c0,0-0.6-0.7-0.8-1.2
			C68.9,31.8,68.9,31.6,68.9,31.4L68.9,31.4L68.9,31.4z M70.9,31.7L70.9,31.7L70.9,31.7l0.5,0.4l-0.4,1.2l-0.1,0.1
			c0,0-0.2-0.3-0.2-0.5c0-0.3,0-0.3,0-0.4c0-0.1,0.1-0.2,0.1-0.3C70.8,31.9,70.9,31.7,70.9,31.7L70.9,31.7L70.9,31.7z M70,33.7
			l0-0.3c0,0,0.3,0.1,0.4,0.1c0.1,0,0.3,0,0.3,0c0,0,0.1,0.1,0.1,0.1c0,0-0.4,1.2-0.4,1.2s-0.3-0.4-0.3-0.6
			C70,33.9,70.1,33.8,70,33.7L70,33.7L70,33.7z M70,35.2l0-0.2l0.1-0.1l0.1,0.1l0.1,0.3c0,0-0.1,0.2-0.1,0.2
			C70.1,35.5,70,35.2,70,35.2L70,35.2L70,35.2z M68.3,31.1L68.3,31.1l-0.2,0l0,0.2c0,0,0.4,1.1,0.5,1.4c0.1,0.3,0.5,1.2,0.6,1.4
			c0.1,0.2,0.2,0.3,0.2,0.4c0,0.1-0.1,0.6,0,1c0.1,0.4,0.4,0.9,0.4,0.9l0.2-0.5c0,0-0.2-0.3-0.2-0.6c0-0.3,0.1-0.5,0.1-0.6
			c-0.1-0.1-0.7-1.5-0.9-1.9c-0.2-0.4-0.4-1.1-0.5-1.3C68.4,31.3,68.3,31.1,68.3,31.1L68.3,31.1L68.3,31.1z M66.2,31.9l-0.1-0.1
			l0,0.1c0,0,0.5,1.4,0.8,2c0.2,0.5,1,2.2,1.1,2.2c0.1,0.1,0.2,0.2,0.3,0.2c0.1,0,0.2,0.1,0.3,0.1c0.1,0.1,0.4,0.5,0.6,0.6
			c0.2,0.1,0.3,0.1,0.3,0.1s0.2-0.7,0.2-0.6c0,0-0.7-0.2-0.9-0.3c-0.2-0.1-0.6-0.3-0.6-0.4c0-0.1-0.6-0.9-1-2
			c-0.4-1.1-0.7-1.8-0.7-1.8C66.4,32,66.2,31.9,66.2,31.9L66.2,31.9L66.2,31.9z M68.4,36.6l-0.1,0l0,0.1c0,0,0.4,0.6,0.5,0.8
			c0.1,0.2,0.4,0.5,0.4,0.5l0.1-0.5l-0.1,0c0,0-0.4-0.1-0.5-0.3C68.7,37,68.5,36.7,68.4,36.6L68.4,36.6L68.4,36.6z M72.3,33.2
			l-2.6,6.5c0,0-0.4-0.5-0.5-0.6c0,0,0.1-0.5,0.1-0.6c0-0.2,2.5-6.4,2.5-6.4l1.2,2.1l-2.4,6.4L70,40l2.6-6.3L72.3,33.2L72.3,33.2
			L72.3,33.2z M73.3,35.7L73,35.2L72.7,36c0,0,0.3,0,0.3,0.1c0.1,0,0.3,0.1,0.3,0.1C73.3,36.2,73.4,35.8,73.3,35.7L73.3,35.7
			L73.3,35.7z M73,36.2l-0.4,0l-0.2,0.2c0,0-0.1,0.6-0.1,0.6c0,0,0.4,0.6,0.7,0.6c0.2,0,0.9,0,1.2,0.1c0.2,0.1,0.4,0.1,0.4,0.2
			c0,0,0,0.1,0,0.1s0-0.2-0.1-0.3c-0.2-0.1-0.2,0-0.4-0.2c-0.2-0.2-0.2-0.6-0.3-0.7C73.8,36.7,73.2,36.3,73,36.2L73,36.2L73,36.2z
			 M75.4,38l-0.6-0.4c0,0,0.1,0.3,0.1,0.6c0,0.3,0,0.5,0.1,0.7c0.1,0.1,0.5,0.6,0.7,0.7c0.1,0,0.6,0,0.6,0s0-0.5,0-0.6
			c0-0.1,0.1-0.1,0.1-0.1S75.6,38.1,75.4,38L75.4,38L75.4,38z M73.4,38L73,37.9c0,0,0.1,0.2,0.1,0.4c0,0.2,0.1,0.4,0.2,0.5
			c0.1,0.1,0.5,0.6,0.6,0.6c0.1,0,0.4,0.2,0.4,0.2s-0.1-0.4-0.1-0.5c0-0.2,0-0.3,0-0.3c0,0,0.2,0,0.2,0s0-0.3-0.4-0.5
			C73.7,37.9,73.5,38,73.4,38L73.4,38L73.4,38z M74.6,39.4l-0.2-0.5c0,0,0.4,0.1,0.4,0.1c0,0,0.6,0.6,0.7,0.7
			c0.1,0.1,0.4,0.1,0.4,0.1l0.2,0l0.1,0.1c0,0-0.2,0-0.2,0c0,0-0.3-0.1-0.4,0c0,0-0.1,0.1,0,0.2c0,0.1,0.2,0.6,0.2,0.6
			c0,0-0.3,0-0.4-0.1c-0.1-0.1-0.7-0.5-0.7-0.7C74.6,39.7,74.6,39.6,74.6,39.4L74.6,39.4L74.6,39.4z M76.5,39.4l0-0.3
			c0,0,0.1,0,0.3,0c0.1,0,0.7,0.4,0.7,0.4l0.2,0.8c0,0-0.4-0.1-0.5,0c-0.1,0.1-0.1,0.4-0.1,0.4s-0.4-0.3-0.4-0.5
			c-0.1-0.2-0.1-0.2-0.1-0.4C76.4,39.6,76.5,39.4,76.5,39.4L76.5,39.4L76.5,39.4z M77.3,40.6l-0.1-0.2l0.4,0.1l0.2,1.3
			c0,0-0.5-0.4-0.5-0.6C77.2,41,77.3,40.7,77.3,40.6L77.3,40.6L77.3,40.6z M81.3,41.2l-1.2-0.5l0.1,0.5c0,0,0.8,0.3,1,0.4
			c0.3,0.1,1.1,0.4,1.1,0.4l0.2-0.3C82.6,41.7,81.6,41.3,81.3,41.2L81.3,41.2L81.3,41.2z M81.3,41.8l-1-0.4l0.1,0.3
			c0,0,0.7,0.3,0.8,0.4c0.2,0.1,1,0.4,1,0.4l0.1-0.3C82.3,42.2,81.6,41.9,81.3,41.8L81.3,41.8L81.3,41.8z M82.1,42.6l-1.8-0.7l0,0.3
			l1.8,0.7v-0.1l-0.1-0.1V42.6L82.1,42.6L82.1,42.6z M81.6,42.9l-1.2-0.5l0.1,0.4c0,0,0.7,0.2,1,0.3c0.3,0.1,1,0.3,1,0.3l0-0.3
			C82.6,43.3,81.9,43.1,81.6,42.9L81.6,42.9L81.6,42.9z M80.6,44L80.6,44l-0.3,0.1c0,0,1.3,0.9,1.7,0.9c0.3,0.1,1.3,0.1,1.5,0.1
			c0.2,0,1.7-0.1,1.8-0.1c0.1,0,0.4,0,0.5-0.1c0.1-0.1,0.2-0.2,0.2-0.3c0-0.1,0-0.2,0-0.2c0,0-0.1,0-0.2,0c0,0-0.2,0.2-0.3,0.2
			c-0.1,0-1.2,0.1-1.6,0.1c-0.4,0-1.3,0.1-1.6,0c-0.3-0.1-0.8-0.3-1-0.4C81.1,44.3,80.6,44,80.6,44L80.6,44L80.6,44z M73.8,41.4v-1
			l0.2,0.1c0,0,0,1.6,0.4,2.4c0.4,0.8,0.8,1.5,1.1,1.8c0.4,0.4,0.6,0.7,1.1,0.9c0.5,0.3,1.3,0.7,1.5,0.8c0.2,0.1,0.5,0.2,0.5,0.2
			l-0.1,0.1c0,0-1.3-0.4-1.5-0.6c-0.2-0.2-0.6-0.4-0.6-0.4l0,4.6l-1.3-0.1v0.5l2.1,0.2l-0.1-1.4l-0.6-1.6l0.1-0.1l0.8,1.8l0.6,0.9
			l5.4-2.3l0,0.1l-1,0.4l-0.2,2.2l0.2,0.1l0,0.3l-1-0.1l0-0.3l-1.4-0.2l0-1l-0.4,0.4L78,50.9l-0.4-0.6l0,1.1l-2.8-0.3v-0.8l-1.6-0.2
			l0-1l-1.8-0.2l0.1-1.1l-1.2-0.1l0.8-6.3l1.2,1.1c0,0-0.5-1-0.7-1.6c-0.2-0.6-0.3-1.4-0.3-1.4l0.3-0.6c0,0-0.1,1.2,0.2,2
			c0.3,0.8,0.7,1.4,0.9,1.8c0.2,0.4,1.1,1.1,1.1,1.1c0,0-0.7-1.1-0.8-2c-0.2-1-0.1-2-0.1-2.1c0-0.1,0-0.4,0-0.4l0.2,0
			c0,0,0,1.8,0.2,2.4c0.2,0.5,0.1,0.8,0.4,1.3c0.3,0.5,0.5,1.1,0.7,1.3c0.2,0.2,0.9,0.7,0.9,0.7s-0.8-1.1-1-1.8
			C74,42.3,73.9,42,73.8,41.4L73.8,41.4L73.8,41.4z M70.7,47.4l0.7-5.2l2,1.7l-0.3,3.9L70.7,47.4L70.7,47.4L70.7,47.4z M77,48.1
			l-0.1-0.3l2-0.9l0.5,0.1L77,48.1L77,48.1L77,48.1z M77.3,48.6l-0.1-0.3L80,47l0.8,0L77.3,48.6L77.3,48.6L77.3,48.6z M77.5,49.2
			l-0.1-0.3l4.1-1.8l0.9,0L77.5,49.2L77.5,49.2L77.5,49.2z M82.4,47.4l-4.7,2l0.1,0.3l5.3-2.3L82.4,47.4L82.4,47.4L82.4,47.4z
			 M78.1,50.3L78,50l5.4-2.4l-0.3,0.5L78.1,50.3L78.1,50.3L78.1,50.3z M84.3,51.4l0.1-1.7l0.4,0l-0.1,1.5l2.3,0.2l0-0.8h0.4l0,1.2
			l-2.2-0.1l0,0.2l-1.6-0.1l0-0.3L84.3,51.4L84.3,51.4L84.3,51.4z M90,44c-0.2-1-1.1-1.8-2.2-1.8c-1,0-1.9,0.7-2.2,1.7l-0.4,0
			c0.2-1.3,1.4-2.2,2.7-2.2c1.4,0,2.5,1,2.7,2.3L90,44L90,44L90,44z M91.4,44.2c-0.1-1.9-1.7-3.3-3.6-3.3c-1.8,0-3.4,1.4-3.6,3.2
			l-0.4,0c0.2-2.1,1.9-3.7,4-3.7c2.2,0,3.9,1.7,4.1,3.8L91.4,44.2L91.4,44.2L91.4,44.2z M80.5,50.6l0-1L82,49l-0.1,1.8L80.5,50.6
			L80.5,50.6L80.5,50.6z M75.1,49.4l0.1-4.2l1,0.5l0,4.5l-2.5-0.2l0.1-0.6L75.1,49.4L75.1,49.4L75.1,49.4z M73.4,48l0.3-3.9
			c0,0,0.5,0.4,0.5,0.4c0,0,0.1-0.1,0.1-0.1l0.5,0.4L74.8,49l-2.9-0.3l0.1-0.9L73.4,48L73.4,48L73.4,48z M99.4,37.6
			c-0.1,0.1-0.1,0.1-0.2,0.2l-23-0.3c0,0-0.1-0.1-0.1-0.1L99.4,37.6L99.4,37.6L99.4,37.6z M87.9,7.1c9.6,0,17.4,7.9,17.4,17.5
			c0,4-1.4,7.7-3.6,10.7l-0.1-0.5l-8.8-0.1l0,0.3l0,0l0.2-0.3l0.2,0.1V35l-0.1,0.2L93,35.3l-0.1,0h-0.1l0,1.3h0.3V37l0.1,0l0.1-0.1
			l0,0l0-0.1l0,0l0.1,0v-0.7c0,0,0.1-0.3,0.5-0.3c0.4,0,0.5,0.3,0.5,0.3l0,0.7l0.1,0l0,0.1l0.1,0c0,0,0,0.1,0,0.1
			c0,0,0.1,0.1,0.1,0.1c0,0,0.1,0.1,0.1,0.1l3.6,0l0-0.4l0.2,0V37l1.6,0c-0.1,0.1-0.1,0.1-0.2,0.2l-1.4,0l0,0.2l1.2,0
			c-0.1,0-0.1,0.1-0.2,0.1l-23.7-0.3c0,0-0.1-0.1-0.1-0.1l1.3,0v-0.2l-1.5,0c-0.1-0.1-0.1-0.1-0.2-0.2l0,0l1.7,0l0-0.1l0.2,0V37
			l3.6,0l0.2-0.3l0,0l0-0.2h0.1l0,0.1l0,0l0-0.7c0,0,0.1-0.3,0.5-0.3c0.4,0,0.5,0.4,0.5,0.4l0,0.7l0.1,0l0-0.1l0.1,0
			c0,0,0,0.1,0,0.1c0,0.1,0.1,0.2,0.1,0.2c0,0,0,0,0,0c0,0,0-0.1,0-0.1c0,0,0-0.1,0-0.1c0,0,0.1-0.1,0.1-0.1h0.3l0-1.4
			c0,0-0.2,0-0.2,0c-0.1-0.1-0.2-0.1-0.2-0.4c0-0.3,0.2-0.3,0.2-0.3l0,0l0.1,0.1l0.1,0.1l0.1,0v-0.1l-0.1-0.1l0-0.1l0-0.1L74,34.3
			c0,0-0.1,0.4-0.1,0.6c-2.2-2.9-3.4-6.5-3.4-10.4C70.5,14.9,78.3,7.1,87.9,7.1L87.9,7.1L87.9,7.1z M67.6,32L67.6,32
			c0.1,0,0.2,0,0.4,0.6c0.2,0.6,0.3,0.8,0.4,1c0.1,0.2,0.1,0.3,0.1,0.3c0,0-0.1,0-0.1,0c0,0-0.3-0.4-0.4-0.8
			c-0.2-0.4-0.3-0.7-0.3-0.8C67.6,32.1,67.6,32.1,67.6,32L67.6,32L67.6,32z M87.9,7.2l1.2,3.9l4.1,0l-3.3,2.4l1.3,3.9l-3.3-2.4
			l-3.3,2.4l1.3-3.9l-3.3-2.4l4.1,0L87.9,7.2L87.9,7.2L87.9,7.2z"/>
	</g>
</g>
</svg>
