<?xml version="1.0" encoding="utf-8"?>
<!-- Generator: Adobe Illustrator 21.0.0, SVG Export Plug-In . SVG Version: 6.00 Build 0)  -->
<svg version="1.1" id="图层_1" xmlns="http://www.w3.org/2000/svg" xmlns:xlink="http://www.w3.org/1999/xlink" x="0px" y="0px"
	 viewBox="0 0 234 120" style="enable-background:new 0 0 234 120;" xml:space="preserve">
<style type="text/css">
	.st0{fill:#FFFFFF;}
	.st1{fill:url(#SVGID_1_);}
	.st2{fill:url(#SVGID_2_);}
	.st3{enable-background:new    ;}
</style>
<g>
	<g>
		<g>
			<path class="st0" d="M117.2,79.5c-1.3,0-2.5-0.5-3.7-1.1c-1.3-0.6-2.5-1.2-3.8-1.8c-1.1-0.5-2.2-1-3.3-1.6
				c-1.2-0.5-2.3-1.1-3.5-1.6c-1.9-0.8-3.8-1.6-5.8-2.2c-1.3-0.4-2.7-0.8-4-1.2c-1.6-0.4-3.1-1.1-4.5-2c-0.3-0.2-0.5-0.4-0.7-0.5
				c-0.5-0.3-0.6-0.6-0.4-1.2c0.4-1.2,0.8-2.5,1.2-3.7c0.1-0.2,0.1-0.4,0.3-0.1c0.8,0.8,1.9,1.3,2.9,1.8c1.2,0.6,2.5,1.1,3.7,1.5
				c1.3,0.4,2.6,0.9,3.9,1.3c1.5,0.4,3,1,4.4,1.6c1.3,0.6,2.7,1.1,4,1.7c1.7,0.7,3.3,1.4,4.9,2.2c1.6,0.8,3.2,1.3,5,1.4
				c1.4,0.1,2.8-0.3,4-0.8c2.1-0.9,4.2-2,6.3-3c3-1.4,6.1-2.8,9.2-3.8c1.9-0.6,3.7-1.2,5.5-2c1.2-0.6,2.3-1.2,3.4-2
				c0.4-0.3,0.4,0,0.4,0.2c0.2,1.1,0.4,2.1,0.7,3.2c0.3,1-0.4,1.5-1,2c-0.8,0.6-1.7,1-2.7,1.4c-2.1,0.9-4.2,1.4-6.3,2.2
				c-1.5,0.6-3,1.3-4.5,2c-1.6,0.7-3.2,1.4-4.7,2.2c-1.6,0.8-3.1,1.6-4.7,2.4c-1.5,0.7-3,1.3-4.7,1.7
				C118.2,79.5,117.7,79.5,117.2,79.5z"/>
			<path class="st0" d="M109.9,54.7c1,0.1,1.8,0.5,2.6,1c0.9,0.8,1.9,1.5,3,2.1s2.2,0.8,3.5,0.6c1.2-0.2,2.3-0.5,3.3-1
				c0.8-0.5,1.6-1.1,2.3-1.7c0.7-0.6,1.6-1,2.5-0.9c0.9,0.1,1.8,1.3,1.4,2c-0.3,0.5-0.7,0.9-1.1,1.2c-1,0.7-2,1.2-3.2,1.5
				c-0.7,0.1-1.4,0.3-2,0.5c-0.5,0.1-0.7,0.6-0.8,1.1c-0.3,1.3-0.3,2.6,0.2,3.8c0.1,0.3,0.3,0.6,0.2,0.8c-0.1,0.3-0.5,0-0.8,0
				c-1.4-0.1-2.7-0.1-4.1-0.1c-0.6,0-1.2,0.1-1.8,0.3c-0.4,0.1-0.5,0-0.4-0.3c0.2-0.8,0.5-1.6,0.6-2.5c0.2-1.1,0.1-2.1-0.5-3.1
				c-0.1-0.1-0.1-0.2-0.3-0.2c-1.8,0.2-3.2-0.6-4.7-1.4c-0.6-0.3-1.2-0.7-1.6-1.3c-0.5-0.8-0.2-1.8,0.7-2.1
				C109.2,54.8,109.7,54.7,109.9,54.7z"/>
			<path class="st0" d="M79.3,60.6c1.5-0.4,2.9-0.9,4.2-1.2c0.4-0.1,0.4-0.3,0.2-0.6c-0.6-1.2-1.3-2.3-1.9-3.5
				c0.8,0.1,1.5,0.4,2.2,0.6c2.5,0.7,5,1.5,7.5,2.3c1.1,0.3,2.1,0.8,2.8,1.8c-0.2,0.1-0.5-0.1-0.8-0.1c-1.5,0-2.9-0.1-4.4,0.1
				c-0.4,0.1-0.6,0.2-0.7,0.6c-0.2,0.9-0.6,1.8-0.8,2.7c-0.1,0.5-0.3,0.5-0.7,0.4c-1.7-0.5-3.4-1.1-5-1.9
				C81.1,61.4,80.2,61,79.3,60.6z"/>
			<path class="st0" d="M117.9,73.3c-1.4,0.1-2.8-0.4-4.1-1.1c-2.7-1.2-5.3-2.5-8-3.6c-1.7-0.7-3.5-1.4-5.2-2.1
				c-1.6-0.5-3.2-0.9-4.8-1.4c-2.2-0.8-4.3-1.6-6.2-2.8c-0.7-0.4-0.8-0.7-0.5-1.1c0.1-0.1,0.1-0.3,0.3-0.1c0.7,0.9,1.8,1.2,2.7,1.7
				c1.4,0.7,2.9,1.2,4.4,1.7c1.8,0.6,3.7,1.1,5.5,1.7c2.2,0.8,4.4,1.6,6.5,2.6c1.9,0.9,3.8,1.8,5.8,2.7c1,0.5,2.1,0.6,3.2,0.8
				c1.6,0.3,3.1-0.2,4.5-0.8c3.1-1.5,6.3-2.9,9.4-4.3c1.8-0.8,3.7-1.3,5.5-2c2.2-0.9,4.4-1.7,6.5-2.7c0.9-0.4,1.9-0.8,2.5-1.6
				c0.1-0.1,0.2-0.3,0.3,0c0.1,0.2,0.4,0.5,0.1,0.7c-0.4,0.3-0.8,0.5-1.2,0.7c-3,1.6-6.1,2.9-9.2,4.1c-2.5,0.9-4.8,2-7.2,3
				c-2.3,1-4.6,2-6.9,3.1C120.5,73,119.3,73.4,117.9,73.3z"/>
			<path class="st0" d="M142.1,59.5c0.1-0.6,0.4-0.9,1-1.1c2.5-0.8,5-1.7,7.6-2.6c0.7-0.2,1.4-0.5,2.3-0.7c-0.6,1.1-1.1,2.2-1.7,3.2
				c-0.4,0.7-0.4,0.8,0.4,1c1,0.3,1.9,0.6,2.9,0.9c0.1,0,0.1,0,0.2,0.2c-0.8,0.4-1.6,1-2.4,1.3c-1.3,0.6-2.6,1.1-3.9,1.4
				c-0.4,0.1-0.6,0.1-0.6-0.4c0-0.8-0.2-1.5-0.4-2.3c-0.2-0.7-0.5-0.9-1.3-1C144.8,59.3,143.4,59.3,142.1,59.5z"/>
			<path class="st0" d="M94.5,50.3c0,1,0.6,1.8,1.1,2.6c0.3,0.4,0.6,0.6,0.6,1.1c0,0.6,0.4,1,0.6,1.6c-0.8-0.5-1.4-1.2-2.1-1.9
				c-1-1-1.8-2-2.3-3.4c-0.4-1.1-0.6-2.2-0.8-3.3c-0.1-0.6-0.1-1.3-0.2-1.9c0-0.3,0-0.5,0.4-0.3c1.2,0.5,2.2,1.3,3.2,2.1
				c0.9,0.7,1.6,1.5,2.4,2.3c1,1.1,1.8,2.4,2.3,3.9c0.1,0.3,0.1,0.4-0.3,0.3c-0.9-0.1-1.8-0.2-2.7-0.3c-0.2,0-0.3-0.1-0.4-0.3
				C95.9,51.9,95.3,51.1,94.5,50.3C94.7,50.3,94.5,50.3,94.5,50.3z"/>
			<path class="st0" d="M118.2,80.6c-2.1,0-3.9-0.6-5.5-1.4c-1.8-0.9-3.5-1.7-5.3-2.6c-3-1.6-6.2-2.8-9.4-4.1c-2-0.8-4-1.5-6.1-2
				c-1.5-0.4-3-0.8-4.3-1.7c-0.3-0.2-0.5-0.5-0.7-0.7c-0.1-0.2,0-0.3,0.1-0.5c0.1-0.1,0.2,0,0.3,0.1c0.7,0.8,1.6,1.2,2.5,1.6
				c2.7,1.2,5.6,1.8,8.4,2.7c1.6,0.5,3.3,1.1,4.8,1.8c1.1,0.5,2.3,0.9,3.4,1.5c1.3,0.7,2.6,1.2,3.9,1.9c0.8,0.4,1.6,0.8,2.5,1.2
				c0.7,0.3,1.3,0.7,2,0.9c2.1,0.8,4.2,0.8,6.2-0.1c1.9-0.9,3.8-1.8,5.7-2.8c2.4-1.2,4.8-2.4,7.3-3.4c1.9-0.8,3.8-1.6,5.8-2.2
				c1.2-0.4,2.4-0.7,3.5-1.2c1.5-0.6,2.9-1.3,4.1-2.4c0.1-0.1,0.1-0.2,0.2-0.1c0.2,0.1,0.1,0.3,0,0.5c-0.3,0.5-0.8,0.9-1.3,1.2
				c-1.5,0.9-3.2,1.3-4.8,1.9c-2.6,0.8-5,1.9-7.5,2.9c-1,0.4-2.1,0.9-3.1,1.4c-1.5,0.8-3,1.6-4.5,2.4c-1.2,0.6-2.4,1.2-3.6,1.8
				c-0.8,0.4-1.6,0.8-2.5,1.1C119.7,80.4,118.8,80.5,118.2,80.6z"/>
			<path class="st0" d="M93.1,45.1c-0.6-0.4-1.3-0.7-1.6-1.5c-0.3-0.8-0.8-1.6-1.4-2.2c-0.1-0.2-0.3-0.3-0.5-0.5
				c-0.1,1,0.3,1.7,0.7,2.4c0.2,0.3,0.3,0.6,0.6,0.8c0.3,0.3,0.2,0.7,0.3,1.1c0.1,0.6,0.1,1.1,0.2,1.8c-0.8-0.5-1.3-1.1-1.7-1.8
				c-1.2-1.8-1.7-3.8-2-5.8c-0.2-1.6-0.1-3.2-0.1-4.9c1,1,1.9,2,2.8,2.9c1.1,1.1,1.9,2.5,2.7,3.8c0.1,0.2,0.1,0.4,0.1,0.6
				C92.8,42.9,93.1,44,93.1,45.1z"/>
			<path class="st0" d="M79.2,53.2c4.7,1.4,9.3,2.7,14.1,4.1c-0.2,0.1-0.3,0.2-0.4,0.2c-0.6,0-0.5,0.3-0.2,0.7
				c-0.7,0-1.3-0.3-1.9-0.5c-2.4-0.7-4.8-1.4-7.1-2.2c-0.7-0.2-1.4-0.4-2.1-0.7c-0.1,0-0.2-0.1-0.3,0s0,0.2,0.1,0.3
				c0.7,1.2,1.3,2.4,2,3.6c0.2,0.3,0.1,0.4-0.2,0.5c-1.4,0.4-2.8,0.7-4.2,1.1c-0.1,0-0.3,0.1-0.3,0.2c0.6,0.5,1.3,0.8,2,1.1
				c2.1,0.9,4.2,1.6,6.4,2.3c0.2,0.1,0.2,0.2,0.1,0.3c-0.1,0.2-0.1,0.6-0.5,0.5c-0.9-0.3-1.8-0.6-2.7-0.9c-1.1-0.4-2.2-0.9-3.3-1.4
				c-1.4-0.6-2.7-1.3-3.9-2.2c-0.1-0.1-0.3-0.2-0.3-0.3c0-0.2,0.2-0.1,0.4-0.2c1.5-0.5,2.9-1,4.4-1.5c0.4-0.1,0.5-0.3,0.2-0.7
				c-0.9-1.3-1.6-2.7-2.4-4.1C79.2,53.3,79.2,53.3,79.2,53.2z"/>
			<path class="st0" d="M110,63.1c-0.8,0-1.4,0.2-2,0.1c-0.3,0-0.6,0-0.8,0.1c-0.1,0-0.3,0-0.3,0.1c0,0.2,0.1,0.2,0.2,0.2
				c0.9,0.2,1.7,0.5,2.6,0.3c0,0,0.1,0,0.2,0c-0.7,0.6-1.4,0.8-2.1,1.2c-1.1,0.5-2.1,0.3-3.2-0.1c-1.2-0.5-2.5-1-3.7-1.6
				c-0.4-0.2-0.7-0.4-1.1-0.6c-0.3-0.1-0.2-0.3,0-0.4c0.9-0.5,1.8-0.9,2.8-1.2c1.4-0.3,2.8-0.5,4.2-0.6c0.7,0,1.1,0.3,1.5,0.9
				C108.8,62.2,109.3,62.6,110,63.1z"/>
			<path class="st0" d="M139.1,55.5c0.3-0.6,0.5-1.1,0.6-1.8c0.1-0.5,0.5-0.7,0.7-1.1c0.5-0.7,0.9-1.4,1-2.3c-0.5,0.3-0.8,0.7-1,1.1
				c-0.3,0.4-0.6,0.8-0.8,1.3c-0.1,0.3-0.3,0.4-0.6,0.5c-0.5,0.1-1,0.2-1.7,0.3c0.4-0.5,0.7-0.9,1-1.3c0.7-1,1.3-2,1.4-3.2
				c0-0.5,0.5-0.8,0.7-1.1c0.6-0.7,1.3-1.4,2-2c0.5-0.3,1-0.6,1.6-0.8c0.3-0.1,0.3,0,0.3,0.2c0,0.8-0.1,1.6-0.3,2.4
				c-0.2,1.1-0.5,2.2-0.9,3.3s-1.1,1.9-1.9,2.6c-0.6,0.6-1.2,1.2-1.9,1.7C139.5,55.4,139.4,55.5,139.1,55.5z"/>
			<path class="st0" d="M148.5,35.6c0.2,1.8,0.1,3.4-0.2,5c-0.2,1.4-0.6,2.6-1.3,3.9c-0.5,1-1.1,1.8-2,2.5c-0.1,0.1-0.2,0.2-0.3,0.1
				c-0.1-0.1,0-0.2,0-0.3c0-0.9,0.4-1.6,0.8-2.4c0.4-0.8,0.7-1.7,0.8-2.5c0-0.2,0-0.4,0-0.6c-0.7,0.5-1,1.1-1.3,1.8
				c-0.1,0.3-0.2,0.7-0.3,1c0,0.2-0.1,0.3-0.3,0.4c-0.5,0.3-1,0.5-1.5,0.8c0-0.9,0.3-1.6,0.3-2.4c0.2-2,1.4-3.4,2.7-4.8
				C146.8,37.3,147.6,36.5,148.5,35.6z"/>
			<path class="st0" d="M126.2,64c1,0,1.8,0.1,2.7-0.3c0.1-0.1,0.3,0,0.3-0.2s-0.2-0.2-0.4-0.2c-0.9-0.2-1.8,0-2.7-0.1
				c0.1-0.3,0.4-0.3,0.5-0.4c0.6-0.5,1.1-1,1.6-1.6c0.2-0.3,0.5-0.4,0.8-0.4c1.5-0.1,2.9,0.3,4.4,0.5c1,0.2,1.9,0.4,2.8,0.9
				c0.1,0.1,0.3,0.1,0.4,0.3c0,0.2-0.2,0.2-0.3,0.2c-1.9,1.2-4,2-6,2.8c-0.3,0.1-0.7,0.1-1-0.1C128.2,65,127.2,64.7,126.2,64z"/>
			<path class="st0" d="M155.6,52.9c-0.6,1.2-1.3,2.2-1.9,3.2c-0.3,0.5-0.6,0.9-0.9,1.4c-0.2,0.3-0.2,0.5,0.3,0.6
				c1.1,0.3,2.2,0.7,3.3,1.1c0.3,0.1,0.5,0.2,0.8,0.2c-0.3,0.6-0.9,1-1.4,1.3c-1.5,1-3.2,1.8-4.9,2.4c-1,0.3-1.9,0.6-2.9,1
				c-0.2,0.1-0.3,0.1-0.4-0.1c0-0.2-0.2-0.4,0.2-0.5c0.7-0.2,1.5-0.5,2.2-0.7c1.9-0.6,3.6-1.5,5.3-2.5c0.1-0.1,0.2-0.1,0.2-0.2
				c0-0.1-0.1-0.1-0.2-0.1c-1.2-0.4-2.3-0.8-3.5-1.2c-0.3-0.1-0.4-0.2-0.2-0.5c0.5-1,1.1-2,1.6-3c0.1-0.2,0.3-0.5,0.4-0.8
				c-3.5,0.6-6.7,1.9-10,3.1c0.2-0.5-0.1-0.6-0.5-0.7C147.1,55.4,151.2,53.8,155.6,52.9z"/>
			<path class="st0" d="M87.1,34.3c-0.2-0.7-0.5-1.5-1-2.1c0,1,0.2,1.9,0.6,2.8c-1-0.7-1.7-1.6-2.4-2.5c-0.2-0.3-0.2-0.6-0.2-0.9
				c-0.2-1.6-0.2-3.1,0.1-4.7c0.3-1.4,0.7-2.7,1.3-3.9c0.1-0.1,0.1-0.2,0.2-0.4c0.2,1.6,0.7,3,1.3,4.3c0.1,0.2,0.1,0.3,0.2,0.4
				c0.6,0.5,0.4,1.1,0.2,1.7c-0.5,1.4-0.4,2.8-0.3,4.2C87.1,33.7,87.1,34,87.1,34.3z"/>
			<path class="st0" d="M90.1,17c-0.1,1.2-0.1,2.2,0.1,3.3c0.2,0.8,0.3,1.6-0.1,2.4s-0.3,1.7-0.5,2.6c-0.2,0.8-0.8,1.3-1.3,1.9
				c-0.1-1,0-1.9-0.4-2.9c-0.5,1.1-0.2,2.2-0.2,3.2c-0.2-0.6-0.5-1.1-0.7-1.7c-0.3-0.9-0.6-1.8-0.9-2.7c0-0.1-0.1-0.2,0-0.3
				c0.4-1.3,1-2.6,1.8-3.7c0.5-0.7,1.1-1.3,1.8-1.8C89.8,17.2,89.9,17.1,90.1,17z"/>
			<path class="st0" d="M96.2,47.4c-0.2-0.1-0.3-0.2-0.4-0.3c-0.4-0.4-0.8-0.7-0.7-1.5c0.2-0.7,0.1-1.5-0.2-2.3
				c-0.3,0.5-0.3,1.1-0.3,1.6c0,0.3,0.1,0.7-0.1,1c-0.3-0.2-0.5-0.4-0.8-0.5c-0.2-0.1-0.2-0.2-0.2-0.4c-0.1-1,0-2.1-0.1-3.1
				c-0.2-1.5,0.5-2.6,1.4-3.7c0.3-0.3,0.4-0.3,0.7,0c1.1,1.4,1.8,3,2.1,4.7c0.1,0.3,0.1,0.6,0.1,0.9c0,0.6,0,1.2-0.6,1.6
				C96.3,46,96.4,46.7,96.2,47.4z"/>
			<path class="st0" d="M105.2,57.6c0.2,1,0.9,1.9,1.4,2.8c-0.8,0.2-1-0.5-1.4-0.9c-1.1-1.5-2.1-3-3.3-4.4c-0.7-0.9-0.8-1.7-0.6-2.8
				c0.1-0.7,0-1.4,0.1-2c0-0.1,0-0.2,0.1-0.4c2.2,1.6,3.8,3.7,5.1,6.1c-0.6-0.1-0.6,0.2-0.7,0.7c0,0.9,0.2,1.6,0.4,2.5
				C105.8,58.7,105.6,58.1,105.2,57.6C105.2,57.5,105.2,57.6,105.2,57.6z"/>
			<path class="st0" d="M88.8,35.3c-0.6-0.4-0.9-1-1.4-1.5c-0.1,0-0.1-0.1-0.1-0.2c-0.1-1.6,0-3.2,0.5-4.7c0.3-0.9,0.8-1.7,1.5-2.4
				c0.2-0.2,0.4-0.1,0.5,0.1c0.5,0.7,1,1.4,0.9,2.5c-0.2,1.5-0.1,3.1,0.6,4.6c0.3,0.6,0,1.1-0.2,1.7c-0.1,0.5-0.4,1-0.5,1.4
				c-0.2,0.2-0.3,0.2-0.4,0c-0.2-0.3-0.5-0.5-0.7-0.8s0-0.5,0.1-0.8c0.2-0.9-0.1-1.8-0.4-2.7c0-0.1,0-0.1-0.1-0.1s-0.1,0.1-0.2,0.2
				C88.6,33.4,88.5,34.3,88.8,35.3C88.8,35.2,88.8,35.2,88.8,35.3z"/>
			<path class="st0" d="M105.4,60.3c-0.5,0.2-0.8,0.1-1.2-0.3c-0.8-0.8-1.6-1.5-2.6-2.1c-0.1-0.1-0.3-0.3-0.5-0.2
				c-0.1,0.1,0.1,0.3,0.2,0.5c0.6,0.9,1.6,1.4,2.4,2c-0.9,0.2-1.4,0.1-2.3-0.6c-1.1-0.8-2.1-1.5-3.1-2.5c-1-0.9-1.5-2.1-1.7-3.4
				c-0.1-0.2,0.1-0.3,0.3-0.3c1.2,0.2,2.4,0.3,3.5,0.6c0.7,0.2,0.9,0.7,1.3,1.2c1.1,1.6,2.3,3.2,3.5,4.7
				C105.2,60.1,105.4,60.1,105.4,60.3z"/>
			<path class="st0" d="M129.6,60.3c0.5-1,1.2-1.8,1.4-2.9c-0.5,0.5-0.8,1.2-1.3,1.8c0.1-0.5,0.2-0.9,0.3-1.2
				c0.2-0.5,0.2-0.9,0.2-1.4c0-0.4,0.1-0.8-0.6-0.5c1.3-2.5,2.8-4.5,5-6.1c0.3,0.7,0.1,1.5,0.3,2.1c0.1,0.5,0,1.1,0.1,1.6
				c0.1,0.2-0.2,0.5-0.3,0.7c-1,1.5-2.1,3-3.3,4.5c-0.3,0.3-0.5,0.7-0.8,1C130.4,60.3,130,60.4,129.6,60.3z"/>
			<path class="st0" d="M132.4,60.3c0.5-0.4,1-0.7,1.5-1.1c0.4-0.3,0.7-0.7,1-1.1c0.1-0.1,0.1-0.2,0.1-0.3c-0.1-0.1-0.2,0-0.3,0
				c-1,0.6-1.9,1.4-2.7,2.2c-0.4,0.3-0.7,0.4-1.2,0.3c0.4-0.4,0.8-0.9,1.1-1.3c1.1-1.3,2.1-2.7,3-4.1c0.3-0.4,0.6-0.6,1-0.7
				c1.1-0.3,2.2-0.4,3.2-0.5c0.6-0.1,0.4,0.3,0.3,0.6c-0.3,1.4-1.1,2.6-2.2,3.5c-1,0.8-2.1,1.6-3.2,2.4
				C133.4,60.4,132.9,60.3,132.4,60.3z"/>
			<path class="st0" d="M87.8,50c1.1,0.4,2,1,3,1.2c0.5,0.1,1,0.2,1.5,0.3c0.2,0,0.3,0.1,0.3,0.2c1,1.7,2.3,3.1,3.9,4.4
				c0.3,0.2,0.6,0.5,0.9,0.8c-1-0.6-2-1.3-3.3-1.5c0.5,0.8,1.2,1.1,1.9,1.6c-0.8,0-1.6,0.2-2.4-0.1c-1.2-0.5-2.3-1-3.1-2
				c-0.6-0.7-1-1.6-1.5-2.4C88.6,51.7,88.3,50.9,87.8,50z"/>
			<path class="st0" d="M91.8,49.4c-0.8-0.4-1.5-1-2.4-1c0.6,0.9,1.4,1.5,2.3,1.9c0.4,0.2,0.6,0.4,0.7,0.8c-0.3,0.1-0.6-0.1-0.9-0.1
				c-0.6-0.1-1.1-0.3-1.6-0.4c-0.9-0.2-1.5-0.8-2.1-1.5c-1.2-1.6-1.9-3.3-2-5.3c0,0,0,0,0-0.1c-0.1-0.3-0.3-0.8,0-0.9
				c0.3-0.2,0.6,0.2,1,0.3l0.1,0.1c1,0.4,1.7,0.9,2.2,1.9c0.5,0.9,1.1,1.7,2,2.3c0.2,0.2,0.4,0.4,0.5,0.7
				C91.4,48.5,91.6,48.9,91.8,49.4z"/>
			<path class="st0" d="M138.8,44.7c0.1-1.6,0.6-3,1.4-4.4c0.3-0.5,0.7-1,1.1-1.5c0.1-0.1,0.3-0.3,0.5-0.1c0.6,0.8,1.2,1.6,1.4,2.6
				c0.1,0.5,0,0.9-0.1,1.4c-0.1,0.8-0.3,1.6-0.4,2.3c-0.1,0.3-0.8,1.1-1.1,1.1c-0.2,0-0.1-0.2-0.1-0.3c0-0.7,0-1.3-0.2-2
				c0-0.1,0-0.3-0.2-0.2c-0.1,0-0.1,0.1-0.1,0.2c-0.2,0.8-0.3,1.6,0,2.4c0,0.1,0,0.3-0.1,0.4c-0.3,0.3-0.6,0.6-0.9,0.8
				c-0.2,0.2-0.3,0.2-0.3-0.1c-0.1-0.7-0.2-1.3-0.7-1.9C138.8,45.2,138.8,44.9,138.8,44.7z"/>
			<path class="st0" d="M106.4,56.3c0.5,0.2,0.9,0.5,1.2,0.8c0.3,0.4,0.7,0.7,1.1,1.1c0.6,0.6,1.5,0.9,2.3,1.2
				c1.2,0.5,2.4,1.1,3.4,2.1c0.2,0.2,0.3,0.4,0.4,0.7c0.1,0.2,0,0.6-0.2,0.7c-0.3,0.2-0.7,0-0.9-0.2c-0.6-0.7-1.5-1-2.3-1.4
				c-0.1-0.1-0.3-0.2-0.4,0s0,0.3,0.2,0.4c0.6,0.6,1.3,1,2.2,1.5c-0.8,0.5-1.6,0.5-2.3,0.1c-1.7-0.8-3-2.1-4-3.7
				C106.4,58.5,106.3,57.4,106.4,56.3z"/>
			<path class="st0" d="M151,24.9c0.5,0.8,0.7,1.6,0.9,2.5c0.2,0.8,0.3,1.7,0.3,2.5c0,1.1-0.1,2.3-0.4,3.4c-0.1,0.4-0.5,0.6-0.7,1
				c-0.5,0.6-1.1,1.3-1.7,1.9c0.6-1.2,1.1-2.4,1-3.7c-0.7,0.9-1.1,1.8-1.5,2.8c-0.3-0.4-0.1-0.9-0.1-1.3c0.2-1.4,0.2-2.8-0.3-4.1
				c-0.1-0.2-0.1-0.3,0-0.5c0.9-1.2,1.8-2.4,2.2-3.9C150.9,25.2,150.9,25,151,24.9z"/>
			<path class="st0" d="M125.3,61c-1.1,0.3-1.9,0.7-2.7,1.4c-0.2,0.2-0.3,0.4-0.6,0.4c-0.2,0-0.4,0.1-0.5-0.1
				c-0.1-0.2-0.1-0.5,0-0.7c0.6-1,1.5-1.6,2.5-2c0.7-0.3,1.5-0.6,2.2-0.9c0.8-0.4,1.5-1,2.1-1.6c0.3-0.3,0.7-0.7,1.1-0.9
				c0.2-0.1,0.3-0.1,0.3,0.2c0.1,1.6-0.4,3-1.5,4.2c-0.8,0.8-1.7,1.6-2.7,2.2c-0.8,0.5-1.5,0.5-2.3,0.2c-0.1,0-0.2-0.1-0.2-0.2
				c0-0.1,0.1-0.1,0.2-0.1C123.9,62.4,124.8,62,125.3,61z"/>
			<path class="st0" d="M147.8,50.8c-0.9,1.6-1.6,3.2-2.9,4.5c-0.8,0.8-1.9,1.4-3,1.7c-0.7,0.2-1.4,0-2.2,0c0.7-0.4,1.3-0.7,1.8-1.2
				c0.1-0.1,0.2-0.1,0.2-0.3c-0.1-0.2-0.2,0-0.3,0c-0.8,0.2-1.4,0.6-2.1,1c-0.2,0.2-0.5,0.3-0.9,0.4c0.5-0.5,0.9-0.8,1.4-1.1
				c1.3-1.1,2.5-2.3,3.3-3.7c0.4-0.6,1-0.7,1.5-0.7c1-0.1,1.9-0.4,2.8-0.6C147.4,50.8,147.5,50.8,147.8,50.8z"/>
			<path class="st0" d="M140.4,14.1c1.2,0.5,2.2,1.1,3.1,1.7c1.1,0.7,2,1.6,2.9,2.7c0.5,0.6,0.6,1.1,0.5,1.8
				c-0.1,0.9-0.2,1.8-0.4,2.7c0,0.1,0,0.2-0.2,0.3c-0.5-1.4-0.8-2.8-1.9-4c-0.1,1,0.3,1.8,0.6,2.7c-0.5-0.6-1-1-1.5-1.3
				c-1-0.4-1.3-1.2-1.4-2.1C141.9,17,141.1,15.6,140.4,14.1z"/>
			<path class="st0" d="M88.2,43.4c-0.9-0.4-1.7-0.8-2.5-1.3c-0.4-0.2-0.5-0.6-0.7-1c-0.7-1.4-1.1-2.8-1.3-4.4
				c-0.1-1.2-0.1-2.3,0-3.4c0-0.2,0.1-0.3,0.2-0.6c0.9,1.2,1.9,2.1,3,3c0.2,0.2,0.2,0.3,0.2,0.5c0,1.2,0,2.4,0.2,3.6
				c0,0.2,0.1,0.4,0.1,0.6c-0.4-0.5-0.8-0.9-1.1-1.3c-0.1-0.1-0.2-0.3-0.3-0.2s-0.1,0.3,0,0.4c0.4,1,1,1.9,1.8,2.6
				C88.1,42.5,88.1,42.5,88.2,43.4z"/>
			<path class="st0" d="M146.6,48.4c-0.9,0.1-1.6,0.7-2.5,1.1c0.4-0.8,0.3-1.6,1-2.1c0.8-0.6,1.5-1.5,2-2.4c0.4-0.7,0.9-1.1,1.6-1.4
				c0.1,0,0.2-0.1,0.3-0.1c1.1-0.3,1.1-0.3,1,0.8c-0.3,2.3-1.1,4.3-2.8,5.9c-0.2,0.2-0.5,0.3-0.8,0.4c-0.8,0.2-1.6,0.4-2.4,0.6
				c-0.1,0-0.2,0.1-0.3,0s0-0.2,0-0.3c0.1-0.2,0.2-0.4,0.5-0.5C145.1,50,145.9,49.4,146.6,48.4z"/>
			<path class="st0" d="M101.5,60.2c-0.9-0.1-1.7-0.3-2.5,0c1,0.5,1.9,0.6,3,0.9c-0.5,0.3-1,0.3-1.4,0.5c-1.3,0.6-2.4-0.1-3.6-0.6
				c-1.3-0.6-2.5-1.4-3.5-2.5c-0.2-0.2-0.3-0.5-0.6-0.8c0.8-0.1,1.5-0.3,2.2-0.3c0.7-0.1,1.4-0.1,2.1-0.1c0.4,0,0.7,0.1,1.1,0.4
				c0.9,0.8,1.9,1.7,3,2.3C101.2,60,101.3,60.1,101.5,60.2z"/>
			<path class="st0" d="M147.8,35.9c0.1-1.1,0-2.1-0.2-3.3c-0.4,0.4-0.4,0.9-0.5,1.4c-0.1,0.7-0.1,1.3-0.1,2c0,0.3-0.7,1.2-1,1.3
				c-0.2,0-0.2-0.1-0.3-0.2c-0.1-0.2-0.2-0.5-0.2-0.8c-0.3-1.3-0.2-2.7,0.2-4c0.2-0.7,0.3-1.4,0.3-2.2c0-1,0.6-1.8,1.1-2.6
				c0.1-0.2,0.3-0.1,0.4,0.1c0.6,0.9,1,1.8,1.2,2.9c0.2,1.2,0.2,2.4,0.2,3.6c0,0.5-0.1,0.9-0.5,1.2C148,35.5,147.9,35.8,147.8,35.9z
				"/>
			<path class="st0" d="M148.6,28.6c0.2-1,0.4-1.8,0.4-2.7c0-0.3-0.1-0.6-0.1-0.8c0-0.1,0-0.2-0.1-0.2c-0.2,0-0.2,0.1-0.2,0.2
				c-0.2,0.9-0.5,1.9-0.5,3c-0.5-0.6-1-1-1-1.8s0-1.5-0.4-2.3c-0.2-0.4,0-0.9,0.1-1.3c0.3-1.1,0.4-2.2,0.4-3.4c0-0.2,0-0.3-0.1-0.6
				c0.6,0.6,1.2,1.1,1.6,1.7c0.8,1.2,1.4,2.6,1.9,4c0.1,0.3-0.1,0.6-0.2,0.8c-0.4,1.1-0.7,2.3-1.6,3.2
				C148.9,28.5,148.8,28.5,148.6,28.6z"/>
			<path class="st0" d="M96.3,13.2c-1,1.9-1.7,3.8-2,5.8c0,0.3-0.2,0.5-0.5,0.7c-0.6,0.4-1.2,0.8-1.9,1.2c0.3-0.6,0.4-1.2,0.5-1.9
				c0-0.2,0.1-0.4-0.1-0.5s-0.3,0.1-0.4,0.2c-0.5,0.6-0.8,1.2-1,1.9c0,0.2-0.1,0.3-0.2,0.6c-0.2-1.2-0.3-2.3-0.3-3.4
				c0-0.1,0-0.3,0.1-0.4C91.9,15.4,93.8,14.1,96.3,13.2z"/>
			<path class="st0" d="M137.4,53c0.2-0.7,0.3-1.4,0.3-2.1c-0.6,0.8-1,1.7-1.4,2.6c-0.1,0.2-0.2,0.3-0.4,0.4
				c-0.4,0.2-0.6,0.1-0.6-0.4c0-1.2,0-2.4,0-3.6c0-0.6,0.2-0.8,0.8-0.9c0.5-0.1,1-0.8,0.9-1.3c-0.2-0.9,0.3-1.8,1.2-2.1
				c0.2-0.1,0.3,0.1,0.3,0.2c0.5,0.5,0.7,1.2,0.9,1.9c0.3,1.8-0.5,3.3-1.5,4.7C137.8,52.6,137.8,52.9,137.4,53z"/>
			<path class="st0" d="M105,66.4c3.4-0.9,6.4-2.7,10-3.3c-0.2,0.7-0.4,1.3-0.6,1.9c-0.1,0.3-0.3,0.5-0.7,0.7
				c-1.4,0.6-2.9,1.1-4.2,1.8c-0.7,0.4-1.2,0-1.8-0.2C106.8,67.1,105.9,66.7,105,66.4z"/>
			<path class="st0" d="M92.8,40.7c-0.3-0.5-0.6-0.8-0.6-1.2c-0.1-0.3,0.1-0.7,0.2-1.1c0.1-0.4,0-0.8,0.1-1.2c0-0.1,0-0.2-0.1-0.2
				c-0.2-0.1-0.1,0.1-0.2,0.2c-0.3,0.5-0.2,1.2-0.3,1.7c-0.8-0.7-1-1.4-0.7-2.7c0.3-1.4,0.9-2.6,2-3.6c0.1-0.1,0.1-0.1,0.2-0.2
				c0.5-0.3,0.5-0.3,0.6,0.2c0.3,1.1,0.8,2.2,1,3.4c0.1,0.4,0,0.8,0,1.3c0,0.2-0.1,0.3-0.3,0.4C93.8,38.3,93.2,39.4,92.8,40.7z"/>
			<path class="st0" d="M134.2,61.1c0.9-0.3,1.8-0.5,2.8-0.8c-0.9-0.4-1.6-0.1-2.4-0.1c0.5-0.4,1.1-0.8,1.6-1.2
				c0.6-0.5,1.1-1,1.7-1.4c0.1-0.1,0.3-0.3,0.5-0.3c0.8,0,1.6-0.1,2.4,0c0.7,0.1,1.4,0,2.1,0.2c-0.3,0.6-0.8,1.2-1.4,1.6
				c-1.4,1.1-2.9,1.9-4.6,2.4c-0.7,0.2-1.3-0.1-1.9-0.2C134.8,61.3,134.4,61.3,134.2,61.1z"/>
			<path class="st0" d="M150,39.2c-0.6,0.5-1.1,1-1.5,1.5c0.3-1.1,0.3-2.2,0.3-3.3c0-0.2,0.1-0.3,0.2-0.4c0.9-0.7,1.6-1.7,2.4-2.5
				c0.1-0.1,0.2-0.2,0.3-0.4c0.3,0.6,0.4,1.2,0.4,1.7c0.1,2.2-0.5,4.3-1.7,6.2c-0.1,0.1-0.2,0.2-0.3,0.3c-0.7,0.4-1.4,0.7-2.1,1
				c-0.1,0-0.2,0.2-0.3,0c-0.1-0.1,0-0.2,0-0.3c0.2-0.6,0.7-0.9,1.1-1.4C149.4,41,149.9,40.3,150,39.2z"/>
			<path class="st0" d="M131,66c-1.2,0.6-2.5,1-3.9,1.3c-0.2,0-0.4,0-0.5-0.1c-1.3-0.6-2.8-1.2-4.3-1.6c-0.3-0.1-0.4-0.4-0.5-0.7
				c-0.2-0.4-0.2-0.9-0.3-1.4c-0.1-0.3,0.2-0.5,0.5-0.4c1.5,0.5,3.1,0.8,4.6,1.5c0.8,0.4,1.6,0.9,2.6,1.1
				C129.9,65.8,130.4,65.9,131,66z"/>
			<path class="st0" d="M143.4,41.1c-0.3-1.2-0.7-2.1-1.6-2.8c-0.6-0.4-0.4-1-0.3-1.5c0.1-1.3,0.7-2.5,1.1-3.8
				c0.1-0.2,0.1-0.3,0.3-0.1c1.5,1.2,2.2,2.9,2.3,4.8c0.1,0.8-0.5,1.2-0.8,1.7c0-0.6-0.2-1.1-0.3-1.7v-0.1c-0.1-0.2-0.1-0.6-0.4-0.6
				c-0.2,0-0.1,0.4-0.1,0.6c-0.1,0.6,0.1,1.3,0.2,1.9C143.9,40.2,143.6,40.6,143.4,41.1z"/>
			<path class="st0" d="M96.7,47.5c0.1-0.7,0.4-1.4,0.9-1.9c0.1-0.1,0.2-0.1,0.4-0.1c0.3,0.2,0.7,0.4,1,0.6c0.2,0.1,0.3,0.3,0.3,0.6
				c-0.1,0.4,0,0.9,0,1.4c0,0.4,0.3,0.4,0.6,0.5c0.7,0.2,1.2,0.6,1.1,1.2c-0.1,0.5,0,1.1-0.1,1.6c-0.1,0.7-0.1,1.4-0.1,2.1
				c0,0.2,0,0.4-0.3,0.4s-0.4-0.1-0.4-0.4c-0.3-1.5-1-2.8-2-4c-0.4-0.5-0.9-1.1-1.3-1.6C96.8,47.8,96.7,47.7,96.7,47.5z"/>
			<path class="st0" d="M90.3,26.5c-0.4-0.8-0.4-1.6-0.2-2.4c0.4-1.4,1.3-2.3,2.4-3.2c0.4-0.3,0.9-0.7,1.5-0.9
				c-0.1,0.4-0.2,0.7-0.3,1c-0.1,1.1-0.3,2.1-0.1,3.2c0.1,0.6-0.3,1.1-0.6,1.5c-0.6,0.6-1.1,1.3-1.9,1.7c-0.2,0.1-0.3,0.1-0.4-0.1
				c-0.1-0.3-0.2-0.6,0.1-0.9c0.4-0.4,0.6-0.9,0.7-1.4c0-0.1,0.1-0.4-0.1-0.4c-0.2-0.1-0.3,0.1-0.4,0.2
				C90.6,25.3,90.6,25.9,90.3,26.5z"/>
			<path class="st0" d="M143,26.6c0.7,0.9,1.4,1.6,2.2,2.3c0.2,0.1,0.2,0.3,0.2,0.4c0,0.8,0.1,1.6-0.2,2.5c-0.2-0.7-0.3-1.4-0.8-1.9
				c-0.2,0.5,0,1,0,1.5c0,0.3,0.1,0.6,0.3,0.8c0.5,0.6,0,1.2,0.1,1.8c0,0.1-0.1,0.2-0.2,0.1c-0.7-0.6-1.5-1.1-2.1-1.8
				c-0.3-0.4-0.4-0.8-0.2-1.3c0.6-1.3,0.8-2.7,0.7-4.2C143,26.7,143,26.7,143,26.6z"/>
			<path class="st0" d="M142.6,20.8c2.3,1.1,4.2,4.1,3,6.2c0-0.6-0.2-1-0.5-1.4c-0.1-0.2-0.3-0.6-0.6-0.5s-0.1,0.5,0,0.7
				c0.1,0.5,0.3,0.9,0.6,1.3c0.1,0.1,0.2,0.2,0.1,0.4c-0.1,0.2,0,0.5-0.2,0.6s-0.3-0.2-0.5-0.3c-0.5-0.4-0.9-0.9-1.3-1.5
				c-0.7-0.9-0.5-1.9-0.4-2.9c0.1-0.8-0.1-1.5-0.2-2.2C142.6,21.1,142.5,21,142.6,20.8z"/>
			<path class="st0" d="M93.6,25.7c-0.1,0.6-0.2,1.1-0.2,1.7c-0.1,1.2,0.3,2.3,0.5,3.4c0.1,0.3,0,0.6-0.2,0.9
				c-0.5,0.7-1.2,1.2-1.9,1.7c-0.2-0.5-0.4-0.9,0-1.5c0.4-0.7,0.7-1.5,0.7-2.4c-0.7,0.4-1,1.1-1.4,1.8c0-0.5-0.1-0.9-0.1-1.4
				s0.1-1.1,0.2-1.6c0.1-0.3,0.4-0.4,0.6-0.6c0.6-0.6,1.2-1.2,1.7-1.9c0-0.1,0-0.1,0.1-0.2C93.6,25.6,93.6,25.6,93.6,25.7z"/>
			<path class="st0" d="M89.4,60.6c0.2-0.3,0.6-0.3,0.8-0.3c0.8,0,1.6-0.1,2.3,0c0.5,0.1,1.1,0.1,1.6,0c0.7-0.2,1.2,0.2,1.7,0.6
				c0.1,0.1,0,0.2,0,0.3c-0.1,0.6-0.2,1.1-0.3,1.7c-0.1,0.4-0.5,0.3-0.7,0.2c-0.6-0.1-1.2-0.3-1.7-0.5c-0.7-0.2-1.4-0.5-2-0.8
				C90.6,61.4,89.9,61.2,89.4,60.6z"/>
			<path class="st0" d="M145.8,60.4c-1.1,0.9-2.4,1.6-3.6,2.2c-0.2,0.1-0.5,0.2-0.7,0.3c-0.7,0.3-0.9,0.2-1.1-0.5
				c-0.1-0.4-0.3-0.7-0.4-1.1c-0.2-0.5-0.1-0.8,0.5-0.8c0.3,0,0.6,0,0.9,0c1.3,0.1,2.5-0.3,3.8-0.2
				C145.2,60.2,145.5,60.2,145.8,60.4z"/>
		</g>
	</g>
	<g>
		
			<radialGradient id="SVGID_1_" cx="-561.4238" cy="335.0727" r="14.3662" gradientTransform="matrix(2.7187 0 0 2.7187 1633.5819 -897.6205)" gradientUnits="userSpaceOnUse">
			<stop  offset="2.000000e-02" style="stop-color:#E60012"/>
			<stop  offset="0.1352" style="stop-color:#E60012"/>
			<stop  offset="0.98" style="stop-color:#B60005"/>
		</radialGradient>
		<path class="st1" d="M94.2,26.4L94.2,26.4v0.9v0.8l0.1,1.2l0.2,0.4h0.4c0.7,3.3,2.1,6.3,4,9v0.4v0.1l0.1,0.3l1.7,2h0.1
			c0,0,0.1-0.1,0.1,0h0.1l-1.2,6.8l1.6,0.3v0.7l1.7,0.4v0.8l1.5,0.5v0.4l3.6,0.5l-0.1-1.3l1.9-0.8l-0.3,0.6l-0.1,0.9l1.2,0.2
			l0.1,0.2l2.2,0.4l0.3-0.1l0.4,0.2c0,0,2.5,0.2,2.5,0.3l0.2-0.3h2.7l0.2,0.2l2.2-0.1h0.3l0.3-0.2h0.1l0.3,0.1l2.2-0.3l0.1-0.2
			l1.1-0.2v-0.8l-0.4-0.6l1.9,0.8v0.2l-0.1,1l3.6-0.4v-0.3h0.1l1.5-0.4v-0.8l0.1-0.1l1.7-0.4v-0.6V49l1.6-0.2l-1-6.8l0.4,0.1
			l1.5-1.7l0.3-0.5l-0.1-0.6c1.9-2.6,3.4-5.6,4.2-8.8h0.2h0.2l0.2-0.1L142,30l0.3-3v-0.2l-0.1-0.1l-0.1-0.1l-0.1-0.1
			c0-0.6,0.1-1.2,0.1-1.8c0-4.4-1.2-8.5-3.3-12c0-0.1,0-0.2,0-0.2l0.1-0.2v-0.2l-0.6-0.9l-0.2-0.3l-0.5-0.6h-0.2h-0.1
			C132.9,4.8,125.9,1,118.2,1c-7.6,0-14.3,3.6-18.6,9.1h-0.1L99.3,10l-0.2,0.2L98,11.7l-0.1,0.2l0.1,0.2c-2.3,3.7-3.6,7.8-3.6,12.5
			c0,0.4,0,1,0,1.4h-0.2L94.2,26.4L94.2,26.4z"/>
		
			<radialGradient id="SVGID_2_" cx="-560.8062" cy="334.5005" r="14.7638" gradientTransform="matrix(2.7187 0 0 2.7187 1633.5819 -897.6205)" gradientUnits="userSpaceOnUse">
			<stop  offset="5.000000e-02" style="stop-color:#FFFFFF"/>
			<stop  offset="0.113" style="stop-color:#FFFFFF"/>
			<stop  offset="0.554" style="stop-color:#FFF100"/>
			<stop  offset="0.941" style="stop-color:#F7AD00"/>
			<stop  offset="0.95" style="stop-color:#F7AD00"/>
		</radialGradient>
		<path class="st2" d="M127.5,13.9l0.5,2l2,0.2l-1.7,1l0.5,2l-1.5-1.3l-1.7,1l0.8-1.9l-1.5-1.3l2,0.2L127.5,13.9L127.5,13.9
			L127.5,13.9z M120.4,51.9L120.4,51.9l1.6-0.1v-0.3h-0.7l0,0l-0.1-1.7h-0.4v1.5l-2.3,0.1v-0.8h-0.4v1.2l2.2-0.1L120.4,51.9
			L120.4,51.9z M94.9,26.6L94.9,26.6l0.1,0.7c0,0,2.3-2.4,2.6-2.9c0.3-0.4,2.7-2.7,3.3-3.2c0,0.2-0.1,0.5-0.1,0.7
			c-0.2,0.2-0.6,0.5-0.7,0.6s-2,1.9-2.3,2.3c-0.3,0.3-2.8,3-2.8,3l0.1,0.9c0,0,2.1-2.3,2.5-2.8c0.3-0.4,2.5-2.5,3-3.1
			c-0.1,0.6-0.1,1.2-0.1,1.8c0,5.8,2.8,10.9,7.1,14.1l0.9,4.2h-0.1c0,0-0.1-0.1-0.2-0.2l-0.2-0.3c0-0.1,0-0.3,0-0.3
			s-0.2-0.2-0.3-0.3c-0.1-0.1-0.5-0.6-0.5-0.6s-0.1-0.1-0.2-0.1s0,0.1,0,0.1c0,0.1,0.1,0.1,0.2,0.2c0.1,0.1,0,0.3,0.1,0.4
			c0.1,0.1,0,0.1-0.1,0c-0.1,0-0.1-0.2-0.1-0.2c0-0.1,0-0.2-0.1-0.2s-0.1-0.2-0.1-0.3s0.1-0.1,0.1-0.2l0.2-0.1c0,0-0.4-0.3-0.5-0.4
			c-0.1-0.1-0.3-0.4-0.3-0.4s-0.1,0-0.2,0c0,0-0.2-0.1-0.3-0.1c-0.1,0-0.1,0-0.1,0s0.1,0.2,0.1,0.3s0,0.2,0.1,0.3c0,0.2,0,0.3,0,0.3
			l-0.2-0.1h-0.4l-1-0.9h-0.2l-1-1.1h-0.1l-0.9-1.2l0.1,0.3l1,1.2h0.2l1,1.1h0.2l1,0.9h0.4l1,0.8c0,0,0.8,0.6,1.2,0.8
			c0,0.1,0.2,1.1,0.9,1.6c0.7,0.6,1.4,1.1,2.5,1.4c1,0.3,1.7,0.2,2.1,0.2c0.3,0,1.2-0.1,1.6-0.2c0.4-0.1,0.7-0.2,0.9-0.3
			c0.1-0.1,0.5-0.2,0.5-0.2l0,0c0,0.1,0,0.2,0,0.3s-0.2,0.2-0.7,0.5s-1.3,0.5-2,0.7c-0.7,0.1-1.4,0.3-2.9,0.1
			c-1.5-0.1-2.5-1.1-2.5-1.1h-0.1c0,0-0.3-0.3-0.5-0.5s-0.6-0.6-0.6-0.6l-0.1,0.1c0,0-0.5-0.8-0.9-1.6s-0.5-1.8-0.5-1.8h-0.3v0.2
			c0,0,0.1,0.7,0.3,1.3c0.2,0.5,0.4,1.1,1.4,2.3s2.3,1.7,2.3,1.7l0.2-0.1c0,0,0.1,0.1,0.6,0.2c0.5,0.1,2,0.2,2.4,0.2
			c0.3,0,1.6-0.2,2.4-0.4c0.6-0.2,1.4-0.7,1.7-1l0.1,0.2l-0.6,0.2h-0.1c0.4,0.5,1,0.7,1.7,0.7c0.6,0,1.2-0.3,1.6-0.7l0,0l-0.5-0.4
			l0.1-0.1c0.2,0.2,1.1,0.8,1.7,1c0.8,0.2,2.1,0.4,2.4,0.4s1.9,0,2.4-0.1s0.6-0.2,0.6-0.2l0.2,0.1c0,0,1.3-0.5,2.3-1.6
			c1-1.2,1.2-1.8,1.4-2.3s0.3-1.2,0.3-1.2v-0.2h-0.3c0,0-0.1,1-0.5,1.8s-0.9,1.5-0.9,1.5l-0.1-0.1c0,0-0.4,0.4-0.6,0.6
			c-0.2,0.2-0.6,0.5-0.6,0.5h-0.1c0,0-1,0.9-2.5,1.1c-1.5,0.1-2.1,0-2.9-0.2c-0.7-0.2-1.5-0.5-2-0.7c-0.5-0.3-0.7-0.4-0.7-0.5
			c0,0,0-0.1,0-0.3l0,0c0,0,0.3,0.2,0.5,0.2c0.1,0.1,0.4,0.1,0.9,0.3c0.4,0.1,1.2,0.2,1.6,0.2c0.3,0,1.1,0.1,2.1-0.1
			c1-0.2,1.8-0.8,2.5-1.3s0.9-1.6,0.9-1.6l-0.4,0.2c0,0,0,0.2-0.2,0.6c-0.2,0.4-0.3,0.5-1.1,1c-0.8,0.6-1.7,0.9-2.2,0.9
			c-0.6,0.1-1.7,0.1-2.7-0.1c-1-0.2-1.8-0.8-1.8-0.8c0-0.3,0-0.5,0-0.6l0,0c0,0,0-0.1,0.1-0.2c0.2-0.1,0.3-0.1,0.5-0.1
			c0.1,0,0.2,0,0.3,0.1l0,0l0.6,0.1l0,0c0.2,0,0.3,0.1,0.5,0.1c0.1,0,0.2,0,0.4,0l0,0l0.6,0.1l0,0c0.3,0,0.5,0.1,0.7,0.1
			c0.3,0,0.7,0,0.7,0h0.1l0,0c0.2,0,0.3-0.1,0.5-0.1c0.3-0.1,0.9-0.3,0.9-0.3l-0.2,0.2l0.1-0.6l-1.5,0.4l-0.1,0.1h0.1v0.3h-0.1
			l0.1-0.2l-0.5-0.1l-0.2-0.6l0.5-0.3l-0.4-1l-0.5,0.1l-0.4-0.7l0.3-0.6l-0.7-0.6l-0.5,0.3l-0.7-0.5l0.1-0.6l-1-0.4l-0.4,0.5
			l-0.8-0.2l-0.2-0.6h-0.9l-0.2,0.6l-0.9,0.2l-0.2-0.5l-0.8,0.3V40l-0.6,0.5l-0.5-0.4l-0.6,0.6l0.3,0.6l-0.5,0.7h-0.6l-0.4,0.8
			l0.4,0.3v0.7h-0.6V44h-0.2v-0.3h0.2l0,0l-1.5-0.5l0.1,0.6l-0.1,0.1c0,0,0.5,0.2,0.8,0.2c0.3,0.1,0.8,0.1,0.8,0.1l0,0
			c0.3,0,1,0,1.6,0l0,0h0.4l0,0c0.2,0,0.3,0,0.4,0s0.3,0,0.5-0.1l0,0L116,44l0,0c0.2,0,0.3-0.1,0.3-0.1c0.1,0,0.3,0.1,0.3,0.2l0,0
			c0,0,0,0.3,0,0.6c0,0-0.9,0.6-1.8,0.8c-1,0.1-2.1,0.1-2.7,0s-1.4-0.4-2.2-1c-0.8-0.6-0.9-0.7-1.1-1c-0.2-0.4-0.2-0.6-0.2-0.6h-0.1
			l0.9,0.5l-0.9-4c0.1,0.1,0.2,0.1,0.3,0.2l0.8,3.9l0.8,0.3l-0.7-3.7c1.1,0.6,2.3,1.1,3.6,1.4v-0.2c-1.3-0.4-2.5-0.9-3.7-1.5l0,0
			l-1-0.5l0,0c-0.1-0.1-0.3-0.2-0.4-0.3l-0.9-0.7l0,0c-0.3-0.2-0.6-0.5-0.9-0.8l22.6,0.3l0,0c-1.9,1.6-4.2,2.8-6.7,3.5l0.1,0.1
			c1.2-0.3,2.4-0.8,3.5-1.3l-0.5,3.9l0.8-0.3l0.9-4c0.1-0.1,0.2-0.1,0.3-0.2l-1,4.1l1-0.4l1-4.3c4.4-3.2,7.3-8.4,7.3-14.3
			c0-0.5,0-0.9-0.1-1.4c0.6,0.6,2.7,2.7,3,3.2c0.4,0.5,2.5,2.8,2.5,2.8l0.1-0.9c0,0-2.5-2.7-2.8-3s-2.1-2.2-2.2-2.3
			c-0.1-0.1-0.5-0.4-0.7-0.6c0-0.2-0.1-0.5-0.1-0.7c0.5,0.5,2.9,2.9,3.3,3.3s2.6,2.9,2.6,2.9l0.1-0.7c0,0-2.3-2.5-2.9-3.1
			c-0.5-0.5-2.7-2.7-3.2-3.3c-1.8-7.9-8.8-13.7-17.2-13.7c-8.2,0-15.1,5.7-17.1,13.4c-0.6,0.6-2.8,2.7-3.3,3.2
			C97.3,24.1,94.9,26.5,94.9,26.6L94.9,26.6z M120.8,19.3l1.3,1.5L124,20l-1,1.7l1.3,1.5l-2-0.4l-1,1.7l-0.2-2l-2-0.4l1.9-0.8
			L120.8,19.3L120.8,19.3L120.8,19.3z M115.7,19.3l-0.2,2l1.9,0.8l-2,0.5l-0.2,2l-1-1.7l-2,0.5l1.3-1.5l-1-1.7l1.9,0.8L115.7,19.3
			L115.7,19.3L115.7,19.3z M108.9,13.7l0.8,1.9l2-0.2l-1.5,1.3l0.8,1.9l-1.7-1.1l-1.5,1.3l0.5-2l-1.7-1l2-0.2L108.9,13.7L108.9,13.7
			L108.9,13.7z M112.5,28.7l0.1-0.1v-0.1h0.1c0,0,0.2,0.1,0.1,0.1l-0.1,0.2v0.1l11,0.1v-0.1l-0.2-0.2v-0.1l0.1-0.1h0.1v0.2
			c0,0,0.2,0.1,0.3,0.2c0,0.1,0,0.2,0,0.2v1.3l0,0v-1.2h-0.1v1.4h-0.1v-1.3l-11.3-0.2v1.4h-0.1v-0.1v-1.3h-0.1v1.2h-0.1V29
			c0,0,0-0.1,0.1-0.2C112.4,28.8,112.5,28.7,112.5,28.7L112.5,28.7L112.5,28.7z M112.7,30.6v-1.3l0.1-0.1l11.1,0.2v1.3l0,0l0,0l0,0
			h0.1v0.1h0.1v-0.1v-0.1l0.1-0.1h0.1h0.1v0.1h0.1h0.1v-0.1v-0.1v-0.1h0.1l0.1,0.1l0.1,0.1l-0.1,0.1v0.1l0,0h0.1v0.1l0,0h0.2h0.1
			v0.1L125,31h-1.1l0,0h-12.3l-0.2-0.1v-0.1h0.1h0.2l0,0v-0.1h0.1l0,0v-0.1l-0.1-0.1l0.1-0.1l0.1-0.1h0.1v0.1v0.1v0.1h0.1h0.1v-0.1
			h0.1h0.1l0.1,0.1v0.1v0.1h0.1v-0.1L112.7,30.6L112.7,30.6L112.7,30.6L112.7,30.6z M111.8,31.2l13,0.1l-0.1,0.2l-12.8-0.1
			L111.8,31.2L111.8,31.2L111.8,31.2z M111.3,31.7l0.3-0.2l13,0.2l0.4,0.1v-0.1v-0.1l0,0h0.1v0.1v0.1l0,0l0.2,0.2h0.2l0,0l-0.1,0.2
			L110.9,32l-0.1-0.1v-0.1h0.2l0.2-0.1v-0.1l0,0v-0.1l0.1-0.1h0.1L111.3,31.7L111.3,31.7L111.3,31.7L111.3,31.7z M111.4,32.4
			l-0.2-0.2l14,0.2l-0.2,0.1L111.4,32.4L111.4,32.4L111.4,32.4z M117.4,32.7L117.4,32.7l1.5-0.1v0.1l0.1,0.1l0.1,0.1V33v0.6H119
			h-0.2l-0.1,0.1v0.1v0.1h-1.2v-0.1l-0.1-0.1h-0.2h-0.1v-0.6l0.1-0.1L117.4,32.7L117.4,32.7L117.4,32.7L117.4,32.7z M124.7,33.6
			L124.7,33.6L124.7,33.6L124.7,33.6l0.1,0.2h-0.1h-0.1l0,0L124.7,33.6L124.7,33.6C124.5,33.7,124.5,33.7,124.7,33.6L124.7,33.6
			L124.7,33.6L124.7,33.6L124.7,33.6z M124.3,33.7L124.3,33.7L124.3,33.7L124.3,33.7h-0.2H124v0.1l0,0L124.3,33.7
			C124.2,33.8,124.2,33.8,124.3,33.7C124.3,33.8,124.3,33.7,124.3,33.7L124.3,33.7L124.3,33.7z M122.9,33.6L122.9,33.6L122.9,33.6
			L122.9,33.6h-0.2l0,0c0,0,0,0,0,0.1L122.9,33.6L122.9,33.6C123,33.7,122.9,33.8,122.9,33.6C122.9,33.7,122.9,33.6,122.9,33.6
			L122.9,33.6L122.9,33.6z M121.3,33.7L121.3,33.7L121.3,33.7L121.3,33.7l0.2-0.1l0,0h0.1l0.1,0.1v0.1l0,0L121.3,33.7L121.3,33.7
			L121.3,33.7z M120,33.7L120,33.7L120,33.7L120,33.7L120,33.7L120,33.7L120,33.7h0.2v0.1v0.1l0,0h-0.1H120V33.7L120,33.7L120,33.7
			L120,33.7z M119.2,32.7L119.2,32.7h0.6l0,0h-0.1h-0.1v0.1v0.8h0.1h0.1h0.1h0.1v-0.1v-0.1c0,0,0-0.1-0.1-0.1s-0.1,0-0.1,0.1v0.1
			l0,0v-0.7c0,0,0.1,0,0.1-0.1c0,0,0.1,0,0.1-0.1v-0.1h0.5l0.1,0.1c0,0,0,0,0,0.1c0,0,0.1,0,0.1,0.1h0.1v0.6v0.1h-0.2v0.1h0.3v-0.9
			l-0.1-0.1v-0.1l0,0h0.5v0.1h-0.1v0.1v0.9h0.3c0,0,0-0.1,0-0.2c0,0-0.1-0.1-0.1,0l-0.1,0.1l0,0V33c0,0,0,0,0.1,0
			c0,0,0.2-0.1,0.2-0.2h0.1h0.3l0.1,0.1l0.1,0.1l0.1,0.1v0.6c0,0,0,0-0.1,0.1h-0.1v0.1h0.3v-0.1V33h-0.1h-0.1l0,0h0.6v0.1h-0.1h-0.1
			c0,0,0,0.8,0,0.9v0.1c0.1,0,0.2,0,0.2,0h0.1V34c0,0,0-0.1-0.1-0.1h-0.1V34h-0.1v-0.6l0.2-0.1l0.1-0.1h0.1c0.1,0,0.3,0,0.3,0v0.1
			l0.2,0.1v0.7h-0.1c0,0,0,0,0,0.1h0.1h-0.1h0.1v-0.9c0,0,0,0-0.1-0.1h-0.1v-0.1h0.5v0.1h-0.1c0,0,0,0-0.1,0v0.9c0,0,0,0,0.1,0
			c0,0,0.1,0,0.2,0h0.1c0,0,0,0,0-0.1s0-0.1,0-0.1h-0.1c0,0,0,0.1-0.1,0.1s-0.1,0-0.1,0v-0.7l0.1-0.1c0,0,0,0,0.1-0.1
			s0.1-0.1,0.2-0.1s0.2,0,0.2,0s0.1,0,0.2,0.1l0.1,0.1c0,0,0.1,0,0.1,0.1c0,0,0,0.4,0,0.5c0,0,0,0,0.1,0h0.1c0,0,0-0.5,0-0.6v-0.1
			c-0.1,0-0.1,0-0.1,0V33h0.3v0.9V34c0,0,0,0,0.1,0s0.2,0,0.2,0h0.1v-0.1l0,0h0.1l0,0v0.2L119,34v-0.1c0,0,0,0,0.1,0h0.3
			c0,0,0-0.8,0-0.9C119.3,32.8,119.2,32.8,119.2,32.7C119.2,32.8,119.2,32.7,119.2,32.7L119.2,32.7L119.2,32.7z M111.8,33.5
			L111.8,33.5L111.8,33.5L111.8,33.5l-0.1,0.2l0,0h0.2l0,0L111.8,33.5L111.8,33.5L111.8,33.5L111.8,33.5L111.8,33.5L111.8,33.5z
			 M112,33.5L112,33.5L112,33.5L112,33.5l0.2-0.1h0.1l0,0v0.1l0,0H112C112.2,33.6,112,33.6,112,33.5C112,33.6,112,33.5,112,33.5
			L112,33.5L112,33.5z M113.4,33.5L113.4,33.5L113.4,33.5L113.4,33.5L113.4,33.5h0.2l0,0l0,0H113.4L113.4,33.5
			C113.4,33.6,113.4,33.6,113.4,33.5C113.4,33.6,113.4,33.5,113.4,33.5L113.4,33.5L113.4,33.5L113.4,33.5z M116,33.6L116,33.6
			L116,33.6L116,33.6L116,33.6L116,33.6L116,33.6L116,33.6L116,33.6L116,33.6L116,33.6L116,33.6l-0.2,0.1
			C116,33.7,116,33.6,116,33.6L116,33.6L116,33.6L116,33.6z M111.4,33.6v-1h0.3l0,0l-0.1,0.1v0.6h0.1h0.1v-0.5l0.2-0.1l0.1-0.1h0.1
			h0.2l0.1,0.1l0.1,0.1v0.1v0.5v0.1h-0.1l0,0h-0.1v0.1v0.2h0.3h0.1l0,0v-0.9l-0.2-0.1v-0.1h0.5v0.1c0,0-0.1,0-0.2,0.1v0.2v0.7v0.1
			h0.3v-0.1l-0.1-0.1v-0.3v-0.3l0.1-0.1l0.1-0.1h0.1h0.3l0.3,0.2v0.1v0.3v0.2v0.1l-0.1-0.1h-0.1h-0.1v0.1h0.1v0.1h0.3V33l-0.2-0.1
			h-0.1v-0.1h0.6v0.1h-0.1h-0.1v0.9h0.3v-0.1h-0.1V33l0.1-0.1l0.2-0.1h0.1h0.3l0.1,0.1l0.2,0.2v0.1v0.5v0.1h-0.1h-0.1v0.1h0.3l0,0
			V33h-0.2l0,0l0,0h0.5l0,0l0,0h-0.2l0,0v0.8v0.1h0.3v-0.1h-0.2l-0.1-0.1v-0.5l0.1-0.1l0.2-0.2h0.1h0.4h0.1l0.1,0.1h0.1v0.1v0.5v0.1
			l0,0v-0.1h-0.1v0.1v0.1l0,0h0.3v-0.9c0,0,0,0-0.1,0l-0.1-0.1l0,0h0.6v0.1c0,0-0.2,0-0.2,0.1v0.1v0.8h0.2h0.1h0.1l0,0l-6.5-0.1
			v-0.3h0.1v0.1l0,0L111.4,33.6L111.4,33.6L111.4,33.6L111.4,33.6z M104.4,34.1v-0.3l27.4,0.3l0.1,0.3l-8.9-0.1v-0.2h-0.3v0.2
			l-9-0.1V34h-0.4v0.2L104.4,34.1L104.4,34.1L104.4,34.1z M113.3,34.6L113.3,34.6l0.2-0.1v0.2h-0.2V34.6L113.3,34.6z M113.7,34.7
			h-0.3v0.2h-0.2h-0.1l-0.1-0.1h-0.1L113,35c0.1,0,0.2,0,0.2,0h0.1l0,0v1.8h-0.1c0,0,0,0-0.1,0v-0.1l0,0H113v0.2h-0.3l-0.1-0.2
			l-0.1-0.1h-0.3l0,0h-0.1l0,0H112v-0.1h-0.1v0.1h-0.1v-0.1h-0.1l-0.1,0.1h-0.1l0,0l0,0l-0.2,0.3h2.6v-0.3h-0.1v0.1h-0.2l-0.1-0.1
			v-1.7l0,0h0.1h0.2l0.1-0.2v-0.1l-0.1,0.1H113.7L113.7,34.7L113.7,34.7L113.7,34.7L113.7,34.7L113.7,34.7z M112.2,35.8
			c-0.2,0-0.3,0.1-0.3,0.2v0.6h0.1l0,0h0.1l0,0h0.1l0,0h0.1l0,0h0.1v0.1l0,0V36C112.3,36,112.3,35.8,112.2,35.8L112.2,35.8
			L112.2,35.8z M108.2,36.8v-0.2h0.1l0,0v0.1l0,0h0.1l0,0l0,0l0,0v0.1l0,0l0,0L108.2,36.8L108.2,36.8L108.2,36.8L108.2,36.8
			L108.2,36.8z M108.7,36.8L108.7,36.8L108.7,36.8L108.7,36.8L108.7,36.8L108.7,36.8L108.7,36.8L108.7,36.8L108.7,36.8L108.7,36.8
			L108.7,36.8l0.2-0.1l0,0v0.1H108.7L108.7,36.8L108.7,36.8L108.7,36.8L108.7,36.8L108.7,36.8z M109.3,36.6L109.3,36.6L109.3,36.6
			l-0.1,0.2h0.1h0.1h0.1l0,0v-0.1l0,0l0,0L109.3,36.6L109.3,36.6L109.3,36.6L109.3,36.6L109.3,36.6z M109.8,36.7L109.8,36.7
			L109.8,36.7h0.2h0.1h0.1v0.1h-0.1H110L109.8,36.7L109.8,36.7L109.8,36.7L109.8,36.7L109.8,36.7z M110.4,36.6L110.4,36.6
			C110.3,36.6,110.3,36.7,110.4,36.6c-0.1,0.1-0.1,0.2-0.1,0.2l0,0l0,0l0,0h0.1h0.1v-0.1L110.4,36.6L110.4,36.6L110.4,36.6
			L110.4,36.6L110.4,36.6L110.4,36.6z M111,36.6L111,36.6L111,36.6L111,36.6l-0.1,0.2v0.1h0.1h0.1l0,0l0,0h0.2v-0.1l0,0h-0.2
			L111,36.6L111,36.6L111,36.6L111,36.6L111,36.6z M107.8,36.8v-0.3h0.1l0.1,0.1h0.1l0,0l0,0l0,0l0,0v0.1H108L107.8,36.8L107.8,36.8
			L107.8,36.8L107.8,36.8L107.8,36.8L107.8,36.8L107.8,36.8L107.8,36.8z M114.7,36.1v0.7h0.6v-0.7c0,0,0-0.2-0.3-0.2
			C114.7,35.8,114.7,36.1,114.7,36.1L114.7,36.1L114.7,36.1z M114.4,36.9L114.4,36.9L114.4,36.9l0.2-0.1v-0.1h0.1v0.1h0.1v-0.1h0.1
			v0.1h0.1l0,0h0.1l0,0h0.3l0.1,0.1l0.1,0.1v0.1h-1.3L114.4,36.9L114.4,36.9L114.4,36.9L114.4,36.9z M118.5,36.8h-0.7V36
			c0,0,0.1-0.3,0.4-0.3s0.4,0.3,0.4,0.3L118.5,36.8L118.5,36.8L118.5,36.8z M117.7,36.9L117.7,36.9L117.7,36.9l-0.2,0.2v0.1h1.5
			l-0.2-0.3l-0.1-0.1h-0.1v0.1h-0.1v-0.1h-0.1v0.1h-0.1v-0.1h-0.1v0.1h-0.1v-0.1H118v0.1h-0.1v-0.1L117.7,36.9L117.7,36.9
			L117.7,36.9z M121.8,36.8h-0.6v-0.6c0,0,0-0.3,0.3-0.3s0.3,0.2,0.3,0.2L121.8,36.8L121.8,36.8L121.8,36.8z M121.9,37.2h-1.3v-0.1
			V37l0.1-0.1h0.3l0,0h0.1V37h0.1l0,0h0.1v0.1h0.1V37h0.1l0,0h0.1h0.1l0,0L121.9,37.2L121.9,37.2L121.9,37.2L121.9,37.2L121.9,37.2z
			 M122.8,34.7v-0.2l0,0l0.2,0.1l0,0v0.1L122.8,34.7L122.8,34.7L122.8,34.7z M122.3,35L122.3,35L122.3,35l0.2,0.2h0.1h0.1v-0.3h0.1
			h0.1l0,0v0.2h0.1h0.1h0.1h0.1l0.1-0.1l0,0v0.1l-0.1,0.1h-0.1h-0.1H123v1.7h0.1h0.1l0,0l0,0h0.1l0,0V37l0,0l0,0l0,0h0.1h0.1l0,0
			h-1.2v-0.1l0,0v-0.1v-0.1h0.1h0.1h0.1h0.1h0.1l0,0l0.1-0.1V35h-0.1h-0.1h-0.1v-0.1L122.3,35L122.3,35L122.3,35z M124.5,36.9h-0.7
			v-0.7c0,0,0-0.2,0.3-0.2s0.3,0.2,0.3,0.2L124.5,36.9L124.5,36.9L124.5,36.9z M124.8,37.3h-1.3l0.1-0.1l0.1-0.1l0,0h0.1h0.1h0.1V37
			h0.1v0.1h0.1V37h0.1c0,0,0,0,0,0.1h0.1l0,0h0.1V37h0.1l0,0v0.1L124.8,37.3C124.8,37.2,124.8,37.2,124.8,37.3
			C124.8,37.2,124.8,37.3,124.8,37.3L124.8,37.3L124.8,37.3z M119.3,36.7L119.3,36.7L119.3,36.7L119.3,36.7l0.1,0.3l-0.1,0.1h-0.2
			V37h0.1h0.1V36.7L119.3,36.7L119.3,36.7z M116.2,36.9v-0.2h0.1l0.1,0.1h0.1v-0.1v-0.1h0.1v0.2h-0.1L116.2,36.9L116.2,36.9
			L116.2,36.9L116.2,36.9z M116.8,36.9v-0.2h0.1l0,0L116.8,36.9L116.8,36.9L116.8,36.9h0.2h0.1V37H117L116.8,36.9L116.8,36.9
			L116.8,36.9L116.8,36.9z M119.8,36.9L119.8,36.9L119.8,36.9L119.8,36.9l0.2-0.1l0,0v-0.1h0.1V37H120L119.8,36.9L119.8,36.9
			L119.8,36.9L119.8,36.9L119.8,36.9z M122.5,34.6l-8.7-0.1v0.1h0.1v0.1h-0.1l0,0l0,0l0,0h0.1h0.1h0.1l0.1,0.1v0.1c0,0,0,0.1,0,0.2
			c0,0.1,0,0.1-0.1,0.2l-0.1,0.1c-0.1,0-0.1,0-0.1,0c-0.1,0-0.1,0-0.1,0v1.4v0.1h0.1l0.1-0.1l0,0h0.1c0,0,0.1,0,0.1,0.1V37v0.1
			c0,0,0,0,0,0.1c0,0,0,0,0,0.1l0.1-0.1c0,0,0,0,0-0.1h0.1V37c0,0,0-0.5,0-0.6c0,0,0.1-0.4,0.5-0.4s0.5,0.4,0.5,0.4v0.7h0.2v0.1
			c0,0,0,0,0.1,0l0.1,0.1v0.1v0.1h1.5V37v-0.1l0.1-0.1v-0.1h0.2V36c0,0,0-0.4,0.5-0.4s0.5,0.4,0.5,0.4v0.7l0,0h0.2v0.1h0.1l0,0
			l0.2,0.3h1.5V37v-0.1l0.2-0.3h0.2v-0.8c0,0,0.1-0.3,0.5-0.3s0.4,0.3,0.4,0.3v0.7l0.2,0.2v-0.3h0.2l0.1,0.1l0.1,0.1h0.1v-1.4
			l-0.3,0.2l-0.1-0.1l-0.1-0.3v-0.2l0.1-0.1h0.1l0.2,0.1L122.5,34.6L122.5,34.6L122.5,34.6z M125.9,36.8L125.9,36.8L125.9,36.8
			l-0.2,0.2l0,0l0,0l0,0h-0.1v0.1h0.1h0.1h0.1l0,0h0.1V37C126,37,126,37,125.9,36.8C125.9,36.9,125.9,36.8,125.9,36.8L125.9,36.8
			L125.9,36.8L125.9,36.8z M126.2,36.9L126.2,36.9h0.2l0,0v-0.1l0,0l0.1,0.1v0.2h-0.1l0,0l0,0h-0.1l0,0h-0.1l0,0
			C126.2,37,126.2,36.9,126.2,36.9L126.2,36.9L126.2,36.9L126.2,36.9z M127,36.9L127,36.9L127,36.9L127,36.9L127,36.9L127,36.9h-0.2
			l-0.1,0.1c0,0,0,0,0,0.1l0.1,0.1h0.1h0.1h0.1h0.1L127,36.9L127,36.9L127,36.9L127,36.9L127,36.9z M127.2,37.1L127.2,37.1
			L127.2,37.1l0.2-0.1v0.1h0.1V37v-0.1h0.1l0.1,0.1v0.1l-0.1,0.1l-0.1,0.1L127.2,37.1L127.2,37.1L127.2,37.1L127.2,37.1z
			 M128.2,37.1v-0.2h0.1l0.1,0.1l0.1-0.1h0.1h0.1v0.2h-0.1h-0.1l0,0h-0.1V37L128.2,37.1L128.2,37.1L128.2,37.1L128.2,37.1z
			 M127.8,37L127.8,37L127.8,37h0.2v-0.1h0.1h0.1v0.2l-0.1,0.1L127.8,37L127.8,37L127.8,37L127.8,37L127.8,37z M125,37L125,37
			L125,37h0.2h0.1v-0.1l0,0l0,0v0.2v0.1h-0.1h-0.1l0,0H125l0,0C125.2,37.1,125,37,125,37L125,37L125,37L125,37z M135,47.8l-0.6-5.2
			l-2,1.6l0.2,3.9L135,47.8L135,47.8L135,47.8z M132,41.8v-1l-0.2,0.1c0,0,0,1.6-0.4,2.3c-0.4,0.8-0.8,1.4-1.2,1.8
			c-0.4,0.3-0.6,0.7-1.1,0.9s-1.3,0.7-1.6,0.8c-0.2,0.1-0.5,0.2-0.5,0.2l0.1,0.1c0,0,1.3-0.4,1.5-0.6c0.2-0.2,0.6-0.3,0.6-0.3v4.6
			l1.3-0.1v0.5l-2.1,0.1l0.2-1.4l0.6-1.6l-0.1-0.1l-0.8,1.8l-0.6,0.9l-5.4-2.3v0.1l1,0.5l0.1,2.2l-0.2,0.1v0.3l1-0.1v-0.3l1.4-0.2
			l0.1-1l0.3,0.4l1.7,0.7l0.4-0.6l-0.1,1.1l2.8-0.2v-0.8l1.6-0.1v-1l1.8-0.2l-0.1-1.1l1.2-0.1l-0.7-6.3l-1.2,1.1c0,0,0.5-1,0.7-1.6
			s0.3-1.4,0.3-1.4l-0.3-0.6c0,0,0.1,1.2-0.2,2s-0.7,1.3-0.9,1.7s-1.1,1.1-1.2,1.1c0,0,0.7-1.1,0.9-2c0.2-1,0.2-2,0.2-2.1
			s0-0.4,0-0.4h-0.3c0,0,0,1.8-0.2,2.4c-0.2,0.5-0.1,0.8-0.4,1.2c-0.3,0.5-0.5,1.1-0.7,1.3s-0.9,0.7-0.9,0.7s0.9-1.1,1.1-1.8
			C131.9,42.7,131.9,42.3,132,41.8L132,41.8L132,41.8z M121.7,2.1l-2.5-0.3L119,1.9v0.2l0.1,0.1l2.6,0.3l1.7,0.3
			c0,0,0.5,0.2,0.6,0.3c0.1,0,0.4,0.5,0.4,0.6c0.1,0.1,0.5,0.5,0.6,0.5c0.2,0,0.6-0.1,0.5-0.4c0-0.3-0.4-0.5-0.6-0.5
			c-0.2-0.1-0.6-0.2-0.7-0.2c-0.1-0.1-0.3-0.4-0.5-0.5C123.8,2.5,122.2,2.2,121.7,2.1L121.7,2.1L121.7,2.1z M123.2,3.9l0.8-0.1
			c0,0,0-0.4-0.3-0.5c-0.3-0.2-1-0.3-1.3-0.3c-0.4-0.1-1.2-0.2-1.6-0.2S119,2.7,119,2.7l-0.1,0.1v0.1V3c0,0,1.4,0.1,1.8,0.1
			s1.3,0.1,1.6,0.2c0.3,0.1,0.7,0.3,0.8,0.4C123.2,3.7,123.2,3.9,123.2,3.9L123.2,3.9L123.2,3.9z M119.8,3H119l-0.1,0.1l0.1,0.1
			c0,0,1.6,0.1,2,0.2c0.3,0.1,1.4,0.2,1.5,0.3s0.1,0.2,0,0.2c0,0-1.3-0.1-1.6-0.2c-0.4,0-1.4-0.1-1.6-0.1c-0.1,0-0.2,0.1-0.2,0.1
			v0.1l0.1,0.1c0,0,1.4,0.1,1.9,0.1c0.4,0,1.2,0.1,1.3,0.2c0.1,0,0.5,0,0.6,0c0.1-0.1,0.2-0.1,0.1-0.3c-0.1-0.1-0.1-0.3-0.2-0.3
			c-0.2-0.1-0.2-0.2-0.7-0.2c-0.4-0.1-1.2-0.2-1.4-0.2C120.7,3.1,120.2,3,119.8,3L119.8,3L119.8,3z M123.8,4c0.1,0,0.2,0,0.3,0
			c0.1,0.1,0.2,0.1,0.2,0.2c0,0.2-0.3,0.4-0.4,0.4s-0.6,0-0.8,0c-0.1,0-0.6,0-0.7,0s-0.5-0.1-0.9-0.2s-0.8-0.1-1.1-0.1
			c-0.2,0-1-0.1-1.1,0c-0.1,0-0.2-0.1-0.2-0.1s0.1-0.2,0.2-0.2s1.5,0.1,2.1,0.2c0.7,0.1,1,0.2,1.1,0.2s0.4-0.1,0.5-0.1
			C123.4,4.2,123.5,4.1,123.8,4L123.8,4L123.8,4z M119.8,5.3l-0.4-0.4c0,0,0.2,0,0.3-0.1c0.1,0,0.4-0.2,0.9-0.2s0.9,0.5,0.9,0.5
			s-0.2,0.1-0.3,0.1c-0.1,0-0.4,0.2-0.4,0.2c0,0.1,0.1,0.4,0.1,0.4c0.1,0-0.2,0-0.3,0c-0.1,0-0.5-0.1-0.6-0.3
			C119.8,5.5,119.8,5.4,119.8,5.3L119.8,5.3L119.8,5.3z M124.7,3V2.8c0,0,0.7,0.2,0.9,0.2c0.2,0.1,0.7,0.2,0.8,0.3
			c0.1,0.1,0,0.2,0,0.2s0.1,0.3,0.6,0.4c0.5,0.2,0.6,0.6,0.6,0.6s-0.1,0.1-0.1,0.2c-0.1,0-0.6,0-0.9-0.2s-0.5-0.4-0.5-0.5
			c-0.1-0.1-0.1-0.3-0.3-0.5c-0.2-0.2-0.2-0.3-0.5-0.4C125,3.1,124.7,3,124.7,3L124.7,3L124.7,3z M125.9,4.4l-0.4-0.1
			c-0.4,0-0.7,0.1-0.9,0.2c-0.1,0.1-0.2,0.3-0.4,0.3c-0.2,0.1-0.7,0.1-0.7,0.1l1,0.3c0,0,0.1-0.2,0.4-0.2s0.5,0.1,0.8,0
			s0.4-0.2,0.4-0.3C126.2,4.6,126.2,4.5,125.9,4.4L125.9,4.4L125.9,4.4z M121.2,5.8L121,5.6c0,0,0-0.1,0.1-0.1s0.3-0.2,0.7-0.2
			c0.3,0.1,0.5,0.1,0.7,0.3c0.2,0.2,0.3,0.4,0.3,0.5s0.1,0.1,0.1,0.2c0,0-0.4,0.3-0.7,0.3c-0.3-0.1-0.7-0.2-0.8-0.3
			C121.4,6.1,121.2,5.8,121.2,5.8L121.2,5.8L121.2,5.8z M122.7,5.4l-0.2-0.1c0,0,0.2,0,0.3,0c0.1,0,0.2-0.1,0.6-0.1
			c0.5,0,0.9,0.3,0.9,0.3s-0.5,0.1-0.6,0.3c-0.1,0.2,0.1,0.6,0.1,0.6l-0.3,0.1c0,0-0.2-0.1-0.2-0.2s-0.1-0.4-0.2-0.6
			C122.9,5.6,122.8,5.5,122.7,5.4L122.7,5.4L122.7,5.4z M120.9,6.5l0.3-0.2c0.1,0,0.3,0.3,0.7,0.4c0.4,0.1,1,0,1,0s-0.1,0.2,0,0.2
			c0,0.1,0.4,0.4,0.4,0.4s-0.7-0.2-1-0.3c-0.4,0-0.8,0-0.8,0s-0.2-0.1-0.3-0.3C121.2,6.5,120.9,6.5,120.9,6.5L120.9,6.5L120.9,6.5z
			 M125.2,5.2H125l1.5,0.6c0,0,0.2-0.2,0.6-0.1s0.7,0.1,0.8,0c0.1-0.1,0.4-0.2,0.3-0.3c-0.1-0.1-0.3-0.4-0.5-0.4c-0.3,0-0.6-0.1-1,0
			c-0.3,0-0.6,0.2-0.8,0.3C125.7,5.3,125.2,5.2,125.2,5.2L125.2,5.2L125.2,5.2z M125.5,6.2l0.3-0.2c-0.1,0,0,0-0.3-0.1
			c-0.2-0.1-0.3-0.2-0.7-0.2c-0.3,0-0.5,0.1-0.6,0.1s-0.4,0.1-0.4,0.2s0.1,0.3,0.3,0.4c0.1,0.1,0.2,0.3,0.2,0.4c0,0,0.8,0.3,0.9,0.4
			c0.1,0,0.3,0,0.3,0s-0.1-0.1-0.1-0.2c-0.1-0.1-0.2-0.3-0.1-0.4C125.3,6.3,125.4,6.2,125.5,6.2L125.5,6.2L125.5,6.2z M123.9,6.6
			L123.9,6.6c0.1,0,0.2,0.3,0.4,0.4c0.2,0.2,0.8,0.3,0.8,0.3s-0.4,0-0.4,0.1c-0.1,0.1-0.1,0.3-0.1,0.3s-0.4,0-0.5,0s-0.3,0-0.4-0.1
			s-0.1-0.2-0.3-0.3C123.2,7.1,123.1,7,123,7c0,0,0.1-0.1,0.3-0.1C123.5,6.8,123.9,6.6,123.9,6.6L123.9,6.6L123.9,6.6z M127.4,3.8
			l-0.7-0.3v0.1l0.1,0.1c0,0,0.4,0,0.7,0.3c0.2,0.3,0.5,1.1,0.8,1.4c0.4,0.2,1,0.5,1.1,0.3s0-0.4-0.2-0.6c-0.2-0.1-0.5-0.3-0.7-0.4
			s-0.2-0.5-0.3-0.5C128.1,4.1,127.8,3.9,127.4,3.8L127.4,3.8L127.4,3.8z M127.2,6.9l0.1-0.2c0,0-0.6-0.3-0.7-0.3s-0.2-0.1-0.3-0.1
			c-0.2,0-0.4,0.1-0.5,0.1c-0.1,0.1-0.3,0.1-0.3,0.2c0,0,0.1,0.2,0.2,0.3V7c0,0,0.5-0.1,0.7,0.1c0.3,0.1,0.5,0.3,0.5,0.3h0.5
			c0,0,0-0.1,0-0.2C127.3,7.1,127.2,7,127.2,6.9L127.2,6.9L127.2,6.9z M128.9,4.7V4.5c0,0,0.6,0.3,0.8,0.4s0.4,0.3,0.5,0.3
			c0,0,0.1,0.4,0.2,0.5c0.1,0.1,0.5,0.2,0.7,0.4c0.2,0.2,0.2,0.5,0.2,0.5c0,0.1-0.3,0.1-0.4,0.1s-0.5-0.1-0.6-0.3
			c-0.1-0.2-0.4-0.4-0.4-0.6s0-0.3-0.1-0.5c-0.1,0-0.3-0.3-0.4-0.3C129.1,4.9,128.9,4.8,128.9,4.7L128.9,4.7L128.9,4.7z M127,6
			l0.4,0.1c0.1,0,0.8-0.2,1.1-0.2c0.2,0,0.8,0,1,0.1s0.4,0.3,0.3,0.5c-0.1,0.2-0.3,0.2-0.5,0.2s-0.5-0.1-0.7-0.1s-0.4,0-0.5,0
			s-0.7-0.2-0.8-0.3c-0.1-0.1-0.5-0.3-0.5-0.3s0,0,0-0.1C126.9,6,127,6,127,6L127,6L127,6z M127.8,7.4l-0.2-0.5c0,0,0.8,0.2,1.3,0.5
			s0.9,0.8,0.9,0.8h-0.4v0.5L129,8.5c0,0-0.1-0.4-0.4-0.7C128.2,7.5,127.8,7.4,127.8,7.4L127.8,7.4L127.8,7.4z M126.2,7.5l0.3-0.1
			c0,0-0.4-0.2-0.7-0.2c-0.3,0.1-0.4,0.2-0.6,0.3c-0.1,0.1-0.4,0.1-0.4,0.1l-0.1,0.1c0,0,0.6,0.5,0.8,0.5c0.3,0.1,0.9,0.1,0.9,0.1
			s0-0.1,0-0.2C126.5,8.1,126.2,7.8,126.2,7.5L126.2,7.5L126.2,7.5z M128,7.7c-0.5-0.2-1-0.1-1.5-0.1c0,0,0.1,0.2,0.2,0.4
			c0.1,0.2,0.2,0.6,0.5,0.7c0.3,0.1,0.9,0,1.1,0s0.4,0,0.4,0S128.5,7.8,128,7.7L128,7.7L128,7.7z M128.4,9.7
			c-0.3-0.2-0.5-0.4-0.7-0.7c0,0,0.6-0.1,0.8-0.1s0.8,0.2,0.8,0.3s0,0.2,0,0.2h-0.1c0,0,0,0.3,0,0.5s0,0.4,0,0.4
			S128.5,9.9,128.4,9.7L128.4,9.7L128.4,9.7z M130.9,7l0.4,0.2c0,0,0.3,0.5,0.2,0.7c-0.2,0.2-0.6,0-0.6,0c-0.1,0-0.2-0.1-0.4-0.1
			s-0.4,0-0.4,0s-0.6-0.3-0.8-0.5c-0.2-0.1-0.7-0.4-0.7-0.4s0-0.1,0.1-0.1c-0.1,0,0.4,0.2,0.6,0.2c0.2,0,0.9-0.1,1-0.1
			C130.4,6.9,130.8,6.9,130.9,7L130.9,7L130.9,7z M129.5,9.1l0.1-0.7c0,0,0.4,0.1,0.7,0.2c0.2,0.1,0.4,0.3,0.6,0.4
			c0.1,0.2,0.1,0.2,0.1,0.2h-0.2v0.9c0,0-0.3,0-0.4-0.1c-0.1-0.1-0.5-0.4-0.6-0.6C129.5,9.3,129.5,9.1,129.5,9.1L129.5,9.1
			L129.5,9.1z M129.4,9.7V9.5h0.2c0,0,0.4,0.4,0.5,0.5s0.6,0.3,0.6,0.3v0.1l-0.1-0.1c0,0-0.1,0-0.2,0.1c0,0.1,0.1,0.3,0.1,0.4
			c0,0.1,0.1,0.3,0,0.3c0,0.1-0.7-0.4-0.7-0.5c-0.1-0.2-0.3-0.3-0.3-0.5C129.4,10,129.4,9.8,129.4,9.7L129.4,9.7L129.4,9.7z
			 M131,9.9V9.5c0,0,0.3,0.2,0.5,0.3s0.6,0.2,0.7,0.5c0.2,0.3,0.2,0.9,0.2,0.9h-0.1c0,0-0.3-0.3-0.5-0.3c-0.2,0.1-0.1,0.3-0.1,0.3
			s-0.6-0.5-0.6-0.7C131,10.4,131,10.1,131,9.9L131,9.9L131,9.9z M130.6,11.3l-0.1-0.7c0,0,0.3,0.1,0.4,0.2c0.1,0.1,0.7,0.7,0.7,0.7
			s0,0.4,0,0.5s0,0.1,0,0.1s-0.2,0-0.3,0s-0.6-0.4-0.7-0.5C130.6,11.5,130.6,11.5,130.6,11.3L130.6,11.3L130.6,11.3z M130.4,5.4
			L130.4,5.4c0.1-0.1,1,0.4,1.3,0.7c0.3,0.3,0.8,0.7,0.8,0.7l-0.4,0.4c0,0,1.2,1,1.7,1.5S135,10,135,10s0.4,0.2,0.5,0.5s0,1,0,1
			s-0.1,0-0.2,0l-0.5-0.3c0,0,0-0.7,0-0.8s-1-1.1-1.2-1.3s-1.4-1.2-1.5-1.4c-0.1-0.2-0.6-0.2-0.8-0.8s0-0.5-0.1-0.6S131,6,130.7,5.8
			C130.5,5.5,130.4,5.4,130.4,5.4L130.4,5.4L130.4,5.4z M131.9,7.7h-0.1v0.1c0,0,1.2,1,1.3,1.2c0.1,0.1,0.9,0.9,0.9,1l0.1,0.1
			c0,0.1-0.1,0.1-0.1,0c0,0-0.8-0.7-1-0.9s-0.6-0.5-0.7-0.6c-0.1-0.1-0.4-0.3-0.4-0.4c-0.1-0.1-0.1-0.1-0.2,0
			c-0.1,0-0.1,0.1-0.1,0.1c0,0.1,0.6,0.6,0.7,0.7c0.1,0.1,0.8,0.7,0.9,0.8s0.6,0.6,0.7,0.7c0,0.1,0.4,0.4,0.6,0.5
			c0.2,0,0.4-0.1,0.4-0.1c0-0.1,0.1-0.4,0-0.4c-0.1-0.1-0.8-0.8-1-0.9c-0.1-0.1-0.5-0.4-0.6-0.6c-0.1-0.2-0.5-0.4-0.6-0.6
			C132.4,8.1,131.9,7.8,131.9,7.7L131.9,7.7L131.9,7.7z M132.9,7.2L132.9,7.2h-0.2c0,0,0,0.1,0.1,0.2s1.4,1.4,1.6,1.5
			c0.2,0.2,1.2,1.2,1.3,1.5s0.2,0.5,0.2,0.7c0,0.1,0,0.6,0,0.8s0,0.5,0.3,0.6s0.4-0.1,0.5-0.2c0-0.1,0-0.5-0.1-0.7s-0.3-0.4-0.3-0.5
			s-0.1-0.6-0.1-0.6s-1.1-1.3-1.5-1.7c-0.3-0.3-1-0.9-1.2-1.1C133.1,7.4,132.9,7.2,132.9,7.2L132.9,7.2L132.9,7.2z M131.4,8.8
			l0.2-0.1c0,0,1.1,1,1.5,1.3c0.3,0.3,1,1.1,1.1,1.1c0.1,0.1,0.5,0.1,0.6,0.1s0.6,0.3,0.7,0.4c0.1,0.1,0.3,0.4,0.3,0.5
			s-0.4,0.1-0.5,0s-0.3-0.4-0.5-0.4c-0.2-0.1-0.5-0.1-0.5-0.1s-1-1.1-1.2-1.3s-1.5-1.4-1.5-1.4S131.2,8.8,131.4,8.8L131.4,8.8
			L131.4,8.8z M131.9,11.4v-0.3c0.1,0,0.2,0.3,0.3,0.3s0.5-0.1,0.7,0s0.4,0.5,0.4,0.6s-0.1,1.1-0.1,1.2c0,0.1,0,0.3,0.1,0.4
			c0.1,0,0.1,0.2,0.1,0.2l-0.3-0.1c0,0,0-0.1-0.1-0.4c-0.1-0.2-0.3-0.4-0.5-0.5s-0.4-0.3-0.4-0.4c-0.1-0.1-0.2-0.3-0.2-0.4
			C131.9,11.9,131.9,11.5,131.9,11.4L131.9,11.4L131.9,11.4z M136.8,11.1l-0.2-0.2h-0.1l-0.1,0.1l0.1,0.1l0.2,0.3l0.2,0.3l0.1-0.1
			c0,0,0-0.1,0-0.2C136.9,11.3,136.9,11.2,136.8,11.1L136.8,11.1L136.8,11.1z M134.4,11.9l-0.2-0.1l-0.1,0.1c0,0,0.5,0.8,0.6,0.8
			s0.4-0.1,0.5,0s0.4,0.5,0.5,0.6s0.6,0.1,0.6,0.1s0.2-0.2-0.1-0.5s-0.5-0.3-0.8-0.4c-0.3-0.1-0.5-0.1-0.6-0.1
			C134.9,12.3,134.5,11.9,134.4,11.9L134.4,11.9L134.4,11.9z M133.5,12.4V12l0.1,0.2c0,0,0.4,0.1,0.5,0.2c0.1,0.1,0.3,0.3,0.3,0.4
			c0,0,0.2,0.2,0.3,0.4s0.1,0.4,0.1,0.4s-0.5-0.3-0.7-0.2s-0.2,0.2-0.2,0.2s-0.5-0.4-0.5-0.6C133.4,12.7,133.5,12.6,133.5,12.4
			L133.5,12.4L133.5,12.4z M132.2,13.2l-0.6-0.9c0,0,0.2,0.2,0.3,0.2c0,0,0.6,0.5,0.6,0.6c0.1,0.1,0.3,0.4,0.3,0.4
			c0,0.1,0,0.2-0.1,0.2S132.4,13.3,132.2,13.2L132.2,13.2L132.2,13.2z M137.4,10.8L137.4,10.8c0.1,0,0.3,0.2,0.3,0.2
			s0.2,0.3,0.1,0.3c0,0-0.4,0.4-0.5,0.5c0,0.1-0.1,0.5-0.1,0.5s0.4-0.2,0.4-0.3c0.1-0.1,0.4-0.3,0.4-0.2l0.2,0.3l0.2,0.2
			c0,0-0.1,0.2-0.2,0.2s-0.6,0-0.7,0.1c-0.2,0-0.3,0-0.4,0c-0.1,0-0.2-0.2-0.2-0.3s0.1-0.6,0.1-0.7c0-0.1,0.1-0.5,0.1-0.6
			C137.4,10.9,137.4,10.8,137.4,10.8L137.4,10.8L137.4,10.8z M136.9,13v-0.5l0.2,0.3c0.1,0,0.3,0,0.4,0.1c0,0,0.2,0.4,0.2,0.5
			c0,0.2,0,0.4,0,0.5s-0.2,0.2-0.3,0.1c-0.1-0.1-0.3-0.3-0.3-0.4C136.9,13.4,136.9,13.2,136.9,13L136.9,13L136.9,13z M135.4,13
			l-0.2-0.2c-0.1,0,0,0.1,0,0.1l0.7,1.1c0,0,0.3,0.1,0.6,0.3c0.2,0.2,0.3,0.4,0.4,0.5s0.5,0.2,0.6,0s0.1-0.5-0.2-0.8
			s-0.5-0.4-0.8-0.5s-0.5-0.1-0.7-0.2C135.6,13.3,135.5,13.1,135.4,13L135.4,13L135.4,13z M134.4,14l-0.1-0.5c0,0,0.4,0.2,0.5,0.2
			s0.3,0,0.4,0.1c0.1,0.1,0.5,0.5,0.6,0.7s0,0.4,0,0.4s-0.3,0-0.5-0.1c-0.1-0.1-0.3-0.1-0.3-0.1s-0.1,0.2-0.1,0.3s0,0.3,0,0.3h-0.1
			c0,0,0-0.2,0-0.3s0.1-0.3,0-0.5C134.8,14.5,134.4,14.1,134.4,14L134.4,14L134.4,14z M133,13.9l0.1-0.2c0.1,0.1,0.3,0.2,0.4,0.2
			c0.1,0,0.5,0,0.7,0.1c0.2,0.2,0.4,0.3,0.5,0.6s0,0.6,0,0.7c0,0.1-0.7,0-0.7,0s-0.5-0.6-0.7-0.8C133.1,14.2,133,14,133,13.9
			L133,13.9L133,13.9z M137.8,13v-0.2c0,0,0.3,0.4,0.5,0.7c0.1,0.3,0.2,0.4,0.2,0.4s-0.2,0.5,0,1c0.3,0.5,0.2,0.9,0.1,1
			c-0.1,0.1-0.4,0.1-0.6-0.4c-0.3-0.4-0.3-1-0.2-1.1s0.2-0.6,0.2-0.8C137.9,13.5,137.9,13.1,137.8,13L137.8,13L137.8,13z
			 M135.2,15.6l-0.1-0.6c0,0,0.5,0.2,0.6,0.3c0.2,0.1,0.4,0.1,0.4,0.2c0.1,0.1,0.4,0.5,0.4,0.6s0.1,0.3,0.1,0.4
			c-0.1,0-0.2-0.1-0.3-0.2s-0.2-0.2-0.3-0.2s-0.1,0.3-0.2,0.3c-0.1,0-0.2-0.2-0.2-0.3S135.4,15.7,135.2,15.6L135.2,15.6L135.2,15.6z
			 M136.9,15.9l-0.6-1.3c0.1,0,0.4,0.4,0.5,0.5s0.6,0.2,1,0.5c0.4,0.4,0.7,0.7,0.7,0.8c0,0.2-0.1,0.4-0.2,0.5
			c-0.1,0-0.6-0.3-0.8-0.7C137.2,16,137,15.9,136.9,15.9L136.9,15.9L136.9,15.9z M138.9,14.7L138.9,14.7c-0.1-0.1-0.1,0-0.1,0
			s0.3,0.7,0.3,0.9c-0.1,0.2-0.3,0.8-0.3,1.2s0.4,0.9,0.5,0.9c0.1,0.1,0.4-0.3,0.4-0.5s-0.2-0.6-0.3-0.8c0-0.2,0.1-0.6,0.1-0.6
			C139.4,15.8,138.9,14.8,138.9,14.7L138.9,14.7L138.9,14.7z M134.1,15.8l-0.1-0.2c0,0,0.4,0.1,0.5,0.1s0.3,0,0.5,0.1
			c0.1,0.1,0.5,0.6,0.5,0.6c0,0.1-0.4-0.2-0.4,0c-0.1,0.2,0,0.5,0,0.6s-0.1,0.3-0.1,0.3s-0.1-0.2-0.3-0.3c-0.2-0.1-0.4-0.6-0.4-0.7
			C134.4,16.1,134.1,15.8,134.1,15.8L134.1,15.8L134.1,15.8z M139.6,16.3v-0.1h-0.1c0,0,0.3,0.8,0.3,1s-0.3,0.7-0.3,0.7
			c0,0.1,0,0.7,0,0.7l1-0.1c0,0-0.2-1-0.4-1.3C139.9,17,139.6,16.3,139.6,16.3L139.6,16.3L139.6,16.3z M137.4,16.5l-0.1-0.2h-0.1
			c0,0,0.6,1.6,0.7,1.7c0.1,0.1,0.4,0.2,0.4,0.3c0.1,0.1,0.5,0.8,0.7,0.7c0.2-0.1,0.4-0.6,0.2-1s-0.8-0.6-1.1-0.8
			C137.6,16.9,137.4,16.5,137.4,16.5L137.4,16.5L137.4,16.5z M136.1,16.5L136.1,16.5c0-0.1,0.1,0.1,0.2,0.1c0.1,0,0.4-0.1,0.7,0.7
			c0.3,0.7,0.1,1.4,0.1,1.4s-0.2-0.3-0.2-0.8c0-0.4-0.2-0.5-0.3-0.7c-0.2-0.2-0.3-0.4-0.4-0.4C136.2,16.7,136.1,16.6,136.1,16.5
			L136.1,16.5L136.1,16.5z M135.4,17v-0.5c0,0,0.2,0.2,0.3,0.2s0.2,0,0.3,0c0.2,0.1,0.6,0.4,0.7,0.8c0.1,0.4,0.2,0.8,0.2,0.9
			s0.4,0.5,0.4,0.5l-0.1,0.2V19c0,0-0.2-0.2-0.3-0.3c0-0.1-0.1-0.2-0.2-0.3c-0.1-0.1-0.3-0.1-0.5-0.1c-0.2-0.1-0.6-0.5-0.6-0.7
			C135.4,17.4,135.4,17.1,135.4,17L135.4,17L135.4,17z M135.6,19.3l0.1-0.8c0,0,0.3,0.4,0.5,0.5s0.2,0.2,0.3,0.4
			c0.1,0.1,0.1,0.5,0.1,0.5s-0.3-0.3-0.4-0.3s-0.2,0.2-0.2,0.2l0,0.2l-0.1,0.5c0,0-0.1-0.3-0.1-0.5
			C135.8,19.8,135.5,19.4,135.6,19.3L135.6,19.3L135.6,19.3z M137.5,19.2V19h-0.1c0,0,0,0.1-0.1,0.2s-0.3,0.3-0.4,0.5
			s-0.1,0.6,0,0.8c0.1,0.1,0.2,0.6,0.2,0.6s0.1-0.1,0.2-0.2c0.1,0,0.1-0.1,0.1-0.1s0.1-0.5,0.3-0.5c0.1,0,0.3,0.3,0.3,0.3
			s0-0.7-0.1-0.9C137.8,19.4,137.5,19.2,137.5,19.2L137.5,19.2L137.5,19.2z M136.6,20.2l-0.4-0.5c0,0-0.3,0.7-0.1,1
			c0.1,0.3,0.9,1,0.9,1l0.1-0.4c0,0-0.3-0.2-0.3-0.3C136.9,20.8,136.8,20.3,136.6,20.2L136.6,20.2L136.6,20.2z M137.6,20.9l0.2-0.3
			l0.1,0.1c0,0,0.1,0.3,0.2,0.4s0.2,0.3,0.2,0.4s0,0.9,0,0.9s-0.1-0.1-0.2-0.1l-0.3,0.3l-0.6-0.6c0,0,0.1-0.6,0.1-0.7
			c0,0,0,0,0.1-0.1C137.5,21,137.6,20.9,137.6,20.9L137.6,20.9L137.6,20.9z M138.2,22.6l-0.1-0.1l-0.2,0.2l0.4,0.4v-0.3
			C138.4,22.7,138.2,22.6,138.2,22.6L138.2,22.6L138.2,22.6z M139.6,19.3L139.6,19.3l-0.1-0.1l-0.1,0.1v0.1c0,0,0.3,1.1,0.3,1.6
			c0.1,0.5,0.2,1.6,0.2,1.6l-0.1,0.1h-0.1c0,0-0.2-1.5-0.2-1.7s-0.1-0.8-0.2-0.9c0-0.1-0.1-0.4-0.1-0.4l-0.1-0.1l-0.1,0.1v0.1
			c0,0,0.2,0.8,0.3,1.1c0,0.3,0.2,1.5,0.2,1.8c0,0.2,0.1,0.5,0.1,0.6c0.1,0.1,0.2,0.3,0.2,0.3s0.4-0.2,0.4-0.3
			c0-0.1,0.1-0.3,0.1-0.4s-0.1-0.1-0.1-0.2s-0.1-1.2-0.2-1.4c0-0.1-0.1-0.8-0.1-0.9s-0.1-0.6-0.1-0.7
			C139.8,19.6,139.6,19.3,139.6,19.3L139.6,19.3L139.6,19.3z M140.1,19.2v-0.1H140l0,0l-0.1,0.1c0,0,0.3,1.3,0.4,1.8
			c0.1,0.5,0.3,2,0.3,2.1c0,0.2-0.1,0.4-0.2,0.5c-0.1,0.1-0.4,0.4-0.4,0.4l0.1,0.6l0.1,0.2c0,0,0.6-0.4,0.6-0.8c0.1-0.4,0-0.6,0-0.7
			s-0.2-1.7-0.2-1.9c0-0.2-0.2-1.2-0.2-1.4C140.4,19.8,140.1,19.2,140.1,19.2L140.1,19.2L140.1,19.2z M138.8,19.9L138.8,19.9
			c-0.1-0.1-0.2-0.1-0.2,0s0.2,1.4,0.3,1.8s0.2,1.9,0.2,1.9l0.9,1.2c0,0,0-0.1,0-0.2s-0.1-0.5-0.2-0.6c-0.1-0.1-0.4-0.5-0.5-0.6
			c0-0.1-0.2-1.5-0.2-1.7S138.8,20.1,138.8,19.9C138.8,20,138.8,19.9,138.8,19.9L138.8,19.9L138.8,19.9z M140.9,19.6l-0.1-0.2
			c0,0-0.1,0-0.1,0.1s0.1,0.9,0.2,1.5c0.1,0.5,0.2,1.8,0.2,2s0.1,0.8,0,1.2c-0.2,0.4-0.4,0.6-0.4,0.6l-0.3,0.3v0.1l0.5,0.6
			c0,0,0.2-0.4,0.2-0.6s0-0.4,0.1-0.6c0.1-0.1,0.3-0.3,0.3-0.4c0.1-0.1-0.1-1.8-0.2-2.2c0-0.4-0.2-1.1-0.2-1.4
			C141,20.2,140.9,19.6,140.9,19.6L140.9,19.6L140.9,19.6z M141.4,24.8L141.4,24.8l-0.1-0.1h-0.1l-0.1,0.1c0,0,0,0.5-0.1,0.7
			s-0.2,0.4-0.2,0.4V26l0.3,0.3h0.1c0,0,0-0.7,0-0.8C141.4,25.3,141.4,24.8,141.4,24.8L141.4,24.8L141.4,24.8z M136.8,25.1l-0.1-0.2
			c0,0-0.2,0.6-0.3,1s0,0.5-0.1,0.8c0,0.3-0.1,0.4,0,0.5c0,0.1,0.1,0.2,0.1,0.2s0.1-0.2,0.2-0.3c0-0.1,0.1-0.1,0.1-0.1l0.3,0.3v-0.2
			c0,0-0.1-0.2-0.2-0.3c0-0.1,0-0.3,0-0.5s0.2-0.4,0.2-0.6C136.9,25.5,136.8,25.1,136.8,25.1L136.8,25.1L136.8,25.1z M137.1,25.5
			l0.3-0.2l0.6,0.6c0,0-0.1,0.6-0.3,0.8c-0.2,0.2-0.6,0.4-0.6,0.4s-0.3-0.3-0.3-0.6c0-0.3,0.1-0.4,0.1-0.5
			C136.9,25.9,137,25.6,137.1,25.5L137.1,25.5L137.1,25.5z M137.9,26.8l0.3-0.5c0,0,0,0.3,0,0.4c0.1,0.1,0.2,0.3,0.2,0.6
			c0,0.3-0.2,1-0.2,1s-0.2-0.6-0.5-0.6s-0.5,0.2-0.5,0.2l-0.2-0.3c0,0,0.1-0.2,0.3-0.3C137.5,27.1,137.8,27,137.9,26.8L137.9,26.8
			L137.9,26.8z M136.8,27.5l-0.1-0.3h-0.1c0,0-0.1,0.2-0.3,0.4c-0.1,0.1-0.3,0.2-0.4,0.4c-0.1,0.2,0,0.8,0,0.8s0.2,0,0.3,0.1
			s0.2,0.4,0.2,0.4s0.1-0.4,0.2-0.7c0.1-0.3,0.4-0.5,0.4-0.5l-0.1-0.2C136.9,27.7,136.8,27.6,136.8,27.5L136.8,27.5L136.8,27.5z
			 M140,28.3l0.1-0.1l-1.1-1.3V27c0,0,0.2,0.1,0.2,0.3c0,0.2,0,0.8,0.2,1s0.3,0.3,0.4,0.2C139.9,28.5,140,28.4,140,28.3L140,28.3
			L140,28.3z M140,28.5l0.2-0.2l0.4,0.5c0,0-0.1,0.6-0.2,0.8c-0.1,0.2-0.2,0.3-0.3,0.3s-0.3-0.2-0.3-0.7
			C139.9,28.8,139.9,28.6,140,28.5L140,28.5L140,28.5z M139,27.7v-0.1v-0.1l-0.1,0.1l-0.2,0.9c0,0-0.1,0.3,0,0.5s0.2,0.4,0.2,0.5
			c0,0.2,0,0.6,0.1,0.8c0.1,0.1,0.1,0.3,0.2,0.3c0.1,0,0.4-0.1,0.4-0.4s0-0.7-0.1-1.2c-0.1-0.4-0.4-0.6-0.5-0.8
			C139,28.2,139,27.8,139,27.7L139,27.7L139,27.7z M137.4,28l0.2-0.2l0.1,0.1l0.1,0.2c0,0,0.3,0.5,0.3,0.6c0,0.2-0.1,0.6-0.2,0.7
			c0,0.1-0.1,0.4-0.1,0.4s-0.2-0.5-0.4-0.5s-0.5,0.4-0.5,0.4s-0.2-0.1-0.1-0.3c0-0.3,0.1-0.7,0.3-0.9C137.1,28.2,137.4,28,137.4,28
			L137.4,28L137.4,28z M135.9,29.1L136,29l0.2,0.2c0,0.1,0.1,0.3,0.1,0.3c0.1,0.1,0.2,0.2,0.3,0.4c0,0.2,0,0.7-0.1,0.7
			c0,0-0.2-0.3-0.3-0.2c-0.2,0.1-0.4,0.4-0.4,0.4h-0.1c0,0.1-0.2-0.1-0.2-0.5c0.1-0.4,0.1-0.8,0.2-0.9
			C135.9,29.3,135.9,29.1,135.9,29.1L135.9,29.1L135.9,29.1z M140.8,29.2L140.8,29.2c0-0.1,0.1,0,0.1,0v0.1l-0.2,0.9
			c0,0.1-0.1,0.2-0.2,0.3c-0.1,0-0.3,0.1-0.3,0.2c-0.1,0.1,0,0.2-0.1,0.4c0,0.2,0,0.3-0.2,0.4s-0.3,0.2-0.3,0.3
			c0,0.1-0.5,1.3-0.6,1.5s-0.8,1.6-0.8,1.7c-0.1,0.2-0.2,0.6-0.3,0.8s-0.3,0.4-0.5,0.5s-0.5,0.2-0.6,0.2s-0.1-0.1-0.1-0.1
			c0-0.1,0.2-0.5,0.3-0.6s0.6-0.2,0.7-0.3c0.1-0.1,0.3-0.5,0.3-0.6c0.1-0.2,0.7-1.4,0.8-1.7c0.1-0.2,0.4-1.2,0.5-1.3
			c0-0.1,0-0.6,0.1-0.8c0.1-0.2,0.4-0.6,0.7-0.8c0.3-0.2,0.4-0.1,0.4-0.2c0.1-0.1,0.2-0.4,0.2-0.5C140.8,29.5,140.8,29.2,140.8,29.2
			L140.8,29.2L140.8,29.2z M138.5,29.4L138.5,29.4c0.1-0.1,0.1,0,0.1,0s-0.1,0.9,0,1.1s0.4,0.7,0.4,1.1s-0.1,0.5-0.1,0.5
			c0,0.1-0.2,0.2-0.4,0.7c-0.2,0.6-0.3,0.9-0.5,1.1c-0.1,0.2-0.3,0.5-0.4,0.7s0,0.3-0.1,0.4c0,0.1-0.1,0.3-0.3,0.3
			c-0.2,0.1-0.4,0.1-0.4,0.1s-0.2-0.2,0-0.7s0.6-1.1,0.8-1.6s0.5-1.1,0.5-1.4s0-0.5-0.1-0.6c0-0.1-0.1-0.2,0-0.3
			c0-0.1,0.2-0.8,0.3-1C138.4,29.7,138.5,29.4,138.5,29.4L138.5,29.4L138.5,29.4z M138.4,32.5L138.4,32.5c-0.1,0-0.2,0-0.4,0.6
			s-0.3,0.8-0.4,1c-0.1,0.1-0.1,0.3-0.1,0.3h0.1c0,0,0.3-0.4,0.5-0.8c0.2-0.4,0.3-0.7,0.3-0.8C138.4,32.6,138.4,32.5,138.4,32.5
			L138.4,32.5L138.4,32.5z M137.4,29.7l-0.1-0.3c0,0-0.1,0-0.1,0.1l-0.3,0.3c0,0,0.1,0.4,0,0.6c0,0.2-0.2,0.5-0.2,0.6v0.2v0.4
			c0,0,0.3-0.3,0.4-0.3c0.1,0,0.3,0,0.3,0s0.4-0.9,0.3-1.2C137.6,29.9,137.5,29.9,137.4,29.7L137.4,29.7L137.4,29.7z M136.2,30.7
			L136.2,30.7c0.1,0,0.2,0.6,0.2,1c0,0.4-0.2,0.9-0.4,1s-0.5,0.3-0.5,0.3s0-0.2-0.1-0.4s-0.2-0.4-0.2-0.6c0-0.2,0-0.5,0.2-0.7
			c0.1-0.2,0.4-0.2,0.5-0.3S136.2,30.7,136.2,30.7L136.2,30.7L136.2,30.7z M137.1,31.9v-0.4l-0.5,0.3c0,0,0,0.4-0.2,0.8
			c-0.2,0.3-0.8,0.7-0.8,0.7l-0.1,0.4c0,0,0.4-0.1,0.5-0.1s0,0.3,0,0.3s0.6-0.7,0.8-1.2C137.1,32.2,137.1,32.1,137.1,31.9
			L137.1,31.9L137.1,31.9z M135.1,32.1L135.1,32.1L135.1,32.1l-0.5,0.4l0.4,1.2l0.1,0.1c0,0,0.2-0.3,0.2-0.5c0-0.3,0-0.3,0-0.4
			c0-0.1-0.1-0.2-0.1-0.3C135.2,32.3,135.1,32.1,135.1,32.1L135.1,32.1L135.1,32.1z M135.9,34.1v-0.3c0,0-0.3,0.1-0.4,0.1
			c-0.1,0-0.3,0-0.3,0l-0.1,0.1l0.4,1.2c0,0,0.3-0.4,0.3-0.6C135.9,34.3,135.9,34.2,135.9,34.1L135.9,34.1L135.9,34.1z M136,35.6
			v-0.2l-0.1-0.1l-0.1,0.1l-0.1,0.3l0.1,0.2C135.9,35.9,136,35.6,136,35.6L136,35.6L136,35.6z M137.8,31.5L137.8,31.5h0.2v0.2
			c0,0-0.4,1.1-0.5,1.4c-0.1,0.3-0.6,1.2-0.7,1.4s-0.2,0.3-0.2,0.4c0,0.1,0.1,0.6,0,1s-0.4,0.9-0.4,0.9l-0.2-0.5
			c0,0,0.2-0.3,0.2-0.6s-0.1-0.5,0-0.6s0.7-1.5,0.9-1.9s0.5-1.1,0.5-1.3C137.6,31.8,137.8,31.5,137.8,31.5L137.8,31.5L137.8,31.5z
			 M139.9,32.4L139.9,32.4L139.9,32.4c0.1,0-0.5,1.4-0.7,2c-0.2,0.5-1.1,2.1-1.2,2.2c-0.1,0.1-0.2,0.2-0.3,0.2s-0.2,0.1-0.3,0.1
			c-0.1,0.1-0.4,0.5-0.6,0.6c-0.2,0.1-0.3,0.1-0.3,0.1s-0.1-0.7-0.1-0.6c0,0,0.7-0.2,0.9-0.3s0.6-0.3,0.6-0.3c0-0.1,0.6-0.9,1.1-2
			c0.5-1,0.7-1.8,0.8-1.8C139.6,32.5,139.9,32.4,139.9,32.4L139.9,32.4L139.9,32.4z M137.5,37.1h0.1v0.1c0,0-0.4,0.6-0.5,0.8
			s-0.4,0.5-0.4,0.5l-0.1-0.5h0.1c0,0,0.4-0.1,0.5-0.3C137.2,37.4,137.4,37.1,137.5,37.1L137.5,37.1L137.5,37.1z M133.6,33.5
			l2.5,6.5c0,0,0.4-0.5,0.5-0.6c0,0,0-0.5-0.1-0.6c0-0.2-2.4-6.4-2.4-6.4l-1.2,2.1l2.4,6.5l0.5-0.6l-2.5-6.4L133.6,33.5L133.6,33.5
			L133.6,33.5z M132.6,36l0.3-0.5l0.3,0.8c0,0-0.3,0-0.3,0.1c-0.1,0-0.3,0.1-0.3,0.1C132.6,36.5,132.5,36.2,132.6,36L132.6,36
			L132.6,36z M132.9,36.6h0.4l0.2,0.2l0.1,0.6c0,0-0.5,0.6-0.7,0.6s-0.9,0-1.2,0.1c-0.2,0.1-0.4,0.1-0.4,0.1v0.1c0,0,0-0.2,0.1-0.3
			c0.2-0.1,0.2,0,0.4-0.2s0.2-0.6,0.3-0.7C132.1,37,132.8,36.6,132.9,36.6L132.9,36.6L132.9,36.6z M130.5,38.3l0.6-0.4
			c0,0-0.1,0.3-0.1,0.6s0,0.5-0.1,0.7c-0.1,0.1-0.5,0.6-0.7,0.7c-0.1,0-0.6,0-0.6,0s0-0.5,0-0.6s-0.1-0.1-0.1-0.1
			S130.4,38.4,130.5,38.3L130.5,38.3L130.5,38.3z M132.5,38.3l0.4-0.1c0,0-0.1,0.2-0.1,0.4s-0.1,0.4-0.2,0.5
			c-0.1,0.1-0.5,0.6-0.7,0.6c-0.1,0-0.4,0.2-0.4,0.2s0.1-0.4,0.1-0.5c0-0.2,0-0.3,0-0.3h-0.2c0,0,0-0.3,0.4-0.5
			C132.2,38.2,132.4,38.4,132.5,38.3L132.5,38.3L132.5,38.3z M131.4,39.7l0.2-0.5l-0.4,0.1c0,0-0.6,0.6-0.7,0.7
			c-0.1,0.1-0.4,0.1-0.4,0.1h-0.2l-0.1,0.1h0.2c0,0,0.3-0.1,0.4,0c0,0,0.1,0.1,0,0.2c0,0.1-0.2,0.6-0.2,0.6s0.3,0,0.4-0.1
			s0.7-0.5,0.7-0.7C131.4,40,131.2,39.9,131.4,39.7L131.4,39.7L131.4,39.7z M129.4,39.6v-0.3c0,0-0.1,0-0.3,0
			c-0.1,0-0.7,0.4-0.7,0.4l-0.1,0.9c0,0,0.4-0.1,0.5,0s0.1,0.4,0.1,0.4s0.4-0.3,0.4-0.5c0.1-0.2,0.1-0.2,0.1-0.4
			S129.4,39.7,129.4,39.6L129.4,39.6L129.4,39.6z M133.9,38.2L133.9,38.2l-1.1,1h-0.1l-1,1.1h-0.2l-1,0.9h-0.4l-0.2,0.1
			c0,0-0.1-0.2,0-0.3c0-0.2,0-0.3,0.1-0.3c0-0.1,0.1-0.2,0.1-0.3c0,0,0-0.1-0.1,0c-0.1,0-0.2,0.1-0.3,0.1c0,0-0.1,0-0.2,0
			c0,0-0.2,0.3-0.3,0.4c-0.1,0.1-0.5,0.4-0.5,0.4l0.2,0.1c0,0,0.1,0.1,0.1,0.2c0,0.1,0,0.2-0.1,0.3s-0.1,0.2-0.1,0.2
			c0,0.1-0.1,0.2-0.1,0.2c-0.1,0-0.2,0-0.1,0c0.1-0.1,0-0.3,0.1-0.4c0.1-0.1,0.2-0.2,0.2-0.2c0-0.1,0.1-0.1,0-0.1s-0.2,0-0.2,0.1
			c0,0-0.4,0.5-0.5,0.6s-0.3,0.3-0.3,0.3s0,0.2,0,0.3s-0.1,0.3-0.2,0.3l-0.2,0.2c0,0,1.4-0.9,1.5-1s1-0.8,1-0.8h0.4l1-0.9h0.2
			l1.1-1.1h0.2L133.9,38.2L133.9,38.2L133.9,38.2z M128.6,40.9l0.1-0.2h-0.4L128,42c0,0,0.5-0.4,0.5-0.6
			C128.6,41.3,128.5,40.9,128.6,40.9L128.6,40.9L128.6,40.9z M124.5,41.4l1.2-0.5l-0.1,0.5c0,0-0.8,0.3-1,0.4
			c-0.3,0.1-1.1,0.4-1.1,0.4l-0.2-0.4C123.4,41.7,124.2,41.5,124.5,41.4L124.5,41.4L124.5,41.4z M124.5,42l1-0.4l-0.1,0.3
			c0,0-0.7,0.3-0.9,0.3c-0.2,0.1-1,0.4-1,0.3v-0.3C123.7,42.2,124.2,42.1,124.5,42L124.5,42L124.5,42z M123.8,42.8l1.8-0.7l-0.1,0.3
			l-1.9,0.7V43l0.1-0.1L123.8,42.8L123.8,42.8L123.8,42.8z M124.2,43.1l1.2-0.4l-0.1,0.4c0,0-0.7,0.2-1,0.3s-0.9,0.3-0.9,0.2
			l0.1-0.3C123.4,43.3,123.9,43.2,124.2,43.1L124.2,43.1L124.2,43.1z M125.2,44.2L125.2,44.2l0.3,0.1c0,0-1.3,0.8-1.7,0.9
			c-0.3,0.1-1.3,0-1.5,0c-0.1,0-1.7-0.1-1.8-0.1c-0.1,0-0.4,0-0.5-0.1s-0.2-0.2-0.2-0.3s0-0.2,0-0.2s0.1,0,0.2,0
			c0,0,0.2,0.2,0.3,0.2c0.1,0,1.2,0.1,1.6,0.2c0.4,0,1.3,0.1,1.6,0c0.3-0.1,0.8-0.3,1-0.4C124.8,44.5,125.2,44.2,125.2,44.2
			L125.2,44.2L125.2,44.2z M125.2,50.8v-1l-1.6-0.7l0.1,1.8L125.2,50.8L125.2,50.8L125.2,50.8z M130.6,49.7v-4.2l-1,0.5l-0.1,4.5
			l2.5-0.2l-0.1-0.6H130.6L130.6,49.7L130.6,49.7z M132.4,48.4l-0.2-3.9l-0.5,0.4l-0.1-0.1l-0.5,0.4v4.2l2.9-0.3l-0.1-0.9
			L132.4,48.4L132.4,48.4L132.4,48.4z M128.8,48.4l0.2-0.3l-2-1l-0.6,0.1L128.8,48.4L128.8,48.4L128.8,48.4z M128.4,48.9l0.1-0.3
			l-2.8-1.3h-0.8L128.4,48.9L128.4,48.9L128.4,48.9z M128.1,49.5l0.2-0.3l-4.1-1.9h-0.9L128.1,49.5L128.1,49.5L128.1,49.5z
			 M123.4,47.6l4.7,2.1l-0.2,0.3l-5.3-2.4L123.4,47.6L123.4,47.6L123.4,47.6z M127.5,50.5l0.2-0.3l-5.4-2.4l0.3,0.5L127.5,50.5
			L127.5,50.5L127.5,50.5z M117.9,43.9l0.1,0.2c0,0-0.5,0.1-0.5,0.6s0.4,0.6,0.4,0.6v0.1c0,0-0.6-0.1-0.5-0.7
			C117.3,44.1,117.9,43.9,117.9,43.9L117.9,43.9L117.9,43.9z M119.2,44.3v1.1l-0.2,0.2c0,0-0.5,0.2-0.7,0.3c-0.2,0-0.8,0-1-0.1
			c-0.2,0-0.3-0.2-0.4-0.3l0,0v-1.2l0,0l0,0v-0.1l0,0v-0.1c0-0.1,0.5-0.5,1-0.5s0.6,0,0.9,0.1c0.2,0.1,0.3,0.2,0.4,0.3
			C119.2,44.1,119.2,44.3,119.2,44.3L119.2,44.3L119.2,44.3z M115.3,2l2.5-0.2l0.2,0.1v0.2l-0.1,0.1l-2.6,0.1l-1.7,0.3
			c0,0-0.5,0.2-0.6,0.3s-0.4,0.5-0.5,0.7C112.4,3.7,112,4,111.8,4c-0.1,0-0.5-0.1-0.5-0.4s0.4-0.5,0.6-0.5c0.2-0.1,0.6-0.2,0.7-0.2
			c0.1-0.1,0.3-0.4,0.5-0.5C113.2,2.3,114.8,2,115.3,2L115.3,2L115.3,2z M113,47.2l-0.1-0.2c0,0,0.5,0,0.7,0c0.3-0.1,1-0.2,1-0.2
			h0.1c0.7,1.1,2,1.8,3.4,1.8c1.3,0,2.5-0.6,3.2-1.6l0,0l0.8,0.2l0.4,0.1l0.4,0.1l-0.1,0.1h-0.6l-0.3,0.4l0.3,0.6l-0.5,0.5l-0.5-0.3
			l-0.7,0.4l0.1,0.6l-0.7,0.3l-0.5-0.5l-0.8,0.1l-0.1,0.6h-1l-0.1-0.6l-0.8-0.2l-0.3,0.5l-0.9-0.4v-0.6l-0.5-0.4l-0.5,0.4l-0.7-0.6
			l0.3-0.6l-0.3-0.5L113,47.2L113,47.2L113,47.2z M115.2,46.6l0.8-0.4l0,0c0.5,0.6,1.3,1,2.1,1c0.8,0,1.5-0.3,2-0.9l0,0l0.8,0.4l0,0
			c-0.7,0.8-1.7,1.3-2.8,1.3C116.9,48.1,115.8,47.5,115.2,46.6L115.2,46.6L115.2,46.6z M113.7,3.7l-0.8-0.1c0,0,0-0.4,0.3-0.5
			c0.3-0.2,1-0.3,1.4-0.3c0.4-0.1,1.2-0.2,1.6-0.2s1.8-0.1,1.8-0.1l0.1,0.1v0.1v0.1c0,0-1.4,0.1-1.8,0.1S115,3,114.7,3.1
			c-0.3,0.1-0.7,0.3-0.8,0.4C113.7,3.5,113.7,3.7,113.7,3.7L113.7,3.7L113.7,3.7z M117,2.9h0.8L118,3l-0.1,0.1c0,0-1.6,0.1-2,0.1
			c-0.3,0.1-1.4,0.2-1.5,0.2c-0.1,0.2-0.1,0.3-0.1,0.3s1.3-0.1,1.6-0.2c0.4,0,1.4-0.1,1.6-0.1c0.1,0,0.2,0.1,0.2,0.1v0.1l-0.1,0.1
			c0,0-1.4,0-1.9,0.1c-0.4,0.1-1.1,0.2-1.3,0.2c-0.1,0-0.5,0-0.6,0c-0.1-0.1-0.2-0.1-0.1-0.3c0.1-0.1,0.1-0.3,0.2-0.3
			c0.2-0.1,0.2-0.2,0.7-0.2c0.5-0.1,1.3-0.2,1.5-0.2C116.2,3,116.8,2.9,117,2.9L117,2.9L117,2.9z M113,3.8c-0.1,0-0.2,0-0.3,0
			c-0.1,0.1-0.2,0.1-0.2,0.2c0,0.2,0.3,0.4,0.4,0.4s0.6,0,0.8,0c0.1,0,0.6,0,0.7,0s0.5-0.1,0.9-0.2s0.8-0.1,1.1-0.1c0.2,0,1,0,1.1,0
			s0.2-0.1,0.2-0.1l-0.1-0.2c-0.1,0-1.5,0.1-2.1,0.2c-0.7,0.1-1,0.2-1.1,0.2s-0.4-0.1-0.5-0.1C113.4,4.1,113.3,3.9,113,3.8L113,3.8
			L113,3.8z M117.2,5.2l0.4-0.3c0,0-0.2,0-0.3-0.1c-0.1,0-0.4-0.2-0.9-0.2s-0.9,0.5-0.9,0.5s0.2,0.1,0.3,0.1c0.1,0,0.3,0.2,0.4,0.3
			c0,0.1-0.1,0.4-0.1,0.4c-0.1,0,0.2,0,0.3,0c0.1,0,0.5-0.1,0.6-0.2C117,5.4,117,5.3,117.2,5.2L117.2,5.2L117.2,5.2z M112.3,2.8V2.6
			c0,0-0.7,0.2-0.9,0.2c-0.2,0.1-0.7,0.2-0.8,0.3c-0.1,0.1,0,0.2,0,0.2s-0.1,0.3-0.7,0.4c-0.5,0.2-0.6,0.6-0.6,0.6s0.1,0.1,0.1,0.2
			c0.1,0,0.6,0,0.9-0.1c0.3-0.2,0.5-0.4,0.5-0.5c0.1-0.1,0.1-0.3,0.3-0.5c0.2-0.3,0.2-0.3,0.5-0.4C111.9,2.9,112.2,2.8,112.3,2.8
			L112.3,2.8L112.3,2.8z M110.9,4.2l0.4-0.1c0.4,0,0.7,0.1,0.9,0.2c0.1,0.1,0.2,0.3,0.4,0.3c0.1,0.1,0.7,0.1,0.7,0.1l-1,0.3
			c0,0-0.1-0.2-0.4-0.2c-0.3-0.1-0.5,0.1-0.8,0s-0.4-0.2-0.4-0.3C110.7,4.4,110.8,4.3,110.9,4.2L110.9,4.2L110.9,4.2z M115.7,5.7
			l0.2-0.2c0,0,0-0.1-0.1-0.1s-0.3-0.3-0.7-0.2c-0.3,0.1-0.5,0.1-0.8,0.3C114.1,5.7,114,5.9,114,6s-0.1,0.1-0.1,0.2
			c0,0,0.3,0.3,0.7,0.3c0.3-0.1,0.7-0.2,0.8-0.3C115.4,6,115.7,5.7,115.7,5.7L115.7,5.7L115.7,5.7z M114.2,5.3l0.2-0.1
			c0,0-0.2,0-0.3,0c-0.1,0-0.1-0.1-0.6-0.1s-0.9,0.3-0.9,0.3s0.5,0.1,0.6,0.3c0.1,0.2-0.2,0.6-0.2,0.6h0.3c0,0,0.2-0.1,0.2-0.2
			s0.1-0.4,0.2-0.5C113.9,5.4,114.2,5.3,114.2,5.3L114.2,5.3L114.2,5.3z M115.9,6.3l-0.3-0.2c-0.1,0-0.3,0.3-0.7,0.4
			c-0.4,0.1-1,0-1,0s0.1,0.2,0,0.2c0,0.1-0.4,0.4-0.4,0.4s0.7-0.2,1-0.2c0.4,0,0.8,0,0.8-0.1c0,0,0.2-0.1,0.3-0.3
			C115.8,6.4,115.9,6.3,115.9,6.3L115.9,6.3L115.9,6.3z M111.8,5l0.2,0.1l-1.5,0.6c0,0-0.2-0.2-0.5-0.1c-0.4,0.1-0.7,0.1-0.8,0
			c-0.1-0.1-0.3-0.2-0.3-0.3c0.1-0.1,0.3-0.4,0.5-0.4c0.2-0.1,0.5-0.1,0.9,0c0.3-0.1,0.6,0.1,0.8,0.1C111.2,5.1,111.7,5,111.8,5
			L111.8,5L111.8,5z M111.2,6L111,5.8c0.1,0,0,0,0.3-0.1c0.2-0.1,0.3-0.2,0.7-0.2c0.3,0,0.5,0.1,0.6,0.1s0.4,0.1,0.4,0.2
			s-0.1,0.3-0.3,0.4c-0.1,0.1-0.2,0.3-0.2,0.4c0,0-0.8,0.3-0.9,0.3s-0.3,0-0.3,0s0.1-0.1,0.1-0.2c0.1-0.1,0.2-0.3,0.1-0.4
			C111.5,6.1,111.3,6,111.2,6L111.2,6L111.2,6z M112.9,6.4L112.9,6.4c-0.1,0-0.2,0.3-0.4,0.4c-0.2,0.1-0.8,0.3-0.8,0.3
			s0.4,0,0.4,0.1c0.1,0.1,0.1,0.3,0.1,0.3s0.4,0,0.5,0s0.3,0,0.4-0.1s0.1-0.2,0.3-0.3c0.2-0.1,0.3-0.3,0.4-0.3c0,0-0.1-0.1-0.3-0.1
			C113.2,6.7,112.9,6.4,112.9,6.4L112.9,6.4L112.9,6.4z M109.4,3.5l0.7-0.3v0.1L110,3.4c0,0-0.4,0-0.7,0.3c-0.3,0.3-0.5,1.1-0.9,1.4
			c-0.4,0.2-1,0.4-1.1,0.2c-0.1-0.2,0-0.4,0.2-0.5s0.5-0.3,0.7-0.4s0.2-0.5,0.3-0.5C108.8,3.9,109,3.6,109.4,3.5L109.4,3.5
			L109.4,3.5z M109.7,6.7l-0.1-0.3c0,0,0.6-0.3,0.7-0.3c0,0,0.1-0.1,0.3-0.1s0.4,0.1,0.5,0.1c0.2,0.1,0.3,0.1,0.3,0.2
			c0,0-0.1,0.2-0.2,0.3c-0.1,0.1-0.1,0.2-0.1,0.2s-0.4-0.1-0.7,0c-0.3,0.1-0.5,0.3-0.5,0.3h-0.5c0,0,0-0.1,0-0.2
			C109.5,6.9,109.5,6.8,109.7,6.7L109.7,6.7L109.7,6.7z M108,4.4V4.2c0,0-0.6,0.3-0.8,0.4c-0.2,0.1-0.4,0.3-0.5,0.3
			c0,0-0.1,0.4-0.2,0.5s-0.5,0.2-0.7,0.4c-0.2,0.2-0.2,0.5-0.2,0.5c0,0.1,0.3,0.1,0.4,0.1s0.5-0.1,0.6-0.3c0.1-0.2,0.4-0.4,0.4-0.6
			s0-0.3,0.1-0.5c0.1-0.1,0.3-0.3,0.4-0.4C107.8,4.6,107.9,4.5,108,4.4L108,4.4L108,4.4z M109.8,5.8l-0.4,0.1
			c-0.1,0-0.8-0.2-1.1-0.2c-0.2,0-0.8,0-1,0.1s-0.4,0.3-0.3,0.5s0.3,0.2,0.5,0.2s0.5-0.1,0.7-0.1s0.4,0,0.5,0.1
			c0.1,0,0.7-0.2,0.8-0.3c0.1-0.1,0.5-0.3,0.5-0.3s0,0,0-0.1C109.9,5.8,109.8,5.7,109.8,5.8L109.8,5.8L109.8,5.8z M109.2,7.1
			l0.2-0.5c0,0-0.8,0.2-1.3,0.5s-0.9,0.8-0.9,0.8l0.3,0.1v0.5l0.4-0.2c0,0,0.1-0.4,0.5-0.7C108.7,7.3,109.2,7.1,109.2,7.1L109.2,7.1
			L109.2,7.1z M110.5,7.3l-0.3-0.1c0,0,0.4-0.2,0.7-0.2c0.3,0.1,0.4,0.2,0.6,0.3c0.1,0.1,0.4,0.1,0.4,0.1l0.1,0.1
			c0,0-0.6,0.4-0.8,0.5c-0.3,0.1-0.9,0.1-0.9,0.1s0-0.1,0-0.2C110.2,7.8,110.7,7.6,110.5,7.3L110.5,7.3L110.5,7.3z M108.8,7.5
			c0.5-0.2,1-0.1,1.5,0c0,0-0.1,0.2-0.2,0.4s-0.3,0.6-0.5,0.6c-0.3,0.1-0.9,0-1.1-0.1c-0.2,0-0.4,0-0.4,0S108.2,7.6,108.8,7.5
			L108.8,7.5L108.8,7.5z M108.4,9.5c0.3-0.2,0.5-0.4,0.7-0.7c0,0-0.6-0.1-0.8-0.1c-0.2,0-0.8,0.2-0.8,0.3s0,0.2,0,0.2h0.1
			c0,0,0,0.3,0,0.5s0,0.4,0,0.4S108.2,9.6,108.4,9.5L108.4,9.5L108.4,9.5z M105.9,6.7l-0.4,0.2c0,0-0.3,0.5-0.2,0.7
			c0.2,0.2,0.5,0,0.6,0s0.2-0.1,0.4-0.1c0.2,0,0.4,0.1,0.4,0.1s0.6-0.5,0.9-0.6c0.2-0.1,0.7-0.3,0.7-0.4c0,0,0-0.1-0.1-0.1
			s-0.6,0.2-0.8,0.2c-0.2,0-0.9-0.1-1-0.1C106.4,6.6,106.2,6.6,105.9,6.7L105.9,6.7L105.9,6.7z M107.2,8.8l-0.1-0.7
			c0,0-0.4,0.1-0.7,0.2c-0.2,0.1-0.4,0.3-0.6,0.4c-0.1,0.2-0.1,0.2-0.1,0.2L106,9v0.9c0,0,0.3,0,0.4-0.1s0.5-0.4,0.6-0.5
			C107.2,9,107.2,8.8,107.2,8.8L107.2,8.8L107.2,8.8z M107.4,9.4l0.1-0.2h-0.2c0,0-0.4,0.4-0.5,0.5s-0.6,0.3-0.6,0.3v0.1l0.1-0.1
			c0,0,0.1,0,0.2,0.1c0,0.1-0.1,0.3-0.1,0.4c0,0.1-0.1,0.3-0.1,0.3c0,0.1,0.7-0.3,0.8-0.5c0.1-0.2,0.3-0.3,0.3-0.5
			C107.3,9.7,107.3,9.5,107.4,9.4L107.4,9.4L107.4,9.4z M105.8,9.6V9.1c0,0-0.3,0.2-0.5,0.3s-0.6,0.2-0.7,0.5
			c-0.2,0.3-0.2,0.9-0.2,0.9h0.1c0,0,0.3-0.3,0.5-0.3c0.2,0.1,0.1,0.3,0.1,0.3s0.6-0.5,0.6-0.7C105.8,10.1,105.8,9.8,105.8,9.6
			L105.8,9.6L105.8,9.6z M106.2,11l0.1-0.7c0,0-0.3,0.1-0.4,0.2c-0.1,0.1-0.7,0.7-0.7,0.7s0,0.4,0,0.5s0,0.1,0,0.1s0.2,0,0.3,0
			c0.1,0,0.6-0.4,0.7-0.5C106,11.2,106.2,11.2,106.2,11L106.2,11L106.2,11z M106.4,5.1L106.4,5.1c-0.1-0.1-1,0.4-1.3,0.7
			c-0.2,0.2-0.8,0.7-0.8,0.7l0.4,0.4c0,0-1.2,1-1.7,1.5s-1.2,1.2-1.3,1.3s-0.4,0.2-0.5,0.5s0,1,0,1s0.1,0,0.2,0l0.5-0.3
			c0,0,0-0.7,0-0.8s1-1.1,1.2-1.3s1.4-1.2,1.6-1.4c0.1-0.1,0.6-0.2,0.8-0.8c0.2-0.6,0-0.5,0.1-0.6s0.2-0.3,0.5-0.5
			C106.3,5.2,106.4,5.1,106.4,5.1L106.4,5.1L106.4,5.1z M104.9,7.4L104.9,7.4L104.9,7.4c0.1,0.1-1.1,1.1-1.2,1.2s-0.9,0.9-0.9,1
			l-0.1,0.1c0,0.1,0.1,0.1,0.1,0c0,0,0.8-0.7,1-0.9s0.6-0.5,0.7-0.6s0.4-0.3,0.4-0.4c0.1-0.1,0.1-0.1,0.2,0c0.1,0,0.1,0.1,0.1,0.1
			c0,0.1-0.6,0.6-0.7,0.6c-0.1,0.1-0.8,0.7-0.9,0.8s-0.6,0.6-0.7,0.7c0,0.1-0.4,0.4-0.6,0.4s-0.4-0.1-0.4-0.1c0-0.1-0.1-0.4,0-0.4
			c0.1-0.1,0.8-0.8,1-0.9c0.1-0.1,0.5-0.4,0.6-0.6c0.3-0.1,0.7-0.4,0.8-0.5S104.8,7.5,104.9,7.4L104.9,7.4L104.9,7.4z M103.9,6.8
			L103.9,6.8h0.2c0,0,0,0.1-0.1,0.2s-1.4,1.4-1.6,1.5s-1.2,1.2-1.4,1.4c-0.1,0.3-0.2,0.5-0.2,0.7c0,0.1,0,0.6,0,0.8s0,0.5-0.3,0.6
			s-0.4-0.1-0.5-0.2c0-0.1,0-0.5,0.2-0.7c0.1-0.2,0.3-0.4,0.3-0.5s0.1-0.6,0.1-0.6s1.2-1.3,1.5-1.6s1-0.9,1.2-1.1
			C103.7,7,103.8,6.9,103.9,6.8L103.9,6.8L103.9,6.8z M105.5,8.4h-0.2c0,0-1.1,1-1.5,1.3c-0.3,0.3-1,1-1.1,1.1s-0.5,0.1-0.6,0.1
			s-0.6,0.3-0.7,0.4c-0.1,0.1-0.3,0.4-0.3,0.5s0.4,0.1,0.5,0s0.3-0.3,0.5-0.4c0.2-0.1,0.5-0.1,0.5-0.1s1.1-1.1,1.3-1.3
			c0.2-0.2,1.6-1.3,1.6-1.3S105.5,8.5,105.5,8.4L105.5,8.4L105.5,8.4z M104.8,11.1v-0.3c-0.1,0-0.2,0.3-0.3,0.3
			c-0.1,0-0.5-0.1-0.7,0s-0.5,0.5-0.5,0.6s0.1,1.1,0.1,1.2c0,0.1,0,0.3-0.1,0.3s-0.1,0.2-0.1,0.2l0.3-0.1c0,0,0-0.1,0.1-0.3
			s0.3-0.4,0.5-0.5s0.4-0.3,0.4-0.4c0.1-0.1,0.2-0.3,0.2-0.4C104.8,11.6,104.8,11.2,104.8,11.1L104.8,11.1L104.8,11.1z M99.9,10.7
			l0.2-0.2h0.1l0.1,0.1v0.1l-0.2,0.3l-0.2,0.3l-0.1-0.1c0,0,0-0.1,0-0.2C99.8,10.9,99.9,10.8,99.9,10.7L99.9,10.7L99.9,10.7z
			 M102.2,11.5l0.2-0.1l0.1,0.1c0,0-0.5,0.8-0.6,0.8s-0.4-0.1-0.5,0s-0.4,0.5-0.5,0.6s-0.6,0.1-0.6,0.1s-0.1-0.2,0.1-0.5
			c0.3-0.2,0.5-0.3,0.8-0.4c0.3-0.1,0.5-0.1,0.6-0.1C101.8,11.9,102.2,11.5,102.2,11.5L102.2,11.5L102.2,11.5z M103.2,12v-0.4
			l-0.1,0.2c0,0-0.4,0.1-0.5,0.2c-0.1,0.1-0.3,0.3-0.3,0.4c0,0-0.2,0.2-0.3,0.4c-0.1,0.2-0.1,0.4-0.1,0.4s0.5-0.3,0.7-0.2
			s0.1,0.2,0.1,0.2s0.5-0.4,0.5-0.6C103.2,12.4,103.2,12.3,103.2,12L103.2,12L103.2,12z M104.5,12.8l0.6-0.9c0,0-0.2,0.2-0.3,0.2
			c0,0-0.6,0.5-0.6,0.6c-0.1,0.1-0.3,0.4-0.3,0.4c0,0.1,0,0.2,0.1,0.2C104,13.4,104.4,13,104.5,12.8L104.5,12.8L104.5,12.8z
			 M99.3,10.3L99.3,10.3c-0.1,0-0.3,0.2-0.3,0.2s-0.2,0.3-0.1,0.3c0,0,0.4,0.4,0.4,0.5s0.1,0.5,0.1,0.5S99,11.6,99,11.5
			s-0.4-0.3-0.4-0.2l-0.2,0.3l-0.2,0.2c0,0,0.1,0.2,0.2,0.2s0.6,0,0.7,0.1c0.2,0,0.3,0,0.4,0s0.2-0.2,0.2-0.3s-0.1-0.6-0.1-0.7
			c0-0.1-0.1-0.5-0.1-0.6C99.4,10.4,99.3,10.4,99.3,10.3L99.3,10.3L99.3,10.3z M99.9,12.5V12l-0.2,0.3c-0.1,0-0.3,0-0.4,0.1
			c0,0-0.2,0.4-0.2,0.5c0,0.2,0,0.4,0,0.5s0.2,0.2,0.3,0.1c0.1-0.1,0.3-0.3,0.3-0.4C99.8,13,99.9,12.7,99.9,12.5L99.9,12.5
			L99.9,12.5z M101.3,12.7l0.2-0.2c0.1,0,0,0.1,0,0.1l-0.7,1.1c0,0-0.3,0.1-0.6,0.3c-0.2,0.2-0.3,0.4-0.4,0.5c-0.1,0-0.5,0.2-0.6,0
			s-0.1-0.5,0.2-0.8c0.3-0.3,0.5-0.4,0.9-0.5c0.3-0.1,0.5-0.1,0.7-0.2C101,12.9,101.2,12.8,101.3,12.7L101.3,12.7L101.3,12.7z
			 M102.3,13.6l0.1-0.5c0,0-0.4,0.2-0.5,0.2s-0.3,0-0.4,0.1c-0.1,0-0.5,0.5-0.6,0.7s0,0.4,0,0.4s0.3,0,0.5-0.1
			c0.1-0.1,0.3-0.1,0.3-0.1s0.1,0.2,0.1,0.3s0,0.3,0,0.3h0.1c0,0,0-0.2,0-0.3s-0.1-0.3,0-0.5C101.9,14.1,102.2,13.7,102.3,13.6
			L102.3,13.6L102.3,13.6z M103.8,13.6l-0.1-0.2c-0.1,0-0.3,0.2-0.4,0.2s-0.5,0-0.7,0.1c-0.2,0.2-0.4,0.3-0.5,0.6s0,0.6,0,0.7
			c0,0.1,0.7,0,0.7,0s0.5-0.6,0.7-0.8C103.5,13.9,103.8,13.7,103.8,13.6L103.8,13.6L103.8,13.6z M98.9,12.6v-0.2
			c0,0-0.3,0.4-0.5,0.7c-0.1,0.3-0.2,0.4-0.2,0.4s0.2,0.5,0,1c-0.3,0.5-0.2,0.9-0.1,1c0,0.1,0.4,0.1,0.7-0.4
			c0.3-0.4,0.3-0.9,0.2-1.1c0-0.1-0.2-0.6-0.2-0.8S98.8,12.7,98.9,12.6L98.9,12.6L98.9,12.6z M101.4,15.3l0.1-0.6
			c0,0-0.5,0.2-0.6,0.3c-0.2,0.1-0.4,0.1-0.4,0.2c-0.1,0.1-0.4,0.5-0.4,0.6s-0.1,0.3-0.1,0.4c0.1,0,0.2-0.1,0.3-0.2
			c0.1-0.1,0.2-0.2,0.3-0.2c0.1,0,0.1,0.3,0.2,0.3s0.2-0.2,0.2-0.3C101,15.6,101.3,15.4,101.4,15.3L101.4,15.3L101.4,15.3z
			 M99.8,15.5l0.7-1.3c-0.1,0-0.4,0.4-0.5,0.5s-0.6,0.2-1,0.5s-0.7,0.6-0.7,0.8c0,0.2,0.1,0.4,0.2,0.5c0.1,0,0.6-0.3,0.8-0.6
			C99.4,15.5,99.7,15.5,99.8,15.5L99.8,15.5L99.8,15.5z M97.8,14.3L97.8,14.3C97.9,14.3,97.9,14.3,97.8,14.3c0.1,0-0.2,0.7-0.2,0.9
			c0.1,0.2,0.3,0.8,0.3,1.2s-0.4,0.9-0.5,0.9S97,17,97.1,16.8c0-0.2,0.2-0.6,0.3-0.8c0-0.2-0.1-0.6-0.1-0.6
			C97.3,15.4,97.8,14.3,97.8,14.3L97.8,14.3L97.8,14.3z M102.5,15.4l0.1-0.2c0,0-0.4,0.1-0.5,0.1s-0.3,0-0.5,0
			c-0.1,0.1-0.5,0.6-0.5,0.6c0,0.1,0.4-0.1,0.4,0c0,0.2,0,0.5,0,0.6c0,0.1,0,0.3,0.1,0.3c0,0,0.1-0.2,0.3-0.3
			c0.2-0.1,0.4-0.6,0.5-0.7C102.3,15.8,102.5,15.4,102.5,15.4L102.5,15.4L102.5,15.4z M97,15.8v-0.1h0.1c0,0-0.3,0.8-0.3,1
			s0.3,0.7,0.3,0.8c0,0.1,0,0.7,0,0.7l-1-0.1c0,0,0.3-1,0.4-1.3C96.8,16.5,97,15.8,97,15.8L97,15.8L97,15.8z M99.3,16l0.1-0.2h0.1
			c0,0-0.7,1.6-0.7,1.7c-0.1,0-0.4,0.2-0.4,0.3c-0.1,0.1-0.5,0.8-0.7,0.7c-0.2-0.1-0.4-0.7-0.1-1c0.2-0.4,0.9-0.6,1.1-0.8
			C99,16.5,99.3,16.1,99.3,16L99.3,16L99.3,16z M100.5,16.1L100.5,16.1c0-0.1-0.1,0.1-0.2,0.1s-0.4-0.1-0.8,0.6
			c-0.3,0.7-0.1,1.4-0.1,1.4s0.2-0.3,0.2-0.8c0-0.4,0.2-0.5,0.4-0.7c0.2-0.2,0.3-0.4,0.4-0.4C100.4,16.3,100.5,16.2,100.5,16.1
			L100.5,16.1L100.5,16.1z M101.3,16.6v-0.5c0,0-0.2,0.2-0.3,0.2c-0.1,0-0.2,0-0.3,0c-0.2,0.1-0.6,0.4-0.7,0.8s-0.2,0.8-0.2,0.9
			s-0.4,0.5-0.4,0.5l0.1,0.2v-0.1c0,0,0.2-0.2,0.3-0.3c0-0.1,0.1-0.2,0.2-0.3c0.1,0,0.3,0,0.5-0.1c0.2,0,0.6-0.5,0.7-0.7
			C101.3,17,101.3,16.7,101.3,16.6L101.3,16.6L101.3,16.6z M101,18.9l-0.1-0.9c0,0-0.3,0.4-0.5,0.4c-0.2,0.1-0.2,0.2-0.3,0.4
			c-0.1,0.1-0.1,0.5-0.1,0.5s0.3-0.3,0.4-0.3s0.1,0.2,0.1,0.2l0.1,0.2v0.5c0,0,0.1-0.3,0.1-0.5C100.9,19.4,101,19,101,18.9L101,18.9
			L101,18.9z M99.2,18.7v-0.2h0.1c0,0,0,0.1,0.1,0.2c0,0.1,0.3,0.3,0.4,0.5c0,0.2,0.1,0.6,0,0.8c-0.1,0.1-0.2,0.6-0.2,0.6
			s-0.1-0.1-0.2-0.2c-0.1,0-0.1-0.1-0.1-0.1s-0.1-0.5-0.2-0.5s-0.3,0.3-0.3,0.3s0-0.7,0.2-0.9C98.8,19,99.2,18.7,99.2,18.7
			L99.2,18.7L99.2,18.7z M99.9,19.8l0.4-0.5c0,0,0.3,0.7,0.1,1c-0.1,0.3-0.9,1-0.9,1l-0.1-0.4c0,0,0.3-0.2,0.3-0.3
			C99.8,20.4,99.8,19.9,99.9,19.8L99.9,19.8L99.9,19.8z M98.9,20.4l-0.1-0.3l-0.1,0.1c0,0-0.1,0.3-0.2,0.4s-0.2,0.3-0.2,0.4
			s0,0.9,0,0.9s0.1-0.1,0.2-0.1l0.3,0.3l0.6-0.6c0,0,0-0.6-0.1-0.7c0,0,0,0-0.1-0.1C99,20.6,98.9,20.5,98.9,20.4L98.9,20.4
			L98.9,20.4z M98.3,22.1l0.1-0.1l0.2,0.2l-0.4,0.4v-0.3C98.2,22.3,98.3,22.1,98.3,22.1L98.3,22.1L98.3,22.1z M96.9,18.9L96.9,18.9
			l0.1-0.1l0.1,0.1V19c0,0-0.3,1.1-0.4,1.6s-0.2,1.6-0.2,1.6l0.1,0.1h0.1c0,0,0.2-1.5,0.2-1.7s0.1-0.8,0.2-0.9
			c0-0.1,0.1-0.4,0.1-0.4l0.1-0.1l0.1,0.1v0.1c0,0-0.2,0.8-0.3,1.1c0,0.3-0.2,1.5-0.2,1.8c0,0.2-0.1,0.5-0.1,0.6
			c-0.1,0.1-0.2,0.3-0.3,0.3l-0.4-0.3c0-0.1-0.1-0.3-0.1-0.4s0.1-0.1,0.1-0.2s0.2-1.2,0.2-1.4c0-0.1,0.1-0.8,0.1-0.9
			s0.1-0.6,0.1-0.7C96.8,19.1,96.9,18.9,96.9,18.9L96.9,18.9L96.9,18.9z M96.4,18.7v-0.1h0.1h0.1v0.1c0,0-0.3,1.3-0.4,1.8
			s-0.3,2-0.3,2.1c0,0.2,0.1,0.4,0.1,0.5c0.1,0.1,0.4,0.4,0.4,0.4V24l-0.1,0.2c0,0-0.5-0.5-0.6-0.8c-0.1-0.4,0.1-0.6,0.1-0.7
			s0.2-1.7,0.3-1.9c0-0.2,0.2-1.2,0.3-1.3C96.3,19.3,96.4,18.7,96.4,18.7L96.4,18.7L96.4,18.7z M97.8,19.4L97.8,19.4
			c0.1-0.1,0.2-0.1,0.2,0s-0.3,1.4-0.3,1.8c-0.1,0.4-0.2,1.9-0.2,1.9l-1,1.2c0,0,0-0.1,0-0.2s0.1-0.5,0.2-0.6s0.5-0.5,0.5-0.6
			s0.2-1.5,0.2-1.7s0.3-1.6,0.3-1.6C97.8,19.5,97.8,19.5,97.8,19.4L97.8,19.4L97.8,19.4z M95.8,19.1l0.1-0.2c0,0,0.1,0,0.1,0.1
			s-0.1,0.9-0.2,1.5c-0.1,0.5-0.3,1.8-0.3,2s-0.1,0.8,0,1.2c0.1,0.4,0.4,0.6,0.4,0.6l0.3,0.3v0.1l-0.5,0.5c0,0-0.2-0.4-0.2-0.6
			s0-0.4-0.1-0.6c-0.1-0.1-0.3-0.3-0.3-0.4c-0.1-0.1,0.2-1.8,0.2-2.2c0-0.4,0.2-1.1,0.2-1.4S95.8,19.1,95.8,19.1L95.8,19.1
			L95.8,19.1z M95,24.3L95,24.3l0.1-0.1h0.1l0.1,0.1c0,0-0.1,0.5,0,0.7s0.2,0.4,0.2,0.4v0.1l-0.3,0.3h-0.1c0,0,0-0.7,0-0.8
			C95,24.8,95,24.3,95,24.3L95,24.3L95,24.3z M99.8,24.7l0.1-0.2c0,0,0.2,0.6,0.3,1c0.1,0.4,0,0.5,0,0.8s0,0.4,0,0.5
			s-0.1,0.2-0.1,0.2s-0.1-0.2-0.1-0.3c0-0.1-0.1-0.1-0.1-0.1l-0.3,0.3v-0.2c0,0,0.1-0.2,0.2-0.3c0-0.1,0-0.3,0-0.5s-0.2-0.4-0.1-0.6
			C99.7,25.1,99.8,24.7,99.8,24.7L99.8,24.7L99.8,24.7z M99.4,25.1l-0.3-0.3l-0.6,0.6c0,0,0.1,0.6,0.3,0.8c0.2,0.2,0.5,0.4,0.5,0.4
			s0.3-0.3,0.3-0.6c0-0.3-0.1-0.4-0.1-0.5C99.5,25.5,99.4,25.2,99.4,25.1L99.4,25.1L99.4,25.1z M98.7,26.4l-0.3-0.6
			c0,0,0,0.3-0.1,0.4s-0.2,0.3-0.2,0.6c0,0.3,0.2,1,0.2,1s0.2-0.6,0.5-0.6s0.5,0.3,0.5,0.3l0.2-0.3c0,0-0.1-0.2-0.3-0.3
			C98.9,26.7,98.8,26.5,98.7,26.4L98.7,26.4L98.7,26.4z M99.8,27.1l0.1-0.3h0.1c0,0,0.1,0.3,0.3,0.4c0.1,0.1,0.3,0.2,0.4,0.4
			c0.1,0.2,0,0.8,0,0.8s-0.2,0-0.3,0.1c-0.1,0.1-0.2,0.4-0.2,0.4s-0.1-0.5-0.2-0.7c-0.1-0.3-0.4-0.5-0.4-0.5l0.1-0.2
			C99.5,27.3,99.8,27.2,99.8,27.1L99.8,27.1L99.8,27.1z M96.4,27.9l-0.1-0.2l1.1-1.2v0.1c0,0-0.2,0.1-0.2,0.3c0,0.2,0,0.8-0.2,1
			s-0.4,0.3-0.4,0.2C96.5,28,96.4,27.9,96.4,27.9L96.4,27.9L96.4,27.9z M96.4,28.1l-0.2-0.2l-0.4,0.5c0,0,0.1,0.6,0.2,0.8
			c0.1,0.2,0.2,0.3,0.3,0.3c0.1,0,0.3-0.2,0.3-0.7C96.7,28.3,96.4,28.2,96.4,28.1L96.4,28.1L96.4,28.1z M97.4,27.3v-0.1v-0.1
			l0.1,0.1l0.2,0.9c0,0,0.1,0.3,0,0.5s-0.2,0.4-0.2,0.5c0,0.2,0,0.6-0.1,0.8c-0.1,0.1-0.2,0.3-0.2,0.3c-0.1,0-0.4-0.1-0.4-0.4
			s0-0.7,0.1-1.2c0.1-0.4,0.4-0.6,0.5-0.7C97.4,27.7,97.4,27.3,97.4,27.3L97.4,27.3L97.4,27.3z M99,27.6l-0.2-0.2l-0.1,0.1l-0.1,0.2
			c0,0-0.3,0.5-0.3,0.6c0,0.2,0.1,0.6,0.1,0.7s0.1,0.4,0.1,0.4s0.2-0.5,0.5-0.5c0.2,0,0.5,0.4,0.5,0.4s0.2-0.1,0.1-0.3
			c0-0.3-0.1-0.7-0.3-0.9C99.3,27.8,99,27.6,99,27.6L99,27.6L99,27.6z M100.5,28.7L100.5,28.7c-0.1-0.1-0.3,0.1-0.3,0.1
			c0,0.1-0.1,0.3-0.1,0.3c-0.1,0.1-0.3,0.2-0.3,0.4c0,0.2,0,0.7,0,0.7s0.2-0.3,0.4-0.2c0.2,0.1,0.4,0.4,0.4,0.4h0.1
			c0,0.1,0.2-0.1,0.2-0.5s-0.1-0.8-0.2-0.9C100.5,28.9,100.5,28.7,100.5,28.7L100.5,28.7L100.5,28.7z M95.7,28.7L95.7,28.7
			C95.7,28.6,95.6,28.7,95.7,28.7l-0.1,0.1l0.2,0.9c0,0.1,0.1,0.2,0.2,0.3c0.1,0,0.3,0.1,0.3,0.2c0.1,0.1,0,0.2,0.1,0.4
			c0,0.2,0,0.3,0.2,0.4s0.3,0.2,0.3,0.3c0,0.1,0.5,1.3,0.6,1.5s0.7,1.6,0.8,1.8c0.1,0.2,0.2,0.6,0.3,0.8c0.1,0.2,0.3,0.4,0.5,0.5
			s0.5,0.2,0.6,0.2s0.1-0.1,0.1-0.1c0-0.1-0.2-0.5-0.3-0.6c-0.1-0.1-0.6-0.2-0.7-0.3s-0.3-0.5-0.3-0.6c-0.1-0.2-0.7-1.4-0.7-1.7
			c-0.1-0.2-0.4-1.2-0.5-1.3c0-0.1,0-0.6,0-0.8c-0.1-0.2-0.4-0.6-0.7-0.8c-0.3-0.2-0.4-0.1-0.4-0.2c-0.1-0.1-0.2-0.4-0.2-0.5
			C95.8,29,95.7,28.7,95.7,28.7L95.7,28.7L95.7,28.7z M97.9,28.9L97.9,28.9C97.8,28.8,97.8,28.9,97.9,28.9c-0.1,0,0,0.9-0.1,1.1
			s-0.4,0.7-0.4,1.1s0.1,0.5,0.1,0.5c0,0.1,0.2,0.2,0.4,0.7c0.2,0.6,0.3,0.9,0.4,1.1c0.1,0.2,0.3,0.5,0.4,0.7s0,0.3,0.1,0.4
			c0,0.1,0.1,0.3,0.3,0.3C99,35,99.3,35,99.3,35s0.2-0.2,0-0.7s-0.6-1.2-0.7-1.6c-0.2-0.5-0.5-1.1-0.5-1.4s0.1-0.5,0.1-0.6
			s0.1-0.2,0.1-0.3c0-0.1-0.2-0.8-0.3-1C97.9,29.3,97.9,29,97.9,28.9L97.9,28.9L97.9,28.9z M98.9,29.3L99,29c0,0,0.1,0,0.1,0.1
			l0.3,0.3c0,0-0.1,0.4,0,0.6c0,0.2,0.2,0.5,0.2,0.6v0.2v0.4l-0.3-0.3c-0.1,0-0.3,0-0.3,0s-0.3-1-0.3-1.2
			C98.8,29.5,98.8,29.4,98.9,29.3L98.9,29.3L98.9,29.3z M100.2,30.3L100.2,30.3c-0.1,0-0.3,0.6-0.3,1s0.2,0.9,0.4,1
			c0.2,0.1,0.5,0.3,0.5,0.3s0-0.2,0.1-0.4s0.2-0.4,0.2-0.6s0-0.5-0.1-0.7s-0.4-0.2-0.4-0.3C100.3,30.5,100.2,30.3,100.2,30.3
			L100.2,30.3L100.2,30.3z M99.2,31.4V31l0.5,0.4c0,0,0,0.4,0.2,0.8c0.2,0.3,0.8,0.7,0.8,0.7l0.1,0.4c0,0-0.4-0.1-0.5-0.1
			s0,0.3,0,0.3s-0.6-0.7-0.8-1.2C99.2,31.8,99.2,31.6,99.2,31.4L99.2,31.4L99.2,31.4z M101.2,31.7L101.2,31.7L101.2,31.7l0.5,0.4
			l-0.4,1.2l-0.1,0.1c0,0-0.2-0.3-0.2-0.5c0-0.3,0-0.3,0-0.4c0-0.1,0.1-0.2,0.1-0.3C101.2,31.9,101.2,31.7,101.2,31.7L101.2,31.7
			L101.2,31.7z M100.3,33.7v-0.3c0,0,0.3,0.1,0.4,0.1s0.3,0,0.3,0l0.1,0.1l-0.4,1.2c0,0-0.3-0.4-0.3-0.6
			C100.3,33.9,100.4,33.8,100.3,33.7L100.3,33.7L100.3,33.7z M100.3,35.2V35l0.1-0.1l0.1,0.1l0.1,0.3l-0.1,0.2
			C100.4,35.5,100.3,35.2,100.3,35.2L100.3,35.2L100.3,35.2z M98.7,31.1L98.7,31.1h-0.2v0.2c0,0,0.4,1.1,0.5,1.4s0.5,1.2,0.6,1.4
			s0.2,0.3,0.2,0.4c0,0.1-0.1,0.6,0,1s0.4,0.9,0.4,0.9l0.2-0.5c0,0-0.2-0.3-0.2-0.6s0.1-0.5,0.1-0.6c-0.1-0.1-0.7-1.5-0.9-1.9
			c-0.2-0.4-0.4-1.1-0.5-1.3C98.8,31.3,98.7,31.1,98.7,31.1L98.7,31.1L98.7,31.1z M96.5,31.9l-0.1-0.1L96.5,31.9
			c-0.1,0,0.4,1.4,0.7,2c0.2,0.5,1,2.2,1.1,2.2c0.1,0.1,0.2,0.2,0.3,0.2c0.1,0,0.2,0.1,0.3,0.1c0.1,0.1,0.4,0.5,0.6,0.6
			s0.3,0.1,0.3,0.1s0.2-0.7,0.2-0.6c0,0-0.7-0.2-0.9-0.3c-0.2-0.1-0.6-0.3-0.6-0.4c0-0.1-0.6-0.9-1-2S96.9,32,96.9,32
			C96.8,32,96.5,31.9,96.5,31.9L96.5,31.9L96.5,31.9z M98.8,36.6L98.8,36.6L98.8,36.6c-0.1,0.1,0.3,0.7,0.4,0.9s0.4,0.5,0.4,0.5
			l0.1-0.5h-0.1c0,0-0.4-0.1-0.5-0.3C99,37,98.8,36.7,98.8,36.6L98.8,36.6L98.8,36.6z M102.7,33.2l-2.6,6.5c0,0-0.4-0.5-0.5-0.6
			c0,0,0.1-0.5,0.1-0.6c0-0.2,2.5-6.4,2.5-6.4l1.2,2.1l-2.4,6.4l-0.6-0.6l2.6-6.3L102.7,33.2L102.7,33.2L102.7,33.2z M103.7,35.7
			l-0.3-0.5L103,36c0,0,0.3,0,0.3,0.1c0.1,0,0.3,0.1,0.3,0.1C103.7,36.2,103.8,35.8,103.7,35.7L103.7,35.7L103.7,35.7z M103.3,36.2
			h-0.4l-0.2,0.2l-0.1,0.6c0,0,0.4,0.6,0.7,0.6c0.2,0,0.9,0,1.2,0.1c0.2,0.1,0.4,0.1,0.4,0.2V38c0,0,0-0.2-0.1-0.3
			c-0.2-0.1-0.2,0-0.4-0.2c-0.2-0.2-0.2-0.6-0.3-0.7C104.2,36.7,103.5,36.3,103.3,36.2L103.3,36.2L103.3,36.2z M105.8,38l-0.6-0.4
			c0,0,0.1,0.3,0.1,0.6s0,0.5,0.1,0.7c0.1,0.1,0.5,0.6,0.7,0.7c0.1,0,0.6,0,0.6,0s0-0.5,0-0.6s0.1-0.1,0.1-0.1S105.9,38.1,105.8,38
			L105.8,38L105.8,38z M103.8,38l-0.4-0.1c0,0,0.1,0.2,0.1,0.4s0.1,0.4,0.2,0.5s0.5,0.6,0.6,0.6s0.4,0.2,0.4,0.2s-0.1-0.4-0.1-0.5
			c0-0.2,0-0.3,0-0.3h0.2c0,0,0-0.3-0.4-0.5C104,37.9,103.8,38,103.8,38L103.8,38L103.8,38z M104.9,39.4l-0.2-0.5l0.4,0.1
			c0,0,0.6,0.6,0.7,0.7c0.1,0.1,0.4,0.1,0.4,0.1h0.2l0.1,0.1h-0.2c0,0-0.3-0.1-0.4,0c0,0-0.1,0.1,0,0.2c0,0.1,0.2,0.6,0.2,0.6
			s-0.3,0-0.4-0.1s-0.7-0.5-0.7-0.7C104.9,39.7,104.9,39.6,104.9,39.4L104.9,39.4L104.9,39.4z M106.8,39.4v-0.3c0,0,0.1,0,0.3,0
			c0.1,0,0.7,0.4,0.7,0.4l0.2,0.8c0,0-0.4-0.1-0.5,0s-0.1,0.4-0.1,0.4s-0.4-0.3-0.4-0.5c-0.1-0.2-0.1-0.2-0.1-0.4
			C106.8,39.6,106.8,39.4,106.8,39.4L106.8,39.4L106.8,39.4z M107.7,40.6l-0.1-0.2l0.4,0.1l0.2,1.3c0,0-0.5-0.4-0.5-0.6
			C107.5,41,107.7,40.7,107.7,40.6L107.7,40.6L107.7,40.6z M111.7,41.2l-1.2-0.5l0.1,0.5c0,0,0.8,0.3,1,0.4c0.3,0.1,1.1,0.4,1.1,0.4
			l0.2-0.3C112.9,41.7,111.9,41.3,111.7,41.2L111.7,41.2L111.7,41.2z M111.7,41.8l-1-0.4l0.1,0.3c0,0,0.7,0.3,0.8,0.4
			c0.2,0.1,1,0.4,1,0.4l0.1-0.3C112.7,42.2,111.9,41.9,111.7,41.8L111.7,41.8L111.7,41.8z M112.4,42.6l-1.8-0.7v0.3l1.8,0.7v-0.1
			l-0.1-0.1L112.4,42.6L112.4,42.6L112.4,42.6z M111.9,42.9l-1.2-0.5l0.1,0.4c0,0,0.7,0.2,1,0.3s1,0.3,1,0.3v-0.3
			C112.9,43.3,112.2,43.1,111.9,42.9L111.9,42.9L111.9,42.9z M110.9,44L110.9,44l-0.3,0.1c0,0,1.3,0.9,1.7,0.9
			c0.3,0.1,1.3,0.1,1.5,0.1s1.7-0.1,1.8-0.1c0.1,0,0.4,0,0.5-0.1s0.2-0.2,0.2-0.3s0-0.2,0-0.2s-0.1,0-0.2,0c0,0-0.2,0.2-0.3,0.2
			c-0.1,0-1.2,0.1-1.6,0.1s-1.3,0.1-1.6,0c-0.3-0.1-0.8-0.3-1-0.4C111.4,44.3,110.9,44,110.9,44L110.9,44L110.9,44z M104.2,41.4v-1
			l0.2,0.1c0,0,0,1.6,0.4,2.4c0.4,0.8,0.8,1.5,1.1,1.8c0.4,0.4,0.6,0.7,1.1,0.9c0.5,0.3,1.3,0.7,1.5,0.8s0.5,0.2,0.5,0.2l-0.1,0.1
			c0,0-1.3-0.4-1.5-0.6c-0.2-0.2-0.6-0.4-0.6-0.4v4.6l-1.3-0.1v0.5l2.1,0.2l-0.1-1.4l-0.6-1.6l0.1-0.1l0.8,1.8l0.6,0.9l5.4-2.3v0.1
			l-1,0.4l-0.2,2.2l0.2,0.1v0.3l-1-0.1v-0.3l-1.4-0.2v-1l-0.4,0.4l-1.6,0.8l-0.4-0.6v1.1l-2.8-0.3v-0.8l-1.6-0.2v-1l-1.8-0.2
			l0.1-1.1l-1.2-0.1l0.8-6.3l1.2,1.1c0,0-0.5-1-0.7-1.6s-0.3-1.4-0.3-1.4l0.3-0.6c0,0-0.1,1.2,0.2,2c0.3,0.8,0.7,1.4,0.9,1.8
			c0.2,0.4,1.1,1.1,1.1,1.1s-0.7-1.1-0.8-2c-0.2-1-0.1-2-0.1-2.1s0-0.4,0-0.4h0.2c0,0,0,1.8,0.2,2.4c0.2,0.5,0.1,0.8,0.4,1.3
			s0.5,1.1,0.7,1.3s0.9,0.7,0.9,0.7s-0.8-1.1-1-1.8C104.3,42.3,104.2,42,104.2,41.4L104.2,41.4L104.2,41.4z M101,47.4l0.7-5.2l2,1.7
			l-0.3,3.9L101,47.4L101,47.4L101,47.4z M107.3,48.1l-0.1-0.3l2-0.9l0.5,0.1L107.3,48.1L107.3,48.1L107.3,48.1z M107.7,48.6
			l-0.1-0.3l2.8-1.3h0.8L107.7,48.6L107.7,48.6L107.7,48.6z M107.8,49.2l-0.1-0.3l4.1-1.8h0.9L107.8,49.2L107.8,49.2L107.8,49.2z
			 M112.8,47.4l-4.7,2l0.1,0.3l5.3-2.3H112.8L112.8,47.4L112.8,47.4z M108.4,50.3l-0.1-0.3l5.4-2.4l-0.3,0.5L108.4,50.3L108.4,50.3
			L108.4,50.3z M114.7,51.4l0.1-1.7h0.4l-0.1,1.5l2.3,0.2v-0.8h0.4v1.2l-2.2-0.1v0.2l-1.6-0.1v-0.3L114.7,51.4L114.7,51.4
			L114.7,51.4z M120.3,44c-0.2-1-1.1-1.8-2.2-1.8c-1,0-1.9,0.7-2.2,1.7h-0.4c0.2-1.3,1.4-2.2,2.7-2.2c1.4,0,2.5,1,2.7,2.3H120.3
			L120.3,44L120.3,44z M121.8,44.2c-0.1-1.9-1.7-3.3-3.6-3.3c-1.8,0-3.4,1.4-3.6,3.2h-0.4c0.2-2.1,1.9-3.7,4-3.7
			c2.2,0,3.9,1.7,4.1,3.8H121.8L121.8,44.2L121.8,44.2z M110.8,50.6v-1l1.5-0.6l-0.1,1.8L110.8,50.6L110.8,50.6L110.8,50.6z
			 M105.4,49.4l0.1-4.2l1,0.5v4.5L104,50l0.1-0.6H105.4L105.4,49.4L105.4,49.4z M103.8,48l0.3-3.9l0.5,0.4l0.1-0.1l0.5,0.4V49
			l-2.9-0.3l0.1-0.9L103.8,48L103.8,48L103.8,48z M129.8,37.6c-0.1,0.1-0.1,0.1-0.2,0.2l-23-0.3l-0.1-0.1L129.8,37.6L129.8,37.6
			L129.8,37.6z M118.2,7.1c9.6,0,17.4,7.9,17.4,17.5c0,4-1.4,7.7-3.6,10.7l-0.1-0.5l-8.8-0.1V35l0,0l0.2-0.3l0.2,0.1V35l-0.1,0.2
			l-0.1,0.1h-0.1h-0.1v1.3h0.3V37h0.1l0.1-0.1l0,0v-0.1l0,0h0.1v-0.7c0,0,0.1-0.3,0.5-0.3s0.5,0.3,0.5,0.3v0.7h0.1v0.1h0.1V37
			l0.1,0.1l0.1,0.1h3.6v-0.4h0.2V37h1.6c-0.1,0.1-0.1,0.1-0.2,0.2h-1.4v0.2h1.2c-0.1,0-0.1,0.1-0.2,0.1l-23.7-0.3l-0.1-0.1h1.3v-0.2
			h-1.5c-0.1-0.1-0.1-0.1-0.2-0.2l0,0h1.7v-0.1h0.2V37h3.6l0.2-0.3l0,0v-0.2h0.1v0.1l0,0v-0.7c0,0,0.1-0.3,0.5-0.3s0.5,0.4,0.5,0.4
			v0.7h0.1v-0.1h0.1v0.1c0,0.1,0.1,0.2,0.1,0.2l0,0v-0.1v-0.1l0.1-0.1h0.3v-1.4H113c-0.1-0.1-0.2-0.1-0.2-0.4c0-0.3,0.2-0.3,0.2-0.3
			l0,0l0.1,0.1l0.1,0.1h0.1v-0.1l-0.1-0.1v-0.1v-0.1h-8.9c0,0-0.1,0.4-0.1,0.6c-2.2-2.9-3.4-6.5-3.4-10.4
			C100.8,14.9,108.7,7.1,118.2,7.1L118.2,7.1L118.2,7.1z M97.9,32L97.9,32c0.1,0,0.2,0,0.4,0.6c0.2,0.6,0.3,0.8,0.4,1
			s0.1,0.3,0.1,0.3h-0.1c0,0-0.3-0.4-0.4-0.8c-0.2-0.4-0.3-0.7-0.3-0.8C97.9,32.1,97.9,32.1,97.9,32L97.9,32L97.9,32z M118.2,7.2
			l1.2,3.9h4.1l-3.3,2.4l1.3,3.9l-3.3-2.4l-3.3,2.4l1.3-3.9l-3.3-2.4h4.1L118.2,7.2L118.2,7.2L118.2,7.2z"/>
	</g>
</g>
<g>
	<g class="st3">
		<path class="st0" d="M1.9,108.8V108h6.4v0.8H5.7v6.8H4.4v-6.8H1.9z"/>
		<path class="st0" d="M12.3,112.2h1.3c0-0.9-0.4-1.4-1.4-1.3c-0.8,0-1.3,0.3-1.6,1.1H9.8c0.3-1.2,1.1-1.8,2.6-1.8
			c1.5,0,2.2,0.6,2.2,1.9v3.7h-2.5c-1.5,0-2.3-0.6-2.3-1.7C9.8,112.8,10.6,112.2,12.3,112.2z M13.7,115v-2h-1.4
			c-1.1,0-1.6,0.4-1.6,1.1c0,0.6,0.5,1,1.4,1H13.7z"/>
		<path class="st0" d="M16,115.6l2.1-2.7l-2-2.7h1.4l1.4,2l1.4-2h1.4l-1.9,2.7l2.1,2.7h-1.4l-1.4-2l-1.5,2H16z"/>
		<path class="st0" d="M30.4,114.2v-1c0.8,1.2,1.8,1.8,3.1,1.9c1.2,0,1.8-0.5,1.9-1.4c0-0.8-0.6-1.2-1.8-1.4c-2-0.3-3-1.1-2.9-2.2
			c0-1.3,1-2,2.8-2c1.7,0,2.7,0.8,3,2.2h-1.2c-0.3-1-0.9-1.4-1.8-1.4c-1,0-1.5,0.4-1.5,1.2c0,0.7,0.5,1.1,1.7,1.3c2,0.3,3,1.1,3,2.3
			c0,1.5-1,2.2-3,2.2C32.2,115.8,31.1,115.2,30.4,114.2z"/>
		<path class="st0" d="M38.3,113.7v-3.4h1.2v3.3c0,1,0.4,1.4,1.4,1.4H42v-4.7h1.2v5.5h-2.8C39,115.7,38.2,115.1,38.3,113.7z"/>
		<path class="st0" d="M45.1,115.7V112c0-1.2,0.6-1.8,1.8-1.8h1.8v0.8h-1.4c-0.6,0-1,0.3-1,0.9v3.8H45.1z"/>
		<path class="st0" d="M51.7,115.6l-2.1-5.4h1.3l1.5,4.4l1.5-4.4h1.3l-2.1,5.4H51.7z"/>
		<path class="st0" d="M62,113.3h-4.3c0.1,1.1,0.8,1.7,2,1.7c0.9,0,1.6-0.4,2.2-1.1v0.9c-0.5,0.7-1.4,1-2.5,1c-1.9-0.1-2.9-1-3-2.7
			c0-1.9,1-2.8,2.8-2.9C61.1,110.1,62,111.1,62,113.3z M57.7,112.5h3.1c0-1-0.6-1.5-1.5-1.6C58.3,110.9,57.8,111.4,57.7,112.5z"/>
		<path class="st0" d="M63.5,117.6v-0.7c0.2,0.1,0.5,0.2,0.8,0.2c0.4,0,0.8-0.4,1.1-1l0.3-0.6l-2.3-5.2h1.3l1.5,4l1.4-4h1.3
			l-2.3,5.6c-0.5,1.5-1.3,2.1-2.1,2C64.1,117.9,63.8,117.8,63.5,117.6z"/>
		<path class="st0" d="M77.7,115.6V108h2.5c2.6,0,3.9,1.2,3.9,3.8c0.1,2.7-1.2,3.9-3.9,3.8H77.7z M79,114.9h1.2
			c1.9,0.1,2.8-0.9,2.7-3.1c0-2-0.9-3-2.7-3H79V114.9z"/>
		<path class="st0" d="M88.2,112.2h1.3c0-0.9-0.4-1.4-1.4-1.3c-0.8,0-1.3,0.3-1.6,1.1h-0.9c0.3-1.2,1.1-1.8,2.6-1.8
			c1.5,0,2.2,0.6,2.2,1.9v3.7H88c-1.5,0-2.3-0.6-2.3-1.7C85.7,112.8,86.5,112.2,88.2,112.2z M89.6,115v-2h-1.4
			c-1.1,0-1.6,0.4-1.6,1.1c0,0.6,0.5,1,1.4,1H89.6z"/>
		<path class="st0" d="M92,111v-0.8h0.9V108h1.2v2.2h1.2v0.8h-1.2v3.2c0,0.5,0.2,0.8,0.6,0.8c0.2,0,0.4-0.1,0.7-0.2v0.6
			c-0.3,0.3-0.6,0.4-1.1,0.4c-1,0-1.5-0.5-1.4-1.5V111H92z"/>
		<path class="st0" d="M99.3,112.2h1.3c0-0.9-0.4-1.4-1.4-1.3c-0.8,0-1.3,0.3-1.6,1.1h-0.9c0.3-1.2,1.1-1.8,2.6-1.8
			c1.5,0,2.2,0.6,2.2,1.9v3.7h-2.5c-1.5,0-2.3-0.6-2.3-1.7C96.8,112.8,97.6,112.2,99.3,112.2z M100.7,115v-2h-1.4
			c-1.1,0-1.6,0.4-1.6,1.1c0,0.6,0.5,1,1.4,1H100.7z"/>
		<path class="st0" d="M117.1,108h1.5v7.6h-1.2v-5.7l-2.2,5.6h-1.1l-2.2-5.6v5.7h-1.2V108h1.6l2.3,6.2L117.1,108z"/>
		<path class="st0" d="M122.9,112.2h1.3c0-0.9-0.4-1.4-1.4-1.3c-0.8,0-1.3,0.3-1.6,1.1h-0.9c0.3-1.2,1.1-1.8,2.6-1.8
			c1.5,0,2.2,0.6,2.2,1.9v3.7h-2.5c-1.5,0-2.3-0.6-2.3-1.7C120.4,112.8,121.2,112.2,122.9,112.2z M124.3,115v-2h-1.4
			c-1.1,0-1.6,0.4-1.6,1.1c0,0.6,0.5,1,1.4,1H124.3z"/>
		<path class="st0" d="M127,115.6v-5.5h2.8c1.5,0,2.2,0.7,2.2,2.1v3.4h-1.2v-3.3c0-0.9-0.4-1.4-1.3-1.4h-1.2v4.7H127z"/>
		<path class="st0" d="M136.2,112.2h1.3c0-0.9-0.4-1.4-1.4-1.3c-0.8,0-1.3,0.3-1.6,1.1h-0.9c0.3-1.2,1.1-1.8,2.6-1.8
			c1.5,0,2.2,0.6,2.2,1.9v3.7h-2.5c-1.5,0-2.3-0.6-2.3-1.7C133.6,112.8,134.5,112.2,136.2,112.2z M137.5,115v-2h-1.4
			c-1.1,0-1.6,0.4-1.6,1.1c0,0.6,0.5,1,1.4,1H137.5z"/>
		<path class="st0" d="M140.3,116.9v-0.9c0.7,0.7,1.4,1,2.2,1c1.2,0,1.8-0.5,1.8-1.6H143c-1.9,0-2.9-0.8-2.9-2.5c0-1.8,1-2.8,3-2.8
			h2.5v5.1c0,1.8-0.9,2.6-2.7,2.6C141.8,117.8,140.9,117.5,140.3,116.9z M144.3,114.7v-3.8h-0.9c-1.3,0-1.9,0.7-2,2
			c0,1.2,0.7,1.8,1.9,1.8H144.3z"/>
		<path class="st0" d="M152.8,113.3h-4.3c0.1,1.1,0.8,1.7,2,1.7c0.9,0,1.6-0.4,2.2-1.1v0.9c-0.5,0.7-1.4,1-2.5,1
			c-1.9-0.1-2.9-1-3-2.7c0-1.9,1-2.8,2.8-2.9C151.9,110.1,152.8,111.1,152.8,113.3z M148.5,112.5h3.1c0-1-0.6-1.5-1.5-1.6
			C149.1,110.9,148.6,111.4,148.5,112.5z"/>
		<path class="st0" d="M154.6,115.6v-5.5h6.2c1.4,0,2.1,0.6,2.1,1.8v3.7h-1.2v-3.6c0-0.8-0.4-1.2-1.2-1.2h-1.1v4.7h-1.2v-3.7
			c0-0.7-0.4-1-1.1-1h-1.2v4.7H154.6z"/>
		<path class="st0" d="M170,113.3h-4.3c0.1,1.1,0.8,1.7,2,1.7c0.9,0,1.6-0.4,2.2-1.1v0.9c-0.5,0.7-1.4,1-2.5,1c-1.9-0.1-2.9-1-3-2.7
			c0-1.9,1-2.8,2.8-2.9C169.1,110.1,170,111.1,170,113.3z M165.7,112.5h3.1c0-1-0.6-1.5-1.5-1.6
			C166.4,110.9,165.9,111.4,165.7,112.5z"/>
		<path class="st0" d="M171.8,115.6v-5.5h2.8c1.5,0,2.2,0.7,2.2,2.1v3.4h-1.2v-3.3c0-0.9-0.4-1.4-1.3-1.4H173v4.7H171.8z"/>
		<path class="st0" d="M178.3,111v-0.8h0.9V108h1.2v2.2h1.2v0.8h-1.2v3.2c0,0.5,0.2,0.8,0.6,0.8c0.2,0,0.4-0.1,0.7-0.2v0.6
			c-0.3,0.3-0.6,0.4-1.1,0.4c-1,0-1.5-0.5-1.4-1.5V111H178.3z"/>
		<path class="st0" d="M190.4,114.2v-1c0.8,1.2,1.8,1.8,3.1,1.9c1.2,0,1.8-0.5,1.9-1.4c0-0.8-0.6-1.2-1.8-1.4c-2-0.3-3-1.1-2.9-2.2
			c0-1.3,1-2,2.8-2c1.7,0,2.7,0.8,3,2.2h-1.2c-0.3-1-0.9-1.4-1.8-1.4c-1,0-1.5,0.4-1.5,1.2c0,0.7,0.5,1.1,1.7,1.3c2,0.3,3,1.1,3,2.3
			c0,1.5-1,2.2-3,2.2C192.2,115.8,191.1,115.2,190.4,114.2z"/>
		<path class="st0" d="M198.1,117.6v-0.7c0.2,0.1,0.5,0.2,0.8,0.2c0.4,0,0.8-0.4,1.1-1l0.3-0.6l-2.3-5.2h1.3l1.5,4l1.4-4h1.3
			l-2.3,5.6c-0.5,1.5-1.3,2.1-2.1,2C198.7,117.9,198.3,117.8,198.1,117.6z"/>
		<path class="st0" d="M204.6,114.7v-0.9c0.7,0.8,1.5,1.3,2.5,1.3c0.8,0,1.3-0.3,1.2-0.8c0-0.5-0.4-0.8-1.2-0.9
			c-1.5-0.3-2.3-0.8-2.3-1.7c0.1-1,0.8-1.5,2.2-1.5c1.3,0,2.1,0.6,2.4,1.6h-1.1c-0.1-0.5-0.5-0.8-1.2-0.8c-0.7,0-1.1,0.2-1.1,0.7
			c0,0.5,0.4,0.8,1.4,0.9c1.4,0.2,2.1,0.8,2.2,1.7c0,1-0.8,1.5-2.4,1.5C206.2,115.8,205.3,115.4,204.6,114.7z"/>
		<path class="st0" d="M210.9,111v-0.8h0.9V108h1.2v2.2h1.2v0.8H213v3.2c0,0.5,0.2,0.8,0.6,0.8c0.2,0,0.4-0.1,0.7-0.2v0.6
			c-0.3,0.3-0.6,0.4-1.1,0.4c-1,0-1.5-0.5-1.4-1.5V111H210.9z"/>
		<path class="st0" d="M221.2,113.3h-4.3c0.1,1.1,0.8,1.7,2,1.7c0.9,0,1.6-0.4,2.2-1.1v0.9c-0.5,0.7-1.4,1-2.5,1
			c-1.9-0.1-2.9-1-3-2.7c0-1.9,1-2.8,2.8-2.9C220.3,110.1,221.2,111.1,221.2,113.3z M216.9,112.5h3.1c0-1-0.6-1.5-1.5-1.6
			C217.5,110.9,217,111.4,216.9,112.5z"/>
		<path class="st0" d="M223,115.6v-5.5h6.2c1.4,0,2.1,0.6,2.1,1.8v3.7H230v-3.6c0-0.8-0.4-1.2-1.2-1.2h-1.1v4.7h-1.2v-3.7
			c0-0.7-0.4-1-1.1-1h-1.2v4.7H223z"/>
	</g>
	<g class="st3">
		<path class="st0" d="M2.2,93.1v-2.6h2.3v-2.2H2.3v-2.5h4c1,0,2.1-0.2,3.5-0.5v2.6c-0.6,0.2-1.2,0.3-1.9,0.4v2.3h1.9v2.6H8
			c0.3,1.1,0.9,2.4,1.8,3.8v3.5C9.1,99.7,8.5,98.9,8,98v7.7H4.5v-6.4c-0.7,1.1-1.4,2.2-2.4,3.2V99c1-2.1,1.7-4,2.3-5.9H2.2z
			 M21.5,85.2c-0.1,0.8-0.2,1.5-0.5,2h1.4v6.5c0.1,2.2-0.8,3.3-2.7,3.4v5.3c0,0.6,0.2,0.9,0.6,0.8h0.3c0.4,0,0.5-0.3,0.5-0.8v-0.7
			h2.3v1.4c0.1,1.8-0.8,2.6-2.4,2.5h-2.2c-1.7,0-2.5-1-2.5-2.9v-5.6h-0.8c0.3,4.5-1.9,7.5-6.5,9v-2.4c2.2-1.3,3.2-3.5,3.1-6.5h-1.7
			v-10h1.4c-0.2-0.6-0.4-1.3-0.5-2.1h3.4c0.1,0.7,0.2,1.4,0.5,2.1h2.6c0.2-0.6,0.3-1.3,0.4-2H21.5z M18.8,89.7h-4.9v4.9h3.8
			c0.8,0.1,1.1-0.3,1.1-1.2V89.7z"/>
		<path class="st0" d="M29.3,98.8c0.4-0.1,0.7-0.2,1.1-0.3V85.1h3.4v20.7h-3.4v-4.3c-1.3,0.4-2.7,0.8-4.3,1V87h3.3V98.8z M34.1,93.1
			v-2.4c1.3-1.1,2.1-3,2.4-5.6h3.6c-0.1,0.2-0.1,0.6-0.2,1.1c-0.1,0.3-0.2,0.5-0.2,0.7h6.6v2.6H45c-0.1,4.8-1,8.4-2.7,10.7
			c1,1.1,2.4,2.1,4,3.1v2.4c-2.7-1.1-4.7-2.3-6-3.4c-1.4,1.2-3.4,2.4-5.8,3.5v-2.4c1.8-1.1,3-2.2,3.9-3.3c-1.4-1.9-2.5-4.4-3.1-7.5
			c-0.1,0.1-0.3,0.1-0.5,0.2C34.5,93,34.2,93.1,34.1,93.1z M40.2,97.3c0.8-1.6,1.2-4.2,1.3-7.7h-2.7c-0.5,0.8-1.1,1.4-1.7,2h1.5
			C38.9,93.8,39.5,95.7,40.2,97.3z"/>
		<path class="st0" d="M53.1,99.7c0.1-0.1,0.3-0.2,0.5-0.4c0.2-0.1,0.4-0.2,0.5-0.3v2.5c-1.1,1.2-2.6,2.2-4.4,3v-11h-1.3v-2.4h4.6
			V99.7z M52.1,85.3c0.8,1.4,1.3,2.9,1.6,4.5h-3.4c-0.1-1.6-0.5-3.1-1.3-4.5H52.1z M58,88.2v10.2c0.2,3.8-1.1,6.4-4.2,7.7v-2.4
			c0.6-0.8,0.9-2.3,0.8-4.5V85.6H69v17c0.1,2.2-1,3.2-3.3,3.1h-1.4v-2.3h0.3c0.7,0.1,1.1-0.3,1-1V88.2H58z M65.1,95.8h-6.6v-2.4h1.8
			V92h-1.6v-2.4h1.6v-1h3v1h1.6V92h-1.6v1.4h1.8V95.8z M65,96.7v4.3c0.1,1.8-0.8,2.6-2.6,2.5h-3.7v-6.8H65z M61,98.9v2.4h0.8
			c0.5,0,0.8-0.2,0.7-0.7v-1.6H61z"/>
		<path class="st0" d="M72.2,88.9v-2.5h8.1v-1.4h4v1.4h8.2v2.5h-3.9c0.6,1.4,2,2.6,4.1,3.4v2.4c-0.8-0.2-1.5-0.4-2.1-0.5v4.2
			c0.1,2.3-1,3.4-3.2,3.4H74.1V94c-0.6,0.2-1.3,0.5-2.2,0.6v-2.4c2.1-0.8,3.5-2,4.1-3.4H72.2z M72,105.2v-2.4h20.6v2.4H72z
			 M80.2,92.1v-3.3H80c-0.7,1.7-1.7,3-3.2,3.9h10.9c-1.4-0.9-2.4-2.2-3.2-3.9h-0.3v3.3H80.2z M77.9,95.2v1h8.7v-1H77.9z M85.6,99.3
			c0.7,0.1,1.1-0.3,1-1.1h-8.7v1.1H85.6z"/>
		<path class="st0" d="M95,99.2v-2.5h1.2v-1.2h3.1v1.2h3.2v-1.2h3.1v1.2h1.1v2.5h-1.2c-0.1,1.6-0.7,2.9-1.8,3.9
			c0.1,0,0.3,0.1,0.5,0.2c0.7,0.2,1.3,0.3,1.7,0.4v2.3c-2.1-0.4-3.7-0.8-5-1.4c-1.6,0.5-3.6,1-6,1.4v-2.3c1.3-0.1,2.3-0.3,3.1-0.6
			c-0.9-1-1.4-2.3-1.6-3.8H95z M116,87.4V90h-1c-0.1,4.7-0.8,8.2-2.4,10.4c0.7,0.9,1.7,1.9,3.1,3v2.6c-2.2-1.3-3.9-2.5-4.9-3.4
			c-1.3,1.1-2.8,2.2-4.7,3.4v-2.5c1.2-1.1,2.2-2.1,2.9-3.1c-1.1-1.9-1.9-4.3-2.4-7.4c-0.2,0-0.4,0.1-0.5,0.2v-1.4h-1.3
			c0.3,0.8,0.8,1.5,1.5,2.1v2c-2.1-0.7-3.4-1.9-4-3.6v3h-3.2v-3c-0.7,1.6-2,2.8-4,3.6v-2c0.7-0.6,1.2-1.3,1.5-2.1h-1.5v-2.5h4v-4.1
			h3.2v4.1h3.8v1.4c1.1-1,1.7-2.9,1.9-5.5h3.4c-0.1,0.8-0.3,1.6-0.5,2.4H116z M95.4,85.5h2.7c0.1,1.1,0.3,2.2,0.7,3.2h-2.6
			C95.7,87.6,95.4,86.6,95.4,85.5z M100.7,101.7c0.9-0.6,1.4-1.4,1.5-2.5h-2.9C99.5,100.4,100,101.2,100.7,101.7z M106.3,85.5
			c-0.1,1.1-0.3,2.2-0.7,3.2H103c0.2-0.7,0.5-1.7,0.6-3c-0.1,0.1-0.1,0.1,0-0.2H106.3z M109.8,91.5c0.2,2.1,0.5,3.9,1,5.3
			c0.5-1.7,0.9-4,1-6.9h-1.6c-0.4,0.6-0.8,1.1-1.4,1.5H109.8z"/>
		<path class="st0" d="M119.7,85.1h3.4v2.6h1.2v2.4h-1.2v4.1c0.4-0.1,0.8-0.2,1.2-0.4v2.4c-0.1,0.1-0.2,0.1-0.4,0.2
			c-0.2,0.1-0.5,0.2-0.8,0.3v6c0,1.9-1,2.9-2.9,2.9h-1.8v-2.3h0.5c0.6,0.1,0.9-0.3,0.8-1v-4.6c-0.5,0.1-1,0.2-1.5,0.3v-3
			c0.5,0,1.1-0.1,1.5-0.2v-4.7h-1.4v-2.4h1.4V85.1z M128.1,105.4v-7.4h3.4v-1.8h-3.4v0.6c0.2,4.2-1.4,7.2-4.7,9.1v-2.4
			c1-1.5,1.4-3.5,1.4-6.1V85.8h13.9v3.4c0.1,2.1-0.8,3-2.7,2.9h-1.2v1.6h4.3v2.4h-4.3v1.8h3.5v4.5c0.1,2.1-0.9,3-3,2.9H128.1z
			 M128.1,88.2v1.5h6.7c0.5,0,0.8-0.3,0.8-0.8v-0.7H128.1z M128.1,92.1v1.6h3.4v-1.6H128.1z M131.2,100.2v3h3.1c0.7,0.1,1-0.3,0.9-1
			v-2H131.2z"/>
		<path class="st0" d="M141.6,90.1v-1.8c1.2-0.7,1.9-1.8,2.2-3.3h3.4c-0.1,0.4-0.2,0.6-0.3,0.8h5v2.3h-2.4c0,0.1,0.1,0.3,0.2,0.6
			c0.1,0.4,0.1,0.6,0.2,0.8h1.7v-1.2c1.1-0.6,1.8-1.7,1.9-3.4h3.4c0,0.1,0,0.2-0.1,0.4c0,0.2,0,0.4-0.1,0.5h5.4v2.3h-2.6
			c0,0.2,0.1,0.4,0.2,0.7c0.1,0.4,0.1,0.8,0.2,1h-3c-0.1-0.6-0.2-1.2-0.4-1.7h-0.8c-0.4,0.7-1.1,1.2-1.9,1.5v0.8h8.1V94h-2.2v2.2
			c0.1,2-0.8,3-2.6,2.9h-9.7v0.9h13.1v2.6c0.1,2-0.9,3-2.9,2.9h-14V94h-1.9v-3.4h7.9v-0.6h-2.7c-0.1-0.2-0.1-0.6-0.2-1
			c-0.1-0.3-0.2-0.5-0.2-0.7h-0.7C145,89.1,143.6,89.8,141.6,90.1z M145.5,92.8v0.9h12.6v-0.9H145.5z M156,95.8h-8.6v1.2h7.9
			c0.5,0,0.8-0.2,0.7-0.7V95.8z M156.9,102h-9.4v1.4h8.6c0.6,0.1,0.9-0.2,0.8-0.7V102z"/>
		<path class="st0" d="M171.9,101v-2.5h4.6v-1.5h-4.6V85.6h13v8.2c0.1,2.2-1,3.2-3.2,3.2h-1.5v1.5h4.7v2.5h-4.7v1.7h5.5v2.4h-14.8
			v-2c-2,0.5-4.1,1-6.3,1.3v-2.9c0.2,0,0.6,0,1-0.1c0.4,0,0.6,0,0.8,0v-5.9h-1.5V93h1.5v-4.5h-1.6v-2.5h6.6v2.5h-1.4V93h1.4v2.5
			h-1.4v5.3c0.2-0.1,0.5-0.1,0.8-0.2c0.3-0.1,0.5-0.2,0.7-0.2v2.4h5.1V101H171.9z M175.1,88.2V90h1.4v-1.7H175.1z M175.1,92.5v1.9
			h1.4v-1.9H175.1z M181.6,88.2h-1.4V90h1.4V88.2z M180.3,94.4c0.8,0,1.3-0.4,1.3-1.2v-0.7h-1.4v1.9H180.3z"/>
		<path class="st0" d="M191.4,99.3h3.8c-1,3.3-3.5,5.3-7.4,5.9v-2C189.6,102.4,190.8,101.1,191.4,99.3z M188.6,86H201
			c2.5,0,4.8-0.2,7.1-0.7v2.8c-2.2,0.5-4.4,0.8-6.4,0.7h-1.1c-1.6,1-3.2,1.7-4.8,2.3c1.9,0,3.4-0.1,4.5-0.2c0.5-0.3,1.1-0.6,1.6-1
			h5.8c-3.5,2.6-7.4,4.7-11.8,6.2c2.7,0,5.3-0.1,7.8-0.3c-0.2-0.7-0.5-1.4-0.8-2.2h3.3c1,2,1.6,3.8,1.9,5.5h-3.5c0-0.1,0-0.3,0-0.5
			c-0.1-0.2-0.1-0.3-0.1-0.4c-0.4,0-1.1,0-2,0.1c-0.9,0-1.6,0-2.1,0.1v4.3c0,2.1-1.1,3.1-3.2,3.1h-2.5v-2.4h0.8
			c0.6,0,0.9-0.3,0.9-0.9v-3.9c-0.5,0-1.2,0-2.2,0c-2.1,0.1-3.8,0.1-5.2,0v-2.6c2.1-0.7,4.3-1.5,6.4-2.5c-1.8,0.1-3.7,0.1-5.9,0.1
			v-2.4c1.8-0.6,3.5-1.4,5.2-2.3h-6.2V86z M204.9,99.3c0.6,1.8,1.8,3.1,3.6,3.9v2c-3.9-0.6-6.4-2.6-7.4-5.9H204.9z"/>
		<path class="st0" d="M218.7,89.3c-0.7,3.1-2.1,5.7-4.3,8c1.2,0,2.4-0.1,3.7-0.4v2.4c-1.9,0.5-4.2,0.7-6.9,0.6v-2.7
			c1.1-1.1,2-2.2,2.6-3.4c-0.9,0.1-1.9,0.2-3,0.1v-2.5c1.1-1.8,1.9-3.9,2.3-6.3h3.4c-0.4,2.3-1.4,4.4-2.8,6.3c0.4,0,0.8,0,1.3-0.1
			c0.2-0.6,0.5-1.3,0.6-2H218.7z M218.1,89.2v-2.5h4.8v-1.5h4v1.5h4.7v2.5h-5.9c-1,1.8-2.1,3.2-3.4,4.2c2.5,0,4.3-0.1,5.6-0.2
			c-0.2-0.8-0.6-1.6-1-2.5h3c1,1.9,1.6,3.8,2,5.8h-3.1c-0.1-0.4-0.2-0.6-0.2-0.8H228v6.5c0,0.6,0.3,0.9,0.8,0.9
			c0.5,0,0.7-0.3,0.7-0.9v-1h2.4v1.9c0,1.6-0.8,2.4-2.5,2.4h-1.9c-1.9,0.1-2.9-0.8-2.8-2.6v-6.8c-0.1,0-0.3,0-0.5,0.1
			c-0.2,0-0.4,0-0.5,0v1.8c0.2,3.7-1.8,6.4-6.1,8.1v-2.4c0.2-0.1,0.4-0.3,0.5-0.5c-2.1,0.6-4.5,0.9-7.2,0.9v-2.5
			c2.8,0.1,5.3-0.2,7.4-0.7v2.2c1.3-1.2,2-3,1.9-5.3v-1.5h-1.8v-2.8c1.3-1.2,2.3-2.6,3.1-4.2H218.1z"/>
	</g>
</g>
</svg>
