<?xml version="1.0" encoding="utf-8"?>
<!-- Generator: Adobe Illustrator 21.0.0, SVG Export Plug-In . SVG Version: 6.00 Build 0)  -->
<svg version="1.1" id="图层_1" xmlns="http://www.w3.org/2000/svg" xmlns:xlink="http://www.w3.org/1999/xlink" x="0px" y="0px"
	 viewBox="0 0 120 120" style="enable-background:new 0 0 120 120;" xml:space="preserve">
<style type="text/css">
	.st0{fill:#EAEAEA;}
	.st1{fill:#FFFFFF;stroke:#DCDCDC;stroke-width:2;}
	.st2{fill:none;stroke:#DCDCDC;stroke-width:2;}
</style>
<g transform="translate(9 41.639344)">
	<path class="st0" d="M9.5,21.2H94l7.5,42.4H0L9.5,21.2z"/>
	<g>
		<path class="st1" d="M101.9,62.4c-0.9,1.2-2.3,1.9-3.9,1.9H5c-1.6,0-3.1-0.8-4-2l0,0.1v-0.2c-0.6-0.8-1-1.8-1-3V36.9
			c0-1.1,0.4-2.2,1-3L8.7,6C9,5,9.3,4.4,9.5,4.2C10.1,2,12,0.4,14.4,0.4h75c1.4,0,2.6,0.5,3.5,1.4l0-0.6l0.2,0.9
			c0.8,0.9,1.2,2,1.2,3.3v1.2l7.5,27.1c0.7,0.9,1.2,2,1.2,3.2v22.5C103,60.5,102.6,61.6,101.9,62.4L101.9,62.4L101.9,62.4z
			 M94.9,31.9H8l2.1-9.1h82.7L94.9,31.9z"/>
		<path class="st2" d="M51.1,39.1L51.1,39.1c9.9,0,18,1.3,18,2.9l0,0c0,1.6-8.1,2.9-18,2.9l0,0c-9.9,0-18-1.3-18-2.9l0,0
			C33.1,40.4,41.2,39.1,51.1,39.1z"/>
	</g>
</g>
</svg>
