<?xml version="1.0" encoding="utf-8"?>
<!-- Generator: Adobe Illustrator 21.0.0, SVG Export Plug-In . SVG Version: 6.00 Build 0)  -->
<svg version="1.1" id="图层_1" xmlns="http://www.w3.org/2000/svg" xmlns:xlink="http://www.w3.org/1999/xlink" x="0px" y="0px"
	 viewBox="0 0 205 40" style="enable-background:new 0 0 205 40;" xml:space="preserve">
<style type="text/css">
	.st0{fill:#D6D6D6;}
	.st1{fill:url(#SVGID_1_);}
	.st2{fill:url(#SVGID_2_);}
</style>
<g>
	<g>
		<path class="st0" d="M50.2,28.9H49c-0.3-1-0.9-1.6-1.9-1.6c-1.5,0.1-2.2,1.2-2.3,3.1c0.1,1.9,0.9,3,2.6,3.1c1.1,0,2.1-0.6,2.9-1.9
			v1.1c-0.7,1-1.7,1.6-3.2,1.5c-2.2-0.1-3.4-1.4-3.5-3.9c0.1-2.5,1.3-3.8,3.5-3.9C48.7,26.5,49.7,27.3,50.2,28.9z"/>
		<path class="st0" d="M50.7,32.2v-3.4h1.2v3.3c0,1,0.4,1.4,1.4,1.4h1.1v-4.7h1.2v5.4h-2.8C51.3,34.2,50.6,33.6,50.7,32.2z"/>
		<path class="st0" d="M56.1,33.2v-0.9c0.7,0.8,1.5,1.3,2.4,1.3c0.8,0,1.2-0.3,1.2-0.8s-0.4-0.8-1.2-0.9c-1.5-0.3-2.3-0.8-2.3-1.7
			c0.1-1,0.8-1.4,2.2-1.5c1.3,0,2.1,0.6,2.3,1.6h-1.1c-0.1-0.5-0.5-0.8-1.1-0.8c-0.7,0-1,0.2-1,0.7s0.4,0.8,1.4,0.9
			c1.4,0.2,2.1,0.8,2.2,1.7c0,1-0.8,1.5-2.4,1.5C57.6,34.3,56.8,33.9,56.1,33.2z"/>
		<path class="st0" d="M61.2,29.6v-0.8h0.9v-2.2h1.2v2.2h1.2v0.8h-1.2v3.1c0,0.5,0.2,0.8,0.6,0.8c0.2,0,0.4-0.1,0.7-0.2v0.6
			c-0.3,0.3-0.6,0.4-1.1,0.4c-1,0-1.4-0.5-1.4-1.5v-3.2C62.1,29.6,61.2,29.6,61.2,29.6z"/>
		<path class="st0" d="M67.6,34.3c-1.7-0.1-2.6-1-2.7-2.7c0.1-1.8,1-2.8,2.8-2.9c1.7,0.1,2.6,1,2.7,2.8
			C70.3,33.3,69.4,34.2,67.6,34.3z M67.6,33.5c1,0,1.5-0.7,1.5-2s-0.5-2-1.5-2.1c-1,0-1.5,0.7-1.5,2.1
			C66.1,32.8,66.6,33.5,67.6,33.5z"/>
		<path class="st0" d="M71,34.1v-5.5h6.1c1.4,0,2.1,0.6,2.1,1.8v3.7H78v-3.5c0-0.8-0.4-1.1-1.2-1.1h-1v4.7h-1.2v-3.7
			c0-0.7-0.3-1-1-1h-1.2v4.7L71,34.1L71,34.1z"/>
		<path class="st0" d="M79.8,27.7v-1.1H81v1.1H79.8z M79.8,34.1v-5.3H81v5.3H79.8z"/>
		<path class="st0" d="M81.6,34.1v-0.7l3.3-3.8h-3.2v-0.8h4.7v0.8l-3.3,3.8h3.4v0.7H81.6z"/>
		<path class="st0" d="M92.3,31.8h-4.2c0.1,1.1,0.8,1.7,1.9,1.7c0.9,0,1.6-0.4,2.2-1.1v0.9c-0.5,0.6-1.4,1-2.5,1
			c-1.9-0.1-2.9-1-2.9-2.7c0-1.9,1-2.8,2.7-2.9C91.4,28.6,92.3,29.7,92.3,31.8z M88.1,31h3c0-1-0.6-1.5-1.5-1.6
			C88.7,29.5,88.2,30,88.1,31z"/>
		<path class="st0" d="M95.7,28.7h1.1v-2.5H98v8.1h-2.3c-1.9,0-2.9-0.9-2.9-2.7C92.9,29.6,93.8,28.7,95.7,28.7z M96.8,33.5v-4h-0.9
			c-1.3,0-1.9,0.7-1.9,2.1c0,1.3,0.6,2,1.9,2L96.8,33.5L96.8,33.5z"/>
		<path class="st0" d="M101,34.1l3-7.5h1.5l3,7.5h-1.3l-0.8-2h-3.3l-0.8,2H101z M104.7,27.8l-1.4,3.5h2.7L104.7,27.8z"/>
		<path class="st0" d="M108.7,34.1v-5.5h2.7c1.5,0,2.2,0.7,2.2,2.1v3.4h-1.1v-3.3c0-0.9-0.4-1.4-1.3-1.4H110v4.7H108.7z"/>
		<path class="st0" d="M116.7,30.7h1.3c0-0.9-0.4-1.4-1.4-1.3c-0.8,0-1.3,0.3-1.6,1h-0.9c0.3-1.2,1.1-1.8,2.5-1.8
			c1.5,0,2.2,0.6,2.2,1.9v3.7h-2.3c-1.5,0-2.3-0.6-2.3-1.6C114.2,31.3,115,30.7,116.7,30.7z M118,33.5v-2h-1.4c-1,0-1.6,0.3-1.6,1
			c0,0.6,0.5,1,1.4,1H118z"/>
		<path class="st0" d="M119.8,34.1v-7.9h1.2v7.9H119.8z"/>
		<path class="st0" d="M121.5,36.1v-0.7c0.2,0.1,0.5,0.2,0.8,0.2c0.4,0,0.8-0.3,1-1l0.3-0.6l-2.3-5.2h1.3l1.5,3.9l1.4-3.9h1.3
			l-2.3,5.5c-0.5,1.4-1.2,2.1-2.1,2C122.1,36.4,121.7,36.3,121.5,36.1z"/>
		<path class="st0" d="M126.9,33.2v-0.9c0.7,0.8,1.5,1.3,2.4,1.3c0.8,0,1.2-0.3,1.2-0.8s-0.4-0.8-1.2-0.9c-1.5-0.3-2.3-0.8-2.3-1.7
			c0.1-1,0.8-1.4,2.2-1.5c1.3,0,2.1,0.6,2.3,1.6h-1.1c-0.1-0.5-0.5-0.8-1.1-0.8c-0.7,0-1,0.2-1,0.7s0.4,0.8,1.4,0.9
			c1.4,0.2,2.1,0.8,2.2,1.7c0,1-0.8,1.5-2.4,1.5C128.4,34.3,127.6,33.9,126.9,33.2z"/>
		<path class="st0" d="M137.6,31.8h-4.2c0.1,1.1,0.8,1.7,1.9,1.7c0.9,0,1.6-0.4,2.2-1.1v0.9c-0.5,0.6-1.4,1-2.5,1
			c-1.9-0.1-2.9-1-2.9-2.7c0-1.9,1-2.8,2.7-2.9C136.7,28.6,137.7,29.7,137.6,31.8z M133.4,31h3c0-1-0.6-1.5-1.5-1.6
			C134,29.5,133.5,30,133.4,31z"/>
		<path class="st0" d="M138.1,33.2v-0.9c0.7,0.8,1.5,1.3,2.4,1.3c0.8,0,1.2-0.3,1.2-0.8s-0.4-0.8-1.2-0.9c-1.5-0.3-2.3-0.8-2.3-1.7
			c0.1-1,0.8-1.4,2.2-1.5c1.3,0,2.1,0.6,2.3,1.6h-1.1c-0.1-0.5-0.5-0.8-1.1-0.8c-0.7,0-1,0.2-1,0.7s0.4,0.8,1.4,0.9
			c1.4,0.2,2.1,0.8,2.2,1.7c0,1-0.8,1.5-2.4,1.5C139.6,34.3,138.8,33.9,138.1,33.2z"/>
		<path class="st0" d="M148.5,30.7h1.3c0-0.9-0.4-1.4-1.4-1.3c-0.8,0-1.3,0.3-1.6,1h-0.9c0.3-1.2,1.1-1.8,2.5-1.8
			c1.5,0,2.2,0.6,2.2,1.9v3.7h-2.4c-1.5,0-2.3-0.6-2.3-1.6C145.9,31.3,146.8,30.7,148.5,30.7z M149.8,33.5v-2h-1.4
			c-1,0-1.6,0.3-1.6,1c0,0.6,0.5,1,1.4,1H149.8z"/>
		<path class="st0" d="M151.3,33.2v-0.9c0.7,0.8,1.5,1.3,2.4,1.3c0.8,0,1.2-0.3,1.2-0.8s-0.4-0.8-1.2-0.9c-1.5-0.3-2.3-0.8-2.3-1.7
			c0.1-1,0.8-1.4,2.2-1.5c1.3,0,2.1,0.6,2.3,1.6h-1.1c-0.1-0.5-0.5-0.8-1.1-0.8c-0.7,0-1,0.2-1,0.7s0.4,0.8,1.4,0.9
			c1.4,0.2,2.1,0.8,2.2,1.7c0,1-0.8,1.5-2.4,1.5C152.8,34.3,151.9,33.9,151.3,33.2z"/>
		<path class="st0" d="M161.6,30.7h1.3c0-0.9-0.4-1.4-1.4-1.3c-0.8,0-1.3,0.3-1.6,1H159c0.3-1.2,1.1-1.8,2.5-1.8
			c1.5,0,2.2,0.6,2.2,1.9v3.7h-2.4c-1.5,0-2.3-0.6-2.3-1.6C159.1,31.3,159.9,30.7,161.6,30.7z M162.9,33.5v-2h-1.4
			c-1,0-1.6,0.3-1.6,1c0,0.6,0.5,1,1.4,1H162.9z"/>
		<path class="st0" d="M167.1,32.7v-1c0.8,1.2,1.8,1.8,3,1.8s1.8-0.5,1.8-1.4c0-0.7-0.6-1.2-1.8-1.4c-2-0.3-2.9-1-2.9-2.2
			c0-1.3,1-2,2.7-2s2.7,0.7,3,2.2h-1.2c-0.3-1-0.9-1.4-1.8-1.4c-1,0-1.5,0.4-1.5,1.2c0,0.7,0.5,1.1,1.7,1.3c2,0.3,3,1.1,3,2.3
			c0,1.4-1,2.2-2.9,2.2C168.8,34.3,167.7,33.7,167.1,32.7z"/>
		<path class="st0" d="M179.1,31.8h-4.2c0.1,1.1,0.8,1.7,1.9,1.7c0.9,0,1.6-0.4,2.2-1.1v0.9c-0.5,0.6-1.4,1-2.5,1
			c-1.9-0.1-2.9-1-2.9-2.7c0-1.9,1-2.8,2.7-2.9C178.2,28.6,179.1,29.7,179.1,31.8z M174.9,31h3c0-1-0.6-1.5-1.5-1.6
			C175.5,29.5,175,30,174.9,31z"/>
		<path class="st0" d="M179.8,34.2v-3.7c0-1.2,0.6-1.8,1.8-1.8h1.7v0.8h-1.4c-0.6,0-1,0.3-1,0.9v3.8
			C180.9,34.2,179.8,34.2,179.8,34.2z"/>
		<path class="st0" d="M185.3,34.1l-2.1-5.3h1.3l1.5,4.3l1.5-4.3h1.3l-2.1,5.3H185.3z"/>
		<path class="st0" d="M189.1,27.7v-1.1h1.2v1.1H189.1z M189.1,34.1v-5.3h1.2v5.3H189.1z"/>
		<path class="st0" d="M196.4,30.5h-1.2c-0.2-0.7-0.7-1-1.4-1c-1,0.1-1.4,0.8-1.5,2.1c0,1.3,0.6,2,1.9,2c0.8,0,1.5-0.4,2.2-1.3v1
			c-0.5,0.7-1.4,1-2.5,1c-1.8-0.1-2.7-1-2.8-2.7c0.1-1.8,1-2.8,2.7-2.9C195.2,28.7,196,29.3,196.4,30.5z"/>
		<path class="st0" d="M202.3,31.8h-4.2c0.1,1.1,0.8,1.7,1.9,1.7c0.9,0,1.6-0.4,2.2-1.1v0.9c-0.5,0.6-1.4,1-2.5,1
			c-1.9-0.1-2.9-1-2.9-2.7c0-1.9,1-2.8,2.7-2.9C201.4,28.6,202.3,29.7,202.3,31.8z M198.1,31h3c0-1-0.6-1.5-1.5-1.6
			C198.7,29.5,198.2,30,198.1,31z"/>
	</g>
	<path class="st0" d="M160.9,5.9V3.7H180V6h-7.8v8.5h8.7v2.4h-8.7v7h-3.7v-7h-8.8v-2.4h8.8V6L160.9,5.9L160.9,5.9z M163.5,12.7
		c-0.8-1.5-1.4-3.2-1.7-5h3.5c0.3,1.8,0.7,3.5,1.4,5H163.5z M174.3,12.7c0.8-1.8,1.2-3.5,1.4-5h3.5c-0.4,1.9-0.9,3.6-1.8,5H174.3z"
		/>
	<g>
		<path class="st0" d="M184.7,23.6h13.6c2.4,0.1,3.4-1,3.4-3.3v-6.2h-17V23.6z M188,16.6h10.1v3.6c0.1,0.9-0.4,1.4-1.3,1.3h-8.9
			L188,16.6L188,16.6z"/>
		<path class="st0" d="M202.4,10.3c-0.1-0.2-0.2-0.4-0.2-0.6c-0.5-1.2-1.1-2.4-1.8-3.5H197c0.6,0.9,1.6,3.1,1.8,3.5h-10.7
			c2.3-2,3.1-3.4,4.6-5.7h-3.9c-1.2,2-2.4,3.3-4.4,5c-0.5,0.4-0.7,0.9-0.7,1.5v0.7c0,0.6,0.5,1.1,1.1,1.1h14.9h1.2
			C202.1,12.4,202.8,11.3,202.4,10.3z"/>
	</g>
	<g>
		<path class="st0" d="M43.4,23.9V5.7h5.3c0.2-0.5,0.4-1.2,0.5-2h4.6c-0.2,0.8-0.4,1.4-0.5,2h8v14.4c0.1,2.6-1.1,3.9-3.6,3.8
			C57.7,23.9,43.4,23.9,43.4,23.9z M57.3,8.4h-9.8v2.4h9.8V8.4z M47.5,13.5v2.6h9.8v-2.6H47.5z M56,21.5c0.9,0,1.3-0.5,1.3-1.4v-1.4
			h-9.8v2.7L56,21.5L56,21.5z"/>
		<path class="st0" d="M66.4,12.6V9.9h18.7v2.7h-6.9V15h6.3v2.6h-6.3v3.6h7.9v2.5h-9.2c-3.2,0.1-5.6-0.8-7.2-2.5
			c-1,1.1-2.4,1.7-4.4,2.6v-2.4c1.8-1.8,2.7-4.1,2.7-7.6h3.9c-0.1,1.6-0.3,3-0.6,4.3c0.7,1.1,1.7,2,2.8,2.5v-8.2h-7.7
			C66.4,12.4,66.4,12.6,66.4,12.6z M85.6,4.9v4.3h-3.8V7.6H69.5v1.6h-3.9V4.9h7.7V3.7H78v1.2H85.6z"/>
		<path class="st0" d="M94.1,4.8c1.2,4.7,2.8,8.1,4.7,10.2c1.9-2.1,3.5-5.5,4.7-10.2h4.3c-1.5,5.8-3.7,10-6.4,12.6
			c1.8,1.4,4.4,2.7,7.9,3.9v2.5c-4.8-1.4-8.3-2.9-10.4-4.3c-2.1,1.4-5.5,2.9-10.4,4.3v-2.5c3.5-1.1,6.1-2.4,7.9-3.9
			c-2.8-2.6-4.9-6.8-6.4-12.6C90,4.8,94.1,4.8,94.1,4.8z M99.7,3.7c0.6,1.6,1,3,1.4,4.6h-3.8c-0.1-1.3-0.4-2.7-1-4.6
			C96.3,3.7,99.7,3.7,99.7,3.7z"/>
		<path class="st0" d="M132.4,13.9c-0.4-0.2-1-0.4-1.8-0.7c-0.5-0.2-0.9-0.4-1.2-0.5v7.8c0.1,2.3-1.1,3.4-3.6,3.4h-3.4v-2.5h1.8
			c0.8,0.1,1.1-0.3,1.1-1.2v-5.7h-4c-0.2,5-3.2,7.9-9.1,9.5v-2.3c3.4-1.8,5.1-3.9,5.1-7.2h-2.4v-1.9c-0.9,0.5-2,1-3.3,1.4v-2.5
			c3-1.6,4.8-4.2,5.4-7.6h4.2c-0.9,3.8-2.6,6.4-5.1,7.9h11.8c-2.5-1.4-4.2-4.1-5.1-7.9h4.2c0.7,3.4,2.5,6,5.4,7.6V13.9z"/>
		<path class="st0" d="M134.8,8.7V6.1h2.2V3.7h3.7v2.4h1.9v2.6h-1.9v0.1c0.3,1.6,0.9,2.7,1.8,4.2v3.7c-0.7-0.7-1.3-1.5-1.8-2.4v9.4
			H137v-8.1c-0.8,1.5-1.6,2.8-2.5,3.8v-4c1.1-2.4,1.9-4.4,2.4-6.8h-2.1L134.8,8.7L134.8,8.7z M153,23.8h-3.7V12.2h-2.2v4.6
			c0.2,3.3-1.5,5.7-5,7.1v-2.4c0.8-0.8,1.1-2.1,1.1-3.8V4.5h7.6c1.4,0.1,2.9-0.2,4.4-0.8v2.7c-1.3,0.4-2.6,0.6-3.9,0.6H147v2.7h8.6
			v2.5h-2.7L153,23.8L153,23.8z"/>
	</g>
</g>
<g>
	<path class="st0" d="M21.3,38c-0.6,0-1.2-0.2-1.7-0.5c-0.6-0.3-1.2-0.6-1.8-0.8c-0.5-0.2-1-0.5-1.5-0.7c-0.5-0.3-1.1-0.5-1.6-0.7
		c-0.9-0.4-1.8-0.7-2.7-1c-0.6-0.2-1.2-0.4-1.9-0.5c-0.7-0.2-1.4-0.5-2.1-0.9c-0.1-0.1-0.2-0.2-0.3-0.2c-0.2-0.1-0.3-0.3-0.2-0.6
		c0.2-0.6,0.4-1.1,0.6-1.7c0-0.1,0-0.2,0.1-0.1c0.4,0.4,0.9,0.6,1.4,0.8c0.6,0.3,1.1,0.5,1.7,0.7c0.6,0.2,1.2,0.4,1.8,0.6
		c0.7,0.2,1.4,0.5,2.1,0.7c0.6,0.3,1.2,0.5,1.9,0.8c0.8,0.3,1.5,0.7,2.3,1c0.7,0.4,1.5,0.6,2.3,0.6c0.7,0,1.3-0.1,1.9-0.4
		c1-0.4,1.9-0.9,2.9-1.4c1.4-0.7,2.8-1.3,4.3-1.8c0.9-0.3,1.7-0.6,2.6-1c0.6-0.3,1.1-0.5,1.6-0.9c0.2-0.1,0.2,0,0.2,0.1
		c0.1,0.5,0.2,1,0.3,1.5s-0.2,0.7-0.5,0.9c-0.4,0.3-0.8,0.5-1.2,0.6c-1,0.4-2,0.6-2.9,1c-0.7,0.3-1.4,0.6-2.1,0.9
		c-0.7,0.3-1.5,0.7-2.2,1c-0.7,0.4-1.5,0.8-2.2,1.1s-1.4,0.6-2.2,0.8C21.8,38,21.6,38,21.3,38z"/>
	<path class="st0" d="M18,26.5c0.5,0,0.8,0.2,1.2,0.5c0.4,0.4,0.9,0.7,1.4,1s1,0.4,1.6,0.3c0.5-0.1,1.1-0.2,1.5-0.5
		c0.4-0.2,0.7-0.5,1.1-0.8c0.3-0.3,0.7-0.4,1.2-0.4c0.4,0,0.8,0.6,0.6,0.9c-0.1,0.2-0.3,0.4-0.5,0.6c-0.4,0.3-0.9,0.6-1.5,0.7
		c-0.3,0.1-0.6,0.1-0.9,0.2c-0.2,0.1-0.3,0.3-0.4,0.5c-0.1,0.6-0.1,1.2,0.1,1.8c0,0.1,0.1,0.3,0.1,0.4c-0.1,0.1-0.2,0-0.4,0
		c-0.6-0.1-1.3,0-1.9,0c-0.3,0-0.6,0-0.8,0.1c-0.2,0.1-0.2,0-0.2-0.2c0.1-0.4,0.2-0.8,0.3-1.1c0.1-0.5,0-1-0.2-1.4
		c0-0.1-0.1-0.1-0.1-0.1c-0.8,0.1-1.5-0.3-2.2-0.6c-0.3-0.2-0.5-0.3-0.7-0.6c-0.2-0.4-0.1-0.8,0.3-1C17.6,26.5,17.8,26.5,18,26.5z"
		/>
	<path class="st0" d="M3.8,29.2c0.7-0.2,1.3-0.4,2-0.6C6,28.5,6,28.5,5.9,28.3c-0.3-0.5-0.6-1.1-0.9-1.6c0.4,0.1,0.7,0.2,1,0.3
		c1.2,0.3,2.3,0.7,3.5,1.1c0.5,0.2,1,0.4,1.3,0.8c-0.1,0.1-0.2,0-0.4,0c-0.7,0-1.4-0.1-2.1,0C8.1,28.9,8,29,8,29.2
		c-0.1,0.4-0.3,0.8-0.4,1.2c-0.1,0.2-0.2,0.2-0.3,0.2c-0.8-0.2-1.6-0.5-2.3-0.9C4.6,29.6,4.2,29.4,3.8,29.2z"/>
	<path class="st0" d="M21.7,35.1c-0.7,0-1.3-0.2-1.9-0.5c-1.2-0.6-2.5-1.1-3.7-1.7c-0.8-0.3-1.6-0.7-2.4-1c-0.7-0.3-1.5-0.4-2.2-0.7
		c-1-0.4-2-0.7-2.9-1.3c-0.3-0.2-0.4-0.3-0.2-0.5c0-0.1,0.1-0.1,0.1,0c0.3,0.4,0.8,0.6,1.3,0.8c0.7,0.3,1.3,0.5,2,0.8
		c0.8,0.3,1.7,0.5,2.6,0.8c1,0.3,2,0.8,3,1.2c0.9,0.4,1.8,0.9,2.7,1.3c0.5,0.2,1,0.3,1.5,0.4c0.8,0.2,1.4-0.1,2.1-0.4
		c1.5-0.7,2.9-1.4,4.4-2c0.8-0.4,1.7-0.6,2.6-1c1-0.4,2-0.8,3-1.3c0.4-0.2,0.9-0.4,1.2-0.8c0,0,0.1-0.1,0.1,0s0.2,0.2,0,0.3
		c-0.2,0.1-0.4,0.2-0.5,0.3c-1.4,0.8-2.8,1.4-4.3,1.9c-1.1,0.4-2.2,0.9-3.4,1.4c-1.1,0.5-2.1,0.9-3.2,1.4
		C22.9,34.9,22.4,35.1,21.7,35.1z"/>
	<path class="st0" d="M32.9,28.7c0-0.3,0.2-0.4,0.5-0.5c1.2-0.4,2.3-0.8,3.5-1.2c0.3-0.1,0.7-0.2,1.1-0.3c-0.3,0.5-0.5,1-0.8,1.5
		c-0.2,0.3-0.2,0.3,0.2,0.5s0.9,0.3,1.3,0.4c0,0,0.1,0,0.1,0.1c-0.4,0.2-0.7,0.4-1.1,0.6c-0.6,0.3-1.2,0.5-1.8,0.6
		c-0.2,0-0.3,0-0.3-0.2c0-0.4-0.1-0.7-0.2-1.1c-0.1-0.3-0.2-0.4-0.6-0.4C34.2,28.6,33.5,28.6,32.9,28.7z"/>
	<path class="st0" d="M10.8,24.4c0,0.5,0.3,0.9,0.5,1.2c0.1,0.2,0.3,0.3,0.3,0.5c0,0.3,0.2,0.5,0.3,0.7c-0.4-0.3-0.7-0.6-1-0.9
		c-0.4-0.5-0.8-0.9-1-1.6c-0.2-0.5-0.3-1-0.4-1.5c0-0.3-0.1-0.6-0.1-0.9c0-0.1,0-0.2,0.2-0.1c0.6,0.2,1,0.6,1.5,1
		c0.4,0.3,0.8,0.7,1.1,1.1c0.5,0.5,0.8,1.1,1.1,1.8c0.1,0.2,0,0.2-0.1,0.1c-0.4-0.1-0.8-0.1-1.2-0.1c-0.1,0-0.1,0-0.2-0.2
		C11.5,25.1,11.2,24.8,10.8,24.4C10.9,24.4,10.8,24.4,10.8,24.4z"/>
	<path class="st0" d="M21.9,38.5c-1,0-1.8-0.3-2.6-0.7c-0.8-0.4-1.6-0.8-2.5-1.2c-1.4-0.7-2.9-1.3-4.4-1.9c-0.9-0.4-1.9-0.7-2.8-0.9
		c-0.7-0.2-1.4-0.4-2-0.8c-0.1-0.1-0.2-0.2-0.3-0.3c-0.1-0.1,0-0.2,0-0.2c0.1-0.1,0.1,0,0.1,0.1c0.3,0.4,0.7,0.6,1.2,0.8
		c1.3,0.6,2.6,0.9,3.9,1.3c0.8,0.2,1.5,0.5,2.3,0.8c0.5,0.2,1.1,0.4,1.6,0.7c0.6,0.3,1.2,0.6,1.8,0.9c0.4,0.2,0.8,0.4,1.1,0.5
		c0.3,0.1,0.6,0.3,0.9,0.4c1,0.4,1.9,0.4,2.9-0.1c0.9-0.4,1.8-0.9,2.7-1.3c1.1-0.6,2.2-1.1,3.4-1.6c0.9-0.4,1.8-0.7,2.7-1
		c0.5-0.2,1.1-0.3,1.6-0.5c0.7-0.3,1.4-0.6,1.9-1.1l0.1-0.1c0.1,0.1,0.1,0.1,0,0.2c-0.2,0.2-0.4,0.4-0.6,0.6
		c-0.7,0.4-1.5,0.6-2.2,0.9c-1.2,0.4-2.3,0.9-3.5,1.4c-0.5,0.2-1,0.4-1.4,0.6c-0.7,0.4-1.4,0.8-2.1,1.1c-0.6,0.3-1.1,0.6-1.7,0.8
		c-0.4,0.2-0.7,0.4-1.2,0.5C22.5,38.4,22.1,38.5,21.9,38.5z"/>
	<path class="st0" d="M10.1,22c-0.3-0.2-0.6-0.3-0.7-0.7c-0.2-0.4-0.4-0.7-0.6-1c-0.1-0.1-0.1-0.1-0.2-0.2c0,0.5,0.1,0.8,0.3,1.1
		c0.1,0.1,0.2,0.3,0.3,0.4c0.2,0.1,0.1,0.3,0.1,0.5c0,0.3,0.1,0.5,0.1,0.8C9,22.7,8.8,22.4,8.6,22c-0.5-0.8-0.8-1.7-0.9-2.7
		c-0.1-0.7,0-1.5-0.1-2.3c0.4,0.5,0.8,1,1.2,1.4c0.5,0.5,0.9,1.1,1.2,1.8c0.1,0.1,0.1,0.2,0.1,0.3C10.1,21,10.2,21.5,10.1,22z"/>
	<path class="st0" d="M3.7,25.8c2.2,0.6,4.3,1.3,6.5,1.9c-0.1,0-0.1,0.1-0.2,0.1c-0.3,0-0.2,0.1-0.1,0.3c-0.3,0-0.6-0.2-0.9-0.2
		c-1.1-0.3-2.2-0.7-3.3-1c-0.3-0.1-0.7-0.2-1-0.3H4.6c0,0.1,0,0.1,0,0.1c0.3,0.6,0.6,1.1,0.9,1.7c0.1,0.2,0.1,0.2-0.1,0.2
		c-0.7,0.2-1.3,0.3-2,0.5c-0.1,0-0.1,0-0.2,0.1c0.3,0.2,0.6,0.4,1,0.5c1,0.4,2,0.8,3,1.1c0.1,0,0.1,0.1,0.1,0.1
		c-0.1,0.1,0,0.3-0.2,0.2C6.8,31,6.4,30.9,6,30.7c-0.5-0.2-1-0.4-1.5-0.6c-0.6-0.3-1.3-0.6-1.8-1c-0.1,0-0.1-0.1-0.1-0.2
		s0.1-0.1,0.2-0.1c0.7-0.2,1.4-0.5,2-0.7C4.9,28,5,28,4.8,27.8C4.4,27.2,4.1,26.5,3.7,25.8L3.7,25.8z"/>
	<path class="st0" d="M18,30.4c-0.4,0-0.6,0.1-0.9,0.1c-0.1,0-0.3,0-0.4,0c0,0-0.1,0-0.1,0.1s0.1,0.1,0.1,0.1
		c0.4,0.1,0.8,0.2,1.2,0.1c0,0,0,0,0.1,0c-0.3,0.3-0.7,0.4-1,0.5c-0.5,0.2-1,0.2-1.5-0.1c-0.6-0.2-1.2-0.5-1.7-0.8
		c-0.2-0.1-0.3-0.2-0.5-0.3c-0.1-0.1-0.1-0.1,0-0.2c0.4-0.2,0.8-0.4,1.3-0.5c0.6-0.2,1.3-0.2,1.9-0.3c0.3,0,0.5,0.2,0.7,0.4
		C17.4,30,17.7,30.1,18,30.4z"/>
	<path class="st0" d="M31.6,26.8c0.2-0.3,0.3-0.5,0.3-0.8c0-0.2,0.2-0.3,0.3-0.5c0.2-0.3,0.4-0.6,0.5-1.1c-0.2,0.1-0.4,0.3-0.5,0.5
		s-0.3,0.4-0.4,0.6c0,0.1-0.1,0.2-0.3,0.2c-0.2,0-0.5,0.1-0.8,0.2c0.2-0.2,0.3-0.4,0.5-0.6c0.3-0.5,0.6-0.9,0.6-1.5
		c0-0.3,0.2-0.4,0.3-0.5c0.3-0.3,0.6-0.7,0.9-0.9c0.2-0.2,0.5-0.3,0.8-0.4c0.1,0,0.1,0,0.1,0.1c0,0.4-0.1,0.8-0.1,1.1
		c-0.1,0.5-0.2,1-0.4,1.5s-0.5,0.9-0.9,1.2C32.2,26.2,32,26.5,31.6,26.8C31.7,26.8,31.7,26.9,31.6,26.8z"/>
	<path class="st0" d="M35.9,17.6c0.1,0.8,0,1.6-0.1,2.3c-0.1,0.6-0.3,1.2-0.6,1.8c-0.2,0.5-0.5,0.8-0.9,1.2L34.2,23
		c-0.1,0,0-0.1,0-0.1c0-0.4,0.2-0.7,0.4-1.1s0.3-0.8,0.4-1.2c0-0.1,0-0.2,0-0.3c-0.3,0.2-0.5,0.5-0.6,0.9c-0.1,0.2-0.1,0.3-0.1,0.5
		c0,0.1,0,0.1-0.1,0.2c-0.2,0.1-0.5,0.2-0.7,0.4c0-0.4,0.1-0.7,0.2-1.1c0.1-0.9,0.7-1.6,1.2-2.2C35.1,18.4,35.5,18,35.9,17.6z"/>
	<path class="st0" d="M25.6,30.8c0.5,0,0.9,0,1.2-0.1c0.1,0,0.2,0,0.1-0.1c0-0.1-0.1-0.1-0.2-0.1c-0.4-0.1-0.8,0-1.3-0.1
		c0-0.1,0.2-0.1,0.2-0.2c0.3-0.2,0.5-0.5,0.7-0.7c0.1-0.1,0.2-0.2,0.4-0.2c0.7,0,1.4,0.1,2,0.3c0.4,0.1,0.9,0.2,1.3,0.4
		c0.1,0,0.2,0,0.2,0.1s-0.1,0.1-0.1,0.1c-0.9,0.5-1.8,0.9-2.8,1.3c-0.2,0.1-0.3,0-0.5,0C26.5,31.3,26,31.1,25.6,30.8z"/>
	<path class="st0" d="M39.2,25.6c-0.3,0.5-0.6,1-0.9,1.5c-0.1,0.2-0.3,0.4-0.4,0.6c-0.1,0.1-0.1,0.2,0.1,0.3c0.5,0.1,1,0.3,1.5,0.5
		c0.1,0,0.2,0.1,0.4,0.1c-0.2,0.3-0.4,0.5-0.6,0.6c-0.7,0.5-1.5,0.8-2.3,1.1c-0.4,0.2-0.9,0.3-1.3,0.4c-0.1,0-0.2,0.1-0.2-0.1
		c0-0.1-0.1-0.2,0.1-0.3c0.3-0.1,0.7-0.2,1-0.3c0.9-0.3,1.7-0.7,2.5-1.2c0,0,0.1,0,0.1-0.1s-0.1,0-0.1,0c-0.5-0.2-1.1-0.4-1.6-0.5
		c-0.2,0-0.2-0.1-0.1-0.2c0.2-0.5,0.5-0.9,0.7-1.4c0.1-0.1,0.1-0.2,0.2-0.4c-1.6,0.3-3.1,0.9-4.7,1.5c0.1-0.2,0-0.3-0.2-0.3
		C35.3,26.8,37.2,26.1,39.2,25.6z"/>
	<path class="st0" d="M7.4,17c-0.1-0.3-0.2-0.7-0.5-1c0,0.5,0.1,0.9,0.3,1.3C6.7,17,6.4,16.6,6,16.1c-0.1-0.1,0-0.2-0.1-0.4
		c-0.1-0.7-0.1-1.4,0-2.2c0.1-0.6,0.3-1.2,0.6-1.8c0-0.1,0.1-0.1,0.1-0.2c0.1,0.7,0.3,1.4,0.6,2c0,0.1,0.1,0.2,0.1,0.2
		c0.3,0.2,0.2,0.5,0.1,0.8c-0.2,0.6-0.2,1.3-0.1,2C7.4,16.7,7.4,16.8,7.4,17z"/>
	<path class="st0" d="M8.7,9c0,0.5,0,1,0.1,1.5c0.1,0.4,0.1,0.7-0.1,1.1c-0.2,0.4-0.1,0.8-0.2,1.2c-0.1,0.4-0.4,0.6-0.6,0.9
		c0-0.4,0-0.9-0.2-1.3c-0.2,0.5-0.1,1-0.1,1.5c-0.1-0.3-0.2-0.5-0.3-0.8c-0.1-0.4-0.3-0.8-0.4-1.3c0-0.1,0-0.1,0-0.2
		c0.2-0.6,0.5-1.2,0.9-1.7C8,9.6,8.2,9.3,8.6,9.1C8.6,9,8.7,9,8.7,9z"/>
	<path class="st0" d="M11.6,23.1c-0.1-0.1-0.1-0.1-0.2-0.2c-0.2-0.2-0.4-0.3-0.3-0.7c0.1-0.3,0.1-0.7-0.1-1.1
		c-0.1,0.2-0.2,0.5-0.2,0.8c0,0.2,0,0.3,0,0.5c-0.1-0.1-0.3-0.2-0.4-0.2c-0.1,0-0.1-0.1-0.1-0.2c-0.1-0.5,0-1-0.1-1.4
		c-0.1-0.7,0.2-1.2,0.6-1.7c0.1-0.1,0.2-0.1,0.3,0c0.5,0.6,0.8,1.4,1,2.2c0,0.1,0,0.3,0.1,0.4c0,0.3,0,0.5-0.3,0.7
		C11.7,22.4,11.7,22.8,11.6,23.1z"/>
	<path class="st0" d="M15.8,27.8c0.1,0.5,0.4,0.9,0.6,1.3c-0.4,0.1-0.5-0.2-0.6-0.4c-0.5-0.7-1-1.4-1.5-2c-0.3-0.4-0.4-0.8-0.3-1.3
		c0.1-0.3,0-0.6,0.1-0.9c0-0.1,0-0.1,0.1-0.2c1,0.7,1.7,1.7,2.4,2.8c-0.3,0-0.3,0.1-0.3,0.3c0,0.4,0.1,0.8,0.2,1.1
		C16.1,28.3,16,28,15.8,27.8L15.8,27.8z"/>
	<path class="st0" d="M8.2,17.5c-0.3-0.2-0.4-0.5-0.6-0.7v-0.1c0-0.7,0-1.5,0.2-2.2c0.1-0.4,0.4-0.8,0.7-1.1c0.1-0.1,0.2,0,0.2,0
		c0.2,0.3,0.5,0.7,0.4,1.2c-0.1,0.7,0,1.4,0.3,2.1c0.1,0.3,0,0.5-0.1,0.8C9.2,17.7,9,17.9,9,18.1c0,0.1-0.1,0.1-0.2,0
		c-0.1-0.1-0.2-0.2-0.3-0.4c-0.1-0.1,0-0.3,0-0.4c0.1-0.4,0-0.8-0.2-1.2c0,0,0-0.1-0.1-0.1s-0.1,0.1-0.1,0.1C8.1,16.6,8,17,8.2,17.5
		C8.2,17.4,8.2,17.4,8.2,17.5z"/>
	<path class="st0" d="M15.9,29.1c-0.2,0.1-0.4,0-0.5-0.1c-0.4-0.4-0.8-0.7-1.2-1c-0.1,0-0.2-0.1-0.2-0.1c-0.1,0.1,0,0.1,0.1,0.2
		c0.3,0.4,0.7,0.7,1.1,0.9c-0.4,0.1-0.7,0-1.1-0.3c-0.5-0.4-1-0.7-1.4-1.1s-0.7-1-0.8-1.6c0-0.1,0-0.1,0.1-0.1
		c0.5,0.1,1.1,0.2,1.6,0.3c0.3,0.1,0.4,0.3,0.6,0.6c0.5,0.8,1.1,1.5,1.6,2.2C15.8,29,15.9,29,15.9,29.1z"/>
	<path class="st0" d="M27.1,29.1c0.2-0.5,0.5-0.8,0.7-1.3c-0.3,0.2-0.4,0.5-0.6,0.8c0.1-0.2,0.1-0.4,0.2-0.6s0.1-0.4,0.1-0.7
		c0-0.2,0-0.4-0.3-0.3c0.6-1.1,1.3-2.1,2.3-2.8c0.1,0.3,0.1,0.7,0.1,1c0,0.2,0,0.5,0,0.7c0,0.1-0.1,0.2-0.1,0.3
		c-0.5,0.7-1,1.4-1.5,2.1c-0.1,0.2-0.3,0.3-0.4,0.5C27.5,29,27.3,29.1,27.1,29.1z"/>
	<path class="st0" d="M28.4,29c0.2-0.2,0.5-0.3,0.7-0.5c0.2-0.1,0.3-0.3,0.5-0.5c0,0,0.1-0.1,0-0.1c0-0.1-0.1,0-0.1,0
		c-0.5,0.3-0.9,0.6-1.3,1c-0.2,0.2-0.3,0.2-0.6,0.1c0.2-0.2,0.4-0.4,0.5-0.6c0.5-0.6,1-1.3,1.4-1.9c0.1-0.2,0.3-0.3,0.5-0.3
		c0.5-0.1,1-0.2,1.5-0.2c0.3,0,0.2,0.2,0.1,0.3c-0.1,0.7-0.5,1.2-1,1.6s-1,0.7-1.5,1.1C28.9,29.1,28.7,29.1,28.4,29z"/>
	<path class="st0" d="M7.7,24.3c0.5,0.2,0.9,0.5,1.4,0.5c0.2,0,0.5,0.1,0.7,0.1c0.1,0,0.1,0,0.2,0.1c0.5,0.8,1.1,1.5,1.8,2
		c0.1,0.1,0.3,0.2,0.4,0.4c-0.5-0.3-0.9-0.6-1.5-0.7c0.2,0.4,0.6,0.5,0.9,0.7c-0.4,0-0.8,0.1-1.1,0C9.9,27.3,9.4,27,9,26.5
		c-0.3-0.3-0.5-0.7-0.7-1.1C8.1,25.1,7.9,24.7,7.7,24.3z"/>
	<path class="st0" d="M9.5,24c-0.4-0.2-0.7-0.5-1.1-0.5c0.3,0.4,0.6,0.7,1.1,0.9c0.2,0.1,0.3,0.2,0.3,0.4c-0.2,0-0.3,0-0.4-0.1
		c-0.3-0.1-0.5-0.1-0.8-0.2c-0.4-0.1-0.7-0.4-1-0.7c-0.5-0.7-0.9-1.5-0.9-2.4l0,0c0-0.2-0.1-0.4,0-0.4c0.1-0.1,0.3,0.1,0.5,0.1
		c0,0,0,0,0.1,0c0.4,0.2,0.8,0.4,1,0.9c0.2,0.4,0.5,0.8,0.9,1.1c0.1,0.1,0.2,0.2,0.2,0.3C9.4,23.6,9.5,23.8,9.5,24z"/>
	<path class="st0" d="M31.4,21.8c0.1-0.7,0.3-1.4,0.6-2.1c0.1-0.3,0.3-0.5,0.5-0.7c0-0.1,0.1-0.2,0.2,0c0.3,0.4,0.6,0.8,0.7,1.2
		c0.1,0.2,0,0.4,0,0.6c0,0.4-0.1,0.7-0.2,1.1c0,0.2-0.4,0.5-0.5,0.5s-0.1-0.1-0.1-0.1c0-0.3,0-0.6-0.1-0.9c0,0,0-0.1-0.1-0.1
		l-0.1,0.1c-0.1,0.4-0.1,0.7,0,1.1c0,0.1,0,0.1,0,0.2c-0.1,0.1-0.3,0.3-0.4,0.4s-0.1,0.1-0.2-0.1c0-0.3-0.1-0.6-0.3-0.9
		C31.4,22.1,31.4,21.9,31.4,21.8z"/>
	<path class="st0" d="M16.4,27.2c0.2,0.1,0.4,0.2,0.6,0.4c0.2,0.2,0.3,0.3,0.5,0.5c0.3,0.3,0.7,0.4,1.1,0.6c0.6,0.2,1.1,0.5,1.6,1
		c0.1,0.1,0.1,0.2,0.2,0.3c0.1,0.1,0,0.3-0.1,0.3c-0.1,0.1-0.3,0-0.4-0.1c-0.3-0.3-0.7-0.5-1.1-0.7c-0.1,0-0.1-0.1-0.2,0
		c0,0.1,0,0.1,0.1,0.2c0.3,0.3,0.6,0.5,1,0.7c-0.4,0.3-0.7,0.2-1.1,0.1c-0.8-0.4-1.4-1-1.9-1.7C16.4,28.2,16.3,27.7,16.4,27.2z"/>
	<path class="st0" d="M37.1,12.6c0.2,0.4,0.3,0.8,0.4,1.1c0.1,0.4,0.1,0.8,0.1,1.2c0,0.5-0.1,1.1-0.2,1.6c0,0.2-0.2,0.3-0.3,0.4
		c-0.2,0.3-0.5,0.6-0.8,0.9c0.3-0.6,0.5-1.1,0.5-1.7c-0.3,0.4-0.5,0.8-0.7,1.3c-0.1-0.2-0.1-0.4,0-0.6c0.1-0.7,0.1-1.3-0.1-1.9
		c0-0.1-0.1-0.2,0-0.3c0.4-0.6,0.8-1.1,1-1.8C37,12.7,37,12.7,37.1,12.6z"/>
	<path class="st0" d="M25.1,29.4c-0.5,0.1-0.9,0.3-1.2,0.6c-0.1,0.1-0.1,0.2-0.3,0.2c-0.1,0-0.2,0-0.3-0.1c0-0.1,0-0.2,0-0.3
		c0.3-0.5,0.7-0.7,1.2-1c0.3-0.1,0.7-0.3,1-0.4c0.4-0.2,0.7-0.5,1-0.8c0.1-0.2,0.3-0.3,0.5-0.4c0.1-0.1,0.1,0,0.1,0.1
		c0,0.8-0.2,1.4-0.7,2c-0.4,0.4-0.8,0.7-1.2,1c-0.4,0.2-0.7,0.2-1.1,0.1c0,0-0.1,0-0.1-0.1s0.1,0,0.1-0.1
		C24.5,30,24.9,29.9,25.1,29.4z"/>
	<path class="st0" d="M35.6,24.6c-0.4,0.7-0.7,1.5-1.3,2.1c-0.4,0.4-0.9,0.7-1.4,0.8c-0.3,0.1-0.7,0-1,0c0.3-0.2,0.6-0.3,0.8-0.6
		l0.1-0.1c0-0.1-0.1,0-0.2,0c-0.3,0.1-0.7,0.3-1,0.5c-0.1,0.1-0.2,0.1-0.4,0.2c0.2-0.2,0.4-0.4,0.6-0.5c0.6-0.5,1.1-1.1,1.5-1.7
		C33.5,25,33.7,25,34,25c0.4,0,0.9-0.2,1.3-0.3C35.4,24.6,35.5,24.6,35.6,24.6z"/>
	<path class="st0" d="M32.1,7.6c0.5,0.2,1,0.5,1.4,0.8c0.5,0.3,1,0.8,1.3,1.2c0.2,0.3,0.3,0.5,0.2,0.8c-0.1,0.4-0.1,0.8-0.2,1.3
		c0,0.1,0,0.1-0.1,0.2c-0.2-0.6-0.4-1.3-0.9-1.9c-0.1,0.5,0.1,0.8,0.3,1.3c-0.2-0.3-0.5-0.5-0.7-0.6c-0.5-0.2-0.6-0.6-0.7-1
		C32.8,9,32.5,8.3,32.1,7.6z"/>
	<path class="st0" d="M7.9,21.2c-0.4-0.2-0.8-0.4-1.2-0.6c-0.2-0.1-0.2-0.3-0.3-0.5c-0.3-0.6-0.5-1.3-0.6-2c-0.1-0.5,0-1.1,0-1.6
		c0-0.1,0-0.2,0.1-0.3c0.4,0.5,0.9,1,1.4,1.4c0.1,0.1,0.1,0.2,0.1,0.3c0,0.6,0,1.1,0.1,1.7c0,0.1,0,0.2,0,0.3
		c-0.2-0.2-0.4-0.4-0.5-0.6c0,0-0.1-0.1-0.2-0.1s0,0.1,0,0.2c0.2,0.5,0.5,0.9,0.8,1.2C7.8,20.8,7.8,20.8,7.9,21.2z"/>
	<path class="st0" d="M35,23.6c-0.4,0.1-0.7,0.3-1.1,0.5c0.2-0.4,0.1-0.7,0.5-1s0.7-0.7,0.9-1.1c0.2-0.3,0.4-0.5,0.8-0.6
		c0.1,0,0.1,0,0.2,0c0.5-0.2,0.5-0.2,0.4,0.4c-0.1,1.1-0.5,2-1.3,2.7c-0.1,0.1-0.2,0.1-0.4,0.2c-0.4,0.1-0.8,0.2-1.1,0.3
		c-0.1,0-0.1,0.1-0.1,0v-0.1c0-0.1,0.1-0.2,0.2-0.2C34.3,24.3,34.7,24,35,23.6z"/>
	<path class="st0" d="M14.1,29c-0.4-0.1-0.8-0.2-1.2,0c0.4,0.2,0.9,0.3,1.4,0.4c-0.2,0.1-0.4,0.2-0.6,0.2c-0.7,0.4-1.2,0-1.7-0.2
		c-0.6-0.3-1.2-0.6-1.6-1.1c-0.1-0.1-0.1-0.3-0.3-0.4c0.4-0.1,0.7-0.1,1-0.2c0.3,0,0.7,0,1-0.1c0.2,0,0.3,0,0.5,0.2
		c0.4,0.4,0.9,0.8,1.4,1.1C14,28.9,14,29,14.1,29z"/>
	<path class="st0" d="M35.5,17.7c0.1-0.5,0-1-0.1-1.5c-0.2,0.2-0.2,0.4-0.2,0.6c-0.1,0.3-0.1,0.6-0.1,0.9c0,0.2-0.3,0.5-0.5,0.6
		c-0.1,0-0.1,0-0.1-0.1c-0.1-0.1-0.1-0.2-0.1-0.4c-0.1-0.6-0.1-1.2,0.1-1.8c0.1-0.3,0.1-0.7,0.1-1c0-0.5,0.3-0.8,0.5-1.2
		c0.1-0.1,0.1,0,0.2,0c0.3,0.4,0.5,0.9,0.5,1.3c0.1,0.6,0.1,1.1,0.1,1.7c0,0.2-0.1,0.4-0.2,0.5C35.7,17.6,35.6,17.7,35.5,17.7z"/>
	<path class="st0" d="M36,14.3c0.1-0.5,0.2-0.9,0.2-1.3c0-0.1,0-0.3,0-0.4c0,0,0-0.1-0.1-0.1S36,12.6,36,12.6
		c-0.1,0.4-0.3,0.9-0.2,1.4c-0.2-0.3-0.5-0.5-0.5-0.8c0-0.4,0-0.7-0.2-1.1c-0.1-0.2,0-0.4,0-0.6c0.1-0.5,0.2-1,0.2-1.6
		c0-0.1,0-0.1,0-0.3c0.3,0.3,0.5,0.5,0.7,0.8c0.4,0.6,0.7,1.2,0.9,1.9c0,0.1,0,0.3-0.1,0.4c-0.2,0.5-0.3,1.1-0.7,1.5
		C36,14.3,36,14.3,36,14.3z"/>
	<path class="st0" d="M11.7,7.2c-0.5,0.9-0.8,1.8-0.9,2.7c0,0.1-0.1,0.2-0.2,0.3c-0.3,0.2-0.6,0.4-0.9,0.5c0.2-0.3,0.2-0.6,0.2-0.9
		c0-0.1,0.1-0.2,0-0.2S9.8,9.7,9.7,9.7c-0.2,0.3-0.4,0.6-0.5,0.9c0,0.1,0,0.1-0.1,0.3C9,10.4,9,9.9,9,9.4c0-0.1,0-0.1,0-0.2
		C9.6,8.2,10.5,7.6,11.7,7.2z"/>
	<path class="st0" d="M30.7,25.7c0.1-0.3,0.2-0.7,0.1-1c-0.3,0.4-0.5,0.8-0.6,1.2c0,0.1-0.1,0.2-0.2,0.2c-0.2,0.1-0.3,0-0.3-0.2
		c0-0.6,0-1.1,0-1.7c0-0.3,0.1-0.4,0.4-0.4c0.2,0,0.4-0.4,0.4-0.6c-0.1-0.4,0.1-0.8,0.5-1c0.1,0,0.1,0,0.2,0.1
		c0.2,0.3,0.3,0.5,0.4,0.9c0.1,0.8-0.2,1.5-0.7,2.2C30.9,25.5,30.9,25.6,30.7,25.7z"/>
	<path class="st0" d="M15.7,31.9c1.6-0.4,3-1.2,4.6-1.5c-0.1,0.3-0.2,0.6-0.3,0.9c-0.1,0.1-0.1,0.2-0.3,0.3c-0.7,0.3-1.3,0.5-2,0.9
		c-0.3,0.2-0.6,0-0.8-0.1C16.5,32.2,16.1,32.1,15.7,31.9z"/>
	<path class="st0" d="M10,19.9c-0.1-0.2-0.3-0.4-0.3-0.6c0-0.1,0-0.3,0.1-0.5c0-0.2,0-0.4,0-0.6c0-0.1,0-0.1-0.1-0.1
		s-0.1,0.1-0.1,0.1c-0.1,0.3-0.1,0.5-0.1,0.8c-0.4-0.3-0.5-0.6-0.3-1.3c0.2-0.6,0.4-1.2,0.9-1.7l0.1-0.1c0.2-0.2,0.2-0.1,0.3,0.1
		c0.1,0.5,0.4,1,0.5,1.6c0,0.2,0,0.4,0,0.6c0,0.1-0.1,0.1-0.1,0.2C10.5,18.9,10.2,19.3,10,19.9z"/>
	<path class="st0" d="M29.3,29.4c0.4-0.1,0.9-0.2,1.3-0.4c-0.4-0.2-0.8-0.1-1.1,0c0.3-0.2,0.5-0.4,0.8-0.5c0.3-0.2,0.5-0.5,0.8-0.7
		c0.1-0.1,0.1-0.1,0.2-0.1c0.4,0,0.7,0,1.1,0c0.3,0,0.7,0,1,0.1c-0.1,0.3-0.4,0.5-0.6,0.7c-0.6,0.5-1.4,0.9-2.2,1.1
		c-0.3,0.1-0.6,0-0.9-0.1C29.5,29.5,29.4,29.5,29.3,29.4z"/>
	<path class="st0" d="M36.6,19.3c-0.3,0.2-0.5,0.5-0.7,0.7c0.1-0.5,0.1-1,0.1-1.5c0-0.1,0.1-0.1,0.1-0.2c0.4-0.3,0.8-0.8,1.1-1.2
		c0,0,0.1-0.1,0.1-0.2c0.1,0.3,0.2,0.5,0.2,0.8c0,1-0.2,2-0.8,2.9c0,0.1-0.1,0.1-0.1,0.1c-0.3,0.2-0.6,0.3-1,0.5c0,0-0.1,0.1-0.1,0
		c0,0,0-0.1,0-0.2c0.1-0.3,0.3-0.4,0.5-0.7C36.3,20.1,36.6,19.8,36.6,19.3z"/>
	<path class="st0" d="M27.8,31.7c-0.6,0.3-1.2,0.4-1.8,0.6c-0.1,0-0.2,0-0.2,0c-0.7-0.3-1.3-0.6-2-0.8c-0.2,0-0.2-0.2-0.2-0.3
		c-0.1-0.2-0.1-0.4-0.1-0.7c0-0.2,0.1-0.2,0.2-0.2c0.7,0.2,1.5,0.4,2.1,0.7c0.4,0.2,0.8,0.4,1.2,0.5C27.2,31.6,27.5,31.7,27.8,31.7z
		"/>
	<path class="st0" d="M33.6,20.2c-0.1-0.5-0.3-1-0.8-1.3c-0.3-0.2-0.2-0.5-0.1-0.7c0.1-0.6,0.3-1.2,0.5-1.8c0-0.1,0.1-0.1,0.1-0.1
		c0.7,0.6,1,1.4,1.1,2.2c0,0.4-0.2,0.6-0.4,0.8c0-0.3-0.1-0.5-0.1-0.8c0,0,0,0,0-0.1s-0.1-0.3-0.2-0.3c-0.1,0,0,0.2-0.1,0.3
		c0,0.3,0,0.6,0.1,0.9C33.8,19.7,33.6,19.9,33.6,20.2z"/>
	<path class="st0" d="M11.8,23.1c0.1-0.3,0.2-0.6,0.4-0.9c0.1-0.1,0.1-0.1,0.2,0c0.2,0.1,0.3,0.2,0.5,0.3c0.1,0.1,0.2,0.1,0.1,0.3
		c0,0.2,0,0.4,0,0.6s0.2,0.2,0.3,0.2c0.3,0.1,0.5,0.3,0.5,0.6c0,0.2,0,0.5,0,0.7c-0.1,0.3,0,0.7,0,1c0,0.1,0,0.2-0.1,0.2
		s-0.2,0-0.2-0.2c-0.1-0.7-0.5-1.3-0.9-1.8c-0.2-0.2-0.4-0.5-0.6-0.7C11.8,23.3,11.8,23.2,11.8,23.1z"/>
	<path class="st0" d="M8.9,13.4c-0.2-0.4-0.2-0.7-0.1-1.1c0.2-0.6,0.6-1.1,1.1-1.5c0.2-0.2,0.4-0.3,0.7-0.4c0,0.2-0.1,0.3-0.1,0.5
		c-0.1,0.5-0.1,1-0.1,1.5c0,0.3-0.1,0.5-0.3,0.7c-0.3,0.3-0.5,0.6-0.9,0.8c-0.1,0.1-0.1,0-0.2,0c0-0.1-0.1-0.3,0-0.4
		c0.2-0.2,0.3-0.4,0.3-0.7c0-0.1,0.1-0.2,0-0.2s-0.1,0-0.2,0.1C9,12.8,9,13.1,8.9,13.4z"/>
	<path class="st0" d="M33.4,13.4c0.3,0.4,0.6,0.7,1,1c0.1,0.1,0.1,0.1,0.1,0.2c0,0.4,0,0.7-0.1,1.2c-0.1-0.3-0.1-0.7-0.4-0.9
		c-0.1,0.2,0,0.5,0,0.7c0,0.1,0.1,0.3,0.1,0.4c0.2,0.3,0,0.6,0,0.8c0,0,0,0.1-0.1,0c-0.3-0.3-0.7-0.5-1-0.9
		c-0.2-0.2-0.2-0.4-0.1-0.6C33.3,14.8,33.4,14.2,33.4,13.4C33.3,13.5,33.4,13.4,33.4,13.4z"/>
	<path class="st0" d="M33.2,10.7c1.1,0.5,1.9,1.9,1.4,2.9c0-0.3-0.1-0.5-0.2-0.7c-0.1-0.1-0.1-0.3-0.3-0.2c-0.1,0.1,0,0.2,0,0.3
		c0.1,0.2,0.2,0.4,0.3,0.6c0,0.1,0.1,0.1,0,0.2c0,0.1,0,0.2-0.1,0.3c-0.1,0-0.1-0.1-0.2-0.2c-0.2-0.2-0.4-0.4-0.6-0.7
		c-0.3-0.4-0.2-0.9-0.2-1.3c0-0.4,0-0.7-0.1-1C33.2,10.8,33.1,10.8,33.2,10.7z"/>
	<path class="st0" d="M10.4,13c-0.1,0.3-0.1,0.5-0.1,0.8c0,0.5,0.1,1.1,0.2,1.6c0,0.2,0,0.3-0.1,0.4c-0.2,0.3-0.5,0.5-0.9,0.8
		c-0.1-0.2-0.2-0.4,0-0.7s0.3-0.7,0.3-1.1c-0.3,0.2-0.5,0.5-0.6,0.8c0-0.2-0.1-0.4-0.1-0.6c0-0.2,0.1-0.5,0.1-0.7
		c0-0.1,0.2-0.2,0.3-0.3C9.8,13.6,10.1,13.3,10.4,13C10.3,13,10.3,13,10.4,13C10.4,12.9,10.4,13,10.4,13z"/>
	<path class="st0" d="M8.5,29.2c0.1-0.1,0.3-0.1,0.4-0.1c0.4,0,0.7,0,1.1,0c0.2,0,0.5,0.1,0.7,0c0.3-0.1,0.6,0.1,0.8,0.3
		c0.1,0,0,0.1,0,0.1c-0.1,0.3-0.1,0.5-0.2,0.8c0,0.2-0.2,0.1-0.3,0.1c-0.3-0.1-0.5-0.1-0.8-0.2S9.6,30,9.3,29.8
		C9,29.6,8.7,29.5,8.5,29.2z"/>
	<path class="st0" d="M34.6,29.1c-0.5,0.4-1.1,0.7-1.7,1c-0.1,0.1-0.2,0.1-0.3,0.1c-0.3,0.1-0.4,0.1-0.5-0.3
		c-0.1-0.2-0.1-0.3-0.2-0.5c-0.1-0.3,0-0.4,0.2-0.4c0.1,0,0.3,0,0.4,0c0.6,0,1.2-0.1,1.8-0.1C34.4,29,34.5,29,34.6,29.1z"/>
</g>
<g>
	
		<radialGradient id="SVGID_1_" cx="-479.5708" cy="86.5684" r="6.6757" gradientTransform="matrix(2.7187 0 0 -2.7187 1320.5215 242.6048)" gradientUnits="userSpaceOnUse">
		<stop  offset="2.000000e-02" style="stop-color:#E60012"/>
		<stop  offset="0.1352" style="stop-color:#E60012"/>
		<stop  offset="0.98" style="stop-color:#B60005"/>
	</radialGradient>
	<path class="st1" d="M10.7,13.3L10.7,13.3v0.4v0.4l0.1,0.6l0.1,0.2h0.2c0.3,1.5,1,2.9,1.8,4.2v0.2v0.1l0.1,0.1l0.8,0.9l0,0h0.1l0,0
		l-0.6,3.2l0.8,0.1V24l0.8,0.2v0.4l0.7,0.2V25l1.7,0.2v-0.6l0.9-0.4L18,24.5v0.4l0.6,0.1v0.1l1,0.2l0.1-0.1l0.2,0.1l1.2,0.1l0.1-0.1
		h1.2l0.1,0.1h1h0.1l0.1-0.1l0,0l0.1,0.1l1-0.1l0.1-0.1l0.5-0.1v-0.4l-0.2-0.3l0.9,0.4v0.1v0.5l1.7-0.2v-0.1l0,0l0.7-0.2v-0.4l0,0
		l0.8-0.2V24l0,0l0.7-0.1l-0.5-3.2h0.2l0.7-0.8l0.1-0.2v-0.3c0.9-1.2,1.6-2.6,1.9-4.1h0.1h0.1h0.1l0.1-0.2l0.2-1.3v-0.1h-0.1h-0.1
		l0,0c0-0.3,0-0.5,0-0.8c0-2-0.6-3.9-1.5-5.6V7.2l0.1-0.1V7l-0.3-0.4L31,6.5L30.8,6h-0.1h-0.1c-2-2.7-5.3-4.5-8.9-4.5
		c-3.5,0-6.6,1.7-8.7,4.2l0,0h-0.1l-0.1,0.1l-0.5,0.7v0.1l0.1,0.1c-1.1,1.7-1.7,3.6-1.7,5.8c0,0.2,0,0.4,0,0.6h-0.1L10.7,13.3
		L10.7,13.3z"/>
	
		<radialGradient id="SVGID_2_" cx="-479.2838" cy="86.8343" r="6.8605" gradientTransform="matrix(2.7187 0 0 -2.7187 1320.5215 242.6048)" gradientUnits="userSpaceOnUse">
		<stop  offset="5.000000e-02" style="stop-color:#FFFFFF"/>
		<stop  offset="0.113" style="stop-color:#FFFFFF"/>
		<stop  offset="0.554" style="stop-color:#FFF100"/>
		<stop  offset="0.941" style="stop-color:#F7AD00"/>
		<stop  offset="0.95" style="stop-color:#F7AD00"/>
	</radialGradient>
	<path class="st2" d="M26.2,7.5l0.2,0.9l0.9,0.1L26.5,9l0.2,0.9L26,9.3l-0.8,0.5l0.4-0.9l-0.7-0.6l0.9,0.1L26.2,7.5L26.2,7.5
		L26.2,7.5z M22.9,25.2L22.9,25.2l0.8-0.1v-0.2h-0.3l0,0v-0.8h-0.2v0.7L22,25v-0.4h-0.2v0.6H22.9L22.9,25.2L22.9,25.2z M11,13.4
		L11,13.4v0.3c0,0,1.1-1.1,1.2-1.3c0.2-0.2,1.3-1.3,1.5-1.5c0,0.1,0,0.2-0.1,0.3s-0.3,0.2-0.3,0.3c-0.1,0.1-0.9,0.9-1.1,1.1
		c-0.1,0.2-1.3,1.4-1.3,1.4v0.4c0,0,1-1.1,1.2-1.3s1.1-1.2,1.4-1.4c0,0.3,0,0.6,0,0.8c0,2.7,1.3,5.1,3.3,6.6l0.4,2l0,0L17.1,21
		L17,20.9v-0.1l-0.1-0.1l-0.2-0.3c0,0,0,0-0.1,0s0,0,0,0.1l0.1,0.1c0,0,0,0.1,0,0.2c0,0,0,0-0.1,0l-0.1-0.1v-0.1l-0.1-0.1
		c0,0,0-0.1,0.1-0.1h0.1c0,0-0.2-0.1-0.2-0.2c-0.1,0-0.1-0.2-0.1-0.2h-0.1c0,0-0.1,0-0.1-0.1H16c0,0,0,0.1,0.1,0.1c0,0,0,0.1,0,0.2
		s0,0.2,0,0.2H16l0-0.4l-0.4-0.4h-0.1L15,19.1h-0.1l-0.4-0.5h-0.1l0.4,0.5h0.1l0.5,0.5h0.1L16,20h0.2l0.5,0.4c0,0,0.4,0.3,0.6,0.4
		c0,0,0.1,0.5,0.4,0.8s0.7,0.5,1.1,0.6c0.5,0.1,0.8,0.1,1,0.1s0.5,0,0.7-0.1s0.3-0.1,0.4-0.1s0.2-0.1,0.2-0.1l0,0c0,0.1,0,0.1,0,0.1
		s-0.1,0.1-0.3,0.2c-0.2,0.1-0.6,0.3-0.9,0.3c-0.3,0.1-0.6,0.1-1.3,0.1c-0.7-0.1-1.2-0.5-1.2-0.5l0,0c0,0-0.1-0.1-0.3-0.2
		c-0.1-0.1-0.3-0.3-0.3-0.3h-0.1c0,0-0.2-0.4-0.4-0.7c-0.2-0.4-0.2-0.8-0.2-0.8H16v0.1c0,0,0,0.3,0.1,0.6c0.1,0.2,0.2,0.5,0.6,1.1
		c0.5,0.6,1.1,0.8,1.1,0.8l0.1-0.1c0,0,0,0.1,0.3,0.1c0.2,0,0.9,0.1,1.1,0.1c0.1,0,0.8-0.1,1.1-0.2c0.3-0.1,0.7-0.3,0.8-0.4v0.1H21
		h-0.1c0.2,0.2,0.5,0.3,0.8,0.3s0.6-0.1,0.8-0.3l0,0l-0.2-0.2l0,0c0.1,0.1,0.5,0.4,0.8,0.5c0.4,0.1,1,0.2,1.1,0.2s0.9,0,1.1-0.1
		c0.2,0,0.3-0.1,0.3-0.1l0.1,0.1c0,0,0.6-0.2,1.1-0.8c0.5-0.6,0.6-0.8,0.6-1.1c0.1-0.2,0.1-0.6,0.1-0.6v-0.1h-0.1
		c0,0-0.1,0.5-0.2,0.8c-0.2,0.4-0.4,0.7-0.4,0.7h-0.1c0,0-0.2,0.2-0.3,0.3c-0.1,0.1-0.3,0.2-0.3,0.2l0,0c0,0-0.5,0.4-1.2,0.5
		s-1,0-1.3-0.1s-0.7-0.2-0.9-0.3c-0.2-0.1-0.3-0.2-0.3-0.2V22l0,0l0.2,0.1c0.1,0,0.2,0.1,0.4,0.1c0.2,0.1,0.6,0.1,0.7,0.1
		c0.2,0,0.5,0.1,1-0.1c0.5-0.1,0.8-0.4,1.2-0.6c0.3-0.3,0.4-0.7,0.4-0.7L26.1,21c0,0,0,0.1-0.1,0.3c-0.1,0.2-0.1,0.2-0.5,0.5
		s-0.8,0.4-1,0.4c-0.3,0-0.8,0-1.2,0c-0.5-0.1-0.8-0.4-0.8-0.4c0-0.1,0-0.2,0-0.3l0,0c0,0,0,0,0-0.1c0.1-0.1,0.1,0,0.2,0h0.1l0,0
		h0.3l0,0c0.1,0,0.2,0,0.2,0c0.1,0,0.1,0,0.2,0l0,0h0.3l0,0c0.1,0,0.3,0,0.3,0c0.2,0,0.3,0,0.3,0h0.1l0,0c0.1,0,0.2,0,0.2,0
		c0.2,0,0.4-0.1,0.4-0.1l0,0l0.1-0.3l-0.7,0.2l0,0h0.1v0.1l0,0v-0.1l-0.2-0.1l-0.1-0.3l0.2-0.1l-0.2-0.5l-0.2,0.1L23.9,20l0.1-0.3
		l-0.3-0.3l-0.2,0.1L23,19.6l0.1-0.3l-0.4-0.2l-0.2,0.2l-0.4-0.1L22,19h-0.4l-0.1,0.3l-0.4,0.1l-0.2-0.2l-0.3,0.2v0.3l-0.3,0.2
		L20,19.7L19.7,20l0.1,0.3l-0.2,0.3h-0.3L19.1,21l0.2,0.2v0.3H19v0.1h-0.1v-0.1H19l0,0l-0.7-0.2v0.3l0,0c0,0,0.2,0.1,0.4,0.1
		c0.2,0,0.4,0.1,0.4,0.1l0,0c0.1,0,0.5,0,0.7,0l0,0H20l0,0c0.1,0,0.1,0,0.2,0s0.2,0,0.2,0l0,0h0.3l0,0c0.1,0,0.1,0,0.2,0
		c0,0,0.1,0,0.1,0.1l0,0c0,0,0,0.1,0,0.3c0,0-0.4,0.3-0.9,0.4s-1,0.1-1.2,0c-0.3,0-0.7-0.2-1-0.5c-0.4-0.3-0.4-0.3-0.5-0.5
		s-0.1-0.3-0.1-0.3l0,0l0.4,0.2l-0.4-1.9c0.1,0,0.1,0.1,0.2,0.1l0.4,1.8l0.4,0.1L18,19.7c0.5,0.3,1.1,0.5,1.7,0.7v-0.1
		c-0.6-0.2-1.2-0.4-1.7-0.7l0,0l-0.4-0.2l0,0c-0.1,0-0.1-0.1-0.2-0.1L17,19l0,0c-0.2-0.1-0.3-0.2-0.4-0.4L27,18.7l0,0
		c-0.9,0.8-2,1.3-3.1,1.6v0.1c0.6-0.2,1.1-0.4,1.6-0.6l-0.4,1.7l0.4-0.1l0.4-1.9c0.1,0,0.1-0.1,0.2-0.1l-0.4,1.9l0.4-0.2l0.5-2
		c2.1-1.5,3.4-3.9,3.4-6.6c0-0.2,0-0.4,0-0.7c0.3,0.3,1.2,1.3,1.4,1.5c0.2,0.2,1.2,1.3,1.2,1.3v-0.4c0,0-1.1-1.2-1.3-1.4
		c-0.1-0.2-1-1-1-1.1c0,0-0.2-0.2-0.3-0.3c0-0.1,0-0.2,0-0.3c0.2,0.2,1.4,1.4,1.5,1.5c0.2,0.2,1.2,1.4,1.2,1.4v-0.3
		c0,0-1.1-1.2-1.3-1.5c-0.2-0.2-1.2-1.3-1.5-1.5c-0.8-3.6-4.1-6.4-8-6.4c-3.8,0-7,2.6-7.9,6.2c-0.3,0.3-1.3,1.3-1.5,1.5
		C12.1,12.2,11,13.4,11,13.4L11,13.4z M23.1,10l0.6,0.7l0.9-0.4l-0.5,0.8l0.6,0.7l-0.9-0.2l-0.5,0.8l-0.1-0.9l-0.9-0.2l0.9-0.4
		L23.1,10L23.1,10L23.1,10z M20.7,10l-0.1,1l0.9,0.4l-0.9,0.2l-0.1,0.9L20,11.7l-1,0.2l0.6-0.7l-0.5-0.8l0.9,0.4L20.7,10L20.7,10
		L20.7,10z M17.5,7.4l0.4,0.9l0.9-0.1l-0.7,0.6l0.4,0.9l-0.8-0.5L17,9.8l0.2-0.9l-0.8-0.5l0.9-0.1L17.5,7.4L17.5,7.4L17.5,7.4z
		 M19.2,14.4L19.2,14.4v-0.1l0,0l0.1,0.1H19.2L19.2,14.4l5.2,0.2v-0.1l-0.1-0.1l0,0l0,0l0,0v0.1l0.1,0.1v0.1v0.6l0,0v-0.6l0,0v0.6
		h-0.1v-0.6L19,14.6v0.6h-0.1v-0.1v-0.6l0,0v0.6l0,0v-0.6v-0.1C19.1,14.4,19.2,14.4,19.2,14.4L19.2,14.4L19.2,14.4z M19.2,15.3v-0.6
		l0,0l5.1,0.1v0.6l0,0l0,0l0,0l0,0l0,0l0,0l0,0v-0.1l0,0h0.1l0,0l0,0l0,0l0,0l0,0l0,0l0,0l0,0l0,0l0,0l0,0l0,0l0,0h0.1v0.1l0,0h0.1
		l0,0l0,0l-0.1,0.1H24l0,0l-5.7-0.1l-0.1-0.1l0,0l0,0h0.1l0,0v-0.1h0.1l0,0l0,0l0,0l0,0l0,0l0,0l0,0l0,0l0,0l0,0l0,0l0,0l0,0h0.1
		l0,0v0.1l0,0H19.2L19.2,15.3L19.2,15.3L19.2,15.3L19.2,15.3L19.2,15.3z M18.8,15.6l6,0.1v0.1L18.8,15.6L18.8,15.6L18.8,15.6
		L18.8,15.6z M18.6,15.8l0.1-0.1l6,0.1l0.2,0.1l0,0l0,0l0,0H25V16v0.1l0,0l0.1,0.1h0.1l0,0l0-0.2l-6.8-0.1l0,0l0,0L18.6,15.8
		L18.6,15.8L18.6,15.8L18.6,15.8L18.6,15.8v-0.1V15.8L18.6,15.8L18.6,15.8L18.6,15.8L18.6,15.8z M18.7,16.1L18.7,16.1h6.4L25,16.2
		L18.7,16.1L18.7,16.1L18.7,16.1z M21.5,16.3L21.5,16.3h0.7v0.1l0,0h0.1l0,0v0.3l0,0h-0.1l0,0l0,0l0,0h-0.6v-0.1l0,0h-0.1l0,0V16.3
		L21.5,16.3L21.5,16.3L21.5,16.3L21.5,16.3L21.5,16.3z M24.8,16.7L24.8,16.7L24.8,16.7L24.8,16.7L24.8,16.7L24.8,16.7L24.8,16.7
		l-0.1,0.1L24.8,16.7C24.7,16.7,24.7,16.7,24.8,16.7C24.7,16.7,24.8,16.7,24.8,16.7L24.8,16.7L24.8,16.7L24.8,16.7L24.8,16.7z
		 M24.7,16.7L24.7,16.7L24.7,16.7L24.7,16.7h-0.1l0,0l0,0l0,0H24.7C24.6,16.7,24.6,16.7,24.7,16.7L24.7,16.7L24.7,16.7L24.7,16.7z
		 M24,16.7L24,16.7L24,16.7L24,16.7C24,16.7,23.9,16.7,24,16.7c-0.1,0-0.1,0-0.1,0l0,0C23.9,16.7,23.9,16.7,24,16.7L24,16.7L24,16.7
		L24,16.7L24,16.7L24,16.7z M23.3,16.7L23.3,16.7L23.3,16.7L23.3,16.7L23.3,16.7L23.3,16.7c0.1-0.1,0.1-0.1,0.1-0.1l0,0l0,0l0,0
		L23.3,16.7L23.3,16.7L23.3,16.7z M22.7,16.7L22.7,16.7L22.7,16.7L22.7,16.7L22.7,16.7L22.7,16.7c0.1,0,0.1,0,0.1,0l0,0l0,0l0,0l0,0
		H22.7L22.7,16.7L22.7,16.7L22.7,16.7L22.7,16.7L22.7,16.7z M22.2,16.2L22.2,16.2h0.3l0,0l0,0l0,0l0,0v0.4l0,0l0,0l0,0l0,0l0,0v-0.1
		l0,0l0,0l0,0l0,0v-0.3c0,0,0,0,0.1,0l0,0l0,0h0.2l0,0l0,0l0,0l0,0v0.3l0,0h-0.1l0,0H23v-0.4c0,0,0,0-0.1,0l0,0l0,0h0.2l0,0H23l0,0
		v0.4h0.1v-0.1l0,0l0,0l0,0v-0.3l0,0l0.1-0.1l0,0h0.1l0,0l0,0h0.1v0.3l0,0l0,0l0,0h0.1v-0.1v-0.4l0,0l0,0l0,0h0.3l0,0h-0.1l0,0v0.4
		l0,0h0.1l0,0l0,0l0,0l0,0l0,0l0,0v-0.3h0.1H24c0,0,0,0,0.1,0h0.1l0,0c0,0,0.1,0,0.1,0.1v0.3h-0.1l0,0l0,0h0.1l0,0v-0.4l0,0l0,0l0,0
		h0.2l0,0h-0.1l0,0v0.4l0,0h0.1l0,0l0,0l0,0l0,0l0,0l0,0V16c0,0,0,0,0.1,0l0,0c0,0,0,0,0.1,0h0.1h0.1c0,0,0.1,0,0.1,0.1l0,0v0.2l0,0
		l0,0V16l0,0l0,0l0,0h0.1v0.4l0,0l0,0h0.1l0,0l0,0l0,0l0,0l0,0v0.1h-3l0,0l0,0h0.1C22.4,16.7,22.4,16.3,22.2,16.2
		C22.3,16.3,22.3,16.3,22.2,16.2C22.3,16.3,22.2,16.2,22.2,16.2L22.2,16.2L22.2,16.2z M18.8,16.6L18.8,16.6L18.8,16.6L18.8,16.6
		C18.8,16.6,18.8,16.7,18.8,16.6C18.8,16.7,18.8,16.7,18.8,16.6L18.8,16.6c0.1,0.1,0.1,0.1,0.1,0.1l0,0L18.8,16.6
		C18.9,16.6,18.8,16.6,18.8,16.6L18.8,16.6L18.8,16.6L18.8,16.6z M19,16.6L19,16.6L19,16.6L19,16.6L19,16.6h0.1l0,0l0,0l0,0H19
		C19,16.7,19,16.7,19,16.6C19,16.7,19,16.6,19,16.6L19,16.6L19,16.6z M19.6,16.6L19.6,16.6L19.6,16.6L19.6,16.6L19.6,16.6h0.1l0,0
		H19.6L19.6,16.6L19.6,16.6C19.6,16.7,19.6,16.6,19.6,16.6L19.6,16.6L19.6,16.6L19.6,16.6L19.6,16.6z M20.8,16.6L20.8,16.6
		L20.8,16.6L20.8,16.6C20.9,16.6,20.9,16.6,20.8,16.6C20.9,16.6,20.9,16.7,20.8,16.6c0.1,0,0.1,0,0.1,0l0,0l0,0l0,0l0,0l0,0H20.8
		C20.8,16.7,20.8,16.7,20.8,16.6C20.8,16.7,20.8,16.6,20.8,16.6L20.8,16.6L20.8,16.6z M18.7,16.6v-0.5h0.2l0,0h-0.1v0.3l0,0l0,0
		v-0.2l0.1-0.1H19h0.1h0.1h0.1l0.1,0.1l0,0v0.2l0,0l0,0l0,0l0,0l0,0v0.1h0.1l0,0l0,0v-0.4h-0.1l0,0h0.2l0,0h-0.1v0.1v0.3l0,0h0.1
		l0,0h-0.1v-0.2v-0.1l0,0h0.1l0,0h0.1l0.1,0.1v0.1v0.1v0.1v0.1l0,0l0,0l0,0l0,0l0,0l0,0h0.1v-0.4h-0.1l0,0l0,0h0.3l0,0H20l0,0v0.4
		h0.1l0,0H20v-0.3l0,0l0.1-0.1l0,0h0.1l0,0l0.1,0.1v0.1v0.2l0,0l0,0l0,0v0.1h0.1l0,0v-0.4h-0.1l0,0l0,0h0.2l0,0l0,0h-0.1l0,0v0.4
		l0,0h0.1l0,0h-0.1l0,0v-0.2l0,0l0.1-0.1l0,0h0.2l0,0l0.1,0.1h0.1l0,0v0.2v0.1l0,0l0,0h-0.1l0,0l0,0l0,0h0.1v-0.4l0,0h-0.1l0,0h0.3
		l0,0H21l0,0v0.4h0.1l0,0l0,0l0,0h-3v-0.1l0,0v0.1l0,0L18.7,16.6L18.7,16.6L18.7,16.6L18.7,16.6z M15.4,16.9v-0.1L28.1,17v0.1H24V17
		h-0.1v0.1L19.7,17v-0.1h-0.1V17L15.4,16.9L15.4,16.9L15.4,16.9z M19.6,17.1L19.6,17.1c0-0.1,0.1-0.1,0.1-0.1L19.6,17.1L19.6,17.1
		L19.6,17.1L19.6,17.1z M19.7,17.2h-0.1v0.1h-0.1l0,0l0,0l0,0c0,0,0,0.1,0.1,0.1h0.1l0,0l0,0v0.8c0,0,0,0-0.1,0l0,0l0,0l0,0l0,0v0.1
		h-0.1l-0.1-0.1l0,0h-0.1l0,0l0,0l0,0l0,0l0,0l0,0l0,0l0,0l0,0l0,0l0,0l0,0l0,0l0,0l-0.1,0.1h1.2v-0.1l0,0l0,0h-0.1l0,0v-0.8l0,0
		l0,0h0.1v-0.1l0,0l-0.1,0.1h-0.1h-0.1L19.7,17.2L19.7,17.2L19.7,17.2L19.7,17.2z M19,17.7c-0.1,0-0.1,0-0.2,0.1v0.3l0,0l0,0l0,0
		l0,0h0.1l0,0l0,0l0,0H19l0,0l0,0v-0.3C19.1,17.8,19.1,17.7,19,17.7L19,17.7L19,17.7z M17.2,18.1V18V18.1L17.2,18.1L17.2,18.1
		L17.2,18.1h0.1l0,0l0,0l0,0v0.1l0,0l0,0L17.2,18.1L17.2,18.1L17.2,18.1L17.2,18.1L17.2,18.1z M17.4,18.2L17.4,18.2L17.4,18.2v-0.1
		V18.2L17.4,18.2L17.4,18.2L17.4,18.2L17.4,18.2l0.1-0.1l0,0l0,0l0,0l0,0l0,0L17.4,18.2L17.4,18.2L17.4,18.2L17.4,18.2L17.4,18.2z
		 M17.7,18.1L17.7,18.1L17.7,18.1v0.1l0,0l0,0h0.1l0,0v-0.1H17.7L17.7,18.1L17.7,18.1L17.7,18.1L17.7,18.1L17.7,18.1L17.7,18.1z
		 M17.9,18.1L17.9,18.1L17.9,18.1L17.9,18.1H18l0,0v0.1l0,0L17.9,18.1L17.9,18.1L17.9,18.1L17.9,18.1L17.9,18.1L17.9,18.1z
		 M18.2,18.1L18.2,18.1L18.2,18.1v0.1l0,0l0,0l0,0l0,0l0,0V18.1L18.2,18.1L18.2,18.1L18.2,18.1L18.2,18.1L18.2,18.1L18.2,18.1z
		 M18.5,18.1L18.5,18.1L18.5,18.1L18.5,18.1L18.5,18.1v0.1l0,0l0,0V18.1l0.1,0.1l0,0l0,0l0,0L18.5,18.1L18.5,18.1L18.5,18.1
		L18.5,18.1L18.5,18.1L18.5,18.1z M17,18.2v-0.1l0,0V18.2L17,18.2l0.1-0.1l0,0l0,0l0,0v0.1l0,0l0,0C17.1,18.2,17.1,18.2,17,18.2
		C17.1,18.2,17,18.2,17,18.2L17,18.2L17,18.2L17,18.2L17,18.2L17,18.2z M20.1,17.8v0.3h0.3v-0.3c0,0,0-0.1-0.1-0.1
		C20.2,17.7,20.1,17.8,20.1,17.8L20.1,17.8L20.1,17.8z M20.1,18.2L20.1,18.2L20.1,18.2L20.1,18.2L20.1,18.2l0.1-0.1l0,0h0.1l0,0l0,0
		l0,0h0.1l0,0l0,0l0,0h0.1h0.1l0,0l0,0L20.1,18.2L20.1,18.2L20.1,18.2L20.1,18.2L20.1,18.2z M22,18.1h-0.3v-0.4c0,0,0-0.1,0.2-0.1
		c0.1,0,0.2,0.1,0.2,0.1L22,18.1L22,18.1L22,18.1z M21.6,18.2L21.6,18.2L21.6,18.2L21.6,18.2l-0.1,0.1h0.7l-0.1-0.1l0,0l0,0l0,0l0,0
		l0,0H22l0,0l0,0l0,0h-0.1l0,0l0,0l0,0l0,0l0,0H21.6L21.6,18.2L21.6,18.2L21.6,18.2L21.6,18.2z M23.4,18.2h-0.3v-0.3
		c0,0,0-0.1,0.1-0.1s0.1,0.1,0.1,0.1L23.4,18.2L23.4,18.2L23.4,18.2z M23.6,18.3H23l0,0l0,0l0,0h0.2l0,0h0.1l0,0l0,0l0,0l0,0l0,0
		l0,0l0,0l0,0l0,0l0,0H23.6L23.6,18.3L23.6,18.3L23.6,18.3L23.6,18.3L23.6,18.3L23.6,18.3z M23.9,17.2L23.9,17.2L23.9,17.2l0.1-0.1
		l0,0v0.1H23.9L23.9,17.2L23.9,17.2z M23.7,17.3L23.7,17.3L23.7,17.3l0.1,0.1l0,0l0,0v-0.1l0,0h0.1l0,0v0.1H24h0.1l0,0l0,0l0,0l0,0
		v0.1l0,0l0,0H24l0,0v0.8l0,0l0,0l0,0l0,0l0,0l0,0l0,0l0,0l0,0l0,0h0.1l0,0l0,0h-0.6l0,0l0,0l0,0l0,0l0,0l0,0l0,0l0,0l0,0l0,0l0,0
		v-0.8h-0.1h-0.1L23.7,17.3L23.7,17.3L23.7,17.3L23.7,17.3L23.7,17.3z M24.8,18.2h-0.3v-0.3c0,0,0-0.1,0.1-0.1s0.2,0.1,0.2,0.1
		L24.8,18.2L24.8,18.2L24.8,18.2z M24.9,18.4h-0.6v-0.1l0,0l0,0l0,0l0,0h0.1l0,0h0.1l0,0l0,0l0,0h0.1l0,0l0,0l0,0l0,0l0,0h0.1
		L24.9,18.4L24.9,18.4L24.9,18.4C24.9,18.3,24.9,18.4,24.9,18.4L24.9,18.4L24.9,18.4L24.9,18.4z M22.4,18.1L22.4,18.1L22.4,18.1
		L22.4,18.1L22.4,18.1v0.1h-0.1L22.4,18.1L22.4,18.1L22.4,18.1L22.4,18.1L22.4,18.1L22.4,18.1z M20.9,18.2L20.9,18.2L20.9,18.2
		L20.9,18.2H21l0,0l0,0l0,0v0.1h-0.1V18.2L20.9,18.2L20.9,18.2L20.9,18.2z M21.2,18.2v-0.1l0,0l0,0V18.2L21.2,18.2h0.1l0,0l0,0l0,0
		l0,0H21.2L21.2,18.2L21.2,18.2L21.2,18.2z M22.5,18.2L22.5,18.2L22.5,18.2L22.5,18.2h0.1l0,0l0,0l0,0v0.1l0,0L22.5,18.2L22.5,18.2
		L22.5,18.2L22.5,18.2L22.5,18.2z M23.8,17.1l-4-0.1l0,0l0,0l0,0l0,0l0,0l0,0l0,0l0,0l0,0l0,0l0,0v0.1c0,0,0,0,0,0.1v0.1
		c0,0,0,0-0.1,0c0,0,0,0-0.1,0h-0.1v0.6l0,0l0,0l0,0l0,0l0,0l0,0l0,0l0,0l0,0l0,0l0,0l0,0h0.1l0,0c0,0,0-0.2,0-0.3
		c0,0,0-0.2,0.2-0.2s0.2,0.2,0.2,0.2v0.3h0.1l0,0l0,0l0,0V18l0,0h0.7v-0.1l0,0l0,0v-0.1h0.1v-0.3c0,0,0-0.2,0.2-0.2s0.2,0.2,0.2,0.2
		v0.3l0,0h0.1v0.1l0,0l0,0l0.1,0.1h0.7l0,0l0,0l0.1-0.1h0.1v-0.4c0,0,0-0.1,0.2-0.1s0.2,0.1,0.2,0.1v0.3l0.1,0.1v-0.1H23l0,0l0,0
		l0,0v-0.7h-0.1L22.8,17v-0.1v-0.1l0.1-0.1L23.8,17.1v0.1V17.1L23.8,17.1L23.8,17.1z M25.4,18.1L25.4,18.1L25.4,18.1L25.4,18.1
		L25.4,18.1l-0.1,0.1l0,0l0,0v0.1l0,0l0,0l0,0l0,0l0,0l0,0C25.4,18.2,25.4,18.2,25.4,18.1C25.4,18.2,25.4,18.2,25.4,18.1
		C25.4,18.2,25.4,18.1,25.4,18.1L25.4,18.1L25.4,18.1z M25.5,18.2L25.5,18.2L25.5,18.2h0.1l0,0l0,0l0,0v0.1l0,0L25.5,18.2L25.5,18.2
		L25.5,18.2L25.5,18.2L25.5,18.2C25.5,18.3,25.5,18.3,25.5,18.2C25.5,18.3,25.5,18.2,25.5,18.2L25.5,18.2L25.5,18.2L25.5,18.2z
		 M25.9,18.2L25.9,18.2L25.9,18.2L25.9,18.2L25.9,18.2L25.9,18.2h-0.1l0,0l0,0l0,0l0,0l0,0l0,0l0,0H25.9L25.9,18.2L25.9,18.2
		L25.9,18.2L25.9,18.2z M26,18.3L26,18.3L26,18.3L26,18.3L26,18.3l0.1-0.1l0,0l0,0l0,0l0,0l0,0l0,0l0,0L26,18.3L26,18.3L26,18.3
		L26,18.3z M26.5,18.3L26.5,18.3L26.5,18.3L26.5,18.3l0.1-0.1l0,0l0,0v0.1l0,0l0,0H26.5L26.5,18.3L26.5,18.3L26.5,18.3L26.5,18.3
		L26.5,18.3L26.5,18.3z M26.3,18.2L26.3,18.2L26.3,18.2L26.3,18.2l0.1-0.1l0,0l0,0v0.1l0,0H26.3L26.3,18.2L26.3,18.2L26.3,18.2
		L26.3,18.2z M25,18.2L25,18.2L25,18.2h0.1l0,0v-0.1l0,0l0,0v0.1l0,0l0,0l0,0H25L25,18.2L25,18.2C25,18.3,25,18.3,25,18.2
		C25,18.3,25,18.2,25,18.2L25,18.2L25,18.2z M29.6,23.2l-0.3-2.4l-0.9,0.8l0.1,1.8L29.6,23.2L29.6,23.2L29.6,23.2z M28.2,20.5v-0.4
		h-0.1c0,0,0,0.7-0.2,1.1s-0.4,0.7-0.5,0.8c-0.2,0.2-0.3,0.3-0.5,0.4s-0.6,0.3-0.7,0.4c-0.1,0-0.2,0.1-0.2,0.1l0.1,0.1
		c0,0,0.6-0.2,0.7-0.3c0.1-0.1,0.3-0.2,0.3-0.2v2.2h0.6v0.2l-1,0.1l0.1-0.7l0.3-0.8l0,0l-0.4,0.8l-0.3,0.4l-2.5-1.1l0,0l0.5,0.2
		l0.1,1h-0.1V25h0.4v-0.1l0.6-0.1v-0.5l0.2,0.2l0.8,0.3l0.2-0.3V25l1.3-0.1v-0.3l0.7-0.1V24l0.8-0.1v-0.5H30l-0.3-2.9L28.9,21
		c0,0,0.3-0.5,0.3-0.8c0.1-0.3,0.1-0.7,0.1-0.7l-0.1-0.3c0,0,0,0.6-0.1,0.9c-0.2,0.4-0.3,0.6-0.4,0.8c-0.1,0.2-0.5,0.5-0.5,0.5
		s0.3-0.5,0.4-0.9s0.1-0.9,0.1-1v-0.2h-0.1c0,0,0,0.9-0.1,1.1s-0.1,0.4-0.2,0.6s-0.2,0.5-0.3,0.6c-0.1,0.1-0.4,0.3-0.4,0.3
		s0.4-0.5,0.5-0.8C28.1,20.9,28.2,20.7,28.2,20.5L28.2,20.5L28.2,20.5z M23.4,2l-1.2-0.1h-0.1V2l0,0l1.2,0.1l0.8,0.2
		c0,0,0.2,0.1,0.3,0.1c0,0,0.2,0.2,0.2,0.3C24.7,2.8,24.9,3,25,3s0.3-0.1,0.2-0.2c0-0.1-0.2-0.2-0.3-0.2c-0.1,0-0.3-0.1-0.3-0.1
		c-0.1,0-0.2-0.2-0.2-0.2C24.4,2.2,23.7,2.1,23.4,2L23.4,2L23.4,2z M24.2,2.8l0.4-0.1c0,0,0-0.2-0.1-0.3S24,2.3,23.9,2.2
		c-0.2,0-0.6-0.1-0.8-0.1c-0.2,0-0.8-0.1-0.8-0.1h-0.1v0.1l0,0c0,0,0.7,0,0.8,0.1c0.2,0,0.6,0.1,0.8,0.1c0.1,0,0.3,0.1,0.4,0.2
		C24.2,2.7,24.2,2.8,24.2,2.8L24.2,2.8L24.2,2.8z M22.6,2.4h-0.4h-0.1v0.1c0,0,0.8,0,0.9,0.1c0.2,0,0.7,0.1,0.7,0.1
		c0.1,0,0,0.1,0,0.1s-0.6-0.1-0.8-0.1c-0.2,0-0.7-0.1-0.7-0.1c-0.1,0-0.1,0-0.1,0l0,0l0,0c0,0,0.7,0,0.9,0.1c0.2,0,0.6,0.1,0.6,0.1
		C23.8,3,24,3,24,3l0.1-0.1c0-0.1,0-0.1-0.1-0.2c-0.1,0-0.1-0.1-0.3-0.1c-0.2,0-0.6-0.1-0.7-0.1C22.9,2.5,22.7,2.5,22.6,2.4
		L22.6,2.4L22.6,2.4z M24.5,2.9c0.1,0,0.1,0,0.2,0c0,0,0.1,0,0.1,0.1s-0.1,0.2-0.2,0.2s-0.3,0-0.3,0c-0.1,0-0.3,0-0.3,0
		s-0.2-0.1-0.4-0.1c-0.2,0-0.4-0.1-0.5-0.1s-0.5,0-0.5,0s-0.1,0-0.1-0.1c0,0,0-0.1,0.1-0.1c0,0,0.7,0,1,0.1S24.1,3,24.1,3
		s0.2,0,0.2-0.1C24.2,3,24.3,2.9,24.5,2.9L24.5,2.9L24.5,2.9z M22.5,3.5l-0.2-0.2h0.1c0,0,0.2-0.1,0.4-0.1c0.2,0,0.4,0.2,0.4,0.2
		s-0.1,0-0.1,0.1l-0.2,0.1c0,0,0,0.2,0.1,0.2h-0.1c0,0-0.2-0.1-0.3-0.1C22.6,3.6,22.6,3.6,22.5,3.5L22.5,3.5L22.5,3.5z M24.8,2.4
		L24.8,2.4c0-0.1,0.3,0,0.4,0s0.3,0.1,0.4,0.1v0.1c0,0,0.1,0.1,0.3,0.2c0.2,0.1,0.3,0.3,0.3,0.3s0,0.1-0.1,0.1c0,0-0.3,0-0.4-0.1
		s-0.2-0.2-0.3-0.3c0-0.1,0-0.2-0.1-0.2c-0.1-0.1-0.1-0.1-0.2-0.2C25,2.5,24.8,2.5,24.8,2.4L24.8,2.4L24.8,2.4z M25.4,3.1h-0.2
		c-0.2,0-0.3,0-0.4,0.1c-0.1,0-0.1,0.1-0.2,0.1s-0.3,0-0.3,0l0.4,0.1c0,0,0.1-0.1,0.2-0.1c0.2,0,0.2,0,0.4,0c0.2,0,0.2-0.1,0.2-0.1
		C25.5,3.2,25.5,3.2,25.4,3.1L25.4,3.1L25.4,3.1z M23.2,3.8L23.2,3.8C23.1,3.7,23.1,3.7,23.2,3.8c0.1-0.1,0.2-0.2,0.3-0.2
		c0.2,0,0.2,0.1,0.3,0.2C24,3.8,24,3.9,24,3.9V4c0,0-0.2,0.2-0.3,0.1c-0.1,0-0.3-0.1-0.4-0.2C23.3,3.9,23.2,3.8,23.2,3.8L23.2,3.8
		L23.2,3.8z M23.9,3.6L23.9,3.6C23.8,3.5,23.9,3.5,23.9,3.6C24,3.5,24,3.4,24.2,3.5c0.2,0,0.4,0.1,0.4,0.1s-0.3,0-0.3,0.1
		c0,0.2,0.1,0.3,0.1,0.3s-0.1,0-0.1,0.1L24.2,4c0,0-0.1-0.2-0.1-0.3C24,3.6,23.9,3.6,23.9,3.6L23.9,3.6L23.9,3.6z M23.1,4l0.1-0.1
		c0,0,0.1,0.1,0.3,0.2c0.2,0.1,0.5,0,0.5,0v0.1l0.2,0.2c0,0-0.3-0.1-0.5-0.1c-0.1,0-0.3-0.1-0.3-0.1l-0.1-0.1
		C23.2,4.1,23.1,4,23.1,4L23.1,4L23.1,4z M25.1,3.5H25l0.7,0.3c0,0,0.1-0.1,0.3,0c0.2,0,0.3,0,0.4,0s0.2-0.1,0.1-0.1
		c0-0.1-0.1-0.2-0.2-0.2s-0.3-0.1-0.4,0c-0.2,0-0.3,0.1-0.4,0.1C25.3,3.5,25.1,3.5,25.1,3.5L25.1,3.5L25.1,3.5z M25.2,3.9l0.1-0.1
		c0,0,0,0-0.1-0.1c-0.1,0-0.2-0.1-0.3-0.1c-0.2,0-0.2,0.1-0.3,0.1c0,0-0.2,0-0.2,0.1c0,0,0.1,0.1,0.1,0.2c0.1,0.1,0.1,0.2,0.1,0.2
		L25,4.4h0.2c0,0,0,0-0.1-0.1c0,0-0.1-0.1-0.1-0.2C25.1,4,25.2,3.9,25.2,3.9L25.2,3.9L25.2,3.9z M24.5,4.1L24.5,4.1
		c0,0,0.1,0.1,0.2,0.2C24.8,4.4,25,4.4,25,4.4s-0.2,0-0.2,0.1v0.1h-0.2c-0.1,0-0.1,0-0.2-0.1c-0.1,0-0.1-0.1-0.1-0.2
		c-0.1-0.1-0.2-0.1-0.2-0.1s0.1-0.1,0.2,0C24.3,4.2,24.5,4.1,24.5,4.1L24.5,4.1L24.5,4.1z M26.1,2.8l-0.3-0.1v0.1l0,0
		C25.8,2.8,26,2.8,26.1,2.8c0.1,0.2,0.2,0.6,0.4,0.7C26.7,3.7,27,3.8,27,3.7c0.1-0.1,0-0.2-0.1-0.3s-0.2-0.2-0.3-0.2L26.5,3
		C26.5,3,26.3,2.9,26.1,2.8L26.1,2.8L26.1,2.8z M26,4.3L26,4.3c0-0.1-0.3-0.2-0.3-0.3c0,0-0.1,0-0.2-0.1c-0.1,0-0.2,0-0.3,0.1
		c-0.1,0-0.1,0.1-0.1,0.1s0,0.1,0.1,0.1l0.1,0.1c0,0,0.2,0,0.3,0c0.1,0.1,0.2,0.1,0.2,0.1L26,4.3L26,4.3C26.1,4.4,26,4.3,26,4.3
		L26,4.3L26,4.3z M26.8,3.2L26.8,3.2c0-0.1,0.3,0.1,0.4,0.1s0.2,0.1,0.2,0.1s0,0.2,0.1,0.2c0.1,0.1,0.2,0.1,0.3,0.2
		C27.9,3.9,27.9,4,27.9,4h-0.2c0,0-0.2,0-0.3-0.1c-0.1-0.1-0.2-0.2-0.2-0.3s0-0.2,0-0.2c0-0.1-0.1-0.2-0.2-0.2
		C26.9,3.3,26.8,3.3,26.8,3.2L26.8,3.2L26.8,3.2z M25.9,3.8h0.2c0.1,0,0.4-0.1,0.5-0.1s0.4,0,0.5,0.1s0.2,0.1,0.2,0.2
		c0,0.1-0.1,0.1-0.2,0.1s-0.2-0.1-0.3,0c-0.1,0-0.2,0-0.2,0S26.3,4,26.2,4C26,4,25.9,3.9,25.9,3.8C25.9,3.9,25.8,3.9,25.9,3.8
		L25.9,3.8L25.9,3.8L25.9,3.8z M26.2,4.5l-0.1-0.2c0,0,0.4,0.1,0.6,0.3C26.9,4.7,27.1,5,27.1,5H27v0.2L26.8,5c0,0,0-0.2-0.2-0.3
		C26.5,4.6,26.2,4.5,26.2,4.5L26.2,4.5L26.2,4.5z M25.6,4.5l0.1-0.1c0,0-0.2-0.1-0.3-0.1c-0.1,0-0.2,0.1-0.3,0.1
		c-0.1,0-0.2,0-0.2,0.1c0,0,0,0,0,0.1c0,0,0.3,0.2,0.4,0.2s0.4,0,0.4,0V4.7C25.7,4.8,25.5,4.7,25.6,4.5L25.6,4.5L25.6,4.5z
		 M26.4,4.6c-0.3-0.1-0.5,0-0.7,0c0,0,0.1,0.1,0.1,0.2s0.1,0.3,0.2,0.3s0.4,0,0.5,0s0.2,0,0.2,0S26.6,4.7,26.4,4.6L26.4,4.6
		L26.4,4.6z M26.5,5.6c-0.1-0.1-0.2-0.2-0.3-0.3c0,0,0.3,0,0.4-0.1c0.1,0,0.4,0.1,0.4,0.1v0.1h-0.1c0,0,0,0.1,0,0.2s0,0.2,0,0.2
		S26.6,5.6,26.5,5.6L26.5,5.6L26.5,5.6z M27.7,4.3l0.2,0.1c0,0,0.2,0.2,0.1,0.3c-0.1,0.1-0.3,0-0.3,0s-0.1-0.1-0.2-0.1s-0.2,0-0.2,0
		S27,4.5,26.9,4.4s-0.3-0.2-0.3-0.2V4.1c0,0,0.3,0.1,0.4,0.1s0.4,0,0.5,0C27.5,4.3,27.6,4.3,27.7,4.3L27.7,4.3L27.7,4.3z M27.1,5.3
		V5c0,0,0.2,0.1,0.3,0.1c0.1,0,0.2,0.1,0.3,0.2c0.1,0.1,0.1,0.1,0.1,0.1h-0.1v0.4c0,0-0.1,0-0.2-0.1C27.4,5.7,27.3,5.5,27.1,5.3
		C27.1,5.3,27.1,5.3,27.1,5.3L27.1,5.3L27.1,5.3z M27,5.6L27,5.6C27,5.5,27.1,5.5,27,5.6c0.1-0.1,0.2,0.1,0.3,0.1
		c0.1,0,0.3,0.1,0.3,0.1l0,0c0,0,0,0-0.1,0c0,0-0.1,0-0.1,0.1v0.2v0.1L27.1,6c0-0.1-0.1-0.1-0.1-0.2C27,5.7,27,5.6,27,5.6L27,5.6
		L27,5.6z M27.8,5.6V5.4c0,0,0.1,0.1,0.2,0.1s0.3,0.1,0.3,0.2c0.1,0.2,0.1,0.4,0.1,0.4h-0.1c0,0-0.1-0.2-0.2-0.1C28,6,28,6.2,28,6.2
		S27.8,6,27.8,5.9C27.8,5.9,27.8,5.7,27.8,5.6L27.8,5.6L27.8,5.6z M27.6,6.3V6c0,0,0.1,0.1,0.2,0.1s0.3,0.3,0.3,0.3v0.2v0.1H28
		l-0.3-0.2C27.6,6.4,27.6,6.4,27.6,6.3L27.6,6.3L27.6,6.3z M27.5,3.6L27.5,3.6c0.1,0,0.5,0.2,0.6,0.3s0.4,0.3,0.4,0.3l-0.2,0.2
		c0,0,0.6,0.5,0.8,0.7c0.2,0.2,0.6,0.6,0.6,0.6s0.2,0.1,0.2,0.2c0.1,0.1,0,0.5,0,0.5h-0.1l-0.2-0.2c0,0,0-0.3,0-0.4S29.1,5.3,29,5.2
		s-0.6-0.6-0.7-0.6c-0.1-0.1-0.3-0.1-0.4-0.4s0-0.2-0.1-0.3S27.7,3.7,27.5,3.6C27.5,3.6,27.5,3.6,27.5,3.6L27.5,3.6L27.5,3.6z
		 M28.2,4.6L28.2,4.6C28.1,4.6,28.1,4.7,28.2,4.6c-0.1,0.1,0.5,0.5,0.5,0.6c0.1,0.1,0.4,0.4,0.4,0.5c0,0,0,0,0,0.1l0,0
		c0,0-0.3-0.3-0.5-0.4c-0.1-0.1-0.3-0.2-0.3-0.3l-0.2-0.2c0,0,0,0-0.1,0c0,0-0.1,0-0.1,0.1l0.3,0.3c0,0,0.4,0.3,0.4,0.4L28.9,6
		c0,0,0.2,0.2,0.3,0.2c0.1,0,0.2,0,0.2-0.1V5.9L29,5.5c-0.1-0.1-0.2-0.2-0.3-0.3c-0.1-0.1-0.2-0.2-0.3-0.3
		C28.4,4.8,28.2,4.7,28.2,4.6L28.2,4.6L28.2,4.6z M28.7,4.4L28.7,4.4C28.6,4.3,28.6,4.4,28.7,4.4C28.6,4.4,28.6,4.4,28.7,4.4
		c0,0.1,0.6,0.7,0.7,0.8C29.5,5.3,30,5.7,30,5.9c0,0.1,0,0.2,0,0.3s0,0.3,0,0.4s0,0.2,0.1,0.3c0.1,0.1,0.2-0.1,0.2-0.1
		s0-0.2-0.1-0.3c-0.1-0.1-0.1-0.2-0.1-0.2c0-0.1,0-0.3,0-0.3s-0.5-0.6-0.7-0.8C29.3,5,29,4.7,28.9,4.6S28.7,4.4,28.7,4.4L28.7,4.4
		L28.7,4.4z M27.9,5.1L27.9,5.1c0.1,0,0.6,0.4,0.8,0.6c0.2,0.2,0.5,0.5,0.5,0.5s0.2,0,0.3,0.1c0.1,0,0.3,0.1,0.3,0.2
		s0.1,0.2,0.1,0.2h-0.2c0,0-0.1-0.2-0.2-0.2s-0.2,0-0.2,0S28.8,6,28.7,5.9C28.5,5.7,27.9,5.2,27.9,5.1C27.9,5.2,27.9,5.1,27.9,5.1
		L27.9,5.1L27.9,5.1z M28.2,6.4V6.2l0.1,0.1c0,0,0.2-0.1,0.3,0c0.1,0.1,0.2,0.2,0.2,0.3c0,0.1,0,0.5,0,0.6s0,0.1,0,0.2l0.1,0.1
		l-0.1-0.1c0,0,0-0.1-0.1-0.2c0-0.1-0.1-0.2-0.2-0.2c-0.1-0.1-0.2-0.1-0.2-0.2s-0.1-0.2-0.1-0.2C28.2,6.6,28.2,6.4,28.2,6.4
		L28.2,6.4L28.2,6.4z M30.5,6.2l-0.1-0.1h-0.1l0,0v0.1l0.1,0.1l0.1,0.1V6.2C30.5,6.3,30.5,6.3,30.5,6.2C30.5,6.3,30.5,6.2,30.5,6.2
		L30.5,6.2L30.5,6.2z M29.4,6.6L29.4,6.6c-0.1,0-0.1,0-0.1,0S29.5,7,29.6,7h0.2C29.9,7,30,7.2,30,7.2c0.1,0,0.3,0.1,0.3,0.1
		s0.1-0.1-0.1-0.2C30.1,7,30,6.9,29.8,6.9c-0.2,0-0.2,0-0.3-0.1C29.6,6.8,29.4,6.6,29.4,6.6L29.4,6.6L29.4,6.6z M28.9,6.8V6.6
		C29,6.6,29,6.7,28.9,6.8c0.1-0.1,0.3-0.1,0.3,0L29.3,7c0,0,0.1,0.1,0.1,0.2s0,0.2,0,0.2s-0.2-0.1-0.3-0.1C29,7.3,29,7.4,29,7.4
		s0-0.3-0.1-0.3C28.9,7,28.9,6.9,28.9,6.8L28.9,6.8L28.9,6.8z M28.3,7.2L28,6.8l0.1,0.1c0,0,0.3,0.2,0.3,0.3c0,0,0.1,0.2,0.2,0.2
		v0.1C28.6,7.4,28.4,7.2,28.3,7.2L28.3,7.2L28.3,7.2z M30.8,6.1L30.8,6.1l0.1,0.1L31,6.3l-0.2,0.2c0,0-0.1,0.2,0,0.2L31,6.6l0.2-0.1
		l0.1,0.2l0.1,0.1l-0.1,0.1H31c-0.1,0-0.1,0-0.2,0c0,0-0.1-0.1-0.1-0.2s0.1-0.3,0.1-0.3C30.7,6.3,30.7,6.2,30.8,6.1
		C30.7,6.1,30.8,6.1,30.8,6.1L30.8,6.1L30.8,6.1z M30.5,7.1V6.9L30.6,7c0,0,0.1,0,0.2,0l0.1,0.2c0,0.1,0,0.2,0,0.2s-0.1,0.1-0.2,0
		C30.6,7.4,30.6,7.3,30.5,7.1C30.5,7.3,30.5,7.2,30.5,7.1L30.5,7.1L30.5,7.1z M29.8,7.1L29.8,7.1C29.7,7,29.7,7.1,29.8,7.1
		c-0.1,0,0.2,0.5,0.2,0.5s0.2,0.1,0.3,0.1C30.4,7.9,30.5,8,30.5,8s0.2,0.1,0.3,0c0.1-0.1,0-0.2-0.1-0.4c-0.1-0.1-0.2-0.2-0.4-0.2
		c-0.2,0-0.2,0-0.3-0.1C29.9,7.2,29.9,7.2,29.8,7.1L29.8,7.1L29.8,7.1z M29.3,7.6V7.4l0.2,0.1c0.1,0,0.1,0,0.2,0
		c0,0,0.2,0.2,0.3,0.3C30,7.9,30,8,30,8s-0.2,0-0.2-0.1c-0.1,0-0.1-0.1-0.1,0c0,0-0.1,0.1,0,0.1v0.1h-0.1V8V7.8
		C29.5,7.8,29.4,7.6,29.3,7.6L29.3,7.6L29.3,7.6z M28.7,7.5L28.7,7.5c0.1-0.1,0.2,0,0.2,0c0.1,0,0.2,0,0.3,0.1
		c0.1,0.1,0.2,0.1,0.2,0.3c0.1,0.2,0,0.3,0,0.3c0,0.1-0.3,0-0.3,0s-0.2-0.3-0.3-0.4C28.8,7.7,28.7,7.6,28.7,7.5L28.7,7.5L28.7,7.5z
		 M30.9,7.1L30.9,7.1c0-0.1,0.2,0.1,0.2,0.2c0.1,0.1,0.1,0.2,0.1,0.2s-0.1,0.2,0,0.4c0.1,0.2,0.1,0.4,0.1,0.5c0,0-0.2,0-0.3-0.2
		c-0.1-0.2-0.1-0.4-0.1-0.5S31,7.4,31,7.3C31,7.3,30.9,7.1,30.9,7.1L30.9,7.1L30.9,7.1z M29.8,8.3L29.7,8c0,0,0.2,0.1,0.3,0.1
		c0.1,0,0.2,0,0.2,0.1c0,0,0.2,0.2,0.2,0.3s0.1,0.2,0,0.2c0,0-0.1,0-0.1-0.1l-0.1-0.1c0,0,0,0.1-0.1,0.1L30,8.5
		C29.9,8.5,29.8,8.4,29.8,8.3L29.8,8.3L29.8,8.3z M30.5,8.5l-0.3-0.6l0.2,0.2c0,0,0.3,0.1,0.5,0.2c0.2,0.2,0.3,0.3,0.3,0.4
		c0,0.1,0,0.2-0.1,0.2s-0.3-0.1-0.4-0.3C30.7,8.5,30.6,8.5,30.5,8.5L30.5,8.5L30.5,8.5z M31.4,7.9L31.4,7.9L31.4,7.9
		c-0.1,0,0.1,0.3,0.1,0.4s-0.2,0.4-0.1,0.5c0,0.2,0.2,0.4,0.2,0.4c0.1,0,0.2-0.1,0.2-0.2c0-0.1-0.1-0.3-0.1-0.4
		c0-0.1,0.1-0.3,0.1-0.3C31.7,8.4,31.4,7.9,31.4,7.9L31.4,7.9L31.4,7.9z M29.2,8.4L29.2,8.4c0-0.1,0.2,0,0.2,0s0.1,0,0.2,0
		s0.2,0.3,0.2,0.3s-0.2-0.1-0.2,0s0,0.2,0,0.3s0,0.2,0,0.2l-0.1-0.1c-0.1,0-0.2-0.3-0.2-0.3C29.3,8.6,29.2,8.4,29.2,8.4L29.2,8.4
		L29.2,8.4z M31.8,8.6L31.8,8.6L31.8,8.6c-0.1,0,0.1,0.3,0,0.4c0,0.1-0.1,0.3-0.1,0.3v0.3h0.4c0,0-0.1-0.5-0.2-0.6
		C31.9,9,31.8,8.6,31.8,8.6L31.8,8.6L31.8,8.6z M30.7,8.7L30.7,8.7l-0.1-0.1l0.3,0.8l0.2,0.1c0,0,0.2,0.4,0.3,0.3
		c0.1,0,0.2-0.3,0.1-0.5C31.4,9.2,31.1,9.1,31,9C30.8,8.9,30.7,8.7,30.7,8.7L30.7,8.7L30.7,8.7z M30.2,8.7L30.2,8.7
		c0,0,0.1,0,0.1,0.1c0.1,0,0.2,0,0.3,0.3c0.1,0.3,0,0.6,0,0.6s-0.1-0.2-0.1-0.4S30.4,9.1,30.3,9s-0.1-0.2-0.2-0.2
		C30.2,8.8,30.2,8.8,30.2,8.7L30.2,8.7L30.2,8.7z M29.8,8.9V8.7l0.1,0.1c0,0,0.1,0,0.2,0s0.3,0.2,0.3,0.4c0.1,0.2,0.1,0.4,0.1,0.4
		l0.2,0.2v0.1V9.8l-0.1-0.1l-0.1-0.1c-0.1,0-0.2,0-0.2-0.1c-0.1,0-0.3-0.2-0.3-0.3C29.8,9.1,29.8,9,29.8,8.9L29.8,8.9L29.8,8.9z
		 M29.9,10L30,9.6c0,0,0.1,0.2,0.2,0.2s0.1,0.1,0.1,0.2c0,0.1,0,0.2,0,0.2s-0.1-0.1-0.2-0.1S30,10.2,30,10.2v0.1v0.2
		c0,0,0-0.2-0.1-0.2C30,10.2,29.9,10.1,29.9,10L29.9,10L29.9,10z M30.8,9.9L30.8,9.9L30.8,9.9C30.7,9.9,30.7,9.9,30.8,9.9
		c-0.1,0-0.2,0.1-0.2,0.2c0,0.1,0,0.3,0,0.4c0,0.1,0.1,0.3,0.1,0.3l0.1-0.1c0,0,0,0,0.1,0l0.1-0.2c0.1,0,0.1,0.1,0.1,0.1
		s0-0.3-0.1-0.4S30.8,10,30.8,9.9L30.8,9.9L30.8,9.9z M30.4,10.4l-0.2-0.2c0,0-0.1,0.3-0.1,0.5c0.1,0.2,0.4,0.5,0.4,0.5V11
		c0,0-0.1-0.1-0.1-0.2C30.5,10.7,30.4,10.5,30.4,10.4L30.4,10.4L30.4,10.4z M30.9,10.7l0.1-0.2l0,0c0,0,0,0.1,0.1,0.2
		c0,0,0.1,0.1,0.1,0.2v0.4c0,0-0.1-0.1-0.1,0L31,11.5l-0.3-0.3c0,0,0-0.3,0.1-0.3l0,0C30.8,10.8,30.8,10.8,30.9,10.7L30.9,10.7
		L30.9,10.7z M31.1,11.5L31.1,11.5c0-0.1-0.1,0-0.1,0l0.2,0.2v-0.1C31.2,11.6,31.1,11.5,31.1,11.5L31.1,11.5L31.1,11.5z M31.8,10
		L31.8,10L31.8,10h-0.1v0.1c0,0,0.1,0.5,0.2,0.8c0,0.2,0.1,0.7,0.1,0.7l0,0h-0.1c0,0-0.1-0.7-0.1-0.8s-0.1-0.4-0.1-0.4
		s0-0.2-0.1-0.2c0,0,0,0-0.1,0h-0.1c0,0,0,0,0,0.1c0,0,0.1,0.4,0.1,0.5s0.1,0.7,0.1,0.8s0,0.2,0.1,0.3c0,0.1,0.1,0.1,0.1,0.1
		l0.2-0.1c0,0,0-0.1,0-0.2c0,0,0,0,0-0.1L31.9,11c0-0.1-0.1-0.4-0.1-0.4c0-0.1,0-0.3-0.1-0.3C31.8,10.1,31.8,10,31.8,10L31.8,10
		L31.8,10z M32,10L32,10L32,10L32,10h-0.1c0,0,0.1,0.6,0.2,0.8c0,0.2,0.1,0.9,0.1,1s0,0.2-0.1,0.2l-0.2,0.2v0.3v0.1
		c0,0,0.3-0.2,0.3-0.4s0-0.3,0-0.3c0-0.1-0.1-0.8-0.1-0.9c0-0.1-0.1-0.6-0.1-0.6C32.1,10.2,32,10,32,10L32,10L32,10z M31.4,10.3
		L31.4,10.3C31.3,10.3,31.3,10.3,31.4,10.3c-0.1,0,0,0.6,0.1,0.8c0,0.2,0.1,0.9,0.1,0.9l0.4,0.5c0,0,0,0,0-0.1s0-0.2-0.1-0.3
		s-0.2-0.2-0.2-0.3c0,0-0.1-0.7-0.1-0.8C31.5,11,31.4,10.4,31.4,10.3L31.4,10.3L31.4,10.3L31.4,10.3z M32.3,10.1L32.3,10.1
		L32.3,10.1c-0.1,0,0,0.4,0,0.6c0,0.3,0.1,0.8,0.1,0.9c0,0.1,0.1,0.4,0,0.5c-0.1,0.2-0.2,0.3-0.2,0.3l-0.1,0.1c0,0,0,0,0,0.1
		l0.2,0.3c0,0,0.1-0.2,0.1-0.3s0-0.2,0-0.3s0.1-0.1,0.1-0.2c0-0.1-0.1-0.9-0.1-1c0-0.2-0.1-0.5-0.1-0.6
		C32.4,10.5,32.3,10.2,32.3,10.1L32.3,10.1L32.3,10.1z M32.6,12.6L32.6,12.6L32.6,12.6L32.6,12.6L32.6,12.6c-0.1,0-0.1,0.2-0.1,0.3
		s-0.1,0.2-0.1,0.2l0,0l0.1,0.1h0.1c0,0,0-0.3,0-0.4C32.6,12.8,32.6,12.6,32.6,12.6L32.6,12.6L32.6,12.6z M30.4,12.7L30.4,12.7
		c0-0.1-0.1,0.2-0.2,0.3c0,0.2,0,0.2,0,0.4c0,0.1,0,0.2,0,0.3s0,0.1,0,0.1l0.1-0.1l0.1-0.1l0.1,0.1v-0.1l-0.1-0.1c0,0,0-0.1,0-0.2
		c0-0.1,0.1-0.2,0.1-0.3C30.5,12.9,30.4,12.7,30.4,12.7L30.4,12.7L30.4,12.7z M30.6,12.9l0.1-0.1l0.3,0.3c0,0,0,0.3-0.1,0.4
		c-0.1,0.1-0.3,0.2-0.3,0.2s-0.1-0.1-0.1-0.3s0-0.2,0-0.2C30.5,13.1,30.6,12.9,30.6,12.9L30.6,12.9L30.6,12.9z M31,13.5l0.1-0.2
		c0,0,0,0.1,0,0.2c0,0,0.1,0.1,0.1,0.3c0,0.1-0.1,0.5-0.1,0.5S31,14,30.9,14s-0.2,0.1-0.2,0.1l-0.1-0.2l0.1-0.1
		C30.8,13.7,30.9,13.6,31,13.5L31,13.5L31,13.5z M30.4,13.8v-0.1l0,0c0,0-0.1,0.1-0.1,0.2c-0.1,0.1-0.1,0.1-0.2,0.2
		c0,0.1,0,0.4,0,0.4h0.1c0.1,0,0.1,0.2,0.1,0.2s0-0.2,0.1-0.3s0.2-0.2,0.2-0.2v-0.1C30.5,13.9,30.4,13.9,30.4,13.8L30.4,13.8
		L30.4,13.8z M32,14.2L32,14.2l-0.5-0.6v0.1l0.1,0.1c0,0.1,0,0.4,0.1,0.5s0.2,0.1,0.2,0.1C31.9,14.3,32,14.2,32,14.2L32,14.2
		L32,14.2z M32,14.3L32,14.3l0.3,0.2c0,0-0.1,0.3-0.1,0.4c0,0.1-0.1,0.2-0.2,0.1c-0.1,0-0.1-0.1-0.1-0.3
		C31.9,14.4,31.9,14.4,32,14.3L32,14.3L32,14.3z M31.5,13.9L31.5,13.9C31.5,13.9,31.5,13.8,31.5,13.9C31.4,13.8,31.4,13.9,31.5,13.9
		l-0.2,0.4v0.2c0,0.1,0.1,0.2,0.1,0.3s0,0.3,0,0.4c0,0.1,0.1,0.1,0.1,0.1s0.2,0,0.2-0.2c0-0.1,0-0.3,0-0.5c-0.1-0.2-0.2-0.3-0.2-0.4
		S31.5,13.9,31.5,13.9L31.5,13.9L31.5,13.9z M30.8,14.1l0.1-0.1l0,0v0.1c0,0,0.1,0.2,0.1,0.3s-0.1,0.3-0.1,0.3l-0.1,0.2
		c0,0-0.1-0.2-0.2-0.2s-0.2,0.2-0.2,0.2s-0.1,0-0.1-0.1s0.1-0.3,0.1-0.4C30.6,14.2,30.7,14.1,30.8,14.1L30.8,14.1L30.8,14.1z
		 M30.1,14.6L30.1,14.6c0.1,0,0.1,0,0.1,0.1c0,0,0,0.1,0.1,0.1c0,0,0.1,0.1,0.1,0.2c0,0.1,0,0.3,0,0.3s-0.1-0.1-0.2-0.1
		S30,15.4,30,15.4s0,0-0.1,0c0,0-0.1,0-0.1-0.2s0.1-0.4,0.1-0.4C30,14.6,30.1,14.6,30.1,14.6L30.1,14.6L30.1,14.6z M32.3,14.6
		L32.3,14.6C32.3,14.6,32.4,14.6,32.3,14.6C32.4,14.6,32.4,14.6,32.3,14.6c0.1,0.1,0,0.5,0,0.5s0,0.1-0.1,0.1c0,0-0.1,0.1-0.2,0.1
		c0,0.1,0,0.1,0,0.2c0,0.1,0,0.2-0.1,0.2s-0.1,0.1-0.2,0.1c0,0-0.3,0.6-0.3,0.7S31,17.2,31,17.3c0,0.1-0.1,0.3-0.1,0.4
		s-0.2,0.2-0.2,0.2c-0.1,0-0.2,0.1-0.3,0.1c0,0-0.1,0-0.1-0.1c0,0,0.1-0.2,0.1-0.3l0.3-0.1c0-0.1,0.1-0.2,0.2-0.3
		c0-0.1,0.3-0.7,0.4-0.8c0-0.1,0.2-0.5,0.2-0.6s0-0.3,0-0.4c0-0.1,0.2-0.3,0.3-0.4c0.2-0.1,0.2-0.1,0.2-0.1c0-0.1,0.1-0.2,0.1-0.2
		C32.3,14.7,32.3,14.6,32.3,14.6L32.3,14.6L32.3,14.6z M31.3,14.7L31.3,14.7L31.3,14.7c0.1,0,0,0.4,0.1,0.5c0,0.1,0.2,0.3,0.2,0.5
		s0,0.2-0.1,0.3c0,0-0.1,0.1-0.2,0.3c-0.1,0.3-0.2,0.4-0.2,0.5C31,16.9,31,17,30.9,17.1c0,0.1,0,0.1,0,0.2l-0.1,0.1
		c-0.1,0-0.2,0.1-0.2,0.1s-0.1-0.1,0-0.3c0.1-0.2,0.3-0.5,0.4-0.8c0.1-0.2,0.3-0.5,0.2-0.6c0-0.2,0-0.2,0-0.3s0-0.1,0-0.1
		s0.1-0.4,0.1-0.5C31.2,14.9,31.3,14.7,31.3,14.7L31.3,14.7L31.3,14.7z M31.2,16.1L31.2,16.1c0,0-0.1,0-0.2,0.3s-0.2,0.4-0.2,0.5
		s-0.1,0.1,0,0.2c0,0,0.1,0,0,0c0,0,0.1-0.2,0.2-0.4c0.1-0.2,0.1-0.3,0.2-0.4C31.2,16.2,31.2,16.2,31.2,16.1L31.2,16.1L31.2,16.1z
		 M30.8,14.9v-0.1c0,0,0,0-0.1,0l-0.2,0.1c0,0,0,0.2,0,0.3s-0.1,0.2-0.1,0.3v0.1v0.2c0,0,0.1-0.1,0.2-0.1h0.1c0,0,0.2-0.4,0.1-0.5
		C30.9,15,30.8,14.9,30.8,14.9L30.8,14.9L30.8,14.9z M30.2,15.3L30.2,15.3c0,0,0.1,0.3,0.1,0.5s-0.1,0.4-0.2,0.5
		c-0.1,0.1-0.2,0.1-0.2,0.1s0-0.1,0-0.2s-0.1-0.2-0.1-0.3s0-0.2,0.1-0.3s0.2-0.1,0.2-0.2C30.1,15.4,30.2,15.3,30.2,15.3L30.2,15.3
		L30.2,15.3z M30.6,15.9v-0.2l-0.2,0.2c0,0,0,0.2-0.1,0.4c-0.1,0.2-0.4,0.3-0.4,0.3l-0.1,0.2c0,0,0.2-0.1,0.2,0V17
		c0,0,0.3-0.3,0.4-0.5C30.6,16,30.6,15.9,30.6,15.9L30.6,15.9L30.6,15.9z M29.7,16L29.7,16L29.7,16l-0.2,0.2l0.2,0.5l0,0
		c0,0,0.1-0.1,0.1-0.3c0-0.1,0-0.2,0-0.2l-0.1-0.1V16L29.7,16L29.7,16z M30.1,16.9v-0.1c0,0-0.1,0-0.2,0h-0.1c0,0,0,0,0,0.1l0.2,0.5
		c0,0,0.1-0.2,0.2-0.3C30.1,17,30.1,17,30.1,16.9L30.1,16.9L30.1,16.9z M30.1,17.6L30.1,17.6v-0.1l0,0L30,17.6v0.1L30.1,17.6
		L30.1,17.6L30.1,17.6z M30.9,15.7L30.9,15.7L30.9,15.7L30.9,15.7c0.1,0.1-0.1,0.6-0.2,0.7S30.4,17,30.4,17c0,0.1-0.1,0.1-0.1,0.2
		c0,0,0,0.3,0,0.4c0,0.2-0.2,0.4-0.2,0.4L30,17.8c0,0,0.1-0.1,0.1-0.3c0-0.1-0.1-0.2,0-0.3c0-0.1,0.3-0.7,0.4-0.9
		c0.1-0.2,0.2-0.5,0.2-0.6C30.8,15.8,30.9,15.7,30.9,15.7L30.9,15.7L30.9,15.7z M31.9,16.1L31.9,16.1L31.9,16.1
		c0.1,0-0.2,0.7-0.3,0.9c-0.1,0.2-0.5,1-0.5,1L31,18.1c0,0-0.1,0-0.1,0.1c0,0-0.2,0.2-0.3,0.3c-0.1,0.1-0.1,0.1-0.1,0.1l-0.1-0.3
		c0,0,0.3-0.1,0.4-0.1s0.3-0.1,0.3-0.2c0,0,0.3-0.4,0.5-0.9C31.6,16.5,31.8,16.2,31.9,16.1C31.8,16.1,31.9,16.1,31.9,16.1L31.9,16.1
		L31.9,16.1z M30.8,18.3L30.8,18.3L30.8,18.3c0.1,0.1-0.1,0.3-0.2,0.4s-0.2,0.2-0.2,0.2l-0.1-0.2l0,0l0.2-0.1
		C30.7,18.4,30.8,18.3,30.8,18.3L30.8,18.3L30.8,18.3z M29,16.6l1.2,3c0,0,0.2-0.2,0.2-0.3c0,0,0-0.2,0-0.3c0-0.1-1.1-3-1.1-3
		l-0.6,1l1.1,3l0.3-0.3l-1.1-3V16.6L29,16.6L29,16.6z M28.5,17.8l0.1-0.2l0.2,0.4c0,0-0.1,0-0.2,0l-0.1,0.1
		C28.5,18,28.5,17.9,28.5,17.8L28.5,17.8L28.5,17.8z M28.7,18.1h0.2l0.1,0.1v0.3c0,0-0.2,0.3-0.3,0.3c-0.1,0-0.4,0-0.5,0
		s-0.2,0-0.2,0.1V19c0,0,0-0.1,0.1-0.1c0.1-0.1,0.1,0,0.2-0.1s0.1-0.3,0.1-0.3C28.3,18.3,28.6,18.1,28.7,18.1L28.7,18.1L28.7,18.1z
		 M27.5,18.9l0.3-0.2c0,0-0.1,0.1-0.1,0.3c0,0.1,0,0.3,0,0.3c0,0.1-0.2,0.3-0.3,0.3c-0.1,0-0.3,0-0.3,0s0-0.2,0-0.3v-0.1
		C27.1,19.2,27.4,18.9,27.5,18.9L27.5,18.9L27.5,18.9z M28.5,18.9l0.2-0.1c0,0-0.1,0.1-0.1,0.2s0,0.2-0.1,0.2l-0.3,0.3
		c-0.1,0-0.2,0.1-0.2,0.1l0.1-0.2c0-0.1,0-0.1,0-0.1H28c0,0,0-0.1,0.2-0.2C28.4,18.8,28.4,18.9,28.5,18.9L28.5,18.9L28.5,18.9z
		 M27.9,19.5l0.1-0.2c0,0-0.2,0-0.2,0.1l-0.3,0.3c-0.1,0-0.2,0-0.2,0h-0.1l-0.1,0.1h0.1c0,0,0.1,0,0.2,0v0.1l-0.1,0.3
		c0,0,0.1,0,0.2,0c0,0,0.3-0.2,0.3-0.3C27.9,19.6,27.9,19.6,27.9,19.5L27.9,19.5L27.9,19.5z M27,19.5v-0.1C27,19.3,27,19.4,27,19.5
		c-0.2-0.1-0.4,0.1-0.4,0.1L26.5,20c0,0,0.2-0.1,0.2,0v0.2c0,0,0.2-0.1,0.2-0.2s0-0.1,0-0.2C27.1,19.6,27,19.5,27,19.5L27,19.5
		L27,19.5z M29.1,18.8L29.1,18.8l-0.5,0.5h-0.1L28,19.8h-0.1l-0.5,0.4h-0.2h-0.1c0,0,0-0.1,0-0.2s0-0.1,0-0.1l0.1-0.1c0,0,0,0-0.1,0
		L27,19.9h-0.1l-0.1,0.2c-0.1,0-0.2,0.2-0.2,0.2h0.1c0,0,0.1,0,0.1,0.1c0,0,0,0.1-0.1,0.1v0.1c0,0,0,0.1-0.1,0.1h-0.1
		c0,0,0-0.1,0-0.2l0.1-0.1c0,0,0.1-0.1,0-0.1s-0.1,0-0.1,0s-0.2,0.2-0.2,0.3l-0.1,0.1v0.1l-0.1,0.1L26,21c0,0,0.7-0.4,0.7-0.5
		l0.5-0.4h0.2l0.5-0.4H28l0.5-0.5h0.1L29.1,18.8L29.1,18.8L29.1,18.8z M26.7,20.1l0.1-0.1h-0.2l-0.1,0.6c0,0,0.2-0.2,0.3-0.3
		C26.7,20.2,26.6,20.1,26.7,20.1L26.7,20.1L26.7,20.1z M24.8,20.3l0.6-0.2v0.2c0,0-0.4,0.1-0.5,0.2c-0.1,0-0.5,0.2-0.5,0.2l-0.1-0.2
		C24.2,20.4,24.6,20.3,24.8,20.3L24.8,20.3L24.8,20.3z M24.8,20.6l0.5-0.2v0.2c0,0-0.3,0.1-0.4,0.2c-0.1,0-0.5,0.2-0.5,0.1v-0.2
		C24.4,20.7,24.6,20.6,24.8,20.6L24.8,20.6L24.8,20.6z M24.4,20.9l0.8-0.3v0.1L24.3,21l0,0L24.4,20.9L24.4,20.9L24.4,20.9L24.4,20.9
		z M24.6,21.1l0.6-0.2v0.2c0,0-0.3,0.1-0.5,0.2c-0.1,0-0.4,0.1-0.4,0.1v-0.2C24.3,21.2,24.5,21.1,24.6,21.1L24.6,21.1L24.6,21.1z
		 M25.1,21.6L25.1,21.6l0.1,0.1c0,0-0.6,0.4-0.8,0.4c-0.2,0-0.6,0-0.7,0s-0.8,0-0.8-0.1c0,0-0.2,0-0.2-0.1l-0.1-0.1v-0.1h0.1
		l0.1,0.1c0,0,0.5,0.1,0.8,0.1c0.2,0,0.6,0,0.7,0s0.4-0.1,0.5-0.2C24.9,21.7,25.1,21.6,25.1,21.6L25.1,21.6L25.1,21.6z M25.1,24.7
		v-0.4L24.4,24v0.9L25.1,24.7L25.1,24.7L25.1,24.7z M27.6,24.1v-2l-0.4,0.2v2.1l1.2-0.1V24L27.6,24.1L27.6,24.1L27.6,24.1z
		 M28.4,23.5l-0.1-1.8c0,0-0.2,0.2-0.3,0.2l0,0L27.8,22v1.9l1.4-0.1v-0.4L28.4,23.5L28.4,23.5L28.4,23.5z M26.7,23.5l0.1-0.2
		l-0.9-0.4L25.6,23L26.7,23.5L26.7,23.5L26.7,23.5z M26.6,23.8l0.1-0.2L25.3,23H25L26.6,23.8L26.6,23.8L26.6,23.8z M26.5,24l0.1-0.2
		l-2-0.8h-0.4L26.5,24L26.5,24L26.5,24z M24.2,23.2l2.2,1l-0.1,0.1l-2.4-1.1H24.2L24.2,23.2L24.2,23.2z M26.2,24.5l0.1-0.1l-2.5-1.1
		l0.1,0.3L26.2,24.5L26.2,24.5L26.2,24.5z M21.7,21.5L21.7,21.5c0,0.1-0.2,0.1-0.2,0.3c0,0.2,0.2,0.3,0.2,0.3v0.1
		c0,0-0.3-0.1-0.3-0.3C21.4,21.5,21.7,21.5,21.7,21.5L21.7,21.5L21.7,21.5z M22.3,21.6v0.5l-0.1,0.1c0,0-0.2,0.1-0.3,0.1
		c-0.1,0-0.4,0-0.5,0s-0.2-0.1-0.2-0.1l0,0v-0.6l0,0l0,0l0,0l0,0l0,0c0,0,0.2-0.2,0.4-0.2c0.2,0,0.3,0,0.4,0.1
		c0.1,0,0.2,0.1,0.2,0.2C22.3,21.6,22.3,21.6,22.3,21.6L22.3,21.6L22.3,21.6z M20.5,2l1.2-0.1h0.1V2l0,0l-1.2,0.1l-0.8,0.1
		c0,0-0.2,0.1-0.3,0.1c0,0-0.2,0.2-0.2,0.3S19.1,2.8,19,2.8c-0.1,0-0.3-0.1-0.2-0.2c0-0.1,0.2-0.2,0.3-0.2c0.1,0,0.3-0.1,0.3-0.1
		c0.1,0,0.2-0.2,0.2-0.2C19.5,2.1,20.2,2,20.5,2L20.5,2L20.5,2z M19.4,23L19.4,23c0-0.1,0.2-0.1,0.3-0.1c0.1,0,0.5-0.1,0.5-0.1l0,0
		c0.3,0.5,0.9,0.8,1.6,0.8c0.6,0,1.2-0.3,1.5-0.8l0,0l0.4,0.1h0.2h0.2l0,0h-0.3l-0.2,0.2l0.1,0.3l-0.3,0.3l-0.2-0.2l-0.3,0.2L23,24
		l-0.4,0.2L22.4,24L22,24.1v0.3h-0.5v-0.3L21.1,24L21,24.3l-0.4-0.2v-0.3l-0.2-0.2l-0.2,0.2l-0.3-0.3l0.1-0.3L19.8,23H19.4L19.4,23
		L19.4,23z M20.4,22.7l0.4-0.2l0,0c0.2,0.3,0.6,0.5,1,0.5s0.7-0.2,0.9-0.4l0,0l0.3,0.2l0,0c-0.3,0.4-0.8,0.6-1.3,0.6
		C21.2,23.4,20.7,23.1,20.4,22.7L20.4,22.7L20.4,22.7z M19.7,2.8l-0.3-0.1c0,0,0-0.2,0.1-0.2c0.1-0.1,0.5-0.1,0.6-0.1
		c0.2,0,0.6-0.1,0.8-0.1c0.2,0,0.8,0,0.8,0l0,0v0.1l0,0c0,0-0.7,0-0.8,0c-0.2,0-0.6,0.1-0.8,0.1C20,2.5,19.8,2.6,19.7,2.8
		C19.7,2.7,19.7,2.8,19.7,2.8L19.7,2.8L19.7,2.8z M21.3,2.4h0.4h0.1v0.1c0,0-0.8,0-0.9,0.1c-0.2,0-0.7,0.1-0.7,0.1
		c-0.1,0,0,0.1,0,0.1s0.6-0.1,0.8-0.1c0.2,0,0.7,0,0.7,0h0.1l0,0l0,0c0,0-0.7,0-0.9,0c-0.2,0-0.6,0.1-0.6,0.1c-0.1,0-0.2,0-0.3,0
		c0,0-0.1-0.1,0-0.1c0-0.1,0-0.1,0.1-0.1s0.1-0.1,0.3-0.1c0.2,0,0.6-0.1,0.7-0.1C20.9,2.4,21.1,2.4,21.3,2.4L21.3,2.4L21.3,2.4z
		 M19.4,2.8c-0.1,0-0.1,0-0.2,0c0,0-0.1,0-0.1,0.1s0.1,0.2,0.2,0.2s0.3,0,0.3,0c0.1,0,0.3,0,0.3,0s0.2,0,0.4-0.1
		c0.2,0,0.4,0,0.5-0.1c0.1,0,0.5,0,0.5,0s0.1,0,0.1-0.1c0,0,0-0.1-0.1-0.1c0,0-0.7,0-1,0.1C20.1,3,20,3,19.9,3c0,0-0.2,0-0.2-0.1
		C19.6,2.9,19.6,2.9,19.4,2.8L19.4,2.8L19.4,2.8z M21.3,3.4l0.2-0.2h-0.1c0,0-0.2-0.1-0.4-0.1c-0.2,0-0.4,0.2-0.4,0.2l0.1,0.1
		l0.2,0.1c0,0,0,0.2-0.1,0.2h0.1c0,0,0.2-0.1,0.3-0.1C21.3,3.6,21.3,3.5,21.3,3.4L21.3,3.4L21.3,3.4z M19.1,2.3L19.1,2.3
		c0-0.1-0.3,0-0.4,0s-0.3,0.1-0.4,0.1v0.1c0,0-0.1,0.1-0.3,0.2C17.8,2.8,17.7,3,17.7,3s0,0.1,0.1,0.1c0,0,0.3,0,0.4-0.1
		s0.2-0.2,0.3-0.2c0-0.1,0-0.1,0.1-0.2c0.1-0.1,0.1-0.1,0.2-0.2C18.9,2.4,19.1,2.4,19.1,2.3L19.1,2.3L19.1,2.3z M18.5,3h0.2
		c0.1,0,0.3,0,0.4,0s0.1,0.1,0.2,0.1s0.3,0,0.3,0l-0.4,0.1c0,0,0-0.1-0.2-0.1s-0.2,0-0.4,0c-0.1,0-0.2-0.1-0.2-0.1
		C18.3,3.1,18.4,3,18.5,3L18.5,3L18.5,3z M20.6,3.7L20.6,3.7C20.7,3.6,20.7,3.6,20.6,3.7c-0.1-0.1-0.2-0.2-0.3-0.2
		c-0.2,0-0.2,0.1-0.3,0.1c-0.1,0.1-0.1,0.2-0.1,0.2v0.1c0,0,0.2,0.2,0.3,0.1c0.1,0,0.3-0.1,0.4-0.1C20.5,3.8,20.6,3.7,20.6,3.7
		L20.6,3.7L20.6,3.7z M20,3.5L20,3.5C20,3.4,19.9,3.4,20,3.5c-0.1-0.1-0.1-0.1-0.3-0.1c-0.2,0-0.4,0.1-0.4,0.1s0.2,0,0.3,0.1
		c0,0.1-0.1,0.3-0.1,0.3s0.1,0,0.1,0.1c0,0,0.1,0,0.1-0.1c0,0,0.1-0.2,0.1-0.3C19.9,3.6,19.9,3.5,20,3.5L20,3.5L20,3.5z M20.8,4
		l-0.1-0.1c0,0-0.1,0.1-0.3,0.2c-0.2,0.1-0.5,0-0.5,0v0.1l-0.2,0.2c0,0,0.3-0.1,0.5-0.1c0.1,0,0.3,0,0.3-0.1l0.1-0.1
		C20.7,4,20.8,4,20.8,4L20.8,4L20.8,4z M18.8,3.4L18.8,3.4l-0.6,0.3c0,0-0.1-0.1-0.3,0c-0.2,0-0.3,0-0.4,0s-0.2-0.1-0.1-0.1
		c0-0.1,0.1-0.2,0.2-0.2s0.3,0,0.4,0c0.2,0,0.3,0.1,0.4,0.1C18.6,3.4,18.8,3.4,18.8,3.4L18.8,3.4L18.8,3.4z M18.6,3.8L18.6,3.8
		C18.5,3.7,18.5,3.7,18.6,3.8c0.1-0.1,0.2-0.2,0.3-0.2c0.2,0,0.2,0.1,0.3,0.1c0,0,0.2,0,0.2,0.1c0,0-0.1,0.1-0.1,0.2
		c-0.1,0.1-0.1,0.2-0.1,0.2l-0.4,0.2h-0.2c0,0,0,0,0.1-0.1c0,0,0.1-0.1,0.1-0.2C18.7,3.9,18.6,3.8,18.6,3.8L18.6,3.8L18.6,3.8z
		 M19.4,4L19.4,4c0,0-0.1,0.1-0.2,0.2s-0.4,0.1-0.4,0.1s0.2,0,0.2,0.1v0.1h0.2c0.1,0,0.1,0,0.2-0.1c0.1,0,0.1-0.1,0.1-0.2
		c0.1-0.1,0.2-0.1,0.2-0.1s-0.1-0.1-0.2,0C19.5,4.1,19.4,4,19.4,4L19.4,4L19.4,4z M17.7,2.7L18,2.6v0.1l0,0
		C18,2.7,17.8,2.7,17.7,2.7c-0.1,0.2-0.2,0.6-0.4,0.7c-0.2,0.1-0.5,0.2-0.5,0.1c-0.1-0.1,0-0.2,0.1-0.3s0.2-0.1,0.3-0.2
		c0.1,0,0.1-0.2,0.1-0.2C17.4,2.8,17.6,2.7,17.7,2.7L17.7,2.7L17.7,2.7z M17.8,4.2L17.8,4.2L18.1,4c0,0,0.1,0,0.2,0s0.2,0,0.2,0.1
		l0.1,0.1c0,0,0,0.1-0.1,0.1l-0.1,0.1c0,0-0.2,0-0.3,0c-0.1,0.1-0.2,0.1-0.2,0.1h-0.2C17.7,4.4,17.7,4.3,17.8,4.2L17.8,4.2L17.8,4.2
		L17.8,4.2z M17.1,3.1L17.1,3.1c0-0.1-0.3,0.1-0.4,0.1s-0.2,0.1-0.2,0.1s0,0.2-0.1,0.2c-0.1,0.1-0.2,0.1-0.3,0.2C16,3.9,16,4,16,4
		h0.2c0,0,0.2,0,0.3-0.1c0.1-0.1,0.2-0.2,0.2-0.3s0-0.2,0-0.2c0-0.1,0.1-0.2,0.2-0.2C16.9,3.2,17.1,3.1,17.1,3.1L17.1,3.1L17.1,3.1z
		 M17.9,3.7h-0.2c-0.1,0-0.4-0.1-0.5-0.1s-0.4,0-0.5,0.1s-0.2,0.1-0.2,0.2C16.5,4,16.6,4,16.7,4s0.2,0,0.3,0c0.1,0,0.2,0,0.2,0
		s0.3-0.1,0.4-0.1C17.8,3.9,18,3.8,17.9,3.7C18,3.8,18,3.8,17.9,3.7C18,3.7,17.9,3.7,17.9,3.7L17.9,3.7L17.9,3.7z M17.6,4.4l0.1-0.2
		c0,0-0.4,0.1-0.6,0.2s-0.4,0.3-0.4,0.3h0.1v0.2H17c0,0,0-0.2,0.2-0.3C17.4,4.4,17.6,4.4,17.6,4.4L17.6,4.4L17.6,4.4z M18.3,4.4
		l-0.1-0.1c0,0,0.2-0.1,0.3-0.1c0.1,0,0.2,0.1,0.3,0.1c0.1,0,0.2,0,0.2,0.1c0,0,0,0,0,0.1c0,0-0.3,0.2-0.4,0.2s-0.4,0-0.4,0V4.6
		C18.1,4.7,18.3,4.6,18.3,4.4L18.3,4.4L18.3,4.4z M17.4,4.5c0.3-0.1,0.5,0,0.7,0c0,0-0.1,0.1-0.1,0.2S17.9,5,17.8,5s-0.4,0-0.5,0
		s-0.2,0-0.2,0S17.2,4.6,17.4,4.5L17.4,4.5L17.4,4.5z M17.3,5.4c0.1-0.1,0.2-0.2,0.3-0.3c0,0-0.3,0-0.4-0.1c-0.1,0-0.4,0.1-0.4,0.1
		v0.1c0,0,0,0,0.1,0c0,0,0,0.1,0,0.2s0,0.2,0,0.2S17.2,5.5,17.3,5.4L17.3,5.4L17.3,5.4z M16.1,4.1l-0.2,0.1c0,0-0.2,0.2-0.1,0.3
		c0.1,0.1,0.3,0,0.3,0s0.1-0.1,0.2-0.1s0.2,0,0.2,0s0.3-0.2,0.4-0.2S17.2,4,17.2,4V3.9c0,0-0.3,0.1-0.4,0.1s-0.4,0-0.5-0.1
		C16.3,4.1,16.2,4.1,16.1,4.1L16.1,4.1L16.1,4.1z M16.7,5.1V4.8c0,0-0.2,0.1-0.3,0.1c-0.1,0-0.2,0.1-0.3,0.2C16,5.2,16,5.2,16,5.2
		h0.1v0.4c0,0,0.1,0,0.2-0.1C16.4,5.5,16.5,5.3,16.7,5.1C16.7,5.2,16.7,5.2,16.7,5.1L16.7,5.1L16.7,5.1z M16.8,5.4L16.8,5.4
		C16.8,5.3,16.8,5.3,16.8,5.4c-0.1-0.1-0.2,0.1-0.3,0.1c-0.1,0-0.3,0.1-0.3,0.1l0,0c0,0,0,0,0.1,0c0,0,0.1,0,0.1,0.1v0.2V6l0.3-0.2
		c0-0.1,0.1-0.1,0.1-0.2C16.8,5.6,16.8,5.5,16.8,5.4L16.8,5.4L16.8,5.4z M16,5.5V5.3c0,0-0.1,0.1-0.2,0.1c-0.1,0-0.3,0.1-0.3,0.2
		C15.4,5.7,15.4,6,15.4,6h0.1c0,0,0.1-0.2,0.2-0.1c0.1,0,0,0.2,0,0.2L16,5.8C16,5.7,16,5.6,16,5.5L16,5.5L16,5.5z M16.2,6.2V5.9
		c0,0-0.1,0-0.2,0.1c-0.1,0-0.3,0.3-0.3,0.3v0.2v0.1h0.1l0.3-0.2C16.2,6.3,16.2,6.2,16.2,6.2L16.2,6.2L16.2,6.2z M16.4,3.4L16.4,3.4
		c-0.1,0-0.5,0.2-0.6,0.3S15.4,4,15.4,4l0.2,0.2c0,0-0.6,0.5-0.8,0.7s-0.6,0.6-0.6,0.6S14,5.6,14,5.7c-0.1,0.1,0,0.5,0,0.5h0.1
		L14.3,6c0,0,0-0.3,0-0.4s0.5-0.5,0.6-0.6s0.7-0.6,0.7-0.6C15.7,4.3,15.9,4.3,16,4s0-0.2,0.1-0.3c-0.1,0-0.1-0.1,0.1-0.2
		C16.3,3.5,16.4,3.4,16.4,3.4L16.4,3.4L16.4,3.4z M15.7,4.5L15.7,4.5C15.7,4.5,15.8,4.5,15.7,4.5c0.1,0.1-0.5,0.5-0.5,0.6
		c-0.1,0.1-0.4,0.4-0.4,0.4s0,0,0,0.1l0,0c0,0,0.4-0.3,0.5-0.4s0.3-0.2,0.3-0.3c0,0,0.2-0.1,0.2-0.2h0.1c0,0,0.1,0,0.1,0.1l-0.3,0.3
		c0,0-0.4,0.3-0.4,0.4c-0.1,0-0.3,0.3-0.3,0.3S14.8,6,14.7,6s-0.2,0-0.2-0.1V5.7c0,0,0.4-0.4,0.5-0.4c-0.2-0.1,0-0.2,0.1-0.3
		s0.2-0.2,0.3-0.3C15.4,4.7,15.6,4.5,15.7,4.5L15.7,4.5L15.7,4.5z M15.2,4.2L15.2,4.2C15.3,4.2,15.3,4.2,15.2,4.2
		C15.3,4.2,15.3,4.3,15.2,4.2c0,0.1-0.6,0.7-0.7,0.8c-0.1,0.1-0.6,0.5-0.6,0.7c-0.1,0.1-0.1,0.2-0.1,0.3c0,0.1,0,0.3,0,0.4
		s0,0.2-0.1,0.3c-0.1,0.1-0.2-0.1-0.2-0.1s0-0.2,0.1-0.3c0-0.2,0-0.3,0-0.3c0-0.1,0-0.3,0-0.3s0.5-0.6,0.7-0.8
		c0.2-0.1,0.5-0.4,0.6-0.5C15.1,4.3,15.2,4.2,15.2,4.2L15.2,4.2L15.2,4.2z M15.9,5L15.9,5c-0.1,0-0.6,0.4-0.8,0.6
		C15,5.7,14.7,6,14.6,6c0,0-0.2,0-0.3,0.1c-0.1,0-0.3,0.1-0.3,0.2s-0.1,0.2-0.1,0.2h0.2c0,0,0.1-0.2,0.2-0.2c0.1,0,0.2,0,0.2,0
		s0.5-0.5,0.6-0.6C15.3,5.6,15.9,5,15.9,5L15.9,5L15.9,5L15.9,5z M15.6,6.2V6l-0.1,0.1c0,0-0.2-0.1-0.3,0S15,6.3,15,6.4
		c0,0.1,0,0.5,0,0.6s0,0.1,0,0.2l-0.1,0.1c0,0,0.1,0,0.1-0.1c0,0,0-0.1,0.1-0.2s0.1-0.2,0.3-0.2c0.1,0,0.2-0.1,0.2-0.2
		s0.1-0.2,0.1-0.2C15.6,6.4,15.6,6.3,15.6,6.2L15.6,6.2L15.6,6.2z M13.4,6L13.4,6c0.1-0.1,0.1-0.1,0.1-0.1l0,0V6H13.4l-0.1,0.2V6.1
		c0,0,0,0,0-0.1C13.3,6.1,13.3,6.1,13.4,6L13.4,6L13.4,6z M14.4,6.4L14.4,6.4c0.1,0,0.1,0,0.1,0l-0.3,0.4H14c-0.1,0-0.2,0.2-0.2,0.3
		c-0.1,0-0.3,0.1-0.3,0.1S13.4,7.1,13.6,7c0.1-0.1,0.2-0.2,0.4-0.2s0.2,0,0.3,0C14.2,6.6,14.4,6.4,14.4,6.4L14.4,6.4L14.4,6.4z
		 M14.8,6.6V6.4C14.8,6.5,14.8,6.5,14.8,6.6c-0.1-0.1-0.3-0.1-0.3,0l-0.1,0.2c0,0-0.1,0.1-0.1,0.2s0,0.2,0,0.2s0.2-0.1,0.3-0.1
		s0.1,0.1,0.1,0.1S14.9,7,15,6.9C14.9,6.8,14.8,6.7,14.8,6.6L14.8,6.6L14.8,6.6z M15.5,7l0.3-0.4l-0.1,0.1c0,0-0.3,0.2-0.3,0.3
		l-0.2,0.2v0.1C15.2,7.3,15.4,7.1,15.5,7L15.5,7L15.5,7z M13,5.9L13,5.9L12.9,6l-0.1,0.1L13,6.3c0,0,0.1,0.2,0,0.2l-0.2-0.1
		l-0.2-0.1l-0.1,0.2l-0.1,0.1l0.1,0.1h0.3c0.1,0,0.1,0,0.2,0c0,0,0.1-0.1,0.1-0.2s0-0.3-0.1-0.3C13.1,6.1,13.1,6,13,5.9
		C13.1,5.9,13,5.9,13,5.9L13,5.9L13,5.9z M13.3,6.9V6.7l-0.1,0.1c0,0-0.1,0-0.2,0L12.9,7c0,0.1,0,0.2,0,0.2s0.1,0.1,0.2,0
		C13.2,7.2,13.2,7.1,13.3,6.9C13.3,7.1,13.3,7,13.3,6.9L13.3,6.9L13.3,6.9z M14,6.9L14,6.9C14.1,6.9,14.1,6.9,14,6.9
		c0.1,0-0.2,0.5-0.2,0.5s-0.2,0.1-0.3,0.1c-0.1,0.1-0.2,0.2-0.2,0.2s-0.2,0.1-0.3,0s0-0.2,0.1-0.4c0.1-0.1,0.2-0.2,0.4-0.2
		s0.2,0,0.3-0.1C13.8,7.1,13.9,7,14,6.9L14,6.9L14,6.9z M14.5,7.4V7.2l-0.2,0.1c-0.1,0-0.1,0-0.2,0c0,0-0.2,0.2-0.3,0.3
		c0,0.1,0,0.2,0,0.2s0.2,0,0.2-0.1c0.1,0,0.1-0.1,0.1,0c0,0,0.1,0.1,0,0.1v0.1h0.1V7.8V7.6C14.3,7.6,14.4,7.4,14.5,7.4L14.5,7.4
		L14.5,7.4z M15.1,7.4L15.1,7.4c-0.1-0.1-0.2,0-0.2,0c-0.1,0-0.2,0-0.3,0.1s-0.2,0.1-0.2,0.3c-0.1,0.2,0,0.3,0,0.3
		c0,0.1,0.3,0,0.3,0S15,7.8,15,7.7C15,7.5,15.1,7.4,15.1,7.4L15.1,7.4L15.1,7.4z M12.9,6.9L12.9,6.9c0-0.1-0.2,0.1-0.2,0.2
		c-0.1,0.1-0.1,0.2-0.1,0.2s0.1,0.2,0,0.4c-0.1,0.2-0.1,0.4-0.1,0.5c0,0,0.2,0,0.3-0.2s0.1-0.4,0.1-0.5s-0.1-0.3-0.1-0.4
		C12.8,7.1,12.8,6.9,12.9,6.9L12.9,6.9L12.9,6.9z M14,8.1l0.1-0.3c0,0-0.2,0.1-0.3,0.1s-0.2,0-0.2,0.1c0,0-0.2,0.2-0.2,0.3
		s-0.1,0.2,0,0.2c0,0,0.1,0,0.1-0.1l0.1-0.1c0,0,0,0.1,0.1,0.1l0.1-0.1C13.8,8.3,14,8.2,14,8.1L14,8.1L14,8.1z M13.3,8.3l0.3-0.6
		l-0.2,0.2c0,0-0.3,0.1-0.5,0.2c-0.2,0.2-0.3,0.3-0.3,0.4c0,0.1,0,0.2,0.1,0.2s0.3-0.1,0.4-0.3C13.1,8.3,13.2,8.3,13.3,8.3L13.3,8.3
		L13.3,8.3z M12.4,7.7L12.4,7.7L12.4,7.7c0.1,0-0.1,0.3-0.1,0.4c0,0.1,0.1,0.4,0.1,0.5c0,0.2-0.2,0.4-0.2,0.4C12.1,9.1,12,9,12,8.9
		s0.1-0.3,0.1-0.4c0-0.1-0.1-0.3-0.1-0.3C12.1,8.2,12.3,7.7,12.4,7.7L12.4,7.7L12.4,7.7z M14.5,8.2L14.5,8.2c0-0.1-0.2,0-0.2,0
		s-0.1,0-0.2,0c-0.1,0-0.2,0.3-0.2,0.3s0.2-0.1,0.2,0s0,0.2,0,0.3s0,0.2,0,0.2l0.1-0.1c0.1,0,0.2-0.3,0.2-0.3
		C14.5,8.4,14.5,8.2,14.5,8.2L14.5,8.2L14.5,8.2z M12,8.4L12,8.4L12,8.4c0.1,0-0.1,0.3-0.1,0.4c0,0.1,0.1,0.3,0.1,0.3v0.3h-0.4
		c0,0,0.1-0.5,0.2-0.6C11.8,8.7,12,8.4,12,8.4L12,8.4L12,8.4z M13.1,8.5L13.1,8.5l0.1-0.1c0,0-0.3,0.7-0.3,0.8l-0.2,0.1
		c0,0-0.2,0.4-0.3,0.3c-0.1,0-0.2-0.3-0.1-0.5c0.1-0.2,0.4-0.3,0.5-0.3C12.9,8.7,13,8.5,13.1,8.5L13.1,8.5L13.1,8.5z M13.6,8.5
		L13.6,8.5c0,0-0.1,0-0.1,0.1c-0.1,0-0.2,0-0.3,0.3s-0.1,0.6-0.1,0.6s0.1-0.2,0.1-0.4s0.1-0.2,0.2-0.3c0.1-0.1,0.1-0.2,0.2-0.2
		C13.6,8.6,13.6,8.6,13.6,8.5L13.6,8.5L13.6,8.5z M14,8.8V8.6l-0.1,0.1c0,0-0.1,0-0.2,0c-0.1,0-0.3,0.2-0.3,0.4
		c-0.1,0.2-0.1,0.4-0.1,0.4l-0.2,0.2v0.1V9.7l0.1-0.1l0.1-0.1c0.1,0,0.2,0,0.2,0c0.1,0,0.3-0.2,0.3-0.3C14,9,14,8.8,14,8.8L14,8.8
		L14,8.8z M13.8,9.8V9.4l-0.2,0.2c-0.1,0-0.1,0.1-0.2,0.2c0,0.1,0,0.2,0,0.2s0.1-0.1,0.2-0.1c0.1,0,0.1,0.1,0.1,0.1v0.1v0.2
		c0,0,0-0.2,0.1-0.2C13.8,10,13.8,9.9,13.8,9.8L13.8,9.8L13.8,9.8z M13,9.7L13,9.7L13,9.7L13,9.7c0.1,0,0.2,0.2,0.2,0.3s0,0.3,0,0.4
		c0,0.1-0.1,0.3-0.1,0.3S13,10.6,13,10.5c0,0,0,0-0.1,0l-0.1-0.2c-0.1,0-0.2,0.1-0.2,0.1s0-0.3,0.1-0.4C12.8,9.9,12.9,9.8,13,9.7
		L13,9.7L13,9.7z M13.3,10.2l0.2-0.2c0,0,0.1,0.3,0.1,0.5c-0.1,0.2-0.4,0.5-0.4,0.5v-0.2c0,0,0.1-0.1,0.1-0.2
		C13.3,10.5,13.3,10.3,13.3,10.2L13.3,10.2L13.3,10.2z M12.9,10.5l-0.1-0.2l0,0c0,0,0,0.1-0.1,0.2c0,0-0.1,0.1-0.1,0.2v0.4
		c0,0,0.1-0.1,0.1,0l0.1,0.2L13,11v-0.3l0,0C12.9,10.6,12.9,10.6,12.9,10.5L12.9,10.5L12.9,10.5z M12.6,11.3L12.6,11.3
		c0-0.1,0.1,0,0.1,0l-0.2,0.2C12.5,11.5,12.5,11.4,12.6,11.3C12.5,11.4,12.6,11.3,12.6,11.3L12.6,11.3L12.6,11.3z M11.9,9.8
		L11.9,9.8L11.9,9.8H12v0.1c0,0-0.1,0.5-0.2,0.8c0,0.2-0.1,0.7-0.1,0.7l0,0h0.1c0,0,0.1-0.7,0.1-0.8s0.1-0.4,0.1-0.4s0-0.2,0.1-0.2
		c0,0,0,0,0.1,0l0,0c0,0,0,0,0,0.1c0,0-0.1,0.4-0.1,0.5S12,11.3,12,11.4s0,0.2-0.1,0.3c0,0.1-0.1,0.1-0.1,0.1s-0.2-0.1-0.2-0.2
		c0,0,0-0.1,0-0.2c0,0,0,0,0-0.1l0.1-0.6c0-0.1,0.1-0.4,0.1-0.4c0-0.1,0-0.3,0.1-0.3C11.9,9.9,11.9,9.8,11.9,9.8L11.9,9.8L11.9,9.8z
		 M11.7,9.7L11.7,9.7L11.7,9.7L11.7,9.7h0.1c0,0-0.1,0.6-0.2,0.8c0,0.2-0.1,0.9-0.1,1s0,0.2,0.1,0.2l0.2,0.2v0.3v0.1
		c0,0-0.3-0.2-0.3-0.4s0-0.3,0-0.3c0-0.1,0.1-0.8,0.1-0.9c0-0.1,0.1-0.6,0.1-0.6C11.7,10,11.7,9.7,11.7,9.7L11.7,9.7L11.7,9.7z
		 M12.4,10.1L12.4,10.1C12.4,10,12.5,10,12.4,10.1c0.1,0,0,0.6-0.1,0.8c0,0.2-0.1,0.9-0.1,0.9l-0.4,0.5c0,0,0,0,0-0.1s0-0.2,0.1-0.3
		s0.2-0.2,0.2-0.3c0,0,0.1-0.7,0.1-0.8C12.2,10.8,12.3,10.2,12.4,10.1L12.4,10.1L12.4,10.1L12.4,10.1z M11.4,9.9L11.4,9.9
		C11.5,9.8,11.5,9.8,11.4,9.9c0.1,0,0,0.4,0,0.6c0,0.3-0.1,0.8-0.1,0.9c0,0.1-0.1,0.4,0,0.5c0.1,0.2,0.2,0.3,0.2,0.3l0.1,0.1
		c0,0,0,0,0,0.1l-0.2,0.3c0,0-0.1-0.2-0.1-0.3s0-0.2,0-0.3s-0.1-0.1-0.1-0.2c0-0.1,0.1-0.9,0.1-1c0-0.2,0.1-0.5,0.1-0.6
		C11.3,10.2,11.4,9.9,11.4,9.9L11.4,9.9L11.4,9.9z M11.1,12.3L11.1,12.3L11.1,12.3L11.1,12.3L11.1,12.3c0.1,0,0.1,0.2,0.1,0.3
		s0.1,0.2,0.1,0.2l0,0l-0.1,0.1h-0.1c0,0,0-0.3,0-0.4C11.1,12.6,11.1,12.3,11.1,12.3L11.1,12.3L11.1,12.3z M13.3,12.5L13.3,12.5
		c0-0.1,0.1,0.2,0.2,0.3c0,0.2,0,0.2,0,0.4c0,0.1,0,0.2,0,0.3s0,0.1,0,0.1s0-0.1-0.1-0.1l-0.1-0.1l-0.1,0.1v-0.1l0.1-0.1
		c0,0,0-0.1,0-0.2c0-0.1-0.1-0.2-0.1-0.3C13.2,12.7,13.3,12.5,13.3,12.5L13.3,12.5L13.3,12.5z M13.1,12.7L13,12.6l-0.3,0.3
		c0,0,0,0.3,0.1,0.4c0.1,0.1,0.3,0.2,0.3,0.2s0.1-0.1,0.1-0.3s0-0.2,0-0.2C13.1,12.9,13.1,12.7,13.1,12.7L13.1,12.7L13.1,12.7z
		 M12.7,13.3l-0.1-0.2c0,0,0,0.1,0,0.2c0,0-0.1,0.1-0.1,0.3c0,0.1,0.1,0.5,0.1,0.5s0.1-0.3,0.2-0.3c0.1,0,0.2,0.1,0.2,0.1l0.1-0.2
		L13,13.6C12.9,13.4,12.8,13.4,12.7,13.3L12.7,13.3L12.7,13.3z M13.2,13.6v-0.1l0,0c0,0,0.1,0.1,0.1,0.2c0.1,0.1,0.1,0.1,0.2,0.2
		c0,0.1,0,0.4,0,0.4h-0.1c-0.1,0-0.1,0.2-0.1,0.2s0-0.2-0.1-0.3S13,14,13,14s0-0.1,0.1-0.1C13.2,13.7,13.2,13.7,13.2,13.6L13.2,13.6
		L13.2,13.6z M11.7,14L11.7,14l0.5-0.6v0.1l-0.1,0.1c0,0.1,0,0.4-0.1,0.5s-0.2,0.1-0.2,0.1C11.8,14.1,11.7,14,11.7,14L11.7,14
		L11.7,14z M11.7,14.1L11.7,14.1l-0.3,0.1c0,0,0.1,0.3,0.1,0.4c0,0.1,0.1,0.2,0.2,0.1c0.1,0,0.1-0.1,0.1-0.3
		C11.8,14.2,11.7,14.1,11.7,14.1L11.7,14.1L11.7,14.1z M12.2,13.7L12.2,13.7C12.2,13.7,12.2,13.6,12.2,13.7
		C12.2,13.6,12.3,13.7,12.2,13.7l0.1,0.4v0.2c0,0.1-0.1,0.2-0.1,0.2c0,0.1,0,0.3,0,0.4c0,0.1-0.1,0.1-0.1,0.1s-0.2,0-0.2-0.2
		c0-0.1,0-0.3,0.1-0.5s0.2-0.3,0.2-0.3C12.2,13.9,12.2,13.7,12.2,13.7L12.2,13.7L12.2,13.7z M12.9,13.9l-0.1-0.1l0,0v0.1
		c0,0-0.1,0.2-0.1,0.3s0.1,0.3,0.1,0.3l0.1,0.2c0,0,0.1-0.2,0.2-0.2c0.1,0,0.2,0.2,0.2,0.2s0.1,0,0.1-0.1s-0.1-0.3-0.1-0.4
		C13,14,12.9,13.9,12.9,13.9L12.9,13.9L12.9,13.9z M13.6,14.4L13.6,14.4c-0.1,0-0.2,0-0.2,0.1c0,0,0,0.1-0.1,0.1
		c0,0-0.1,0.1-0.1,0.2c0,0.1,0,0.3,0,0.3s0.1-0.1,0.2-0.1c0.1,0,0.2,0.2,0.2,0.2s0,0,0.1,0c0,0,0.1,0,0.1-0.2s-0.1-0.4-0.1-0.4
		C13.6,14.5,13.6,14.4,13.6,14.4L13.6,14.4L13.6,14.4z M11.3,14.4L11.3,14.4C11.3,14.3,11.3,14.4,11.3,14.4L11.3,14.4
		c-0.1,0.1,0,0.5,0,0.5s0,0.1,0.1,0.1c0,0,0.1,0.1,0.2,0.1c0,0.1,0,0.1,0,0.2c0,0.1,0,0.2,0.1,0.2s0.1,0.1,0.2,0.1
		c0,0,0.2,0.6,0.3,0.7c0,0.1,0.3,0.7,0.4,0.8c0,0.1,0.1,0.3,0.1,0.4s0.2,0.2,0.2,0.2c0.1,0,0.2,0.1,0.3,0.1c0,0,0.1,0,0.1-0.1
		c0,0-0.1-0.2-0.1-0.3c0,0-0.3-0.1-0.3-0.2s-0.1-0.2-0.2-0.3c0-0.1-0.3-0.7-0.3-0.8c0-0.1-0.2-0.5-0.2-0.6s0-0.3,0-0.4
		c0-0.1-0.2-0.3-0.3-0.4c-0.2-0.1-0.2-0.1-0.2-0.1c0-0.1-0.1-0.2-0.1-0.2C11.4,14.5,11.3,14.4,11.3,14.4L11.3,14.4L11.3,14.4z
		 M12.4,14.5L12.4,14.5C12.4,14.5,12.3,14.5,12.4,14.5c-0.1,0,0,0.4-0.1,0.5c0,0.1-0.2,0.3-0.2,0.5s0,0.2,0.1,0.3
		c0,0,0.1,0.1,0.2,0.3c0.1,0.3,0.2,0.4,0.2,0.5c0.1,0.1,0.1,0.2,0.2,0.3c0,0.1,0,0.1,0,0.2c0,0,0.1,0.1,0.1,0.2
		c0.1,0,0.2,0.1,0.2,0.1s0.1-0.1,0-0.3c-0.1-0.2-0.3-0.5-0.3-0.8c-0.1-0.2-0.2-0.5-0.2-0.7s0-0.2,0-0.3s0-0.1,0-0.1
		s-0.1-0.4-0.1-0.5C12.4,14.7,12.4,14.5,12.4,14.5L12.4,14.5L12.4,14.5z M12.9,14.7v-0.1c0,0,0,0,0.1,0l0.2,0.1c0,0,0,0.2,0,0.3
		s0.1,0.2,0.1,0.3v0.1v0.2c0,0-0.1-0.1-0.2-0.1H13c0,0-0.2-0.4-0.1-0.5C12.8,14.8,12.8,14.7,12.9,14.7L12.9,14.7L12.9,14.7z
		 M13.4,15.1L13.4,15.1c0,0-0.1,0.3-0.1,0.5s0.1,0.4,0.2,0.5c0.1,0.1,0.2,0.2,0.2,0.1c0,0,0-0.1,0-0.2s0.1-0.2,0.1-0.3
		s0-0.2-0.1-0.3S13.5,15.3,13.4,15.1C13.5,15.2,13.4,15.1,13.4,15.1L13.4,15.1L13.4,15.1z M13,15.7v-0.2l0.2,0.2c0,0,0,0.2,0.1,0.4
		s0.4,0.3,0.4,0.3l0.1,0.2c0,0-0.2-0.1-0.2,0v0.2c0,0-0.3-0.3-0.4-0.6C13,15.8,13,15.7,13,15.7L13,15.7L13,15.7z M13.9,15.8
		L13.9,15.8L13.9,15.8l0.2,0.2l-0.2,0.5l0,0c0,0-0.1-0.1-0.1-0.3c0-0.1,0-0.2,0-0.2L13.9,15.8L13.9,15.8L13.9,15.8L13.9,15.8z
		 M13.5,16.7v-0.1c0,0,0.1,0,0.2,0h0.1c0,0,0,0,0,0.1l-0.2,0.5c0,0-0.1-0.2-0.2-0.3C13.5,16.8,13.5,16.8,13.5,16.7L13.5,16.7
		L13.5,16.7z M13.5,17.4v-0.1l0,0l0,0l0.1,0.1l-0.1,0.1C13.6,17.5,13.5,17.4,13.5,17.4L13.5,17.4L13.5,17.4z M12.7,15.5L12.7,15.5
		L12.7,15.5L12.7,15.5c-0.1,0.1,0.1,0.6,0.1,0.7c0.1,0.1,0.3,0.6,0.3,0.6c0,0.1,0.1,0.1,0.1,0.2c0,0-0.1,0.3,0,0.4
		c0,0.2,0.2,0.4,0.2,0.4l0.1-0.2c0,0-0.1-0.1-0.1-0.3c0-0.1,0.1-0.2,0-0.3c0-0.1-0.3-0.7-0.4-0.9c-0.1-0.2-0.2-0.5-0.2-0.6
		C12.8,15.6,12.7,15.5,12.7,15.5L12.7,15.5L12.7,15.5z M11.8,15.9L11.8,15.9L11.8,15.9c-0.1,0,0.2,0.7,0.3,0.9c0.1,0.2,0.5,1,0.5,1
		l0.1,0.1c0,0,0.1,0,0.1,0.1c0,0,0.2,0.2,0.3,0.3c0.1,0.1,0.1,0.1,0.1,0.1l0.1-0.3c0,0-0.3-0.1-0.4-0.1c-0.1,0-0.3-0.1-0.3-0.2
		c0,0-0.3-0.4-0.5-0.9C12,16.3,11.9,16,11.8,15.9L11.8,15.9L11.8,15.9L11.8,15.9z M12.8,18.1L12.8,18.1L12.8,18.1
		c-0.1,0.1,0.1,0.3,0.2,0.4c0.1,0.1,0.2,0.2,0.2,0.2l0.1-0.2l0,0l-0.2-0.1C12.9,18.2,12.8,18.1,12.8,18.1L12.8,18.1L12.8,18.1z
		 M14.6,16.5l-1.2,3c0,0-0.2-0.2-0.2-0.3c0,0,0-0.2,0-0.3c0-0.1,1.2-3,1.2-3l0.5,1l-1.1,3l-0.2-0.3l1.2-2.9L14.6,16.5L14.6,16.5
		L14.6,16.5z M15.1,17.6L15,17.4l-0.2,0.4c0,0,0.1,0,0.2,0l0.1,0.1C15.1,17.8,15.1,17.7,15.1,17.6L15.1,17.6L15.1,17.6z M14.9,17.9
		h-0.2V18v0.3c0,0,0.2,0.3,0.3,0.3s0.4,0,0.5,0s0.2,0.1,0.2,0.1v0.1c0,0,0-0.1-0.1-0.1c-0.1-0.1-0.1,0-0.2-0.1
		c-0.1-0.1-0.1-0.3-0.1-0.3C15.3,18.1,15,17.9,14.9,17.9L14.9,17.9L14.9,17.9z M16,18.7l-0.3-0.2c0,0,0.1,0.1,0,0.3
		c0,0.1,0,0.3,0,0.3c0,0.1,0.2,0.3,0.3,0.3s0.3,0,0.3,0s0-0.2,0-0.3V19C16.3,19,16.1,18.8,16,18.7L16,18.7L16,18.7z M15.1,18.7
		l-0.2-0.1c0,0,0.1,0.1,0.1,0.2s0,0.2,0.1,0.2c0,0,0.2,0.3,0.3,0.3s0.2,0.1,0.2,0.1l-0.1-0.2c0-0.1,0-0.1,0-0.1h0.1
		c0,0,0-0.1-0.2-0.2C15.2,18.7,15.1,18.7,15.1,18.7L15.1,18.7L15.1,18.7z M15.6,19.3l-0.1-0.2c0,0,0.2,0,0.2,0.1l0.3,0.3
		c0.1,0,0.2,0,0.2,0h0.1l0.1,0.1h-0.1c0,0-0.1,0-0.2,0v0.1l0.1,0.3c0,0-0.1,0-0.2,0c0,0-0.3-0.2-0.3-0.3
		C15.6,19.5,15.7,19.4,15.6,19.3L15.6,19.3L15.6,19.3z M16.5,19.3v-0.1C16.5,19.2,16.6,19.2,16.5,19.3c0.2-0.1,0.4,0.1,0.4,0.1
		l0.1,0.4c0,0-0.2-0.1-0.2,0V20l-0.2-0.2c0-0.1,0-0.1,0-0.2C16.5,19.4,16.5,19.4,16.5,19.3L16.5,19.3L16.5,19.3z M16.9,19.9
		l-0.1-0.1H17l0.1,0.6c0,0-0.2-0.2-0.2-0.3C16.9,20.1,16.9,20,16.9,19.9L16.9,19.9L16.9,19.9z M18.8,20.2L18.2,20v0.2
		c0,0,0.3,0.1,0.5,0.2c0.1,0,0.5,0.2,0.5,0.2l0.1-0.1C19.4,20.4,18.9,20.3,18.8,20.2L18.8,20.2L18.8,20.2z M18.8,20.5l-0.5-0.2v0.2
		c0,0,0.3,0.1,0.4,0.2c0.1,0,0.5,0.2,0.5,0.2v-0.1C19.2,20.6,18.9,20.5,18.8,20.5L18.8,20.5L18.8,20.5z M19.1,20.9l-0.8-0.3v0.1
		l0.9,0.3l0,0L19.1,20.9L19.1,20.9L19.1,20.9L19.1,20.9z M18.9,21l-0.5-0.2V21c0,0,0.3,0.1,0.5,0.2c0.1,0.1,0.5,0.2,0.5,0.2v-0.1
		C19.4,21.2,19,21.1,18.9,21L18.9,21L18.9,21z M18.4,21.5L18.4,21.5h-0.1c0,0,0.6,0.4,0.8,0.4c0.2,0,0.6,0,0.7,0s0.8,0,0.8,0h0.2
		l0.1-0.1v-0.1h-0.1l-0.1,0.1c0,0-0.6,0.1-0.8,0.1c-0.2,0-0.6,0-0.7,0s-0.3-0.1-0.5-0.2C18.7,21.6,18.4,21.5,18.4,21.5L18.4,21.5
		L18.4,21.5z M15.3,20.3v-0.4h0.1c0,0,0,0.7,0.2,1.1s0.4,0.7,0.5,0.8c0.2,0.2,0.3,0.3,0.5,0.4s0.6,0.3,0.7,0.4
		c0.1,0,0.2,0.1,0.2,0.1l-0.1,0.1c0,0-0.6-0.2-0.7-0.3c-0.1-0.1-0.3-0.2-0.3-0.2v2.2h-0.6v0.2l1,0.1l-0.1-0.7l-0.3-0.8l0,0l0.4,0.8
		l0.3,0.4l2.5-1.1l0,0l-0.5,0.2l-0.1,1h0.1v0.2h-0.4v-0.1l-0.6-0.1v-0.5l-0.2,0.2l-0.8,0.3l-0.2-0.3v0.5l-1.3-0.1v-0.3l-0.6,0v-0.5
		l-0.8-0.1v-0.5l-0.6-0.1l0.4-2.9l0.6,0.5c0,0-0.2-0.5-0.3-0.8s-0.1-0.7-0.1-0.7l0.1-0.3c0,0-0.1,0.6,0.1,0.9
		c0.1,0.4,0.3,0.6,0.4,0.8c0.1,0.2,0.5,0.5,0.5,0.5s-0.3-0.5-0.4-0.9c-0.1-0.4-0.1-0.9-0.1-1v-0.2h0.1c0,0,0,0.9,0.1,1.1
		s0.1,0.4,0.2,0.6c0.1,0.2,0.2,0.5,0.3,0.6s0.4,0.3,0.4,0.3s-0.4-0.5-0.5-0.8C15.4,20.7,15.3,20.5,15.3,20.3L15.3,20.3L15.3,20.3z
		 M13.9,23.1l0.3-2.4l0.9,0.8L15,23.2L13.9,23.1L13.9,23.1L13.9,23.1z M16.8,23.4l-0.1-0.2l0.9-0.4l0.3,0.1L16.8,23.4L16.8,23.4
		L16.8,23.4z M16.9,23.6v-0.2l1.3-0.6h0.4L16.9,23.6L16.9,23.6L16.9,23.6z M17,23.9v-0.1l1.9-0.8h0.4L17,23.9L17,23.9L17,23.9z
		 M19.3,23.1L17.1,24l0.1,0.1l2.5-1.1L19.3,23.1L19.3,23.1L19.3,23.1z M17.3,24.4l-0.1-0.1l2.5-1.1l-0.1,0.3L17.3,24.4L17.3,24.4
		L17.3,24.4z M20.2,24.9v-0.8h0.2v0.7l1.1,0.1v-0.4h0.2v0.6l-1-0.1v0.1L19.8,25v-0.2L20.2,24.9L20.2,24.9L20.2,24.9z M22.8,21.5
		c-0.1-0.5-0.5-0.8-1-0.8s-0.9,0.3-1,0.8h-0.2c0.1-0.6,0.6-1,1.2-1s1.2,0.5,1.3,1.1L22.8,21.5L22.8,21.5L22.8,21.5z M23.5,21.6
		c-0.1-0.9-0.8-1.5-1.7-1.5c-0.9,0-1.6,0.6-1.7,1.5h-0.2c0.1-1,0.9-1.7,1.9-1.7s1.8,0.8,1.9,1.8L23.5,21.6L23.5,21.6L23.5,21.6z
		 M18.4,24.6v-0.4l0.7-0.3L19,24.8L18.4,24.6L18.4,24.6L18.4,24.6z M15.9,24v-2l0.4,0.2v2.1l-1.2-0.1v-0.3L15.9,24L15.9,24L15.9,24z
		 M15.1,23.4l0.1-1.8c0,0,0.2,0.2,0.3,0.2l0,0l0.2,0.2v1.9l-1.4-0.2v-0.4L15.1,23.4L15.1,23.4L15.1,23.4z M27.2,18.5
		C27.2,18.6,27.1,18.6,27.2,18.5l-10.8-0.1c0,0,0,0-0.1-0.1L27.2,18.5L27.2,18.5L27.2,18.5z M21.8,4.3c4.5,0,8.1,3.6,8.1,8.1
		c0,1.9-0.6,3.6-1.7,5v-0.2l-4.1-0.1v0.2l0,0l0.1-0.1l0.1,0.1v0.1v0.1l-0.1,0.1h-0.1H24v0.6h0.1v0.2l0,0v-0.1l0,0l0,0l0,0h0.1V18
		c0,0,0.1-0.1,0.2-0.1c0.2,0,0.2,0.1,0.2,0.1v0.3h0.1l0,0l0,0v0.1l0,0v0.1h1.7v-0.2h0.1l0,0h0.7l-0.1,0.1h-0.6v0.1h0.6
		c0,0,0,0-0.1,0.1l-11-0.1c0,0,0,0-0.1-0.1h0.6v-0.1h-0.7l-0.1-0.1l0,0h0.8l0,0h0.1v0.2h1.7l0.1-0.1l0,0v-0.1l0,0l0,0l0,0v-0.3
		c0,0,0-0.2,0.2-0.2s0.2,0.2,0.2,0.2v0.3l0,0l0,0l0,0l0,0l0.1,0.1l0,0v-0.1l0,0l0,0H19v-0.6h-0.1c0,0-0.1-0.1-0.1-0.2
		s0.1-0.1,0.1-0.1l0,0l0,0l0,0l0,0l0,0l0,0l0,0v-0.1h-4.1c0,0,0,0.2,0,0.3c-1-1.4-1.6-3-1.6-4.8C13.7,8,17.4,4.3,21.8,4.3L21.8,4.3
		L21.8,4.3z M12.4,15.9L12.4,15.9c0,0,0.1,0,0.2,0.3c0.1,0.3,0.2,0.4,0.2,0.5s0,0.1,0,0.2c0,0-0.1,0,0,0c0,0-0.1-0.2-0.2-0.4
		c-0.1-0.2-0.1-0.3-0.2-0.4C12.4,16,12.4,15.9,12.4,15.9L12.4,15.9L12.4,15.9z M21.8,4.4l0.6,1.8h1.9l-1.5,1.1l0.6,1.8L21.8,8
		l-1.5,1.1l0.6-1.8l-1.5-1.1h1.9L21.8,4.4L21.8,4.4L21.8,4.4z"/>
</g>
</svg>
