<?xml version="1.0" encoding="utf-8"?>
<!-- Generator: Adobe Illustrator 21.0.0, SVG Export Plug-In . SVG Version: 6.00 Build 0)  -->
<svg version="1.1" id="图层_1" xmlns="http://www.w3.org/2000/svg" xmlns:xlink="http://www.w3.org/1999/xlink" x="0px" y="0px"
	 viewBox="0 0 200 40" style="enable-background:new 0 0 200 40;" xml:space="preserve">
<style type="text/css">
	.st0{fill:#FFFFFF;}
	.st1{fill-rule:evenodd;clip-rule:evenodd;fill:url(#SVGID_1_);}
	.st2{fill-rule:evenodd;clip-rule:evenodd;fill:url(#SVGID_2_);}
</style>
<g>
	<g>
		<path class="st0" d="M45.7,28.9h-1.2c-0.3-1-0.9-1.6-1.9-1.6c-1.5,0.1-2.2,1.2-2.3,3.1c0.1,1.9,0.9,3,2.6,3.1
			c1.1,0,2.1-0.6,2.9-1.9v1.1c-0.7,1-1.7,1.6-3.2,1.5c-2.2-0.1-3.4-1.4-3.5-3.9c0.1-2.5,1.3-3.8,3.5-3.9
			C44.2,26.5,45.2,27.3,45.7,28.9z"/>
		<path class="st0" d="M46.2,32.2v-3.4h1.2v3.3c0,1,0.4,1.4,1.4,1.4h1.1v-4.7h1.2v5.4h-2.8C46.8,34.2,46.1,33.6,46.2,32.2z"/>
		<path class="st0" d="M51.6,33.2v-0.9c0.7,0.8,1.5,1.3,2.4,1.3c0.8,0,1.2-0.3,1.2-0.8S54.8,32,54,31.9c-1.5-0.3-2.3-0.8-2.3-1.7
			c0.1-1,0.8-1.4,2.2-1.5c1.3,0,2.1,0.6,2.3,1.6h-1.1c-0.1-0.5-0.5-0.8-1.1-0.8c-0.7,0-1,0.2-1,0.7s0.4,0.8,1.4,0.9
			c1.4,0.2,2.1,0.8,2.2,1.7c0,1-0.8,1.5-2.4,1.5C53.1,34.3,52.3,33.9,51.6,33.2z"/>
		<path class="st0" d="M56.7,29.6v-0.8h0.9v-2.2h1.2v2.2H60v0.8h-1.2v3.1c0,0.5,0.2,0.8,0.6,0.8c0.2,0,0.4-0.1,0.7-0.2v0.6
			c-0.3,0.3-0.6,0.4-1.1,0.4c-1,0-1.4-0.5-1.4-1.5v-3.2C57.6,29.6,56.7,29.6,56.7,29.6z"/>
		<path class="st0" d="M63.1,34.3c-1.7-0.1-2.6-1-2.7-2.7c0.1-1.8,1-2.8,2.8-2.9c1.7,0.1,2.6,1,2.7,2.8
			C65.8,33.3,64.9,34.2,63.1,34.3z M63.1,33.5c1,0,1.5-0.7,1.5-2c0-1.3-0.5-2-1.5-2.1c-1,0-1.5,0.7-1.5,2.1
			C61.6,32.8,62.1,33.5,63.1,33.5z"/>
		<path class="st0" d="M66.5,34.1v-5.5h6.1c1.4,0,2.1,0.6,2.1,1.8v3.7h-1.2v-3.5c0-0.8-0.4-1.1-1.2-1.1h-1v4.7h-1.2v-3.7
			c0-0.7-0.3-1-1-1h-1.2v4.7L66.5,34.1L66.5,34.1z"/>
		<path class="st0" d="M75.3,27.7v-1.1h1.2v1.1H75.3z M75.3,34.1v-5.3h1.2v5.3H75.3z"/>
		<path class="st0" d="M77.1,34.1v-0.7l3.3-3.8h-3.2v-0.8h4.7v0.8l-3.3,3.8H82v0.7H77.1z"/>
		<path class="st0" d="M87.8,31.8h-4.2c0.1,1.1,0.8,1.7,1.9,1.7c0.9,0,1.6-0.4,2.2-1.1v0.9c-0.5,0.6-1.4,1-2.5,1
			c-1.9-0.1-2.9-1-2.9-2.7c0-1.9,1-2.8,2.7-2.9C86.9,28.6,87.8,29.7,87.8,31.8z M83.6,31h3c0-1-0.6-1.5-1.5-1.6
			C84.2,29.5,83.7,30,83.6,31z"/>
		<path class="st0" d="M91.2,28.7h1.1v-2.5h1.2v8.1h-2.3c-1.9,0-2.9-0.9-2.9-2.7C88.4,29.6,89.3,28.7,91.2,28.7z M92.3,33.5v-4h-0.9
			c-1.3,0-1.9,0.7-1.9,2.1c0,1.3,0.6,2,1.9,2L92.3,33.5L92.3,33.5z"/>
		<path class="st0" d="M96.5,34.1l3-7.5h1.5l3,7.5h-1.3l-0.8-2h-3.3l-0.8,2H96.5z M100.2,27.8l-1.4,3.5h2.7L100.2,27.8z"/>
		<path class="st0" d="M104.2,34.1v-5.5h2.7c1.5,0,2.2,0.7,2.2,2.1v3.4H108v-3.3c0-0.9-0.4-1.4-1.3-1.4h-1.2v4.7H104.2z"/>
		<path class="st0" d="M112.2,30.7h1.3c0-0.9-0.4-1.4-1.4-1.3c-0.8,0-1.3,0.3-1.6,1h-0.9c0.3-1.2,1.1-1.8,2.5-1.8
			c1.5,0,2.2,0.6,2.2,1.9v3.7H112c-1.5,0-2.3-0.6-2.3-1.6C109.7,31.3,110.5,30.7,112.2,30.7z M113.5,33.5v-2h-1.4
			c-1,0-1.6,0.3-1.6,1c0,0.6,0.5,1,1.4,1H113.5z"/>
		<path class="st0" d="M115.3,34.1v-7.9h1.2v7.9H115.3z"/>
		<path class="st0" d="M117,36.1v-0.7c0.2,0.1,0.5,0.2,0.8,0.2c0.4,0,0.8-0.3,1-1l0.3-0.6l-2.3-5.2h1.3l1.5,3.9l1.4-3.9h1.3
			l-2.3,5.5c-0.5,1.4-1.2,2.1-2.1,2C117.6,36.4,117.2,36.3,117,36.1z"/>
		<path class="st0" d="M122.4,33.2v-0.9c0.7,0.8,1.5,1.3,2.4,1.3c0.8,0,1.2-0.3,1.2-0.8s-0.4-0.8-1.2-0.9c-1.5-0.3-2.3-0.8-2.3-1.7
			c0.1-1,0.8-1.4,2.2-1.5c1.3,0,2.1,0.6,2.3,1.6h-1.1c-0.1-0.5-0.5-0.8-1.1-0.8c-0.7,0-1,0.2-1,0.7s0.4,0.8,1.4,0.9
			c1.4,0.2,2.1,0.8,2.2,1.7c0,1-0.8,1.5-2.4,1.5C123.9,34.3,123.1,33.9,122.4,33.2z"/>
		<path class="st0" d="M133.1,31.8h-4.2c0.1,1.1,0.8,1.7,1.9,1.7c0.9,0,1.6-0.4,2.2-1.1v0.9c-0.5,0.6-1.4,1-2.5,1
			c-1.9-0.1-2.9-1-2.9-2.7c0-1.9,1-2.8,2.7-2.9C132.2,28.6,133.2,29.7,133.1,31.8z M128.9,31h3c0-1-0.6-1.5-1.5-1.6
			C129.5,29.5,129,30,128.9,31z"/>
		<path class="st0" d="M133.6,33.2v-0.9c0.7,0.8,1.5,1.3,2.4,1.3c0.8,0,1.2-0.3,1.2-0.8s-0.4-0.8-1.2-0.9c-1.5-0.3-2.3-0.8-2.3-1.7
			c0.1-1,0.8-1.4,2.2-1.5c1.3,0,2.1,0.6,2.3,1.6h-1.1c-0.1-0.5-0.5-0.8-1.1-0.8c-0.7,0-1,0.2-1,0.7s0.4,0.8,1.4,0.9
			c1.4,0.2,2.1,0.8,2.2,1.7c0,1-0.8,1.5-2.4,1.5C135.1,34.3,134.3,33.9,133.6,33.2z"/>
		<path class="st0" d="M144,30.7h1.3c0-0.9-0.4-1.4-1.4-1.3c-0.8,0-1.3,0.3-1.6,1h-0.9c0.3-1.2,1.1-1.8,2.5-1.8
			c1.5,0,2.2,0.6,2.2,1.9v3.7h-2.4c-1.5,0-2.3-0.6-2.3-1.6C141.4,31.3,142.3,30.7,144,30.7z M145.3,33.5v-2h-1.4c-1,0-1.6,0.3-1.6,1
			c0,0.6,0.5,1,1.4,1H145.3z"/>
		<path class="st0" d="M146.8,33.2v-0.9c0.7,0.8,1.5,1.3,2.4,1.3c0.8,0,1.2-0.3,1.2-0.8s-0.4-0.8-1.2-0.9c-1.5-0.3-2.3-0.8-2.3-1.7
			c0.1-1,0.8-1.4,2.2-1.5c1.3,0,2.1,0.6,2.3,1.6h-1.1c-0.1-0.5-0.5-0.8-1.1-0.8c-0.7,0-1,0.2-1,0.7s0.4,0.8,1.4,0.9
			c1.4,0.2,2.1,0.8,2.2,1.7c0,1-0.8,1.5-2.4,1.5C148.3,34.3,147.4,33.9,146.8,33.2z"/>
		<path class="st0" d="M157.1,30.7h1.3c0-0.9-0.4-1.4-1.4-1.3c-0.8,0-1.3,0.3-1.6,1h-0.9c0.3-1.2,1.1-1.8,2.5-1.8
			c1.5,0,2.2,0.6,2.2,1.9v3.7h-2.4c-1.5,0-2.3-0.6-2.3-1.6C154.6,31.3,155.4,30.7,157.1,30.7z M158.4,33.5v-2H157
			c-1,0-1.6,0.3-1.6,1c0,0.6,0.5,1,1.4,1H158.4z"/>
		<path class="st0" d="M162.6,32.7v-1c0.8,1.2,1.8,1.8,3,1.8s1.8-0.5,1.8-1.4c0-0.7-0.6-1.2-1.8-1.4c-2-0.3-2.9-1-2.9-2.2
			c0-1.3,1-2,2.7-2s2.7,0.7,3,2.2h-1.2c-0.3-1-0.9-1.4-1.8-1.4c-1,0-1.5,0.4-1.5,1.2c0,0.7,0.5,1.1,1.7,1.3c2,0.3,3,1.1,3,2.3
			c0,1.4-1,2.2-2.9,2.2C164.3,34.3,163.2,33.7,162.6,32.7z"/>
		<path class="st0" d="M174.6,31.8h-4.2c0.1,1.1,0.8,1.7,1.9,1.7c0.9,0,1.6-0.4,2.2-1.1v0.9c-0.5,0.6-1.4,1-2.5,1
			c-1.9-0.1-2.9-1-2.9-2.7c0-1.9,1-2.8,2.7-2.9C173.7,28.6,174.6,29.7,174.6,31.8z M170.4,31h3c0-1-0.6-1.5-1.5-1.6
			C171,29.5,170.5,30,170.4,31z"/>
		<path class="st0" d="M175.3,34.2v-3.7c0-1.2,0.6-1.8,1.8-1.8h1.7v0.8h-1.4c-0.6,0-1,0.3-1,0.9v3.8
			C176.4,34.2,175.3,34.2,175.3,34.2z"/>
		<path class="st0" d="M180.8,34.1l-2.1-5.3h1.3l1.5,4.3l1.5-4.3h1.3l-2.1,5.3H180.8z"/>
		<path class="st0" d="M184.6,27.7v-1.1h1.2v1.1H184.6z M184.6,34.1v-5.3h1.2v5.3H184.6z"/>
		<path class="st0" d="M191.9,30.5h-1.2c-0.2-0.7-0.7-1-1.4-1c-1,0.1-1.4,0.8-1.5,2.1c0,1.3,0.6,2,1.9,2c0.8,0,1.5-0.4,2.2-1.3v1
			c-0.5,0.7-1.4,1-2.5,1c-1.8-0.1-2.7-1-2.8-2.7c0.1-1.8,1-2.8,2.7-2.9C190.7,28.7,191.5,29.3,191.9,30.5z"/>
		<path class="st0" d="M197.8,31.8h-4.2c0.1,1.1,0.8,1.7,1.9,1.7c0.9,0,1.6-0.4,2.2-1.1v0.9c-0.5,0.6-1.4,1-2.5,1
			c-1.9-0.1-2.9-1-2.9-2.7c0-1.9,1-2.8,2.7-2.9C196.9,28.6,197.8,29.7,197.8,31.8z M193.6,31h3c0-1-0.6-1.5-1.5-1.6
			C194.2,29.5,193.7,30,193.6,31z"/>
	</g>
	<path class="st0" d="M156.4,5.9V3.7h19.1V6h-7.8v8.5h8.7v2.4h-8.7v7H164v-7h-8.8v-2.4h8.8V6L156.4,5.9L156.4,5.9z M159,12.7
		c-0.8-1.5-1.4-3.2-1.7-5h3.5c0.3,1.8,0.7,3.5,1.4,5H159z M169.8,12.7c0.8-1.8,1.2-3.5,1.4-5h3.5c-0.4,1.9-0.9,3.6-1.8,5H169.8z"/>
	<g>
		<path class="st0" d="M180.2,23.6h13.6c2.4,0.1,3.4-1,3.4-3.3v-6.2h-17V23.6z M183.5,16.6h10.1v3.6c0.1,0.9-0.4,1.4-1.3,1.3h-8.9
			L183.5,16.6L183.5,16.6z"/>
		<path class="st0" d="M197.9,10.3c-0.1-0.2-0.2-0.4-0.2-0.6c-0.5-1.2-1.1-2.4-1.8-3.5h-3.4c0.6,0.9,1.6,3.1,1.8,3.5h-10.7
			c2.3-2,3.1-3.4,4.6-5.7h-3.9c-1.2,2-2.4,3.3-4.4,5c-0.5,0.4-0.7,0.9-0.7,1.5v0.7c0,0.6,0.5,1.1,1.1,1.1h14.9h1.2
			C197.6,12.4,198.3,11.3,197.9,10.3z"/>
	</g>
	<g>
		<path class="st0" d="M38.9,23.9V5.7h5.3c0.2-0.5,0.4-1.2,0.5-2h4.6c-0.2,0.8-0.4,1.4-0.5,2h8v14.4c0.1,2.6-1.1,3.9-3.6,3.8
			C53.2,23.9,38.9,23.9,38.9,23.9z M52.8,8.4H43v2.4h9.8V8.4z M43,13.5v2.6h9.8v-2.6H43z M51.5,21.5c0.9,0,1.3-0.5,1.3-1.4v-1.4H43
			v2.7L51.5,21.5L51.5,21.5z"/>
		<path class="st0" d="M61.9,12.6V9.9h18.7v2.7h-6.9V15H80v2.6h-6.3v3.6h7.9v2.5h-9.2c-3.2,0.1-5.6-0.8-7.2-2.5
			c-1,1.1-2.4,1.7-4.4,2.6v-2.4c1.8-1.8,2.7-4.1,2.7-7.6h3.9c-0.1,1.6-0.3,3-0.6,4.3c0.7,1.1,1.7,2,2.8,2.5v-8.2h-7.7
			C61.9,12.4,61.9,12.6,61.9,12.6z M81.1,4.9v4.3h-3.8V7.6H65v1.6h-3.9V4.9h7.7V3.7h4.7v1.2H81.1z"/>
		<path class="st0" d="M89.6,4.8c1.2,4.7,2.8,8.1,4.7,10.2c1.9-2.1,3.5-5.5,4.7-10.2h4.3c-1.5,5.8-3.7,10-6.4,12.6
			c1.8,1.4,4.4,2.7,7.9,3.9v2.5c-4.8-1.4-8.3-2.9-10.4-4.3c-2.1,1.4-5.5,2.9-10.4,4.3v-2.5c3.5-1.1,6.1-2.4,7.9-3.9
			c-2.8-2.6-4.9-6.8-6.4-12.6C85.5,4.8,89.6,4.8,89.6,4.8z M95.2,3.7c0.6,1.6,1,3,1.4,4.6h-3.8c-0.1-1.3-0.4-2.7-1-4.6
			C91.8,3.7,95.2,3.7,95.2,3.7z"/>
		<path class="st0" d="M127.9,13.9c-0.4-0.2-1-0.4-1.8-0.7c-0.5-0.2-0.9-0.4-1.2-0.5v7.8c0.1,2.3-1.1,3.4-3.6,3.4h-3.4v-2.5h1.8
			c0.8,0.1,1.1-0.3,1.1-1.2v-5.7h-4c-0.2,5-3.2,7.9-9.1,9.5v-2.3c3.4-1.8,5.1-3.9,5.1-7.2h-2.4v-1.9c-0.9,0.5-2,1-3.3,1.4v-2.5
			c3-1.6,4.8-4.2,5.4-7.6h4.2c-0.9,3.8-2.6,6.4-5.1,7.9h11.8c-2.5-1.4-4.2-4.1-5.1-7.9h4.2c0.7,3.4,2.5,6,5.4,7.6V13.9z"/>
		<path class="st0" d="M130.3,8.7V6.1h2.2V3.7h3.7v2.4h1.9v2.6h-1.9v0.1c0.3,1.6,0.9,2.7,1.8,4.2v3.7c-0.7-0.7-1.3-1.5-1.8-2.4v9.4
			h-3.7v-8.1c-0.8,1.5-1.6,2.8-2.5,3.8v-4c1.1-2.4,1.9-4.4,2.4-6.8h-2.1L130.3,8.7L130.3,8.7z M148.5,23.8h-3.7V12.2h-2.2v4.6
			c0.2,3.3-1.5,5.7-5,7.1v-2.4c0.8-0.8,1.1-2.1,1.1-3.8V4.5h7.6c1.4,0.1,2.9-0.2,4.4-0.8v2.7c-1.3,0.4-2.6,0.6-3.9,0.6h-4.3v2.7h8.6
			v2.5h-2.7L148.5,23.8L148.5,23.8z"/>
	</g>
</g>
<g>
	<g>
		<path class="st0" d="M18.7,37.9c-0.6,0-1.2-0.2-1.7-0.5c-0.6-0.3-1.2-0.6-1.8-0.8c-0.5-0.2-1-0.5-1.5-0.7
			c-0.5-0.3-1.1-0.5-1.6-0.7c-0.9-0.4-1.8-0.7-2.7-1c-0.6-0.2-1.2-0.4-1.9-0.5c-0.7-0.2-1.4-0.5-2.1-0.9c-0.1-0.1-0.2-0.2-0.3-0.2
			c-0.2-0.1-0.3-0.3-0.2-0.6c0.2-0.6,0.4-1.1,0.6-1.7c0-0.1,0-0.2,0.1-0.1C6,30.4,6.5,30.6,7,30.9c0.6,0.3,1.1,0.5,1.7,0.7
			c0.6,0.2,1.2,0.4,1.8,0.6c0.7,0.2,1.4,0.5,2.1,0.7c0.6,0.3,1.2,0.5,1.8,0.8c0.8,0.3,1.5,0.6,2.3,1c0.7,0.4,1.5,0.6,2.3,0.6
			c0.7,0,1.3-0.1,1.9-0.4c1-0.4,1.9-0.9,2.9-1.4c1.4-0.7,2.8-1.3,4.3-1.8c0.9-0.3,1.7-0.6,2.5-0.9c0.5-0.3,1.1-0.5,1.6-0.9
			c0.2-0.1,0.2,0,0.2,0.1c0.1,0.5,0.2,1,0.3,1.5c0.1,0.5-0.2,0.7-0.5,0.9c-0.4,0.3-0.8,0.5-1.2,0.6c-1,0.4-2,0.6-2.9,1
			c-0.7,0.3-1.4,0.6-2.1,0.9c-0.7,0.3-1.5,0.7-2.2,1c-0.7,0.4-1.5,0.7-2.2,1.1c-0.7,0.3-1.4,0.6-2.2,0.8
			C19.2,37.9,19,37.9,18.7,37.9z"/>
		<path class="st0" d="M15.4,26.4c0.5,0,0.8,0.2,1.2,0.5c0.4,0.4,0.9,0.7,1.4,1c0.5,0.3,1,0.3,1.6,0.3c0.5-0.1,1.1-0.2,1.5-0.5
			c0.4-0.2,0.7-0.5,1.1-0.8c0.3-0.3,0.7-0.4,1.2-0.4c0.4,0,0.8,0.6,0.6,0.9c-0.1,0.2-0.3,0.4-0.5,0.6c-0.4,0.3-0.9,0.6-1.5,0.7
			c-0.3,0.1-0.6,0.1-0.9,0.2c-0.2,0.1-0.3,0.3-0.4,0.5c-0.1,0.6-0.1,1.2,0.1,1.8c0,0.1,0.1,0.3,0.1,0.4c-0.1,0.1-0.2,0-0.4,0
			c-0.6-0.1-1.3,0-1.9,0c-0.3,0-0.6,0-0.8,0.1c-0.2,0.1-0.2,0-0.2-0.2c0.1-0.4,0.2-0.8,0.3-1.1c0.1-0.5,0-1-0.2-1.4
			c0-0.1-0.1-0.1-0.1-0.1c-0.8,0.1-1.5-0.3-2.2-0.6c-0.3-0.2-0.5-0.3-0.7-0.6c-0.2-0.4-0.1-0.8,0.3-1C15.1,26.5,15.2,26.5,15.4,26.4
			z"/>
		<path class="st0" d="M1.2,29.2c0.7-0.2,1.3-0.4,2-0.6c0.2-0.1,0.2-0.1,0.1-0.3c-0.3-0.5-0.6-1.1-0.9-1.6c0.4,0.1,0.7,0.2,1,0.3
			c1.2,0.3,2.3,0.7,3.5,1c0.5,0.2,1,0.4,1.3,0.8c-0.1,0.1-0.2,0-0.4,0c-0.7,0-1.4-0.1-2,0c-0.2,0-0.3,0.1-0.3,0.3
			c-0.1,0.4-0.3,0.8-0.4,1.2c-0.1,0.2-0.2,0.2-0.3,0.2c-0.8-0.2-1.6-0.5-2.3-0.9C2,29.5,1.7,29.4,1.2,29.2z"/>
		<path class="st0" d="M19.1,35.1c-0.7,0-1.3-0.2-1.9-0.5c-1.2-0.6-2.5-1.1-3.7-1.7c-0.8-0.3-1.6-0.7-2.4-0.9
			c-0.7-0.3-1.5-0.4-2.2-0.7c-1-0.4-2-0.7-2.9-1.3c-0.3-0.2-0.4-0.3-0.2-0.5c0-0.1,0.1-0.1,0.1,0c0.3,0.4,0.8,0.6,1.3,0.8
			c0.7,0.3,1.3,0.5,2,0.8c0.8,0.3,1.7,0.5,2.5,0.8c1,0.3,2,0.8,3,1.2c0.9,0.4,1.8,0.8,2.7,1.3c0.5,0.2,1,0.3,1.5,0.4
			c0.8,0.2,1.4-0.1,2.1-0.4c1.4-0.7,2.9-1.3,4.3-2c0.8-0.4,1.7-0.6,2.5-0.9c1-0.4,2-0.8,3-1.2c0.4-0.2,0.9-0.4,1.2-0.8
			c0,0,0.1-0.1,0.1,0c0,0.1,0.2,0.2,0,0.3c-0.2,0.1-0.4,0.2-0.5,0.3c-1.4,0.8-2.8,1.4-4.3,1.9c-1.1,0.4-2.2,0.9-3.3,1.4
			c-1.1,0.5-2.1,0.9-3.2,1.4C20.3,34.9,19.7,35.1,19.1,35.1z"/>
		<path class="st0" d="M30.3,28.6c0-0.3,0.2-0.4,0.4-0.5c1.2-0.4,2.3-0.8,3.5-1.2c0.3-0.1,0.7-0.2,1.1-0.3c-0.3,0.5-0.5,1-0.8,1.5
			c-0.2,0.3-0.2,0.3,0.2,0.5c0.4,0.2,0.9,0.3,1.3,0.4c0,0,0.1,0,0.1,0.1c-0.4,0.2-0.7,0.4-1.1,0.6c-0.6,0.3-1.2,0.5-1.8,0.6
			c-0.2,0-0.3,0-0.3-0.2c0-0.4-0.1-0.7-0.2-1.1c-0.1-0.3-0.2-0.4-0.6-0.4C31.5,28.6,30.9,28.6,30.3,28.6z"/>
		<path class="st0" d="M8.2,24.4c0,0.5,0.3,0.8,0.5,1.2c0.1,0.2,0.3,0.3,0.3,0.5c0,0.3,0.2,0.5,0.3,0.7c-0.4-0.3-0.7-0.6-1-0.9
			c-0.4-0.5-0.8-0.9-1-1.6c-0.2-0.5-0.3-1-0.4-1.5c0-0.3-0.1-0.6-0.1-0.9c0-0.1,0-0.2,0.2-0.1c0.5,0.2,1,0.6,1.5,1
			c0.4,0.3,0.8,0.7,1.1,1.1c0.5,0.5,0.8,1.1,1.1,1.8c0.1,0.2,0,0.2-0.1,0.1c-0.4-0.1-0.8-0.1-1.2-0.1c-0.1,0-0.1,0-0.2-0.1
			C8.9,25.1,8.6,24.7,8.2,24.4C8.3,24.4,8.3,24.4,8.2,24.4z"/>
		<path class="st0" d="M19.3,38.4c-1,0-1.8-0.3-2.6-0.7c-0.8-0.4-1.6-0.8-2.4-1.2c-1.4-0.7-2.9-1.3-4.4-1.9C9,34.3,8,34,7.1,33.7
			c-0.7-0.2-1.4-0.4-2-0.8c-0.1-0.1-0.2-0.2-0.3-0.3c-0.1-0.1,0-0.2,0-0.2c0.1-0.1,0.1,0,0.1,0.1c0.3,0.4,0.7,0.6,1.2,0.8
			c1.2,0.6,2.6,0.8,3.9,1.3c0.8,0.2,1.5,0.5,2.2,0.8c0.5,0.2,1.1,0.4,1.6,0.7c0.6,0.3,1.2,0.6,1.8,0.9c0.4,0.2,0.8,0.4,1.1,0.5
			c0.3,0.1,0.6,0.3,0.9,0.4c1,0.4,1.9,0.4,2.9-0.1c0.9-0.4,1.8-0.8,2.7-1.3c1.1-0.6,2.2-1.1,3.4-1.6c0.9-0.4,1.8-0.7,2.7-1
			c0.5-0.2,1.1-0.3,1.6-0.5c0.7-0.3,1.4-0.6,1.9-1.1c0,0,0.1-0.1,0.1-0.1c0.1,0.1,0.1,0.1,0,0.2c-0.2,0.2-0.4,0.4-0.6,0.6
			c-0.7,0.4-1.5,0.6-2.2,0.9c-1.2,0.4-2.3,0.9-3.5,1.4c-0.5,0.2-1,0.4-1.4,0.6c-0.7,0.4-1.4,0.8-2.1,1.1c-0.5,0.3-1.1,0.6-1.6,0.8
			c-0.4,0.2-0.7,0.4-1.1,0.5C19.9,38.3,19.5,38.4,19.3,38.4z"/>
		<path class="st0" d="M7.6,22c-0.3-0.2-0.6-0.3-0.7-0.7c-0.1-0.4-0.4-0.7-0.6-1c-0.1-0.1-0.1-0.1-0.2-0.2c0,0.5,0.1,0.8,0.3,1.1
			c0.1,0.1,0.2,0.3,0.3,0.4c0.2,0.1,0.1,0.3,0.1,0.5c0,0.3,0.1,0.5,0.1,0.8c-0.4-0.2-0.6-0.5-0.8-0.9c-0.5-0.8-0.8-1.7-0.9-2.7
			c-0.1-0.7,0-1.5-0.1-2.3c0.5,0.5,0.9,0.9,1.3,1.3c0.5,0.5,0.9,1.1,1.2,1.8c0.1,0.1,0.1,0.2,0.1,0.3C7.5,21,7.6,21.5,7.6,22z"/>
		<path class="st0" d="M1.2,25.8c2.2,0.6,4.3,1.3,6.5,1.9c-0.1,0-0.1,0.1-0.2,0.1c-0.3,0-0.2,0.1-0.1,0.3c-0.3,0-0.6-0.2-0.9-0.2
			c-1.1-0.3-2.2-0.7-3.3-1c-0.3-0.1-0.7-0.2-1-0.3c0,0-0.1,0-0.1,0c0,0.1,0,0.1,0,0.1c0.3,0.5,0.6,1.1,0.9,1.6
			c0.1,0.2,0.1,0.2-0.1,0.2c-0.7,0.2-1.3,0.3-2,0.5c-0.1,0-0.1,0-0.2,0.1c0.3,0.2,0.6,0.4,0.9,0.5c1,0.4,2,0.8,3,1.1
			c0.1,0,0.1,0.1,0.1,0.1c-0.1,0.1,0,0.3-0.2,0.2c-0.4-0.1-0.8-0.3-1.2-0.4c-0.5-0.2-1-0.4-1.5-0.6c-0.6-0.3-1.3-0.6-1.8-1
			C0.1,29,0,28.9,0,28.8c0-0.1,0.1-0.1,0.2-0.1c0.7-0.2,1.3-0.5,2-0.7c0.2-0.1,0.2-0.1,0.1-0.3C1.9,27.1,1.5,26.5,1.2,25.8
			C1.2,25.8,1.2,25.8,1.2,25.8z"/>
		<path class="st0" d="M15.4,30.3c-0.4,0-0.6,0.1-0.9,0.1c-0.1,0-0.3,0-0.4,0c0,0-0.1,0-0.1,0.1c0,0.1,0.1,0.1,0.1,0.1
			c0.4,0.1,0.8,0.2,1.2,0.1c0,0,0,0,0.1,0c-0.3,0.3-0.7,0.4-1,0.5c-0.5,0.2-1,0.2-1.5-0.1c-0.6-0.2-1.2-0.5-1.7-0.7
			c-0.2-0.1-0.3-0.2-0.5-0.3c-0.1-0.1-0.1-0.1,0-0.2c0.4-0.2,0.8-0.4,1.3-0.5c0.6-0.2,1.3-0.2,1.9-0.3c0.3,0,0.5,0.2,0.7,0.4
			C14.8,29.9,15.1,30.1,15.4,30.3z"/>
		<path class="st0" d="M28.9,26.8c0.2-0.3,0.2-0.5,0.3-0.8c0-0.2,0.2-0.3,0.3-0.5c0.2-0.3,0.4-0.6,0.5-1.1c-0.2,0.1-0.4,0.3-0.5,0.5
			c-0.1,0.2-0.3,0.4-0.4,0.6c0,0.1-0.1,0.2-0.3,0.2c-0.2,0-0.5,0.1-0.8,0.1c0.2-0.2,0.3-0.4,0.5-0.6c0.3-0.5,0.6-0.9,0.6-1.5
			c0-0.3,0.2-0.4,0.3-0.5c0.3-0.3,0.6-0.7,0.9-0.9c0.2-0.2,0.5-0.3,0.8-0.4c0.1,0,0.1,0,0.1,0.1c0,0.4-0.1,0.8-0.1,1.1
			c-0.1,0.5-0.2,1-0.4,1.5c-0.2,0.5-0.5,0.9-0.9,1.2c-0.3,0.3-0.5,0.6-0.9,0.8C29.1,26.8,29,26.8,28.9,26.8z"/>
		<path class="st0" d="M33.2,17.6c0.1,0.8,0,1.6-0.1,2.3c-0.1,0.6-0.3,1.2-0.6,1.8c-0.2,0.4-0.5,0.8-0.9,1.2c0,0-0.1,0.1-0.1,0.1
			c-0.1,0,0-0.1,0-0.1c0-0.4,0.2-0.7,0.4-1.1c0.2-0.4,0.3-0.8,0.4-1.2c0-0.1,0-0.2,0-0.3c-0.3,0.2-0.5,0.5-0.6,0.8
			c-0.1,0.2-0.1,0.3-0.1,0.5c0,0.1,0,0.1-0.1,0.2c-0.2,0.1-0.5,0.2-0.7,0.4c0-0.4,0.1-0.7,0.2-1.1c0.1-0.9,0.7-1.6,1.2-2.2
			C32.4,18.4,32.8,18,33.2,17.6z"/>
		<path class="st0" d="M23,30.7c0.5,0,0.9,0,1.2-0.1c0.1,0,0.2,0,0.1-0.1c0-0.1-0.1-0.1-0.2-0.1c-0.4-0.1-0.8,0-1.3-0.1
			c0-0.1,0.2-0.1,0.2-0.2c0.3-0.2,0.5-0.5,0.7-0.7c0.1-0.1,0.2-0.2,0.4-0.2c0.7,0,1.4,0.1,2,0.3c0.4,0.1,0.9,0.2,1.3,0.4
			c0.1,0,0.2,0,0.2,0.1c0,0.1-0.1,0.1-0.1,0.1c-0.9,0.5-1.8,0.9-2.8,1.3c-0.1,0.1-0.3,0-0.5,0C23.9,31.2,23.4,31.1,23,30.7z"/>
		<path class="st0" d="M36.6,25.6c-0.3,0.5-0.6,1-0.9,1.5c-0.1,0.2-0.3,0.4-0.4,0.6c-0.1,0.1-0.1,0.2,0.1,0.3c0.5,0.1,1,0.3,1.5,0.5
			c0.1,0,0.2,0.1,0.4,0.1c-0.2,0.3-0.4,0.5-0.6,0.6c-0.7,0.5-1.5,0.8-2.3,1.1c-0.4,0.2-0.9,0.3-1.3,0.4c-0.1,0-0.2,0.1-0.2-0.1
			c0-0.1-0.1-0.2,0.1-0.3c0.3-0.1,0.7-0.2,1-0.3c0.9-0.3,1.7-0.7,2.4-1.2c0,0,0.1,0,0.1-0.1c0-0.1-0.1,0-0.1,0
			c-0.5-0.2-1.1-0.4-1.6-0.5c-0.2,0-0.2-0.1-0.1-0.2c0.2-0.5,0.5-0.9,0.7-1.4c0.1-0.1,0.1-0.2,0.2-0.4c-1.6,0.3-3.1,0.9-4.6,1.5
			c0.1-0.2,0-0.3-0.2-0.3C32.6,26.8,34.5,26,36.6,25.6z"/>
		<path class="st0" d="M4.8,17c-0.1-0.3-0.2-0.7-0.5-1c0,0.5,0.1,0.9,0.3,1.3c-0.5-0.3-0.8-0.7-1.1-1.2c-0.1-0.1-0.1-0.3-0.1-0.4
			c-0.1-0.7-0.1-1.4,0-2.2C3.6,13,3.8,12.4,4,11.8c0-0.1,0.1-0.1,0.1-0.2c0.1,0.7,0.3,1.4,0.6,2c0,0.1,0.1,0.2,0.1,0.2
			c0.3,0.2,0.2,0.5,0.1,0.8c-0.2,0.6-0.2,1.3-0.1,2C4.8,16.7,4.8,16.8,4.8,17z"/>
		<path class="st0" d="M6.2,9c0,0.5,0,1,0.1,1.5c0.1,0.4,0.1,0.7-0.1,1.1C6,12,6,12.4,5.9,12.8c-0.1,0.4-0.4,0.6-0.6,0.9
			c0-0.4,0-0.9-0.2-1.3c-0.2,0.5-0.1,1-0.1,1.5c-0.1-0.3-0.2-0.5-0.3-0.8c-0.1-0.4-0.3-0.8-0.4-1.3c0-0.1,0-0.1,0-0.2
			c0.2-0.6,0.4-1.2,0.8-1.7C5.4,9.6,5.7,9.3,6,9.1C6.1,9.1,6.1,9,6.2,9z"/>
		<path class="st0" d="M9,23.1C9,23,8.9,23,8.9,22.9c-0.2-0.2-0.4-0.3-0.3-0.7c0.1-0.3,0.1-0.7-0.1-1.1c-0.1,0.2-0.2,0.5-0.2,0.8
			c0,0.2,0,0.3,0,0.5c-0.1-0.1-0.3-0.2-0.4-0.2c-0.1,0-0.1-0.1-0.1-0.2c-0.1-0.5,0-1-0.1-1.4c-0.1-0.7,0.2-1.2,0.6-1.7
			c0.1-0.1,0.2-0.1,0.3,0c0.5,0.6,0.8,1.4,1,2.2c0,0.1,0,0.3,0.1,0.4c0,0.3,0,0.5-0.3,0.7C9.1,22.4,9.1,22.8,9,23.1z"/>
		<path class="st0" d="M13.2,27.8c0.1,0.5,0.4,0.9,0.6,1.3c-0.4,0.1-0.5-0.2-0.6-0.4c-0.5-0.7-1-1.4-1.5-2c-0.3-0.4-0.4-0.8-0.3-1.3
			c0.1-0.3,0-0.6,0.1-0.9c0,0,0-0.1,0.1-0.2c1,0.7,1.7,1.7,2.3,2.8c-0.3,0-0.3,0.1-0.3,0.3c0,0.4,0.1,0.8,0.2,1.1
			C13.6,28.2,13.4,28,13.2,27.8C13.2,27.8,13.2,27.8,13.2,27.8z"/>
		<path class="st0" d="M5.6,17.5C5.3,17.3,5.2,17,5,16.8c0,0,0-0.1,0-0.1c0-0.7,0-1.5,0.2-2.2c0.1-0.4,0.4-0.8,0.7-1.1
			c0.1-0.1,0.2,0,0.2,0c0.2,0.3,0.5,0.7,0.4,1.2c-0.1,0.7,0,1.4,0.3,2.1c0.1,0.3,0,0.5-0.1,0.8c-0.1,0.2-0.2,0.4-0.3,0.7
			c0,0.1-0.1,0.1-0.2,0C6.2,18,6,17.9,5.9,17.8c-0.1-0.1,0-0.3,0-0.4c0.1-0.4,0-0.8-0.2-1.2c0,0,0-0.1-0.1-0.1
			c-0.1,0-0.1,0.1-0.1,0.1C5.5,16.6,5.5,17,5.6,17.5C5.6,17.4,5.6,17.4,5.6,17.5z"/>
		<path class="st0" d="M13.3,29c-0.2,0.1-0.4,0-0.5-0.1c-0.4-0.4-0.8-0.7-1.2-1c-0.1,0-0.2-0.1-0.2-0.1c-0.1,0.1,0,0.1,0.1,0.2
			c0.3,0.4,0.7,0.7,1.1,0.9c-0.4,0.1-0.7,0-1.1-0.3c-0.5-0.4-1-0.7-1.4-1.1c-0.4-0.4-0.7-1-0.8-1.6c0-0.1,0-0.1,0.1-0.1
			C9.9,26,10.4,26,11,26.2c0.3,0.1,0.4,0.3,0.6,0.6c0.5,0.8,1.1,1.5,1.6,2.2C13.2,28.9,13.3,28.9,13.3,29z"/>
		<path class="st0" d="M24.5,29.1c0.2-0.4,0.5-0.8,0.7-1.3c-0.3,0.2-0.4,0.5-0.6,0.8c0.1-0.2,0.1-0.4,0.2-0.6
			c0.1-0.2,0.1-0.4,0.1-0.7c0-0.2,0-0.4-0.3-0.3c0.6-1.1,1.3-2.1,2.3-2.8c0.1,0.3,0.1,0.7,0.1,1c0,0.2,0,0.5,0,0.7
			c0,0.1-0.1,0.2-0.1,0.3c-0.5,0.7-1,1.4-1.5,2.1c-0.1,0.2-0.3,0.3-0.4,0.5C24.8,29,24.7,29.1,24.5,29.1z"/>
		<path class="st0" d="M25.8,29c0.2-0.2,0.5-0.3,0.7-0.5c0.2-0.1,0.3-0.3,0.5-0.5c0,0,0.1-0.1,0-0.1c0-0.1-0.1,0-0.1,0
			c-0.5,0.3-0.9,0.6-1.3,1C25.4,29,25.2,29.1,25,29c0.2-0.2,0.4-0.4,0.5-0.6c0.5-0.6,1-1.3,1.4-1.9c0.1-0.2,0.3-0.3,0.5-0.3
			c0.5-0.1,1-0.2,1.5-0.2c0.3,0,0.2,0.2,0.1,0.3c-0.1,0.7-0.5,1.2-1,1.6c-0.5,0.4-1,0.7-1.5,1.1C26.3,29.1,26,29,25.8,29z"/>
		<path class="st0" d="M5.2,24.3c0.5,0.2,0.9,0.5,1.4,0.5c0.2,0,0.5,0.1,0.7,0.1c0.1,0,0.1,0,0.2,0.1c0.5,0.8,1.1,1.5,1.8,2
			c0.1,0.1,0.3,0.2,0.4,0.4c-0.5-0.3-0.9-0.6-1.5-0.7c0.2,0.4,0.6,0.5,0.9,0.7c-0.4,0-0.8,0.1-1.1,0c-0.5-0.2-1-0.5-1.4-0.9
			c-0.3-0.3-0.5-0.7-0.7-1.1C5.6,25.1,5.4,24.7,5.2,24.3z"/>
		<path class="st0" d="M7,24c-0.4-0.2-0.7-0.5-1.1-0.5c0.3,0.4,0.6,0.7,1.1,0.9c0.2,0.1,0.3,0.2,0.3,0.4c-0.2,0-0.3,0-0.4-0.1
			c-0.3-0.1-0.5-0.1-0.8-0.2c-0.4-0.1-0.7-0.4-1-0.7c-0.5-0.7-0.9-1.5-0.9-2.4c0,0,0,0,0,0c0-0.2-0.1-0.4,0-0.4
			c0.1-0.1,0.3,0.1,0.5,0.1c0,0,0,0,0.1,0c0.4,0.2,0.8,0.4,1,0.9c0.2,0.4,0.5,0.8,0.9,1.1c0.1,0.1,0.2,0.2,0.2,0.3
			C6.8,23.6,6.9,23.8,7,24z"/>
		<path class="st0" d="M28.7,21.8c0.1-0.7,0.3-1.4,0.6-2c0.1-0.3,0.3-0.5,0.5-0.7c0-0.1,0.1-0.2,0.2,0c0.3,0.4,0.6,0.8,0.7,1.2
			c0.1,0.2,0,0.4,0,0.6c0,0.4-0.1,0.7-0.2,1.1c0,0.2-0.4,0.5-0.5,0.5c-0.1,0-0.1-0.1-0.1-0.1c0-0.3,0-0.6-0.1-0.9c0,0,0-0.1-0.1-0.1
			c0,0-0.1,0.1-0.1,0.1c-0.1,0.4-0.1,0.7,0,1.1c0,0.1,0,0.1,0,0.2c-0.1,0.1-0.3,0.3-0.4,0.4c-0.1,0.1-0.1,0.1-0.2-0.1
			c0-0.3-0.1-0.6-0.3-0.9C28.7,22,28.7,21.9,28.7,21.8z"/>
		<path class="st0" d="M13.8,27.2c0.2,0.1,0.4,0.2,0.6,0.4c0.2,0.2,0.3,0.3,0.5,0.5c0.3,0.3,0.7,0.4,1,0.5c0.6,0.2,1.1,0.5,1.6,1
			c0.1,0.1,0.1,0.2,0.2,0.3c0.1,0.1,0,0.3-0.1,0.3c-0.1,0.1-0.3,0-0.4-0.1c-0.3-0.3-0.7-0.5-1.1-0.7c-0.1,0-0.1-0.1-0.2,0
			c0,0.1,0,0.1,0.1,0.2c0.3,0.3,0.6,0.5,1,0.7c-0.4,0.2-0.7,0.2-1.1,0.1c-0.8-0.4-1.4-1-1.8-1.7C13.8,28.2,13.7,27.7,13.8,27.2z"/>
		<path class="st0" d="M34.4,12.7c0.2,0.4,0.3,0.8,0.4,1.1c0.1,0.4,0.1,0.8,0.1,1.2c0,0.5-0.1,1.1-0.2,1.6c0,0.2-0.2,0.3-0.3,0.4
			c-0.2,0.3-0.5,0.6-0.8,0.9c0.3-0.6,0.5-1.1,0.5-1.7c-0.3,0.4-0.5,0.8-0.7,1.3c-0.1-0.2-0.1-0.4,0-0.6c0.1-0.7,0.1-1.3-0.1-1.9
			c0-0.1-0.1-0.2,0-0.3c0.4-0.6,0.8-1.1,1-1.8C34.3,12.8,34.4,12.7,34.4,12.7z"/>
		<path class="st0" d="M22.5,29.4c-0.5,0.1-0.9,0.3-1.2,0.6c-0.1,0.1-0.1,0.2-0.3,0.2c-0.1,0-0.2,0-0.3-0.1c0-0.1,0-0.2,0-0.3
			c0.3-0.5,0.7-0.7,1.2-0.9c0.3-0.1,0.7-0.3,1-0.4c0.4-0.2,0.7-0.5,1-0.8c0.1-0.2,0.3-0.3,0.5-0.4c0.1-0.1,0.1,0,0.1,0.1
			c0,0.7-0.2,1.4-0.7,2c-0.4,0.4-0.8,0.7-1.2,1c-0.4,0.2-0.7,0.2-1.1,0.1c0,0-0.1,0-0.1-0.1c0-0.1,0.1,0,0.1-0.1
			C21.9,30,22.3,29.8,22.5,29.4z"/>
		<path class="st0" d="M32.9,24.6c-0.4,0.7-0.7,1.5-1.3,2.1c-0.4,0.4-0.9,0.7-1.4,0.8c-0.3,0.1-0.7,0-1,0c0.3-0.2,0.6-0.3,0.8-0.6
			c0,0,0.1-0.1,0.1-0.1c0-0.1-0.1,0-0.2,0c-0.3,0.1-0.7,0.3-1,0.5c-0.1,0.1-0.2,0.1-0.4,0.2c0.2-0.2,0.4-0.4,0.6-0.5
			c0.6-0.5,1.1-1.1,1.5-1.7c0.2-0.3,0.4-0.3,0.7-0.3c0.4,0,0.9-0.2,1.3-0.3C32.7,24.6,32.8,24.6,32.9,24.6z"/>
		<path class="st0" d="M29.5,7.6c0.5,0.2,1,0.5,1.4,0.8c0.5,0.3,0.9,0.8,1.3,1.2c0.2,0.3,0.3,0.5,0.2,0.8c-0.1,0.4-0.1,0.8-0.2,1.3
			c0,0.1,0,0.1-0.1,0.1c-0.2-0.6-0.4-1.3-0.9-1.8c-0.1,0.5,0.1,0.8,0.3,1.3c-0.2-0.3-0.4-0.5-0.7-0.6c-0.5-0.2-0.6-0.6-0.7-1
			C30.1,9,29.8,8.3,29.5,7.6z"/>
		<path class="st0" d="M5.4,21.2C5,21,4.6,20.8,4.2,20.6C4,20.6,4,20.3,3.9,20.2c-0.3-0.6-0.5-1.3-0.6-2c-0.1-0.5,0-1.1,0-1.6
			c0-0.1,0-0.2,0.1-0.3c0.4,0.5,0.9,1,1.4,1.4c0.1,0.1,0.1,0.2,0.1,0.3c0,0.6,0,1.1,0.1,1.7c0,0.1,0,0.2,0,0.3
			c-0.2-0.2-0.3-0.4-0.5-0.6c0,0-0.1-0.1-0.2-0.1c0,0,0,0.1,0,0.2c0.2,0.5,0.5,0.9,0.8,1.2C5.3,20.8,5.3,20.8,5.4,21.2z"/>
		<path class="st0" d="M32.4,23.5c-0.4,0.1-0.7,0.3-1.1,0.5c0.2-0.4,0.1-0.7,0.5-1c0.4-0.3,0.7-0.7,0.9-1.1c0.2-0.3,0.4-0.5,0.8-0.6
			c0.1,0,0.1,0,0.2,0c0.5-0.2,0.5-0.2,0.4,0.4c-0.1,1.1-0.5,2-1.3,2.7c-0.1,0.1-0.2,0.1-0.4,0.2c-0.4,0.1-0.8,0.2-1.1,0.3
			c-0.1,0-0.1,0.1-0.1,0c0,0,0-0.1,0-0.1c0-0.1,0.1-0.2,0.2-0.2C31.7,24.3,32,24,32.4,23.5z"/>
		<path class="st0" d="M11.5,29c-0.4-0.1-0.8-0.2-1.2,0c0.4,0.2,0.9,0.3,1.4,0.4c-0.2,0.1-0.4,0.2-0.6,0.2c-0.6,0.3-1.1-0.1-1.6-0.3
			c-0.6-0.3-1.2-0.6-1.6-1.1c-0.1-0.1-0.1-0.3-0.3-0.4c0.4-0.1,0.7-0.1,1-0.2c0.3,0,0.7,0,1-0.1c0.2,0,0.3,0,0.5,0.2
			c0.4,0.4,0.9,0.8,1.4,1.1C11.4,28.9,11.4,28.9,11.5,29z"/>
		<path class="st0" d="M32.9,17.8c0.1-0.5,0-1-0.1-1.5c-0.2,0.2-0.2,0.4-0.2,0.6c-0.1,0.3-0.1,0.6-0.1,0.9c0,0.2-0.3,0.5-0.5,0.6
			c-0.1,0-0.1,0-0.1-0.1c-0.1-0.1-0.1-0.2-0.1-0.4c-0.1-0.6-0.1-1.2,0.1-1.8c0.1-0.3,0.1-0.7,0.1-1c0-0.5,0.3-0.8,0.5-1.2
			c0.1-0.1,0.1,0,0.2,0c0.3,0.4,0.4,0.8,0.5,1.3c0.1,0.6,0.1,1.1,0.1,1.7c0,0.2-0.1,0.4-0.2,0.5C33,17.6,33,17.7,32.9,17.8z"/>
		<path class="st0" d="M33.3,14.4c0.1-0.4,0.2-0.9,0.2-1.3c0-0.1,0-0.3,0-0.4c0,0,0-0.1-0.1-0.1c-0.1,0-0.1,0.1-0.1,0.1
			c-0.1,0.4-0.2,0.9-0.2,1.4c-0.2-0.3-0.5-0.5-0.5-0.8c0-0.4,0-0.7-0.2-1.1c-0.1-0.2,0-0.4,0-0.6c0.1-0.5,0.2-1,0.2-1.6
			c0-0.1,0-0.1,0-0.3c0.3,0.3,0.5,0.5,0.7,0.8c0.4,0.6,0.7,1.2,0.9,1.8c0,0.1,0,0.3-0.1,0.4c-0.2,0.5-0.3,1.1-0.7,1.5
			C33.4,14.3,33.4,14.3,33.3,14.4z"/>
		<path class="st0" d="M9.1,7.3C8.6,8.1,8.3,9,8.2,9.9c0,0.1-0.1,0.2-0.2,0.3c-0.3,0.2-0.6,0.4-0.9,0.5c0.2-0.3,0.2-0.6,0.2-0.9
			c0-0.1,0.1-0.2,0-0.2c-0.1,0-0.1,0.1-0.2,0.1c-0.2,0.3-0.4,0.6-0.5,0.9c0,0.1,0,0.1-0.1,0.3c-0.1-0.6-0.1-1.1-0.2-1.6
			c0-0.1,0-0.1,0-0.2C7.1,8.3,7.9,7.6,9.1,7.3z"/>
		<path class="st0" d="M28.1,25.6c0.1-0.3,0.2-0.7,0.1-1c-0.3,0.4-0.5,0.8-0.6,1.2c0,0.1-0.1,0.2-0.2,0.2c-0.2,0.1-0.3,0-0.3-0.2
			c0-0.6,0-1.1,0-1.7c0-0.3,0.1-0.4,0.4-0.4c0.2,0,0.4-0.4,0.4-0.6c-0.1-0.4,0.1-0.8,0.5-1c0.1,0,0.1,0,0.2,0.1
			c0.2,0.3,0.3,0.5,0.4,0.9c0.1,0.8-0.2,1.5-0.7,2.2C28.3,25.4,28.3,25.6,28.1,25.6z"/>
		<path class="st0" d="M13.1,31.9c1.6-0.4,3-1.2,4.6-1.5c-0.1,0.3-0.2,0.6-0.3,0.9c-0.1,0.1-0.1,0.2-0.3,0.3
			c-0.7,0.3-1.3,0.5-1.9,0.8c-0.3,0.2-0.6,0-0.8-0.1C13.9,32.2,13.5,32,13.1,31.9z"/>
		<path class="st0" d="M7.5,19.9c-0.1-0.2-0.3-0.4-0.3-0.6c0-0.1,0-0.3,0.1-0.5c0-0.2,0-0.4,0-0.6c0-0.1,0-0.1-0.1-0.1
			c-0.1,0-0.1,0.1-0.1,0.1C7,18.6,7,18.8,7,19.1c-0.4-0.3-0.5-0.6-0.3-1.3c0.2-0.6,0.4-1.2,0.9-1.7c0,0,0.1-0.1,0.1-0.1
			C8,15.9,8,16,8,16.2c0.1,0.5,0.4,1,0.5,1.6c0,0.2,0,0.4,0,0.6c0,0.1-0.1,0.1-0.1,0.2C7.9,18.9,7.7,19.3,7.5,19.9z"/>
		<path class="st0" d="M26.6,29.4c0.4-0.1,0.9-0.2,1.3-0.4c-0.4-0.2-0.8-0.1-1.1,0c0.3-0.2,0.5-0.3,0.7-0.5c0.3-0.2,0.5-0.5,0.8-0.7
			c0.1-0.1,0.1-0.1,0.2-0.1c0.4,0,0.7,0,1.1,0c0.3,0,0.6,0,1,0.1c-0.1,0.3-0.4,0.5-0.6,0.7c-0.6,0.5-1.4,0.9-2.1,1.1
			c-0.3,0.1-0.6,0-0.9-0.1C26.9,29.5,26.7,29.5,26.6,29.4z"/>
		<path class="st0" d="M34,19.3c-0.3,0.2-0.5,0.5-0.7,0.7c0.1-0.5,0.1-1,0.1-1.5c0-0.1,0.1-0.1,0.1-0.2c0.4-0.3,0.7-0.8,1.1-1.2
			c0,0,0.1-0.1,0.1-0.2c0.1,0.3,0.2,0.5,0.2,0.8c0,1-0.2,2-0.8,2.9c0,0.1-0.1,0.1-0.1,0.1c-0.3,0.2-0.6,0.3-1,0.5c0,0-0.1,0.1-0.1,0
			c0,0,0-0.1,0-0.2c0.1-0.3,0.3-0.4,0.5-0.7C33.7,20.1,33.9,19.8,34,19.3z"/>
		<path class="st0" d="M25.2,31.7c-0.6,0.3-1.2,0.4-1.8,0.6c-0.1,0-0.2,0-0.2,0c-0.6-0.3-1.3-0.6-2-0.8c-0.2,0-0.2-0.2-0.2-0.3
			c-0.1-0.2-0.1-0.4-0.1-0.7c0-0.1,0.1-0.2,0.2-0.2c0.7,0.2,1.5,0.4,2.1,0.7c0.4,0.2,0.8,0.4,1.2,0.5C24.6,31.6,24.9,31.6,25.2,31.7
			z"/>
		<path class="st0" d="M30.9,20.2c-0.1-0.5-0.3-1-0.8-1.3c-0.3-0.2-0.2-0.5-0.1-0.7c0.1-0.6,0.3-1.2,0.5-1.8c0-0.1,0.1-0.1,0.1-0.1
			c0.7,0.6,1,1.4,1.1,2.2c0,0.3-0.2,0.6-0.4,0.8c0-0.3-0.1-0.5-0.1-0.8c0,0,0,0,0-0.1c0-0.1-0.1-0.3-0.2-0.3c-0.1,0,0,0.2-0.1,0.3
			c0,0.3,0,0.6,0.1,0.9C31.1,19.7,31,19.9,30.9,20.2z"/>
		<path class="st0" d="M9.3,23.1c0.1-0.3,0.2-0.6,0.4-0.9c0.1-0.1,0.1-0.1,0.2,0c0.2,0.1,0.3,0.2,0.5,0.3c0.1,0.1,0.2,0.1,0.1,0.3
			c0,0.2,0,0.4,0,0.6c0,0.2,0.2,0.2,0.3,0.2c0.3,0.1,0.5,0.3,0.5,0.6c0,0.2,0,0.5,0,0.7c-0.1,0.3,0,0.6,0,1c0,0.1,0,0.2-0.1,0.2
			c-0.1,0-0.2,0-0.2-0.2c-0.1-0.7-0.5-1.3-0.9-1.8c-0.2-0.2-0.4-0.5-0.6-0.7C9.3,23.2,9.2,23.2,9.3,23.1z"/>
		<path class="st0" d="M6.3,13.4c-0.2-0.4-0.2-0.7-0.1-1.1c0.2-0.6,0.6-1.1,1.1-1.5c0.2-0.2,0.4-0.3,0.7-0.4c0,0.2-0.1,0.3-0.1,0.5
			c-0.1,0.5-0.1,1-0.1,1.5c0,0.3-0.1,0.5-0.3,0.7c-0.3,0.3-0.5,0.6-0.9,0.8c-0.1,0.1-0.1,0-0.2,0c0-0.1-0.1-0.3,0-0.4
			c0.2-0.2,0.3-0.4,0.3-0.7c0-0.1,0.1-0.2,0-0.2c-0.1,0-0.1,0-0.2,0.1C6.5,12.9,6.4,13.1,6.3,13.4z"/>
		<path class="st0" d="M30.7,13.4c0.3,0.4,0.6,0.7,1,1c0.1,0.1,0.1,0.1,0.1,0.2c0,0.4,0,0.7-0.1,1.2c-0.1-0.3-0.1-0.7-0.4-0.9
			c-0.1,0.2,0,0.5,0,0.7c0,0.1,0.1,0.3,0.1,0.4c0.2,0.3,0,0.6,0,0.8c0,0,0,0.1-0.1,0c-0.3-0.3-0.7-0.5-1-0.8
			c-0.2-0.2-0.2-0.4-0.1-0.6C30.6,14.8,30.7,14.2,30.7,13.4C30.7,13.5,30.7,13.5,30.7,13.4z"/>
		<path class="st0" d="M30.5,10.8c1.1,0.5,1.9,1.9,1.4,2.9c0-0.3-0.1-0.5-0.2-0.7c-0.1-0.1-0.1-0.3-0.3-0.2c-0.1,0.1,0,0.2,0,0.3
			c0.1,0.2,0.2,0.4,0.3,0.6c0,0.1,0.1,0.1,0,0.2c0,0.1,0,0.2-0.1,0.3c-0.1,0-0.1-0.1-0.2-0.2c-0.2-0.2-0.4-0.4-0.6-0.7
			c-0.3-0.4-0.2-0.9-0.2-1.3c0-0.4,0-0.7-0.1-1C30.5,10.9,30.5,10.8,30.5,10.8z"/>
		<path class="st0" d="M7.9,13c-0.1,0.3-0.1,0.5-0.1,0.8c0,0.5,0.1,1.1,0.2,1.6c0,0.2,0,0.3-0.1,0.4c-0.2,0.3-0.5,0.5-0.9,0.8
			c-0.1-0.2-0.2-0.4,0-0.7c0.2-0.3,0.3-0.7,0.3-1.1c-0.3,0.2-0.5,0.5-0.6,0.8c0-0.2-0.1-0.4-0.1-0.6c0-0.2,0.1-0.5,0.1-0.7
			c0-0.1,0.2-0.2,0.3-0.3C7.3,13.7,7.5,13.4,7.9,13C7.8,13,7.8,13,7.9,13C7.8,13,7.8,13,7.9,13z"/>
		<path class="st0" d="M5.9,29.2c0.1-0.1,0.3-0.1,0.4-0.1c0.4,0,0.7,0,1.1,0c0.2,0,0.5,0.1,0.7,0c0.3-0.1,0.6,0.1,0.8,0.3
			c0.1,0,0,0.1,0,0.1c-0.1,0.3-0.1,0.5-0.2,0.8c0,0.2-0.2,0.1-0.3,0.1c-0.3-0.1-0.5-0.1-0.8-0.2C7.3,30,7,29.9,6.8,29.7
			C6.5,29.6,6.2,29.4,5.9,29.2z"/>
		<path class="st0" d="M32,29.1c-0.5,0.4-1.1,0.7-1.7,1c-0.1,0.1-0.2,0.1-0.3,0.1c-0.3,0.1-0.4,0.1-0.5-0.3
			c-0.1-0.2-0.1-0.3-0.2-0.5c-0.1-0.3,0-0.4,0.2-0.4c0.1,0,0.3,0,0.4,0c0.6,0,1.2-0.1,1.8-0.1C31.7,29,31.9,29,32,29.1z"/>
	</g>
	<g>
		
			<radialGradient id="SVGID_1_" cx="-357.5627" cy="131.7454" r="6.6492" gradientTransform="matrix(2.7187 0 0 2.7187 986.2343 -350.8744)" gradientUnits="userSpaceOnUse">
			<stop  offset="2.000000e-02" style="stop-color:#E60012"/>
			<stop  offset="0.1352" style="stop-color:#E60012"/>
			<stop  offset="0.98" style="stop-color:#B60005"/>
		</radialGradient>
		<path class="st1" d="M8.1,13.4L8.1,13.4l0,0.4c0,0,0,0.4,0,0.4c0,0,0.1,0.6,0.1,0.6l0.1,0.2l0.2,0c0.3,1.5,1,2.9,1.8,4.2l0,0.2
			l0,0.1l0.1,0.1l0.8,0.9l0,0c0,0,0.1,0,0.1,0c0,0,0,0,0,0l-0.6,3.1l0.8,0.1l0,0.3l0.8,0.2l0,0.4l0.7,0.2l0,0.2l1.7,0.2l0-0.6
			l0.9-0.4l-0.2,0.3l0,0.4l0.6,0.1l0,0.1l1,0.2l0.1-0.1c0,0,0.2,0.1,0.2,0.1c0,0,1.2,0.1,1.2,0.1c0,0,0.1-0.1,0.1-0.1l1.2,0l0.1,0.1
			l1,0l0.1,0l0.1-0.1l0,0l0.1,0.1l1-0.1l0.1-0.1l0.5-0.1l0-0.4l-0.2-0.3l0.9,0.4l0,0.1l0,0.5l1.7-0.2l0-0.1l0,0l0.7-0.2l0-0.4l0,0
			l0.8-0.2l0-0.3l0,0l0.7-0.1L27,20.5l0.2,0l0.7-0.8l0.1-0.2l0-0.3c0.9-1.2,1.6-2.6,1.9-4.1l0.1,0l0.1,0l0.1,0l0.1-0.2l0.2-1.3
			l0-0.1l-0.1,0l-0.1,0l0,0c0-0.3,0-0.5,0-0.8c0-2-0.5-3.9-1.5-5.6c0,0,0-0.1,0-0.1c0,0,0.1-0.1,0.1-0.1l0-0.1l-0.3-0.4l-0.1-0.1
			L28.2,6h-0.1L28,6c-2-2.7-5.2-4.4-8.8-4.4c-3.5,0-6.6,1.7-8.6,4.2l0,0l-0.1,0l-0.1,0.1L9.9,6.5l0,0.1l0.1,0.1
			c-1.1,1.7-1.7,3.6-1.7,5.8c0,0.2,0,0.4,0,0.6l-0.1,0L8.1,13.4L8.1,13.4z"/>
		
			<radialGradient id="SVGID_2_" cx="-357.2768" cy="131.4806" r="6.8333" gradientTransform="matrix(2.7187 0 0 2.7187 986.2343 -350.8744)" gradientUnits="userSpaceOnUse">
			<stop  offset="5.000000e-02" style="stop-color:#FFFFFF"/>
			<stop  offset="0.113" style="stop-color:#FFFFFF"/>
			<stop  offset="0.554" style="stop-color:#FFF100"/>
			<stop  offset="0.941" style="stop-color:#F7AD00"/>
			<stop  offset="0.95" style="stop-color:#F7AD00"/>
		</radialGradient>
		<path class="st2" d="M23.5,7.6l0.2,0.9l0.9,0.1L23.9,9l0.2,0.9l-0.7-0.6l-0.8,0.5L22.9,9l-0.7-0.6l0.9,0.1L23.5,7.6L23.5,7.6
			L23.5,7.6z M20.3,25.2L20.3,25.2l0.8-0.1l0-0.2l-0.3,0l0,0l0-0.8l-0.2,0l0,0.7L19.4,25l0-0.4l-0.2,0l0,0.6L20.3,25.2L20.3,25.2
			L20.3,25.2z M8.5,13.4L8.5,13.4l0,0.3c0,0,1-1.1,1.2-1.3c0.2-0.2,1.3-1.2,1.5-1.5c0,0.1,0,0.2-0.1,0.3c-0.1,0.1-0.3,0.2-0.3,0.3
			c-0.1,0.1-0.9,0.9-1.1,1.1c-0.1,0.2-1.3,1.4-1.3,1.4l0,0.4c0,0,1-1.1,1.2-1.3c0.2-0.2,1.1-1.2,1.4-1.4c0,0.3,0,0.6,0,0.8
			c0,2.7,1.3,5.1,3.3,6.5l0.4,1.9l0,0c0,0-0.1-0.1-0.1-0.1c0,0-0.1-0.1-0.1-0.1c0,0,0-0.1,0-0.1s-0.1-0.1-0.1-0.1
			c0,0-0.2-0.3-0.2-0.3c0,0,0,0-0.1,0c-0.1,0,0,0,0,0.1c0,0,0.1,0.1,0.1,0.1c0,0,0,0.1,0,0.2c0,0,0,0-0.1,0c0,0-0.1-0.1-0.1-0.1
			c0,0,0-0.1,0-0.1c0,0-0.1-0.1-0.1-0.1c0,0,0-0.1,0.1-0.1c0,0,0.1,0,0.1,0S14,19.9,14,19.9c-0.1,0-0.1-0.2-0.1-0.2c0,0-0.1,0-0.1,0
			c0,0-0.1,0-0.1-0.1c0,0-0.1,0-0.1,0c0,0,0,0.1,0.1,0.1c0,0,0,0.1,0,0.1c0,0.1,0,0.1,0,0.1l-0.1,0l-0.2,0L13,19.6h-0.1l-0.5-0.5
			l-0.1,0l-0.4-0.5l-0.1,0l0.4,0.5l0.1,0l0.5,0.5H13l0.5,0.4c0,0,0.2,0,0.2,0c0,0,0.4,0.4,0.5,0.4c0,0,0.4,0.3,0.6,0.4
			c0,0,0.1,0.5,0.4,0.8c0.3,0.3,0.7,0.5,1.1,0.6c0.5,0.1,0.8,0.1,1,0.1c0.2,0,0.5,0,0.7-0.1c0.2-0.1,0.3-0.1,0.4-0.1
			c0.1,0,0.2-0.1,0.2-0.1l0,0c0,0.1,0,0.1,0,0.1c0,0-0.1,0.1-0.3,0.2c-0.2,0.1-0.6,0.3-0.9,0.3c-0.3,0.1-0.6,0.1-1.3,0.1
			c-0.7-0.1-1.2-0.5-1.2-0.5l0,0c0,0-0.1-0.1-0.3-0.2c-0.1-0.1-0.3-0.3-0.3-0.3l-0.1,0c0,0-0.2-0.4-0.4-0.7
			c-0.2-0.4-0.2-0.8-0.2-0.8l-0.1,0l0,0.1c0,0,0,0.3,0.1,0.6c0.1,0.2,0.2,0.5,0.6,1.1c0.5,0.6,1.1,0.8,1.1,0.8l0.1-0.1
			c0,0,0,0.1,0.3,0.1c0.2,0,0.9,0.1,1.1,0.1c0.1,0,0.8-0.1,1.1-0.2c0.3-0.1,0.7-0.3,0.8-0.4l0,0.1l-0.2,0.1l-0.1,0
			c0.2,0.2,0.5,0.3,0.8,0.3c0.3,0,0.6-0.1,0.8-0.3l0,0l-0.2-0.2l0,0c0.1,0.1,0.5,0.4,0.8,0.5c0.4,0.1,1,0.2,1.1,0.2
			c0.1,0,0.9,0,1.1-0.1c0.2,0,0.3-0.1,0.3-0.1l0.1,0.1c0,0,0.6-0.2,1.1-0.8c0.5-0.6,0.6-0.8,0.6-1c0.1-0.2,0.1-0.6,0.1-0.6l0-0.1
			l-0.1,0c0,0-0.1,0.5-0.2,0.8c-0.2,0.4-0.4,0.7-0.4,0.7l-0.1,0c0,0-0.2,0.2-0.3,0.3c-0.1,0.1-0.3,0.2-0.3,0.2l0,0
			c0,0-0.5,0.4-1.2,0.5c-0.7,0.1-1,0-1.3-0.1c-0.3-0.1-0.7-0.2-0.9-0.3c-0.2-0.1-0.3-0.2-0.3-0.2c0,0,0-0.1,0-0.1l0,0
			c0,0,0.2,0.1,0.2,0.1c0.1,0,0.2,0.1,0.4,0.1c0.2,0.1,0.6,0.1,0.7,0.1c0.2,0,0.5,0.1,1-0.1c0.5-0.1,0.8-0.4,1.1-0.6
			c0.3-0.3,0.4-0.7,0.4-0.7l-0.2,0.1c0,0,0,0.1-0.1,0.3c-0.1,0.2-0.1,0.2-0.5,0.5c-0.4,0.3-0.8,0.4-1,0.4c-0.3,0-0.8,0-1.2,0
			c-0.5-0.1-0.8-0.4-0.8-0.4c0-0.1,0-0.2,0-0.3c0,0,0,0,0,0c0,0,0,0,0-0.1c0.1-0.1,0.1,0,0.2,0c0,0,0.1,0,0.1,0l0,0l0.3,0
			c0,0,0,0,0,0c0.1,0,0.2,0,0.2,0c0.1,0,0.1,0,0.2,0c0,0,0,0,0,0l0.3,0l0,0c0.1,0,0.3,0,0.3,0c0.1,0,0.3,0,0.3,0l0.1,0l0,0
			c0.1,0,0.2,0,0.2,0c0.2,0,0.4-0.1,0.4-0.1l0,0l0.1-0.3l-0.7,0.2l0,0l0.1,0l0,0.1l0,0l0-0.1l-0.2-0.1l-0.1-0.3l0.2-0.1l-0.2-0.5
			l-0.2,0l-0.2-0.3l0.1-0.3l-0.3-0.3l-0.2,0.1l-0.3-0.2l0-0.3L20,19.2l-0.2,0.2l-0.4-0.1L19.4,19H19l-0.1,0.3l-0.4,0.1l-0.2-0.2
			L18,19.3l0,0.3l-0.3,0.2l-0.3-0.1L17.1,20l0.1,0.3l-0.2,0.3l-0.3,0l-0.2,0.4l0.2,0.2l0,0.3l-0.3,0l0,0.1l-0.1,0l0-0.1l0.1,0l0,0
			l-0.7-0.2l0,0.3l0,0c0,0,0.2,0.1,0.4,0.1c0.2,0,0.4,0.1,0.4,0.1l0,0c0.1,0,0.5,0,0.7,0c0,0,0,0,0,0l0.2,0c0,0,0,0,0,0
			c0.1,0,0.1,0,0.2,0c0.1,0,0.2,0,0.2,0l0,0l0.3,0l0,0c0.1,0,0.1,0,0.2,0c0,0,0.1,0,0.1,0.1c0,0,0,0,0,0c0,0,0,0.1,0,0.3
			c0,0-0.4,0.3-0.9,0.4c-0.5,0.1-1,0.1-1.2,0c-0.3,0-0.7-0.2-1-0.5c-0.4-0.3-0.4-0.3-0.5-0.5c-0.1-0.2-0.1-0.3-0.1-0.3l0,0l0.4,0.2
			l-0.4-1.9c0.1,0,0.1,0.1,0.2,0.1l0.4,1.8l0.4,0.1l-0.3-1.7c0.5,0.3,1.1,0.5,1.7,0.7l0-0.1c-0.6-0.2-1.2-0.4-1.7-0.7l0,0L15,19.3
			l0,0c-0.1,0-0.1-0.1-0.2-0.1l-0.4-0.3l0,0c-0.1-0.1-0.3-0.2-0.4-0.4l10.5,0.1l0,0c-0.9,0.8-2,1.3-3.1,1.6l0,0.1
			c0.6-0.2,1.1-0.4,1.6-0.6l-0.4,1.7l0.4-0.1l0.4-1.9c0.1,0,0.1-0.1,0.2-0.1l-0.4,1.9l0.4-0.2l0.5-2c2-1.5,3.4-3.9,3.4-6.6
			c0-0.2,0-0.4,0-0.7c0.3,0.3,1.2,1.3,1.4,1.5c0.2,0.2,1.1,1.3,1.1,1.3l0-0.4c0,0-1.1-1.2-1.3-1.4c-0.1-0.2-1-1-1-1.1
			c0,0-0.2-0.2-0.3-0.3c0-0.1,0-0.2,0-0.3c0.2,0.2,1.4,1.3,1.5,1.5C28.9,12.8,30,14,30,14l0-0.3c0,0-1.1-1.2-1.3-1.5
			c-0.2-0.2-1.2-1.3-1.5-1.5c-0.8-3.6-4.1-6.4-7.9-6.4c-3.8,0-7,2.6-7.9,6.2c-0.3,0.3-1.3,1.3-1.5,1.5C9.6,12.3,8.5,13.4,8.5,13.4
			L8.5,13.4z M20.4,10l0.6,0.7l0.9-0.4l-0.5,0.8l0.6,0.7l-0.9-0.2l-0.5,0.8l-0.1-0.9l-0.9-0.2l0.9-0.4L20.4,10L20.4,10L20.4,10z
			 M18.1,10.1L18,11l0.9,0.4l-0.9,0.2l-0.1,0.9l-0.5-0.8l-0.9,0.2l0.6-0.7l-0.5-0.8l0.9,0.4L18.1,10.1L18.1,10.1L18.1,10.1z
			 M14.9,7.5l0.4,0.9l0.9-0.1l-0.7,0.6l0.4,0.9l-0.8-0.5l-0.7,0.6L14.6,9l-0.8-0.5l0.9-0.1L14.9,7.5L14.9,7.5L14.9,7.5z M16.6,14.4
			L16.6,14.4l0-0.1l0,0c0,0,0.1,0.1,0.1,0.1L16.6,14.4L16.6,14.4l5.2,0.2v-0.1l-0.1-0.1l0,0l0,0l0,0l0,0.1c0,0,0.1,0.1,0.1,0.1
			c0,0,0,0.1,0,0.1l0,0.6l0,0l0-0.6l0,0l0,0.6l-0.1,0l0-0.6l-5.2-0.1l0,0.6l-0.1,0l0-0.1l0-0.6l0,0l0,0.6l0,0l0-0.6c0,0,0-0.1,0-0.1
			C16.5,14.4,16.6,14.4,16.6,14.4L16.6,14.4L16.6,14.4z M16.6,15.3l0-0.6l0,0l5.1,0.1l0,0.6l0,0v0l0,0l0,0l0,0l0,0l0,0l0-0.1l0,0
			l0.1,0l0,0l0,0l0,0l0,0l0,0l0,0l0,0l0,0l0,0l0,0l0,0l0,0l0,0l0.1,0l0,0.1h0l0.1,0l0,0l0,0l-0.1,0.1h-0.5v0l-5.7-0.1L16,15.4l0,0
			l0,0h0.1h0l0-0.1l0.1,0l0,0l0,0l0,0l0,0l0,0l0,0l0,0l0,0v0l0,0l0,0l0,0l0,0l0.1,0l0,0l0,0.1l0,0L16.6,15.3L16.6,15.3L16.6,15.3
			L16.6,15.3L16.6,15.3L16.6,15.3z M16.2,15.6l6,0.1l0,0.1L16.2,15.6L16.2,15.6L16.2,15.6L16.2,15.6z M16.1,15.8l0.1-0.1l6,0.1
			l0.2,0.1l0,0l0,0l0,0l0.1,0l0,0.1l0,0.1l0,0l0.1,0.1h0.1l0,0L22.6,16l-6.7-0.1l0,0l0,0h0.1L16.1,15.8L16.1,15.8L16.1,15.8
			L16.1,15.8l0-0.1L16.1,15.8L16.1,15.8L16.1,15.8L16.1,15.8L16.1,15.8z M16.1,16.1L16.1,16.1l6.4,0l-0.1,0.1L16.1,16.1L16.1,16.1
			L16.1,16.1z M18.9,16.3L18.9,16.3l0.7,0l0,0.1l0,0c0,0,0.1,0,0.1,0c0,0,0,0,0,0l0,0.3l0,0c0,0-0.1,0-0.1,0c0,0,0,0,0,0l0,0l0,0
			l-0.6,0c0,0,0-0.1,0-0.1c0,0,0,0,0,0l-0.1,0l0,0l0-0.3L18.9,16.3L18.9,16.3L18.9,16.3L18.9,16.3L18.9,16.3z M22.2,16.7L22.2,16.7
			L22.2,16.7L22.2,16.7L22.2,16.7L22.2,16.7L22.2,16.7l-0.1,0.1L22.2,16.7C22.1,16.7,22.1,16.7,22.2,16.7
			C22.1,16.7,22.2,16.7,22.2,16.7L22.2,16.7L22.2,16.7L22.2,16.7L22.2,16.7z M22,16.7L22,16.7L22,16.7L22,16.7L22,16.7
			c-0.1,0-0.1,0-0.1,0c0,0,0,0,0,0c0,0,0,0,0,0L22,16.7C22,16.8,22,16.8,22,16.7C22,16.8,22,16.7,22,16.7L22,16.7L22,16.7z
			 M21.4,16.7L21.4,16.7L21.4,16.7C21.4,16.7,21.4,16.7,21.4,16.7C21.4,16.7,21.3,16.7,21.4,16.7c-0.1,0-0.1,0-0.1,0c0,0,0,0,0,0
			C21.3,16.8,21.3,16.8,21.4,16.7C21.3,16.8,21.4,16.8,21.4,16.7C21.4,16.8,21.4,16.7,21.4,16.7C21.4,16.7,21.4,16.7,21.4,16.7
			L21.4,16.7L21.4,16.7z M20.7,16.7L20.7,16.7L20.7,16.7L20.7,16.7L20.7,16.7L20.7,16.7c0.1-0.1,0.1-0.1,0.1-0.1c0,0,0,0,0,0v0l0,0
			L20.7,16.7L20.7,16.7L20.7,16.7z M20.1,16.7L20.1,16.7L20.1,16.7L20.1,16.7L20.1,16.7L20.1,16.7c0.1,0,0.1,0,0.1,0c0,0,0,0,0,0
			l0,0l0,0l0,0L20.1,16.7L20.1,16.7L20.1,16.7L20.1,16.7L20.1,16.7L20.1,16.7z M19.6,16.3L19.6,16.3l0.3,0l0,0l0,0l0,0l0,0l0,0.4
			l0,0l0,0l0,0l0,0l0,0l0-0.1c0,0,0,0,0,0c0,0,0,0,0,0c0,0,0,0,0,0h0l0-0.3c0,0,0,0,0.1,0c0,0,0,0,0,0c0,0,0,0,0,0l0.2,0
			c0,0,0,0,0,0c0,0,0,0,0,0c0,0,0,0,0,0c0,0,0,0,0,0c0,0,0,0.3,0,0.3c0,0,0,0,0,0c0,0-0.1,0-0.1,0l0,0h0.2v-0.4c0,0,0,0-0.1,0
			c0,0,0,0,0,0v0l0.2,0l0,0l-0.1,0l0,0l0,0.4h0.1c0,0,0-0.1,0-0.1c0,0,0,0,0,0c0,0,0,0,0,0l0,0v-0.3c0,0,0,0,0,0
			c0,0,0.1-0.1,0.1-0.1c0,0,0,0,0,0c0,0,0.1,0,0.1,0l0,0l0,0l0.1,0l0,0.3c0,0,0,0,0,0c0,0,0,0,0,0c0,0,0,0,0,0H21c0,0,0-0.1,0-0.1
			c0,0,0-0.4,0-0.4s0,0,0,0c0,0,0,0,0,0l0,0l0.3,0c0,0,0,0,0,0c0,0-0.1,0-0.1,0c0,0,0,0,0,0c0,0,0,0.4,0,0.4c0,0,0,0,0,0
			c0,0,0.1,0,0.1,0c0,0,0,0,0,0c0,0,0,0,0,0c0,0,0,0,0,0c0,0,0,0,0,0c0,0,0,0,0,0c0,0,0,0,0,0c0,0,0-0.3,0-0.3c0,0,0.1,0,0.1,0
			c0,0,0.1,0,0.1,0c0,0,0,0,0.1,0c0,0,0.1,0,0.1,0c0,0,0,0,0,0c0,0,0.1,0,0.1,0.1c0,0,0,0.3,0,0.3c0,0-0.1,0-0.1,0c0,0,0,0,0,0
			c0,0,0,0,0,0h0.1c0,0,0,0,0,0c0,0,0-0.4,0-0.4c0,0,0,0,0,0c0,0,0,0,0,0c0,0,0,0,0,0c0,0,0.2,0,0.2,0l0,0c0,0-0.1,0-0.1,0
			c0,0,0,0,0,0c0,0,0,0.4,0,0.4c0,0,0,0,0,0c0,0,0.1,0,0.1,0c0,0,0,0,0,0c0,0,0,0,0,0c0,0,0,0,0,0c0,0,0,0,0,0c0,0,0,0,0,0
			c0,0,0,0,0,0c0,0,0-0.3,0-0.3c0,0,0,0,0,0c0,0,0,0,0,0c0,0,0,0,0.1,0c0,0,0.1,0,0.1,0c0,0,0.1,0,0.1,0c0,0,0.1,0,0.1,0.1
			c0,0,0,0,0,0c0,0,0,0.2,0,0.2c0,0,0,0,0,0c0,0,0,0,0,0c0,0,0-0.3,0-0.3c0,0,0,0,0,0c0,0,0,0,0,0c0,0,0,0,0,0l0.1,0v0.4
			c0,0,0,0,0,0c0,0,0,0,0,0c0,0,0.1,0,0.1,0c0,0,0,0,0,0c0,0,0,0,0,0s0,0,0,0c0,0,0,0,0,0c0,0,0,0,0,0c0,0,0,0.1,0,0.1l-3,0
			c0,0,0,0,0,0c0,0,0,0,0,0c0,0,0.1,0,0.1,0C19.8,16.7,19.7,16.3,19.6,16.3C19.7,16.3,19.7,16.3,19.6,16.3
			C19.7,16.3,19.6,16.3,19.6,16.3L19.6,16.3L19.6,16.3z M16.2,16.6L16.2,16.6L16.2,16.6C16.2,16.6,16.2,16.7,16.2,16.6
			C16.2,16.7,16.2,16.7,16.2,16.6C16.2,16.7,16.2,16.7,16.2,16.6L16.2,16.6c0.1,0.1,0.1,0.1,0.1,0.1c0,0,0,0,0,0L16.2,16.6
			C16.3,16.6,16.3,16.6,16.2,16.6C16.2,16.6,16.2,16.6,16.2,16.6L16.2,16.6L16.2,16.6z M16.4,16.6L16.4,16.6L16.4,16.6L16.4,16.6
			L16.4,16.6l0.1,0c0,0,0,0,0,0c0,0,0,0,0,0c0,0,0,0,0,0L16.4,16.6C16.4,16.7,16.4,16.7,16.4,16.6C16.4,16.7,16.4,16.6,16.4,16.6
			L16.4,16.6L16.4,16.6z M17,16.6L17,16.6L17,16.6L17,16.6L17,16.6l0.1,0l0,0L17,16.6L17,16.6L17,16.6C17,16.7,17,16.7,17,16.6
			C17,16.7,17,16.6,17,16.6L17,16.6L17,16.6L17,16.6z M18.2,16.7L18.2,16.7L18.2,16.7L18.2,16.7C18.3,16.6,18.3,16.7,18.2,16.7
			C18.3,16.7,18.3,16.7,18.2,16.7c0.1,0,0.1,0,0.1,0l0,0c0,0,0,0,0,0c0,0,0,0,0,0c0,0,0,0,0,0l0,0L18.2,16.7
			C18.2,16.7,18.2,16.7,18.2,16.7C18.2,16.7,18.2,16.7,18.2,16.7L18.2,16.7L18.2,16.7z M16.1,16.7l0-0.5l0.2,0l0,0l-0.1,0v0.3l0,0
			l0,0v-0.2l0.1-0.1l0.1,0l0.1,0l0.1,0l0.1,0l0.1,0.1l0,0l0,0.2l0,0l0,0l0,0l0,0l0,0l0,0.1l0.1,0l0,0l0,0l0-0.4l-0.1,0v0l0.2,0l0,0
			c0,0-0.1,0-0.1,0c0,0,0,0.1,0,0.1v0.3l0,0h0.1l0,0l-0.1,0l0-0.2l0-0.1l0,0l0.1,0l0,0l0.1,0l0.1,0.1l0,0.1l0,0.1l0,0.1l0,0.1l0,0
			l0,0l0,0l0,0c0,0,0,0,0,0c0,0,0,0,0,0l0.1,0v-0.4l-0.1,0l0,0l0,0h0.3l0,0l-0.1,0l0,0v0.4l0.1,0l0,0c0,0-0.1,0-0.1,0
			c0,0,0-0.3,0-0.3l0,0l0.1-0.1l0,0l0.1,0l0,0l0.1,0.1l0,0.1l0,0.2l0,0l0,0l0,0l0,0.1l0.1,0l0,0l0-0.4l-0.1,0l0,0v0l0.2,0l0,0l0,0
			l-0.1,0l0,0l0,0.4l0,0l0.1,0l0,0l-0.1,0l0,0l0-0.2l0,0l0.1-0.1l0,0l0.2,0l0,0l0.1,0.1l0.1,0l0,0l0,0.2l0,0.1l0,0l0,0l-0.1,0l0,0
			l0,0l0,0h0.1l0-0.4c0,0,0,0,0,0c0,0-0.1,0-0.1,0l0,0l0.3,0l0,0c0,0-0.1,0-0.1,0c0,0,0,0,0,0l0,0.4l0.1,0l0,0l0,0l0,0l-3,0v-0.1h0
			l0,0.1l0,0L16.1,16.7L16.1,16.7L16.1,16.7L16.1,16.7z M12.8,16.9l0-0.1l12.7,0.2l0,0.1l-4.1,0v-0.1h-0.1l0,0.1L17.1,17l0-0.1
			l-0.1,0l0,0.1L12.8,16.9L12.8,16.9L12.8,16.9z M17,17.2L17,17.2c0-0.1,0.1-0.1,0.1-0.1L17,17.2L17,17.2L17,17.2L17,17.2z
			 M17.1,17.2H17l0,0.1l-0.1,0l0,0l0,0l0,0c0,0,0,0.1,0.1,0.1c0,0,0.1,0,0.1,0c0,0,0,0,0,0l0,0v0.8c0,0,0,0-0.1,0c0,0,0,0,0,0
			c0,0,0,0,0,0l0,0l0,0l0,0.1c0,0-0.1,0-0.1,0c0,0-0.1-0.1-0.1-0.1l0,0l-0.1,0l0,0h0l0,0l0,0l0,0h0l0,0l0,0l0,0h0l0,0l0,0l0,0h0
			l-0.1,0.1l1.2,0l0-0.1l0,0l0,0l-0.1,0l0,0l0-0.8l0,0l0,0c0,0,0.1,0,0.1,0c0,0,0-0.1,0-0.1l0,0l-0.1,0.1l-0.1,0l-0.1,0L17.1,17.2
			L17.1,17.2L17.1,17.2L17.1,17.2z M16.4,17.7c-0.1,0-0.1,0-0.2,0.1v0.3l0,0v0h0l0,0l0.1,0v0l0,0v0l0.1,0v0h0l0-0.3
			C16.5,17.8,16.5,17.7,16.4,17.7L16.4,17.7L16.4,17.7z M14.6,18.2V18V18.2L14.6,18.2L14.6,18.2L14.6,18.2l0.1,0l0,0l0,0l0,0l0,0.1
			l0,0h0L14.6,18.2L14.6,18.2L14.6,18.2L14.6,18.2L14.6,18.2z M14.8,18.2L14.8,18.2L14.8,18.2l0-0.1L14.8,18.2L14.8,18.2L14.8,18.2
			L14.8,18.2L14.8,18.2l0.1-0.1l0,0l0,0l0,0l0,0l0,0L14.8,18.2L14.8,18.2L14.8,18.2L14.8,18.2L14.8,18.2z M15.1,18.1L15.1,18.1
			L15.1,18.1l0,0.1l0,0h0l0.1,0l0,0l0-0.1L15.1,18.1L15.1,18.1L15.1,18.1L15.1,18.1L15.1,18.1L15.1,18.1L15.1,18.1z M15.3,18.1
			L15.3,18.1L15.3,18.1L15.3,18.1l0.1,0l0,0l0,0.1l0,0L15.3,18.1L15.3,18.1L15.3,18.1L15.3,18.1L15.3,18.1L15.3,18.1z M15.6,18.1
			L15.6,18.1C15.6,18.1,15.6,18.1,15.6,18.1c0,0,0,0.1,0,0.1c0,0,0,0,0,0l0,0l0,0l0,0l0,0L15.6,18.1L15.6,18.1L15.6,18.1L15.6,18.1
			L15.6,18.1L15.6,18.1L15.6,18.1z M15.9,18.1L15.9,18.1L15.9,18.1L15.9,18.1L15.9,18.1l0,0.1l0,0h0L15.9,18.1l0.1,0.1h0l0,0l0,0
			L15.9,18.1L15.9,18.1L15.9,18.1L15.9,18.1L15.9,18.1L15.9,18.1z M14.4,18.2l0-0.1l0,0L14.4,18.2L14.4,18.2l0.1-0.1l0,0h0l0,0
			l0,0.1c0,0,0,0,0,0c0,0,0,0,0,0S14.5,18.2,14.4,18.2C14.5,18.2,14.4,18.2,14.4,18.2L14.4,18.2L14.4,18.2L14.4,18.2L14.4,18.2
			L14.4,18.2z M17.5,17.8l0,0.3l0.3,0l0-0.3c0,0,0-0.1-0.1-0.1C17.6,17.7,17.5,17.8,17.5,17.8L17.5,17.8L17.5,17.8z M17.5,18.2
			L17.5,18.2L17.5,18.2L17.5,18.2L17.5,18.2l0.1-0.1l0,0h0.1l0,0h0v0l0.1,0v0h0v0l0.1,0l0.1,0l0,0l0,0L17.5,18.2L17.5,18.2
			L17.5,18.2L17.5,18.2L17.5,18.2z M19.4,18.1l-0.3,0l0-0.4c0,0,0-0.1,0.2-0.1c0.1,0,0.2,0.1,0.2,0.1L19.4,18.1L19.4,18.1L19.4,18.1
			z M19,18.2L19,18.2L19,18.2L19,18.2l-0.1,0.1l0.7,0l-0.1-0.1l0,0l0,0l0,0l0,0v0h-0.1l0,0h0l0,0h-0.1l0,0h0l0,0l0,0l0,0L19,18.2
			L19,18.2L19,18.2L19,18.2L19,18.2z M20.8,18.2l-0.3,0v-0.3c0,0,0-0.1,0.1-0.1c0.1,0,0.1,0.1,0.1,0.1L20.8,18.2L20.8,18.2
			L20.8,18.2z M21,18.3l-0.6,0l0,0l0,0l0,0l0.2,0v0l0.1,0l0,0l0,0l0,0h0l0,0l0,0l0,0h0l0,0l0,0L21,18.3L21,18.3L21,18.3L21,18.3
			L21,18.3L21,18.3L21,18.3z M21.3,17.2L21.3,17.2L21.3,17.2l0.1-0.1l0,0l0,0.1H21.3L21.3,17.2L21.3,17.2z M21.1,17.3L21.1,17.3
			L21.1,17.3l0.1,0.1c0,0,0,0,0,0c0,0,0,0,0,0l0-0.1l0,0c0,0,0.1,0,0.1,0c0,0,0,0,0,0v0.1h0.1h0.1l0,0l0,0l0,0l0,0l0,0.1l0,0l0,0
			l-0.1,0l0,0l0,0.8l0,0l0,0l0,0l0,0l0,0l0,0l0,0l0,0v0l0,0l0.1,0l0,0l0,0l-0.6,0l0,0l0,0l0,0l0,0l0,0l0,0l0,0l0,0l0,0l0,0l0,0
			l0-0.7l-0.1,0l-0.1,0L21.1,17.3L21.1,17.3L21.1,17.3L21.1,17.3L21.1,17.3z M22.2,18.2l-0.3,0l0-0.3c0,0,0-0.1,0.1-0.1
			c0.1,0,0.2,0.1,0.2,0.1L22.2,18.2L22.2,18.2L22.2,18.2z M22.3,18.4l-0.6,0l0-0.1l0,0l0,0l0,0l0,0l0.1,0l0,0H22c0,0,0,0,0,0
			c0,0,0,0,0,0v0h0.1c0,0,0,0,0,0c0,0,0,0,0,0v0h0v0l0.1,0L22.3,18.4L22.3,18.4L22.3,18.4C22.3,18.3,22.3,18.4,22.3,18.4
			C22.3,18.4,22.3,18.4,22.3,18.4L22.3,18.4L22.3,18.4z M19.8,18.1L19.8,18.1L19.8,18.1L19.8,18.1L19.8,18.1l0,0.1l-0.1,0L19.8,18.1
			L19.8,18.1L19.8,18.1L19.8,18.1L19.8,18.1L19.8,18.1z M18.3,18.2L18.3,18.2L18.3,18.2L18.3,18.2l0.1,0c0,0,0,0,0,0s0,0,0,0l0,0
			l0,0.1l-0.1,0L18.3,18.2L18.3,18.2L18.3,18.2L18.3,18.2z M18.6,18.2l0-0.1l0,0l0,0L18.6,18.2L18.6,18.2l0.1,0l0,0l0,0l0,0l0,0
			L18.6,18.2L18.6,18.2L18.6,18.2L18.6,18.2z M19.9,18.2L19.9,18.2L19.9,18.2L19.9,18.2l0.1,0l0,0l0,0l0,0v0.1l0,0L19.9,18.2
			L19.9,18.2L19.9,18.2L19.9,18.2L19.9,18.2z M21.2,17.1l-4-0.1l0,0l0,0l0,0l0,0l0,0l0,0l0,0l0,0l0,0l0,0l0,0l0,0.1c0,0,0,0,0,0.1
			c0,0,0,0.1,0,0.1c0,0,0,0-0.1,0c0,0,0,0-0.1,0c0,0-0.1,0-0.1,0l0,0.6l0,0l0,0l0,0l0,0c0,0,0,0,0,0c0,0,0,0,0,0c0,0,0,0,0,0
			c0,0,0,0,0,0s0,0,0,0c0,0,0,0,0,0c0,0,0,0,0,0c0,0,0,0,0,0c0,0,0.1,0,0.1,0s0,0,0,0c0,0,0-0.2,0-0.3c0,0,0-0.2,0.2-0.2
			c0.2,0,0.2,0.2,0.2,0.2l0,0.3l0.1,0l0,0c0,0,0,0,0,0c0,0,0,0,0,0c0,0,0,0.1,0,0.1c0,0,0,0,0,0c0,0,0.7,0,0.7,0s0-0.1,0-0.1
			c0,0,0,0,0,0c0,0,0,0,0,0c0,0,0-0.1,0-0.1l0.1,0l0-0.3c0,0,0-0.2,0.2-0.2c0.2,0,0.2,0.2,0.2,0.2l0,0.3l0,0l0.1,0v0.1l0,0l0,0
			l0.1,0.1l0.7,0l0,0l0,0l0.1-0.1h0.1l0-0.4c0,0,0-0.1,0.2-0.1c0.2,0,0.2,0.1,0.2,0.1l0,0.3l0.1,0.1l0-0.1l0.1,0l0,0l0,0l0,0l0-0.6
			l-0.1,0l-0.1-0.1l0-0.1l0-0.1l0.1-0.1L21.2,17.1l0,0.1L21.2,17.1L21.2,17.1L21.2,17.1z M22.8,18.1L22.8,18.1L22.8,18.1L22.8,18.1
			L22.8,18.1l-0.1,0.1l0,0c0,0,0,0,0,0c0,0,0,0.1,0,0.1c0,0,0,0,0,0l0,0l0,0c0,0,0,0,0,0c0,0,0,0,0,0V18.1
			C22.8,18.2,22.8,18.2,22.8,18.1C22.8,18.2,22.8,18.2,22.8,18.1C22.8,18.2,22.8,18.1,22.8,18.1L22.8,18.1L22.8,18.1z M22.9,18.2
			L22.9,18.2L22.9,18.2l0.1,0l0,0h0l0,0l0,0.1l0,0L22.9,18.2L22.9,18.2L22.9,18.2L22.9,18.2L22.9,18.2
			C22.9,18.3,22.9,18.3,22.9,18.2C22.9,18.3,22.9,18.2,22.9,18.2L22.9,18.2L22.9,18.2L22.9,18.2z M23.3,18.2L23.3,18.2L23.3,18.2
			L23.3,18.2L23.3,18.2L23.3,18.2l-0.1,0c0,0,0,0,0,0c0,0,0,0,0,0c0,0,0,0,0,0l0,0l0,0l0,0l0,0L23.3,18.2L23.3,18.2L23.3,18.2
			L23.3,18.2L23.3,18.2z M23.4,18.3L23.4,18.3L23.4,18.3L23.4,18.3L23.4,18.3l0.1-0.1l0,0l0,0l0,0l0,0l0,0l0,0l0,0L23.4,18.3
			L23.4,18.3L23.4,18.3L23.4,18.3z M23.8,18.3L23.8,18.3L23.8,18.3L23.8,18.3l0.1-0.1l0,0l0,0l0,0.1l0,0l0,0L23.8,18.3L23.8,18.3
			L23.8,18.3L23.8,18.3L23.8,18.3L23.8,18.3L23.8,18.3z M23.6,18.3L23.6,18.3L23.6,18.3L23.6,18.3l0.1-0.1l0,0h0l0,0.1l0,0
			L23.6,18.3L23.6,18.3L23.6,18.3L23.6,18.3L23.6,18.3z M22.4,18.2L22.4,18.2L22.4,18.2l0.1,0l0,0l0-0.1l0,0l0,0l0,0.1l0,0l0,0h0
			L22.4,18.2L22.4,18.2L22.4,18.2C22.4,18.3,22.4,18.3,22.4,18.2C22.4,18.3,22.4,18.2,22.4,18.2L22.4,18.2L22.4,18.2z M27,23.2
			l-0.3-2.4l-0.9,0.8l0.1,1.8L27,23.2L27,23.2L27,23.2z M25.6,20.5l0-0.4l-0.1,0c0,0,0,0.7-0.2,1.1c-0.2,0.4-0.4,0.7-0.5,0.8
			c-0.2,0.2-0.3,0.3-0.5,0.4c-0.2,0.1-0.6,0.3-0.7,0.4c-0.1,0-0.2,0.1-0.2,0.1l0.1,0.1c0,0,0.6-0.2,0.7-0.3c0.1-0.1,0.3-0.2,0.3-0.2
			l0,2.1l0.6,0l0,0.2l-1,0.1l0.1-0.7l0.3-0.7l0,0l-0.4,0.8l-0.3,0.4l-2.5-1.1l0,0l0.4,0.2l0.1,1l-0.1,0l0,0.2l0.4,0l0-0.1l0.6-0.1
			l0-0.5l0.2,0.2l0.8,0.3l0.2-0.3l0,0.5l1.3-0.1l0-0.3l0.7-0.1l0-0.5l0.8-0.1l0-0.5l0.6,0l-0.3-2.9L26.3,21c0,0,0.2-0.5,0.3-0.8
			c0.1-0.3,0.1-0.7,0.1-0.7l-0.1-0.3c0,0,0,0.6-0.1,0.9c-0.2,0.4-0.3,0.6-0.4,0.8c-0.1,0.2-0.5,0.5-0.5,0.5c0,0,0.3-0.5,0.4-0.9
			c0.1-0.4,0.1-0.9,0.1-1c0,0,0-0.2,0-0.2l-0.1,0c0,0,0,0.8-0.1,1.1c-0.1,0.2-0.1,0.4-0.2,0.6c-0.1,0.2-0.2,0.5-0.3,0.6
			c-0.1,0.1-0.4,0.3-0.4,0.3s0.4-0.5,0.5-0.8C25.5,20.9,25.6,20.7,25.6,20.5L25.6,20.5L25.6,20.5z M20.8,2.1L19.6,2l-0.1,0l0,0.1
			l0,0l1.2,0.1l0.8,0.2c0,0,0.2,0.1,0.3,0.1c0,0,0.2,0.2,0.2,0.3c0,0.1,0.2,0.2,0.3,0.2c0.1,0,0.3-0.1,0.2-0.2
			c0-0.1-0.2-0.2-0.3-0.2c-0.1,0-0.3-0.1-0.3-0.1c-0.1,0-0.2-0.2-0.2-0.2C21.8,2.3,21,2.1,20.8,2.1L20.8,2.1L20.8,2.1z M21.6,2.9
			l0.3-0.1c0,0,0-0.2-0.1-0.3c-0.1-0.1-0.5-0.1-0.6-0.2c-0.2,0-0.6-0.1-0.8-0.1c-0.2,0-0.8-0.1-0.8-0.1l-0.1,0l0,0.1l0,0
			c0,0,0.7,0,0.8,0.1c0.2,0,0.6,0.1,0.7,0.1c0.1,0,0.3,0.1,0.4,0.2C21.6,2.8,21.6,2.9,21.6,2.9L21.6,2.9L21.6,2.9z M20,2.5l-0.4,0
			l-0.1,0l0,0.1c0,0,0.8,0,0.9,0.1c0.2,0,0.6,0.1,0.7,0.1c0.1,0,0,0.1,0,0.1c0,0-0.6-0.1-0.8-0.1c-0.2,0-0.7-0.1-0.7-0.1
			c-0.1,0-0.1,0-0.1,0l0,0l0,0c0,0,0.7,0,0.9,0.1c0.2,0,0.6,0.1,0.6,0.1c0.1,0,0.2,0,0.3,0c0,0,0.1-0.1,0.1-0.1c0-0.1,0-0.1-0.1-0.2
			c-0.1,0-0.1-0.1-0.3-0.1c-0.2,0-0.6-0.1-0.7-0.1C20.3,2.6,20.1,2.5,20,2.5L20,2.5L20,2.5z M21.8,3c0.1,0,0.1,0,0.2,0
			c0,0,0.1,0,0.1,0.1c0,0.1-0.1,0.2-0.2,0.2c-0.1,0-0.3,0-0.3,0c-0.1,0-0.3,0-0.3,0c0,0-0.2-0.1-0.4-0.1c-0.2,0-0.4-0.1-0.5-0.1
			c-0.1,0-0.5,0-0.5,0c0,0-0.1,0-0.1-0.1c0,0,0-0.1,0.1-0.1c0,0,0.7,0,1,0.1c0.3,0.1,0.5,0.1,0.5,0.1c0,0,0.2,0,0.2-0.1
			C21.6,3.1,21.7,3,21.8,3L21.8,3L21.8,3z M19.9,3.6l-0.2-0.2c0,0,0.1,0,0.1,0c0,0,0.2-0.1,0.4-0.1c0.2,0,0.4,0.2,0.4,0.2
			s-0.1,0-0.1,0.1c0,0-0.2,0.1-0.2,0.1c0,0,0,0.2,0.1,0.2c0,0-0.1,0-0.1,0c0,0-0.2-0.1-0.3-0.1C20,3.7,20,3.6,19.9,3.6L19.9,3.6
			L19.9,3.6z M22.2,2.5L22.2,2.5c0-0.1,0.3,0,0.4,0c0.1,0,0.3,0.1,0.4,0.1c0,0,0,0.1,0,0.1c0,0,0.1,0.1,0.3,0.2
			c0.2,0.1,0.3,0.3,0.3,0.3c0,0,0,0.1-0.1,0.1c0,0-0.3,0-0.4-0.1C23,3.2,22.9,3.1,22.9,3c0-0.1,0-0.1-0.1-0.2
			c-0.1-0.1-0.1-0.1-0.2-0.2C22.4,2.6,22.2,2.5,22.2,2.5L22.2,2.5L22.2,2.5z M22.8,3.2l-0.2,0c-0.2,0-0.3,0-0.4,0.1
			c-0.1,0-0.1,0.1-0.2,0.1c-0.1,0-0.3,0-0.3,0l0.4,0.1c0,0,0.1-0.1,0.2-0.1c0.2,0,0.2,0,0.4,0c0.1,0,0.2-0.1,0.2-0.1
			C22.9,3.3,22.9,3.2,22.8,3.2L22.8,3.2L22.8,3.2z M20.6,3.8L20.6,3.8c-0.1-0.1-0.1-0.1,0-0.1c0.1,0,0.2-0.1,0.3-0.1
			c0.2,0,0.2,0.1,0.3,0.2c0.1,0.1,0.1,0.2,0.1,0.2c0,0,0,0.1,0,0.1c0,0-0.2,0.2-0.3,0.1c-0.1,0-0.3-0.1-0.4-0.1
			C20.7,3.9,20.6,3.8,20.6,3.8L20.6,3.8L20.6,3.8z M21.3,3.6L21.3,3.6C21.2,3.6,21.3,3.6,21.3,3.6c0.1-0.1,0.1-0.1,0.3-0.1
			c0.2,0,0.4,0.1,0.4,0.1s-0.2,0-0.3,0.1c-0.1,0.1,0.1,0.3,0.1,0.3s-0.1,0-0.1,0.1c0,0-0.1-0.1-0.1-0.1c0,0-0.1-0.2-0.1-0.3
			C21.4,3.7,21.3,3.7,21.3,3.6L21.3,3.6L21.3,3.6z M20.5,4.1L20.6,4c0,0,0.1,0.1,0.3,0.2c0.2,0.1,0.5,0,0.5,0s0,0.1,0,0.1
			c0,0,0.2,0.2,0.2,0.2s-0.3-0.1-0.5-0.1c-0.1,0-0.3-0.1-0.3-0.1c0,0-0.1-0.1-0.1-0.1C20.6,4.2,20.5,4.1,20.5,4.1L20.5,4.1L20.5,4.1
			z M22.4,3.5L22.4,3.5L23,3.8c0,0,0.1-0.1,0.3,0c0.2,0,0.3,0,0.4,0c0.1,0,0.2-0.1,0.1-0.1c0-0.1-0.1-0.2-0.2-0.2
			c-0.1,0-0.3-0.1-0.4,0c-0.2,0-0.3,0.1-0.4,0.1C22.7,3.6,22.5,3.5,22.4,3.5L22.4,3.5L22.4,3.5z M22.6,4l0.1-0.1c0,0,0,0-0.1-0.1
			c-0.1,0-0.2-0.1-0.3-0.1c-0.2,0-0.2,0.1-0.3,0.1c0,0-0.2,0-0.2,0.1c0,0,0.1,0.1,0.1,0.2C22,4.1,22,4.2,22,4.2c0,0,0.4,0.2,0.4,0.2
			c0,0,0.2,0,0.2,0c0,0,0,0-0.1-0.1c0,0-0.1-0.1-0.1-0.2C22.5,4,22.6,4,22.6,4L22.6,4L22.6,4z M21.9,4.2L21.9,4.2
			c0,0,0.1,0.1,0.2,0.2c0.1,0.1,0.4,0.1,0.4,0.1s-0.2,0-0.2,0.1c0,0,0,0.1,0,0.1s-0.2,0-0.2,0c-0.1,0-0.1,0-0.2-0.1
			c-0.1,0-0.1-0.1-0.1-0.2c-0.1-0.1-0.2-0.1-0.2-0.1c0,0,0.1-0.1,0.2,0C21.7,4.3,21.9,4.2,21.9,4.2L21.9,4.2L21.9,4.2z M23.5,2.9
			l-0.3-0.1l0,0.1l0,0c0,0,0.2,0,0.3,0.1c0.1,0.1,0.2,0.5,0.4,0.6c0.2,0.1,0.5,0.2,0.5,0.1c0.1-0.1,0-0.2-0.1-0.3
			c-0.1-0.1-0.2-0.2-0.3-0.2c-0.1-0.1-0.1-0.2-0.1-0.2C23.8,3,23.7,2.9,23.5,2.9L23.5,2.9L23.5,2.9z M23.4,4.3l0-0.1
			c0,0-0.3-0.1-0.3-0.2c0,0-0.1,0-0.2-0.1c-0.1,0-0.2,0-0.2,0.1c-0.1,0-0.1,0.1-0.1,0.1c0,0,0,0.1,0.1,0.1c0,0,0.1,0.1,0.1,0.1
			s0.2,0,0.3,0c0.1,0.1,0.2,0.1,0.2,0.1l0.2,0c0,0,0-0.1,0-0.1C23.4,4.4,23.4,4.4,23.4,4.3L23.4,4.3L23.4,4.3z M24.2,3.3L24.2,3.3
			c0-0.1,0.3,0.1,0.4,0.1c0.1,0,0.2,0.1,0.2,0.1c0,0,0,0.2,0.1,0.2c0.1,0.1,0.2,0.1,0.3,0.2c0.1,0.1,0.1,0.2,0.1,0.2
			c0,0-0.2,0-0.2,0c0,0-0.2,0-0.3-0.1c-0.1-0.1-0.2-0.2-0.2-0.3c0-0.1,0-0.2,0-0.2c0-0.1-0.1-0.2-0.2-0.2
			C24.3,3.4,24.2,3.3,24.2,3.3L24.2,3.3L24.2,3.3z M23.3,3.9l0.2,0c0.1,0,0.4-0.1,0.5-0.1c0.1,0,0.4,0,0.5,0.1
			c0.1,0.1,0.2,0.1,0.2,0.2c0,0.1-0.1,0.1-0.2,0.1c-0.1,0-0.2-0.1-0.3,0c-0.1,0-0.2,0-0.2,0c0,0-0.3-0.1-0.4-0.1
			C23.4,4,23.2,3.9,23.3,3.9C23.2,3.9,23.2,3.9,23.3,3.9C23.2,3.9,23.3,3.9,23.3,3.9L23.3,3.9L23.3,3.9z M23.6,4.5l-0.1-0.2
			c0,0,0.4,0.1,0.6,0.3c0.2,0.1,0.4,0.4,0.4,0.4l-0.1,0l0,0.2l-0.2-0.1c0,0,0-0.2-0.2-0.3C23.8,4.6,23.6,4.5,23.6,4.5L23.6,4.5
			L23.6,4.5z M22.9,4.6l0.1-0.1c0,0-0.2-0.1-0.3-0.1c-0.1,0-0.2,0.1-0.3,0.1c-0.1,0-0.2,0-0.2,0.1c0,0,0,0,0,0.1
			c0,0,0.3,0.2,0.4,0.2c0.1,0,0.4,0,0.4,0s0-0.1,0-0.1C23.1,4.9,22.9,4.7,22.9,4.6L22.9,4.6L22.9,4.6z M23.8,4.7
			c-0.3-0.1-0.5,0-0.7,0c0,0,0.1,0.1,0.1,0.2c0,0.1,0.1,0.3,0.2,0.3c0.1,0,0.4,0,0.5,0c0.1,0,0.2,0,0.2,0S24,4.8,23.8,4.7L23.8,4.7
			L23.8,4.7z M23.9,5.6c-0.1-0.1-0.2-0.2-0.3-0.3c0,0,0.3,0,0.4-0.1c0.1,0,0.4,0.1,0.4,0.1c0,0,0,0.1,0,0.1c0,0,0,0-0.1,0
			c0,0,0,0.1,0,0.2c0,0.1,0,0.2,0,0.2S24,5.7,23.9,5.6L23.9,5.6L23.9,5.6z M25.1,4.4l0.2,0.1c0,0,0.2,0.2,0.1,0.3
			c-0.1,0.1-0.3,0-0.3,0c0,0-0.1-0.1-0.2-0.1c-0.1,0-0.2,0-0.2,0s-0.3-0.2-0.4-0.2C24.2,4.5,24,4.3,24,4.3c0,0,0-0.1,0-0.1
			c0,0,0.3,0.1,0.4,0.1c0.1,0,0.4,0,0.5,0C24.9,4.3,25,4.3,25.1,4.4L25.1,4.4L25.1,4.4z M24.5,5.3l0-0.3c0,0,0.2,0.1,0.3,0.1
			c0.1,0,0.2,0.1,0.3,0.2c0.1,0.1,0.1,0.1,0.1,0.1s-0.1,0-0.1,0c0,0,0,0.4,0,0.4s-0.1,0-0.2-0.1c-0.1,0-0.2-0.2-0.3-0.3
			C24.5,5.4,24.5,5.4,24.5,5.3L24.5,5.3L24.5,5.3z M24.4,5.6L24.4,5.6C24.4,5.5,24.4,5.5,24.4,5.6c0.1-0.1,0.2,0.1,0.3,0.1
			c0.1,0,0.3,0.1,0.3,0.1l0,0c0,0,0,0-0.1,0c0,0-0.1,0-0.1,0.1c0,0,0,0.2,0,0.2c0,0,0,0.1,0,0.1c0,0-0.3-0.2-0.3-0.2
			c0-0.1-0.1-0.1-0.1-0.2C24.4,5.7,24.4,5.6,24.4,5.6L24.4,5.6L24.4,5.6z M25.2,5.7l0-0.2c0,0,0.1,0.1,0.2,0.1
			c0.1,0,0.3,0.1,0.3,0.2c0.1,0.2,0.1,0.4,0.1,0.4s-0.1,0-0.1,0c0,0-0.1-0.2-0.2-0.1c-0.1,0-0.1,0.2-0.1,0.2S25.2,6,25.2,6
			C25.1,5.9,25.2,5.8,25.2,5.7L25.2,5.7L25.2,5.7z M25,6.4L25,6c0,0,0.1,0.1,0.2,0.1c0.1,0,0.3,0.3,0.3,0.3s0,0.2,0,0.2
			c0,0,0,0.1,0,0.1s-0.1,0-0.1,0c0,0-0.3-0.2-0.3-0.2C25,6.4,25,6.4,25,6.4L25,6.4L25,6.4z M24.9,3.6L24.9,3.6
			c0.1,0,0.5,0.2,0.6,0.3c0.1,0.1,0.4,0.3,0.4,0.3l-0.2,0.2c0,0,0.6,0.5,0.8,0.7C26.7,5.4,27,5.8,27,5.8c0,0,0.2,0.1,0.2,0.2
			c0.1,0.1,0,0.5,0,0.5s-0.1,0-0.1,0c0,0-0.2-0.2-0.2-0.2s0-0.3,0-0.4c0-0.1-0.5-0.5-0.6-0.6c-0.1-0.1-0.6-0.6-0.7-0.6
			c-0.1-0.1-0.3-0.1-0.4-0.4C25.3,4,25.3,4,25.3,4c-0.1-0.1-0.1-0.2-0.2-0.2C24.9,3.7,24.9,3.6,24.9,3.6L24.9,3.6L24.9,3.6z
			 M25.5,4.7L25.5,4.7C25.5,4.7,25.5,4.7,25.5,4.7c-0.1,0.1,0.5,0.5,0.5,0.6c0.1,0.1,0.4,0.4,0.4,0.4c0,0,0,0,0,0.1c0,0,0,0,0,0
			c0,0-0.3-0.3-0.5-0.4c-0.1-0.1-0.3-0.2-0.3-0.3c0,0-0.2-0.2-0.2-0.2c0,0,0,0-0.1,0c0,0-0.1,0-0.1,0.1c0,0,0.3,0.3,0.3,0.3
			c0,0,0.4,0.3,0.4,0.4c0,0,0.3,0.3,0.3,0.3c0,0,0.2,0.2,0.3,0.2c0.1,0,0.2,0,0.2-0.1c0,0,0-0.2,0-0.2c0,0-0.4-0.4-0.4-0.4
			c-0.1-0.1-0.2-0.2-0.3-0.3c-0.1-0.1-0.2-0.2-0.3-0.3C25.8,4.9,25.6,4.7,25.5,4.7L25.5,4.7L25.5,4.7z M26,4.4L26,4.4
			C26,4.4,25.9,4.4,26,4.4C25.9,4.5,25.9,4.5,26,4.4c0,0.1,0.6,0.7,0.7,0.8c0.1,0.1,0.6,0.5,0.6,0.7c0.1,0.1,0.1,0.2,0.1,0.3
			c0,0.1,0,0.3,0,0.4c0,0.1,0,0.2,0.1,0.3c0.1,0.1,0.2-0.1,0.2-0.1c0,0,0-0.2-0.1-0.3c-0.1-0.1-0.1-0.2-0.1-0.2c0-0.1,0-0.3,0-0.3
			S27,5.3,26.8,5.2c-0.2-0.2-0.4-0.4-0.6-0.5C26.2,4.5,26,4.5,26,4.4L26,4.4L26,4.4z M25.3,5.2L25.3,5.2c0.1,0,0.6,0.4,0.8,0.6
			c0.2,0.2,0.5,0.5,0.5,0.5c0,0,0.2,0,0.3,0.1c0.1,0,0.3,0.1,0.3,0.2c0,0.1,0.1,0.2,0.1,0.2c0,0-0.2,0-0.2,0c0,0-0.1-0.2-0.2-0.2
			c-0.1,0-0.2,0-0.2,0S26.1,6,26,5.9C25.9,5.8,25.3,5.3,25.3,5.2C25.3,5.3,25.3,5.2,25.3,5.2L25.3,5.2L25.3,5.2z M25.6,6.4l0-0.2
			c0,0,0.1,0.1,0.1,0.1c0,0,0.2-0.1,0.3,0c0.1,0.1,0.2,0.2,0.2,0.3c0,0.1,0,0.5,0,0.6c0,0.1,0,0.1,0,0.2c0,0,0.1,0.1,0.1,0.1
			s-0.1-0.1-0.1-0.1c0,0,0-0.1-0.1-0.2C26,7.2,26,7.1,25.8,7c-0.1-0.1-0.2-0.1-0.2-0.2c0-0.1-0.1-0.2-0.1-0.2
			C25.6,6.6,25.6,6.5,25.6,6.4L25.6,6.4L25.6,6.4z M27.8,6.3L27.8,6.3c-0.1-0.1-0.1-0.1-0.1-0.1l0,0l0,0.1c0,0,0.1,0.1,0.1,0.1
			c0,0,0.1,0.1,0.1,0.1l0-0.1c0,0,0,0,0-0.1C27.9,6.4,27.8,6.3,27.8,6.3L27.8,6.3L27.8,6.3z M26.8,6.6L26.8,6.6c-0.1,0-0.1,0-0.1,0
			S26.9,7,26.9,7c0,0,0.2,0,0.2,0c0.1,0,0.2,0.2,0.2,0.3c0.1,0,0.3,0.1,0.3,0.1s0.1-0.1-0.1-0.2c-0.1-0.1-0.2-0.2-0.4-0.2
			c-0.2,0-0.2,0-0.3-0.1C26.9,6.8,26.8,6.6,26.8,6.6L26.8,6.6L26.8,6.6z M26.3,6.9l0-0.2C26.3,6.7,26.4,6.8,26.3,6.9
			c0.1-0.1,0.3-0.1,0.3,0c0,0,0.1,0.2,0.1,0.2c0,0,0.1,0.1,0.1,0.2c0,0.1,0,0.2,0,0.2s-0.2-0.1-0.3-0.1c-0.1,0-0.1,0.1-0.1,0.1
			s-0.2-0.2-0.2-0.3C26.3,7,26.3,7,26.3,6.9L26.3,6.9L26.3,6.9z M25.7,7.2l-0.3-0.4c0,0,0.1,0.1,0.1,0.1c0,0,0.3,0.2,0.3,0.3
			c0,0,0.1,0.2,0.2,0.2c0,0,0,0.1,0,0.1C25.9,7.5,25.8,7.3,25.7,7.2L25.7,7.2L25.7,7.2z M28.1,6.1L28.1,6.1c0,0,0.1,0.1,0.1,0.1
			c0,0,0.1,0.1,0.1,0.1c0,0-0.2,0.2-0.2,0.2c0,0-0.1,0.2,0,0.2c0,0,0.2-0.1,0.2-0.1c0,0,0.2-0.1,0.2-0.1c0,0,0.1,0.2,0.1,0.2
			c0,0,0.1,0.1,0.1,0.1c0,0-0.1,0.1-0.1,0.1c0,0-0.3,0-0.3,0c-0.1,0-0.1,0-0.2,0c0,0-0.1-0.1-0.1-0.2c0-0.1,0.1-0.3,0.1-0.3
			C28,6.4,28.1,6.2,28.1,6.1C28.1,6.2,28.1,6.1,28.1,6.1L28.1,6.1L28.1,6.1z M27.8,7.1l0-0.2c0,0,0.1,0.1,0.1,0.1c0,0,0.1,0,0.2,0
			c0,0,0.1,0.2,0.1,0.2c0,0.1,0,0.2,0,0.2c0,0-0.1,0.1-0.2,0c-0.1,0-0.1-0.1-0.2-0.2C27.9,7.3,27.8,7.2,27.8,7.1L27.8,7.1L27.8,7.1z
			 M27.2,7.2L27.2,7.2C27.1,7.1,27.1,7.1,27.2,7.2c-0.1,0,0.2,0.5,0.2,0.5c0,0,0.2,0.1,0.3,0.1C27.8,7.9,27.8,8,27.9,8
			c0,0,0.2,0.1,0.3,0c0.1-0.1,0-0.2-0.1-0.4c-0.1-0.1-0.2-0.2-0.4-0.2c-0.2,0-0.2,0-0.3-0.1C27.3,7.3,27.2,7.2,27.2,7.2L27.2,7.2
			L27.2,7.2z M26.7,7.6l0-0.2c0,0,0.2,0.1,0.2,0.1c0.1,0,0.1,0,0.2,0c0,0,0.2,0.2,0.3,0.3c0,0.1,0,0.2,0,0.2c0,0-0.2,0-0.2-0.1
			C27.1,8,27,7.9,27,8c0,0-0.1,0.1,0,0.1c0,0,0,0.1,0,0.1c0,0-0.1,0-0.1,0s0-0.1,0-0.1c0,0,0-0.2,0-0.2C26.9,7.8,26.7,7.7,26.7,7.6
			L26.7,7.6L26.7,7.6z M26.1,7.6L26.1,7.6c0.1-0.1,0.2,0,0.2,0c0.1,0,0.2,0,0.3,0.1c0.1,0.1,0.2,0.1,0.2,0.3c0.1,0.2,0,0.3,0,0.3
			c0,0.1-0.3,0-0.3,0c0,0-0.2-0.3-0.3-0.4C26.2,7.7,26.1,7.6,26.1,7.6L26.1,7.6L26.1,7.6z M28.3,7.1L28.3,7.1c0-0.1,0.2,0.1,0.2,0.2
			c0.1,0.1,0.1,0.2,0.1,0.2c0,0-0.1,0.2,0,0.4c0.1,0.2,0.1,0.4,0.1,0.5c0,0-0.2,0-0.3-0.2c-0.1-0.2-0.1-0.4-0.1-0.5
			c0-0.1,0.1-0.3,0.1-0.4C28.4,7.4,28.3,7.2,28.3,7.1L28.3,7.1L28.3,7.1z M27.1,8.4l-0.1-0.3c0,0,0.2,0.1,0.3,0.1
			c0.1,0,0.2,0,0.2,0.1c0,0,0.2,0.2,0.2,0.3c0,0.1,0.1,0.2,0,0.2c0,0-0.1,0-0.1-0.1c0,0-0.1-0.1-0.1-0.1c0,0,0,0.1-0.1,0.1
			c0,0-0.1-0.1-0.1-0.1C27.3,8.5,27.1,8.4,27.1,8.4L27.1,8.4L27.1,8.4z M27.9,8.5l-0.3-0.6c0,0,0.2,0.2,0.2,0.2c0,0,0.3,0.1,0.5,0.2
			c0.2,0.2,0.3,0.3,0.3,0.4c0,0.1,0,0.2-0.1,0.2c-0.1,0-0.3-0.1-0.4-0.3C28,8.5,27.9,8.5,27.9,8.5L27.9,8.5L27.9,8.5z M28.8,7.9
			L28.8,7.9C28.7,7.9,28.7,8,28.8,7.9c-0.1,0,0.1,0.3,0.1,0.4c0,0.1-0.2,0.4-0.1,0.5c0,0.2,0.2,0.4,0.2,0.4c0.1,0,0.2-0.1,0.2-0.2
			C29.1,9,29,8.8,29,8.8c0-0.1,0.1-0.3,0.1-0.3C29,8.5,28.8,8,28.8,7.9L28.8,7.9L28.8,7.9z M26.6,8.4L26.6,8.4c0-0.1,0.2,0,0.2,0
			c0,0,0.1,0,0.2,0c0.1,0,0.2,0.3,0.2,0.3c0,0-0.2-0.1-0.2,0c0,0.1,0,0.2,0,0.3c0,0.1,0,0.2,0,0.2C27,9.1,27,9,26.9,9
			c-0.1,0-0.2-0.3-0.2-0.3C26.7,8.6,26.6,8.4,26.6,8.4L26.6,8.4L26.6,8.4z M29.1,8.7L29.1,8.7L29.1,8.7c-0.1,0,0.1,0.3,0,0.4
			c0,0.1-0.1,0.3-0.1,0.3c0,0,0,0.3,0,0.3l0.4,0c0,0-0.1-0.5-0.2-0.6C29.3,9,29.1,8.7,29.1,8.7L29.1,8.7L29.1,8.7z M28.1,8.7
			L28.1,8.7l-0.1-0.1c0,0,0.3,0.7,0.3,0.8c0,0,0.2,0.1,0.2,0.1c0,0,0.2,0.4,0.3,0.3c0.1,0,0.2-0.3,0.1-0.5c-0.1-0.2-0.4-0.3-0.5-0.4
			C28.2,9,28.1,8.8,28.1,8.7L28.1,8.7L28.1,8.7z M27.5,8.8L27.5,8.8c0,0,0.1,0,0.1,0.1c0.1,0,0.2,0,0.3,0.3c0.1,0.3,0,0.6,0,0.6
			s-0.1-0.2-0.1-0.4c0-0.2-0.1-0.2-0.2-0.3c-0.1-0.1-0.1-0.2-0.2-0.2C27.6,8.8,27.5,8.8,27.5,8.8L27.5,8.8L27.5,8.8z M27.1,9l0-0.2
			c0,0,0.1,0.1,0.1,0.1c0,0,0.1,0,0.2,0c0.1,0,0.3,0.2,0.3,0.4c0.1,0.2,0.1,0.4,0.1,0.4c0,0,0.2,0.2,0.2,0.2l0,0.1l0-0.1
			c0,0-0.1-0.1-0.1-0.1c0,0-0.1-0.1-0.1-0.1c-0.1,0-0.2,0-0.2,0c-0.1,0-0.3-0.2-0.3-0.3C27.1,9.2,27.1,9,27.1,9L27.1,9L27.1,9z
			 M27.3,10l0.1-0.4c0,0,0.1,0.2,0.2,0.2c0.1,0,0.1,0.1,0.1,0.2c0,0.1,0,0.2,0,0.2s-0.1-0.1-0.2-0.1c-0.1,0-0.1,0.1-0.1,0.1
			c0,0,0,0.1,0,0.1c0,0,0,0.2,0,0.2s0-0.2-0.1-0.2C27.3,10.3,27.3,10.1,27.3,10L27.3,10L27.3,10z M28.1,10L28.1,10L28.1,10
			C28.1,9.9,28.1,10,28.1,10c-0.1,0-0.2,0.1-0.2,0.2c0,0.1,0,0.3,0,0.4c0,0.1,0.1,0.3,0.1,0.3s0.1-0.1,0.1-0.1c0,0,0,0,0.1,0
			c0,0,0.1-0.2,0.1-0.2c0.1,0,0.1,0.1,0.1,0.1s0-0.3-0.1-0.4C28.3,10.1,28.2,10,28.1,10L28.1,10L28.1,10z M27.8,10.5l-0.2-0.2
			c0,0-0.1,0.3-0.1,0.5c0.1,0.2,0.4,0.5,0.4,0.5c0,0,0-0.2,0-0.2s-0.1-0.1-0.1-0.2C27.8,10.8,27.8,10.5,27.8,10.5L27.8,10.5
			L27.8,10.5z M28.2,10.8l0.1-0.2l0,0c0,0,0,0.1,0.1,0.2c0,0,0.1,0.1,0.1,0.2c0,0,0,0.4,0,0.4s-0.1-0.1-0.1,0c0,0-0.1,0.2-0.1,0.2
			L28,11.2c0,0,0-0.3,0.1-0.3c0,0,0,0,0,0C28.2,10.9,28.2,10.8,28.2,10.8L28.2,10.8L28.2,10.8z M28.5,11.6L28.5,11.6
			c0-0.1-0.1,0-0.1,0c0,0,0.2,0.2,0.2,0.2s0-0.1,0-0.1C28.6,11.6,28.5,11.6,28.5,11.6L28.5,11.6L28.5,11.6z M29.2,10.1L29.2,10.1
			L29.2,10.1l-0.1,0c0,0,0,0.1,0,0.1c0,0,0.1,0.5,0.2,0.8c0,0.2,0.1,0.7,0.1,0.7l0,0l-0.1,0c0,0-0.1-0.7-0.1-0.8
			c0-0.1-0.1-0.4-0.1-0.4c0,0,0-0.2-0.1-0.2c0,0,0,0-0.1,0c0,0,0,0-0.1,0c0,0,0,0,0,0.1c0,0,0.1,0.4,0.1,0.5c0,0.1,0.1,0.7,0.1,0.8
			c0,0.1,0,0.2,0.1,0.3c0,0.1,0.1,0.1,0.1,0.1c0,0,0.2-0.1,0.2-0.1c0,0,0-0.1,0-0.2c0,0,0,0,0-0.1c0,0-0.1-0.6-0.1-0.6
			c0-0.1-0.1-0.4-0.1-0.4c0-0.1,0-0.3-0.1-0.3C29.2,10.2,29.2,10.1,29.2,10.1L29.2,10.1L29.2,10.1z M29.4,10L29.4,10L29.4,10
			L29.4,10l-0.1,0c0,0,0.1,0.6,0.2,0.8c0,0.2,0.1,0.9,0.1,1c0,0.1,0,0.2-0.1,0.2c0,0-0.2,0.2-0.2,0.2l0,0.3c0,0,0,0.1,0,0.1
			c0,0,0.3-0.2,0.3-0.4c0-0.2,0-0.3,0-0.3c0-0.1-0.1-0.8-0.1-0.9c0-0.1-0.1-0.6-0.1-0.6C29.4,10.3,29.4,10,29.4,10L29.4,10L29.4,10z
			 M28.7,10.3L28.7,10.3C28.7,10.3,28.6,10.3,28.7,10.3c-0.1,0,0,0.6,0.1,0.8c0,0.2,0.1,0.9,0.1,0.9c0,0,0.4,0.5,0.4,0.5
			c0,0,0,0,0-0.1c0-0.1,0-0.2-0.1-0.3C29.1,12.1,29,12,29,11.9c0,0-0.1-0.7-0.1-0.8C28.9,11.1,28.8,10.4,28.7,10.3
			C28.7,10.4,28.7,10.3,28.7,10.3L28.7,10.3L28.7,10.3z M29.7,10.2L29.7,10.2C29.6,10.1,29.6,10.1,29.7,10.2c-0.1,0,0,0.4,0,0.6
			c0,0.3,0.1,0.8,0.1,0.9c0,0.1,0.1,0.4,0,0.5c-0.1,0.2-0.2,0.3-0.2,0.3c0,0-0.1,0.1-0.1,0.1c0,0,0,0,0,0.1c0,0,0.2,0.3,0.2,0.3
			s0.1-0.2,0.1-0.3c0-0.1,0-0.2,0-0.3c0-0.1,0.1-0.1,0.1-0.2c0-0.1-0.1-0.9-0.1-1c0-0.2-0.1-0.5-0.1-0.6
			C29.8,10.5,29.7,10.2,29.7,10.2L29.7,10.2L29.7,10.2z M30,12.6L30,12.6L30,12.6L30,12.6L30,12.6c-0.1,0-0.1,0.2-0.1,0.3
			c0,0.1-0.1,0.2-0.1,0.2s0,0,0,0c0,0,0.1,0.1,0.1,0.1l0.1,0c0,0,0-0.3,0-0.4C30,12.8,30,12.6,30,12.6L30,12.6L30,12.6z M27.8,12.7
			L27.8,12.7c0-0.1-0.1,0.2-0.2,0.3c0,0.2,0,0.2,0,0.4c0,0.1,0,0.2,0,0.3c0,0.1,0,0.1,0,0.1s0.1-0.1,0.1-0.1c0,0,0.1-0.1,0.1-0.1
			l0.1,0.1c0,0,0-0.1,0-0.1c0,0-0.1-0.1-0.1-0.1c0,0,0-0.1,0-0.2c0-0.1,0.1-0.2,0.1-0.3C27.9,12.9,27.8,12.7,27.8,12.7L27.8,12.7
			L27.8,12.7z M28,12.9l0.1-0.1l0.3,0.3c0,0,0,0.3-0.1,0.4c-0.1,0.1-0.3,0.2-0.3,0.2s-0.1-0.1-0.1-0.3c0-0.2,0-0.2,0-0.2
			C27.9,13.1,27.9,13,28,12.9L28,12.9L28,12.9z M28.3,13.5l0.1-0.2c0,0,0,0.1,0,0.2c0,0,0.1,0.1,0.1,0.3c0,0.1-0.1,0.5-0.1,0.5
			c0,0-0.1-0.3-0.2-0.3C28.1,13.9,28,14,28,14l-0.1-0.2c0,0,0.1-0.1,0.1-0.1C28.1,13.7,28.3,13.6,28.3,13.5L28.3,13.5L28.3,13.5z
			 M27.8,13.9l0-0.1l0,0c0,0-0.1,0.1-0.1,0.2c-0.1,0.1-0.1,0.1-0.2,0.2c0,0.1,0,0.4,0,0.4s0.1,0,0.1,0c0.1,0,0.1,0.2,0.1,0.2
			s0-0.2,0.1-0.3c0.1-0.1,0.2-0.2,0.2-0.2s0-0.1,0-0.1C27.9,14,27.8,13.9,27.8,13.9L27.8,13.9L27.8,13.9z M29.3,14.2L29.3,14.2
			l-0.5-0.6l0,0.1c0,0,0.1,0.1,0.1,0.1c0,0.1,0,0.4,0.1,0.5c0.1,0.1,0.2,0.1,0.2,0.1C29.2,14.3,29.3,14.3,29.3,14.2L29.3,14.2
			L29.3,14.2z M29.3,14.3L29.3,14.3l0.3,0.1c0,0-0.1,0.3-0.1,0.4c0,0.1-0.1,0.2-0.2,0.1c-0.1,0-0.1-0.1-0.1-0.3
			C29.2,14.4,29.3,14.4,29.3,14.3L29.3,14.3L29.3,14.3z M28.8,14L28.8,14C28.8,13.9,28.8,13.9,28.8,14C28.8,13.9,28.8,13.9,28.8,14
			l-0.1,0.3c0,0,0,0.2,0,0.2c0,0.1,0.1,0.2,0.1,0.2c0,0.1,0,0.3,0,0.4c0,0.1,0.1,0.1,0.1,0.1c0,0,0.2,0,0.2-0.2c0-0.1,0-0.3,0-0.5
			c-0.1-0.2-0.2-0.3-0.2-0.3C28.9,14.2,28.8,14,28.8,14L28.8,14L28.8,14z M28.1,14.1l0.1-0.1l0,0l0,0.1c0,0,0.1,0.2,0.1,0.3
			c0,0.1-0.1,0.3-0.1,0.3c0,0-0.1,0.2-0.1,0.2s-0.1-0.2-0.2-0.2c-0.1,0-0.2,0.2-0.2,0.2s-0.1,0-0.1-0.1c0-0.1,0.1-0.3,0.1-0.4
			C28,14.2,28.1,14.1,28.1,14.1L28.1,14.1L28.1,14.1z M27.4,14.6L27.4,14.6c0.1,0,0.1,0,0.1,0.1c0,0,0,0.1,0.1,0.1
			c0,0,0.1,0.1,0.1,0.2c0,0.1,0,0.3,0,0.3c0,0-0.1-0.1-0.2-0.1c-0.1,0-0.2,0.2-0.2,0.2c0,0,0,0-0.1,0c0,0-0.1,0-0.1-0.2
			c0-0.2,0.1-0.4,0.1-0.4C27.4,14.7,27.4,14.6,27.4,14.6L27.4,14.6L27.4,14.6z M29.7,14.6L29.7,14.6C29.7,14.6,29.7,14.6,29.7,14.6
			C29.7,14.6,29.7,14.7,29.7,14.6c0.1,0.1,0,0.5,0,0.5c0,0,0,0.1-0.1,0.1c0,0-0.1,0.1-0.2,0.1c0,0.1,0,0.1,0,0.2
			c0,0.1,0,0.1-0.1,0.2c-0.1,0-0.1,0.1-0.2,0.1c0,0-0.3,0.6-0.3,0.7c0,0.1-0.4,0.7-0.4,0.8c0,0.1-0.1,0.3-0.1,0.4
			c0,0.1-0.2,0.2-0.2,0.2C28,18,27.9,18,27.8,18c0,0-0.1,0-0.1-0.1c0,0,0.1-0.2,0.1-0.3c0,0,0.3-0.1,0.3-0.1c0-0.1,0.1-0.2,0.2-0.3
			c0-0.1,0.3-0.7,0.4-0.8c0-0.1,0.2-0.5,0.2-0.6c0-0.1,0-0.3,0-0.4c0-0.1,0.2-0.3,0.3-0.4c0.2-0.1,0.2-0.1,0.2-0.1
			c0-0.1,0.1-0.2,0.1-0.2C29.6,14.8,29.7,14.6,29.7,14.6L29.7,14.6L29.7,14.6z M28.6,14.7L28.6,14.7C28.7,14.7,28.7,14.7,28.6,14.7
			c0.1,0,0,0.4,0.1,0.5c0,0.1,0.2,0.3,0.2,0.5c0,0.2,0,0.2-0.1,0.3c0,0-0.1,0.1-0.2,0.3c-0.1,0.3-0.2,0.4-0.2,0.5
			c-0.1,0.1-0.1,0.2-0.2,0.3c0,0.1,0,0.1,0,0.2c0,0-0.1,0.1-0.1,0.1c-0.1,0-0.2,0.1-0.2,0.1c0,0-0.1-0.1,0-0.3
			c0.1-0.2,0.3-0.5,0.4-0.8c0.1-0.2,0.2-0.5,0.2-0.6c0-0.2,0-0.2,0-0.3c0-0.1,0-0.1,0-0.1c0,0,0.1-0.4,0.1-0.5
			C28.6,14.9,28.6,14.7,28.6,14.7L28.6,14.7L28.6,14.7z M28.6,16.2L28.6,16.2c0,0-0.1,0-0.2,0.3c-0.1,0.3-0.2,0.4-0.2,0.5
			c0,0.1-0.1,0.1,0,0.2c0,0,0.1,0,0,0c0,0,0.1-0.2,0.2-0.4c0.1-0.2,0.1-0.3,0.2-0.4C28.6,16.2,28.6,16.2,28.6,16.2L28.6,16.2
			L28.6,16.2z M28.1,14.9l0-0.1c0,0,0,0-0.1,0c0,0-0.2,0.1-0.2,0.1s0,0.2,0,0.3c0,0.1-0.1,0.2-0.1,0.3c0,0,0,0.1,0,0.1
			c0,0,0,0.2,0,0.2s0.1-0.1,0.2-0.1c0,0,0.1,0,0.1,0c0,0,0.2-0.4,0.1-0.5C28.2,15,28.2,15,28.1,14.9L28.1,14.9L28.1,14.9z
			 M27.6,15.3L27.6,15.3c0,0,0.1,0.3,0.1,0.5c0,0.2-0.1,0.4-0.2,0.5c-0.1,0.1-0.2,0.1-0.2,0.1c0,0,0-0.1,0-0.2
			c0-0.1-0.1-0.2-0.1-0.3c0-0.1,0-0.2,0.1-0.3c0.1-0.1,0.2-0.1,0.2-0.2C27.5,15.4,27.6,15.3,27.6,15.3L27.6,15.3L27.6,15.3z
			 M28,15.9l0-0.2l-0.2,0.2c0,0,0,0.2-0.1,0.3c-0.1,0.2-0.4,0.3-0.4,0.3l-0.1,0.2c0,0,0.2-0.1,0.2,0c0,0,0,0.2,0,0.2
			c0,0,0.3-0.3,0.4-0.5C28,16.1,28,16,28,15.9L28,15.9L28,15.9z M27.1,16L27.1,16L27.1,16l-0.2,0.2l0.2,0.5l0,0c0,0,0.1-0.1,0.1-0.3
			c0-0.1,0-0.2,0-0.2c0,0-0.1-0.1-0.1-0.1C27.1,16.1,27.1,16,27.1,16L27.1,16L27.1,16z M27.4,16.9l0-0.1c0,0-0.1,0-0.2,0
			c0,0-0.1,0-0.1,0c0,0,0,0,0,0.1c0,0,0.2,0.5,0.2,0.5s0.1-0.2,0.2-0.3C27.4,17,27.4,17,27.4,16.9L27.4,16.9L27.4,16.9z M27.5,17.6
			L27.5,17.6l0-0.1l0,0l-0.1,0.1c0,0,0,0.1,0,0.1C27.4,17.7,27.5,17.6,27.5,17.6L27.5,17.6L27.5,17.6z M28.3,15.7L28.3,15.7
			L28.3,15.7L28.3,15.7c0.1,0.1-0.1,0.6-0.2,0.7c-0.1,0.1-0.3,0.6-0.3,0.6c0,0.1-0.1,0.1-0.1,0.2c0,0,0,0.3,0,0.4
			c0,0.2-0.2,0.4-0.2,0.4l-0.1-0.2c0,0,0.1-0.1,0.1-0.3c0-0.1-0.1-0.2,0-0.3c0-0.1,0.3-0.7,0.4-0.9c0.1-0.2,0.2-0.5,0.2-0.6
			C28.2,15.8,28.3,15.7,28.3,15.7L28.3,15.7L28.3,15.7z M29.2,16.1L29.2,16.1L29.2,16.1c0.1,0-0.2,0.7-0.3,0.9c-0.1,0.2-0.5,1-0.5,1
			c0,0-0.1,0.1-0.1,0.1c0,0-0.1,0-0.1,0.1c0,0-0.2,0.2-0.3,0.3c-0.1,0.1-0.1,0.1-0.1,0.1s-0.1-0.3-0.1-0.3c0,0,0.3-0.1,0.4-0.1
			c0.1,0,0.3-0.1,0.3-0.2c0,0,0.3-0.4,0.5-0.9C29,16.5,29.1,16.2,29.2,16.1C29.2,16.2,29.2,16.1,29.2,16.1L29.2,16.1L29.2,16.1z
			 M28.2,18.3L28.2,18.3L28.2,18.3c0.1,0.1-0.1,0.3-0.2,0.4c-0.1,0.1-0.2,0.2-0.2,0.2l-0.1-0.2l0,0c0,0,0.2-0.1,0.2-0.1
			C28,18.4,28.1,18.3,28.2,18.3L28.2,18.3L28.2,18.3z M26.4,16.6l1.2,3c0,0,0.2-0.2,0.2-0.3c0,0,0-0.2,0-0.3c0-0.1-1.1-3-1.1-3
			l-0.6,1l1.1,3l0.3-0.3l-1.1-2.9L26.4,16.6L26.4,16.6L26.4,16.6z M25.9,17.8l0.1-0.2l0.2,0.4c0,0-0.1,0-0.2,0c0,0-0.1,0.1-0.1,0.1
			C25.9,18,25.9,17.9,25.9,17.8L25.9,17.8L25.9,17.8z M26,18.1l0.2,0l0.1,0.1c0,0,0,0.3,0,0.3c0,0-0.2,0.3-0.3,0.3
			c-0.1,0-0.4,0-0.5,0c-0.1,0-0.2,0-0.2,0.1c0,0,0,0.1,0,0.1s0-0.1,0.1-0.1c0.1-0.1,0.1,0,0.2-0.1c0.1-0.1,0.1-0.3,0.1-0.3
			C25.7,18.3,26,18.1,26,18.1L26,18.1L26,18.1z M24.9,18.9l0.3-0.2c0,0-0.1,0.1-0.1,0.3c0,0.1,0,0.3,0,0.3c0,0.1-0.2,0.3-0.3,0.3
			c-0.1,0-0.3,0-0.3,0s0-0.2,0-0.3c0,0,0-0.1,0-0.1S24.8,18.9,24.9,18.9L24.9,18.9L24.9,18.9z M25.8,18.9l0.2-0.1
			c0,0-0.1,0.1-0.1,0.2c0,0.1,0,0.2-0.1,0.2c0,0-0.3,0.3-0.3,0.3c-0.1,0-0.2,0.1-0.2,0.1s0.1-0.2,0.1-0.2c0-0.1,0-0.1,0-0.1
			c0,0-0.1,0-0.1,0s0-0.1,0.2-0.2C25.7,18.8,25.8,18.9,25.8,18.9L25.8,18.9L25.8,18.9z M25.3,19.5l0.1-0.2c0,0-0.2,0-0.2,0.1
			c0,0-0.3,0.3-0.3,0.3c-0.1,0-0.2,0-0.2,0l-0.1,0l-0.1,0.1c0,0,0.1,0,0.1,0c0,0,0.1,0,0.2,0c0,0,0,0.1,0,0.1c0,0-0.1,0.3-0.1,0.3
			c0,0,0.1,0,0.2,0c0,0,0.3-0.2,0.3-0.3C25.3,19.6,25.3,19.6,25.3,19.5L25.3,19.5L25.3,19.5z M24.4,19.5l0-0.1
			C24.4,19.3,24.4,19.4,24.4,19.5c-0.2-0.1-0.4,0.1-0.4,0.1l-0.1,0.3c0,0,0.2-0.1,0.2,0c0,0,0,0.2,0,0.2s0.2-0.1,0.2-0.2
			c0-0.1,0-0.1,0-0.2C24.4,19.6,24.4,19.5,24.4,19.5L24.4,19.5L24.4,19.5z M26.5,18.8L26.5,18.8L26,19.3l-0.1,0l-0.5,0.5l-0.1,0
			l-0.4,0.4l-0.2,0l-0.1,0c0,0,0-0.1,0-0.2c0-0.1,0-0.1,0-0.1c0,0,0.1-0.1,0.1-0.1c0,0,0,0-0.1,0c0,0-0.1,0.1-0.1,0.1
			c0,0-0.1,0-0.1,0c0,0-0.1,0.2-0.1,0.2c-0.1,0-0.2,0.2-0.2,0.2s0.1,0,0.1,0c0,0,0.1,0,0.1,0.1c0,0,0,0.1-0.1,0.1c0,0,0,0.1,0,0.1
			c0,0,0,0.1-0.1,0.1c0,0-0.1,0-0.1,0c0,0,0-0.1,0-0.2c0,0,0.1-0.1,0.1-0.1c0,0,0.1-0.1,0-0.1c-0.1,0-0.1,0-0.1,0
			c0,0-0.2,0.2-0.2,0.3c0,0-0.1,0.1-0.1,0.1s0,0.1,0,0.1c0,0-0.1,0.1-0.1,0.1c0,0-0.1,0.1-0.1,0.1s0.7-0.4,0.7-0.4
			c0,0,0.5-0.4,0.5-0.4c0,0,0.2,0,0.2,0l0.5-0.4l0.1,0l0.5-0.5l0.1,0L26.5,18.8L26.5,18.8L26.5,18.8z M24,20.1l0.1-0.1l-0.2,0
			l-0.1,0.6c0,0,0.2-0.2,0.3-0.3C24,20.2,24,20.1,24,20.1L24,20.1L24,20.1z M22.1,20.3l0.6-0.2l0,0.2c0,0-0.4,0.1-0.5,0.2
			c-0.1,0-0.5,0.2-0.5,0.2l-0.1-0.2C21.6,20.4,22,20.3,22.1,20.3L22.1,20.3L22.1,20.3z M22.2,20.6l0.5-0.2l0,0.2
			c0,0-0.3,0.1-0.4,0.2c-0.1,0-0.5,0.2-0.5,0.1l0-0.2C21.8,20.7,22,20.6,22.2,20.6L22.2,20.6L22.2,20.6z M21.8,20.9l0.8-0.3l0,0.1
			l-0.9,0.3l0,0L21.8,20.9L21.8,20.9L21.8,20.9L21.8,20.9z M22,21.1l0.5-0.2l0,0.2c0,0-0.3,0.1-0.5,0.2c-0.1,0-0.4,0.1-0.4,0.1
			l0-0.2C21.6,21.2,21.9,21.1,22,21.1L22,21.1L22,21.1z M22.5,21.6L22.5,21.6l0.1,0.1c0,0-0.6,0.4-0.8,0.4c-0.2,0-0.6,0-0.7,0
			c-0.1,0-0.8,0-0.8-0.1c0,0-0.2,0-0.2-0.1c0,0-0.1-0.1-0.1-0.1c0,0,0-0.1,0-0.1c0,0,0.1,0,0.1,0c0,0,0.1,0.1,0.1,0.1
			c0,0,0.5,0.1,0.7,0.1c0.2,0,0.6,0,0.7,0c0.1,0,0.4-0.1,0.5-0.2C22.2,21.7,22.5,21.6,22.5,21.6L22.5,21.6L22.5,21.6z M22.5,24.7
			l0-0.4l-0.7-0.3l0,0.9L22.5,24.7L22.5,24.7L22.5,24.7z M25,24.1l0-2l-0.4,0.2l0,2.1l1.2-0.1l0-0.3L25,24.1L25,24.1L25,24.1z
			 M25.8,23.5l-0.1-1.8c0,0-0.2,0.2-0.3,0.2c0,0,0,0,0,0L25.1,22l0,1.9l1.4-0.1l0-0.4L25.8,23.5L25.8,23.5L25.8,23.5z M24.1,23.5
			l0.1-0.2l-0.9-0.4L23,23L24.1,23.5L24.1,23.5L24.1,23.5z M24,23.8l0.1-0.2L22.7,23l-0.4,0L24,23.8L24,23.8L24,23.8z M23.8,24
			l0.1-0.2L22,23l-0.4,0L23.8,24L23.8,24L23.8,24z M21.6,23.2l2.2,1l-0.1,0.1l-2.4-1.1L21.6,23.2L21.6,23.2L21.6,23.2z M23.6,24.5
			l0.1-0.1l-2.5-1.1l0.1,0.3L23.6,24.5L23.6,24.5L23.6,24.5z M19.1,21.5L19.1,21.5c0,0.1-0.2,0.1-0.2,0.3c0,0.2,0.2,0.3,0.2,0.3
			l0,0.1c0,0-0.3-0.1-0.3-0.3C18.8,21.5,19.1,21.5,19.1,21.5L19.1,21.5L19.1,21.5z M19.7,21.6l0,0.5l-0.1,0.1c0,0-0.2,0.1-0.3,0.1
			c-0.1,0-0.4,0-0.5,0c-0.1,0-0.2-0.1-0.2-0.1c0,0,0,0,0,0l0-0.6c0,0,0,0,0,0c0,0,0,0,0,0l0,0c0,0,0,0,0,0c0,0,0,0,0,0
			c0,0,0.2-0.2,0.4-0.2c0.2,0,0.3,0,0.4,0.1c0.1,0,0.2,0.1,0.2,0.2C19.7,21.6,19.7,21.6,19.7,21.6L19.7,21.6L19.7,21.6z M17.9,2
			l1.2-0.1l0.1,0l0,0.1l0,0l-1.2,0.1l-0.8,0.1c0,0-0.2,0.1-0.3,0.1c0,0-0.2,0.2-0.2,0.3c0,0.1-0.2,0.2-0.3,0.2C16.2,3,16,2.9,16,2.8
			c0-0.1,0.2-0.2,0.3-0.2c0.1,0,0.3-0.1,0.3-0.1c0.1,0,0.2-0.2,0.2-0.2C16.9,2.2,17.6,2.1,17.9,2L17.9,2L17.9,2z M16.8,23L16.8,23
			c0-0.1,0.2-0.1,0.3-0.1c0.1,0,0.5-0.1,0.5-0.1l0,0c0.3,0.5,0.9,0.8,1.6,0.8c0.6,0,1.2-0.3,1.5-0.8l0,0l0.4,0.1l0.2,0l0.2,0l0,0
			h-0.3L21,23.2l0.1,0.3l-0.3,0.3l-0.2-0.2l-0.3,0.2l0.1,0.3L20,24.3L19.8,24l-0.4,0.1l0,0.3l-0.5,0l0-0.3L18.5,24l-0.2,0.2
			l-0.4-0.2l0-0.3l-0.2-0.2l-0.2,0.2l-0.3-0.3l0.1-0.3l-0.1-0.2L16.8,23L16.8,23L16.8,23z M17.8,22.7l0.4-0.2l0,0
			c0.2,0.3,0.6,0.4,1,0.4c0.4,0,0.7-0.2,0.9-0.4l0,0l0.3,0.2l0,0c-0.3,0.4-0.8,0.6-1.3,0.6C18.6,23.4,18.1,23.1,17.8,22.7L17.8,22.7
			L17.8,22.7z M17.1,2.8l-0.3-0.1c0,0,0-0.2,0.1-0.2c0.1-0.1,0.5-0.1,0.6-0.1c0.2,0,0.6-0.1,0.8-0.1c0.2,0,0.8,0,0.8,0l0,0l0,0.1
			l0,0c0,0-0.7,0-0.8,0c-0.2,0-0.6,0.1-0.8,0.1c-0.1,0-0.3,0.1-0.4,0.2C17.1,2.7,17.1,2.8,17.1,2.8L17.1,2.8L17.1,2.8z M18.7,2.5
			l0.4,0l0.1,0l0,0.1c0,0-0.8,0-0.9,0.1c-0.2,0-0.7,0.1-0.7,0.1c-0.1,0,0,0.1,0,0.1c0,0,0.6-0.1,0.8-0.1c0.2,0,0.7,0,0.7,0
			c0.1,0,0.1,0,0.1,0v0l0,0c0,0-0.7,0-0.9,0c-0.2,0-0.6,0.1-0.6,0.1c-0.1,0-0.2,0-0.3,0c0,0-0.1-0.1,0-0.1c0-0.1,0-0.1,0.1-0.1
			c0.1,0,0.1-0.1,0.3-0.1c0.2,0,0.6-0.1,0.7-0.1C18.3,2.5,18.5,2.5,18.7,2.5L18.7,2.5L18.7,2.5z M16.8,2.9c-0.1,0-0.1,0-0.2,0
			c0,0-0.1,0-0.1,0.1c0,0.1,0.1,0.2,0.2,0.2c0.1,0,0.3,0,0.3,0c0.1,0,0.3,0,0.3,0c0,0,0.2,0,0.4-0.1c0.2,0,0.4,0,0.5-0.1
			c0.1,0,0.5,0,0.5,0c0,0,0.1,0,0.1-0.1c0,0,0-0.1-0.1-0.1c0,0-0.7,0-1,0.1c-0.3,0-0.5,0.1-0.5,0.1c0,0-0.2,0-0.2-0.1
			C17,3,17,2.9,16.8,2.9L16.8,2.9L16.8,2.9z M18.7,3.5l0.2-0.2c0,0-0.1,0-0.1,0c0,0-0.2-0.1-0.4-0.1c-0.2,0-0.4,0.2-0.4,0.2
			s0.1,0,0.1,0.1c0,0,0.2,0.1,0.2,0.1c0,0,0,0.2-0.1,0.2c0,0,0.1,0,0.1,0c0,0,0.2-0.1,0.3-0.1C18.7,3.6,18.7,3.6,18.7,3.5L18.7,3.5
			L18.7,3.5z M16.5,2.4L16.5,2.4c0-0.1-0.3,0-0.4,0c-0.1,0-0.3,0.1-0.4,0.1c0,0,0,0.1,0,0.1c0,0-0.1,0.1-0.3,0.2
			c-0.2,0.1-0.3,0.3-0.3,0.3c0,0,0,0.1,0.1,0.1c0,0,0.3,0,0.4-0.1c0.1-0.1,0.2-0.2,0.3-0.2c0-0.1,0-0.1,0.1-0.2
			C16,2.6,16,2.5,16.2,2.5C16.3,2.5,16.5,2.4,16.5,2.4L16.5,2.4L16.5,2.4z M15.9,3.1l0.2,0c0.2,0,0.3,0,0.4,0.1
			c0.1,0,0.1,0.1,0.2,0.1c0.1,0,0.3,0,0.3,0l-0.4,0.1c0,0,0-0.1-0.2-0.1c-0.2,0-0.2,0-0.4,0c-0.1,0-0.2-0.1-0.2-0.1
			C15.7,3.2,15.8,3.1,15.9,3.1L15.9,3.1L15.9,3.1z M18,3.8L18,3.8c0.1-0.1,0.1-0.1,0-0.1c-0.1,0-0.2-0.1-0.3-0.1
			c-0.2,0-0.2,0.1-0.3,0.1c-0.1,0.1-0.1,0.2-0.1,0.2c0,0,0,0.1,0,0.1c0,0,0.2,0.2,0.3,0.1c0.1,0,0.3-0.1,0.4-0.1
			C17.9,3.9,18,3.8,18,3.8L18,3.8L18,3.8z M17.4,3.6L17.4,3.6C17.4,3.5,17.3,3.5,17.4,3.6c-0.1-0.1-0.1-0.1-0.3-0.1
			c-0.2,0-0.4,0.1-0.4,0.1s0.2,0,0.3,0.1C17,3.8,16.8,4,16.8,4S17,4,17,4c0,0,0.1,0,0.1-0.1c0,0,0.1-0.2,0.1-0.3
			C17.3,3.6,17.3,3.6,17.4,3.6L17.4,3.6L17.4,3.6z M18.2,4.1L18.1,4c0,0-0.1,0.1-0.3,0.2c-0.2,0.1-0.5,0-0.5,0s0,0.1,0,0.1
			c0,0-0.2,0.2-0.2,0.2s0.3-0.1,0.5-0.1c0.1,0,0.3,0,0.3-0.1c0,0,0.1-0.1,0.1-0.1C18.1,4.1,18.2,4.1,18.2,4.1L18.2,4.1L18.2,4.1z
			 M16.2,3.4L16.2,3.4l-0.6,0.3c0,0-0.1-0.1-0.3,0c-0.2,0-0.3,0-0.4,0c-0.1,0-0.2-0.1-0.1-0.1c0-0.1,0.1-0.2,0.2-0.2
			c0.1,0,0.3,0,0.4,0c0.2,0,0.3,0.1,0.4,0.1C16,3.5,16.2,3.4,16.2,3.4L16.2,3.4L16.2,3.4z M16,3.9L16,3.9c-0.1-0.1-0.1-0.1,0-0.1
			c0.1,0,0.2-0.1,0.3-0.1c0.2,0,0.2,0.1,0.3,0.1c0,0,0.2,0,0.2,0.1c0,0-0.1,0.1-0.1,0.2c-0.1,0.1-0.1,0.2-0.1,0.2
			c0,0-0.4,0.2-0.4,0.2c0,0-0.2,0-0.2,0c0,0,0,0,0.1-0.1c0,0,0.1-0.1,0.1-0.2C16.1,3.9,16.1,3.9,16,3.9L16,3.9L16,3.9z M16.8,4.1
			L16.8,4.1c0,0-0.1,0.1-0.2,0.2c-0.1,0.1-0.4,0.1-0.4,0.1s0.2,0,0.2,0.1c0,0,0,0.1,0,0.1s0.2,0,0.2,0c0.1,0,0.1,0,0.2-0.1
			c0.1,0,0.1-0.1,0.1-0.2c0.1-0.1,0.2-0.1,0.2-0.1c0,0-0.1-0.1-0.2,0C16.9,4.2,16.8,4.1,16.8,4.1L16.8,4.1L16.8,4.1z M15.1,2.8
			l0.3-0.1l0,0.1l0,0c0,0-0.2,0-0.3,0.1C15,3,14.9,3.4,14.8,3.5c-0.2,0.1-0.5,0.2-0.5,0.1c-0.1-0.1,0-0.2,0.1-0.3
			c0.1-0.1,0.2-0.1,0.3-0.2c0.1,0,0.1-0.2,0.1-0.2C14.8,2.9,15,2.8,15.1,2.8L15.1,2.8L15.1,2.8z M15.2,4.2l0-0.1
			c0,0,0.3-0.1,0.3-0.1c0,0,0.1,0,0.2,0c0.1,0,0.2,0,0.2,0.1C16,4,16,4,16.1,4c0,0,0,0.1-0.1,0.1c0,0-0.1,0.1-0.1,0.1s-0.2,0-0.3,0
			c-0.1,0.1-0.2,0.1-0.2,0.1l-0.2,0C15.1,4.4,15.1,4.3,15.2,4.2C15.2,4.3,15.2,4.3,15.2,4.2L15.2,4.2L15.2,4.2z M14.5,3.2L14.5,3.2
			c0-0.1-0.3,0.1-0.4,0.1c-0.1,0-0.2,0.1-0.2,0.1c0,0,0,0.2-0.1,0.2c-0.1,0.1-0.2,0.1-0.3,0.2c-0.1,0.1-0.1,0.2-0.1,0.2
			c0,0,0.2,0,0.2,0c0,0,0.2,0,0.3-0.1c0.1-0.1,0.2-0.2,0.2-0.3c0-0.1,0-0.2,0-0.2c0-0.1,0.1-0.2,0.2-0.2C14.4,3.3,14.5,3.2,14.5,3.2
			L14.5,3.2L14.5,3.2z M15.3,3.8l-0.2,0c-0.1,0-0.4-0.1-0.5-0.1c-0.1,0-0.4,0-0.5,0.1C14.1,3.8,14,3.9,14,4c0,0.1,0.1,0.1,0.2,0.1
			c0.1,0,0.2,0,0.3,0c0.1,0,0.2,0,0.2,0c0,0,0.3-0.1,0.4-0.1C15.2,3.9,15.4,3.8,15.3,3.8C15.4,3.8,15.4,3.8,15.3,3.8
			C15.4,3.8,15.4,3.8,15.3,3.8L15.3,3.8L15.3,3.8z M15,4.4l0.1-0.2c0,0-0.4,0.1-0.6,0.2c-0.2,0.1-0.4,0.3-0.4,0.3l0.1,0l0,0.2
			l0.2-0.1c0,0,0-0.2,0.2-0.3C14.8,4.5,15,4.4,15,4.4L15,4.4L15,4.4z M15.7,4.5l-0.1-0.1c0,0,0.2-0.1,0.3-0.1c0.1,0,0.2,0.1,0.3,0.1
			c0.1,0,0.2,0,0.2,0.1c0,0,0,0,0,0.1c0,0-0.3,0.2-0.4,0.2c-0.1,0-0.4,0-0.4,0s0-0.1,0-0.1C15.6,4.8,15.7,4.6,15.7,4.5L15.7,4.5
			L15.7,4.5z M14.9,4.6c0.3-0.1,0.5,0,0.7,0c0,0-0.1,0.1-0.1,0.2c0,0.1-0.1,0.3-0.2,0.3c-0.1,0-0.4,0-0.5,0c-0.1,0-0.2,0-0.2,0
			S14.6,4.6,14.9,4.6L14.9,4.6L14.9,4.6z M14.7,5.5c0.1-0.1,0.2-0.2,0.3-0.3c0,0-0.3,0-0.4-0.1c-0.1,0-0.4,0.1-0.4,0.1
			c0,0,0,0.1,0,0.1c0,0,0,0,0.1,0c0,0,0,0.1,0,0.2c0,0.1,0,0.2,0,0.2S14.6,5.6,14.7,5.5L14.7,5.5L14.7,5.5z M13.5,4.2l-0.2,0.1
			c0,0-0.2,0.2-0.1,0.3c0.1,0.1,0.3,0,0.3,0c0,0,0.1-0.1,0.2-0.1c0.1,0,0.2,0,0.2,0s0.3-0.2,0.4-0.2c0.1,0,0.3-0.2,0.3-0.2
			c0,0,0-0.1,0-0.1c0,0-0.3,0.1-0.4,0.1c-0.1,0-0.4,0-0.5-0.1C13.8,4.2,13.6,4.2,13.5,4.2L13.5,4.2L13.5,4.2z M14.2,5.2l0-0.3
			c0,0-0.2,0.1-0.3,0.1c-0.1,0-0.2,0.1-0.3,0.2c-0.1,0.1-0.1,0.1-0.1,0.1s0.1,0,0.1,0c0,0,0,0.4,0,0.4s0.1,0,0.2-0.1
			c0.1,0,0.2-0.2,0.3-0.3C14.1,5.3,14.2,5.2,14.2,5.2L14.2,5.2L14.2,5.2z M14.2,5.5L14.2,5.5C14.2,5.4,14.2,5.4,14.2,5.5
			c-0.1-0.1-0.2,0.1-0.3,0.1c-0.1,0-0.3,0.1-0.3,0.1l0,0c0,0,0,0,0.1,0c0,0,0.1,0,0.1,0.1c0,0,0,0.2,0,0.2c0,0,0,0.1,0,0.1
			c0,0,0.3-0.2,0.3-0.2c0-0.1,0.1-0.1,0.1-0.2C14.2,5.6,14.2,5.5,14.2,5.5L14.2,5.5L14.2,5.5z M13.5,5.6V5.4c0,0-0.1,0.1-0.2,0.1
			c-0.1,0-0.3,0.1-0.3,0.2c-0.1,0.1-0.1,0.4-0.1,0.4s0.1,0,0.1,0c0,0,0.1-0.2,0.2-0.1c0.1,0,0,0.2,0,0.2s0.3-0.2,0.3-0.3
			C13.5,5.8,13.4,5.7,13.5,5.6L13.5,5.6L13.5,5.6z M13.6,6.2l0-0.3c0,0-0.1,0-0.2,0.1c-0.1,0-0.3,0.3-0.3,0.3s0,0.2,0,0.2
			c0,0,0,0.1,0,0.1s0.1,0,0.1,0c0,0,0.3-0.2,0.3-0.2C13.6,6.3,13.6,6.3,13.6,6.2L13.6,6.2L13.6,6.2z M13.8,3.5L13.8,3.5
			c-0.1,0-0.5,0.2-0.6,0.3c-0.1,0.1-0.4,0.3-0.4,0.3L13,4.3c0,0-0.6,0.5-0.8,0.7c-0.2,0.2-0.6,0.6-0.6,0.6c0,0-0.2,0.1-0.2,0.2
			c-0.1,0.1,0,0.5,0,0.5s0.1,0,0.1,0c0,0,0.2-0.2,0.2-0.2s0-0.3,0-0.4c0-0.1,0.5-0.5,0.6-0.6c0.1-0.1,0.7-0.6,0.7-0.6
			c0.1-0.1,0.3-0.1,0.4-0.4c0.1-0.3,0-0.2,0.1-0.3c0.1-0.1,0.1-0.2,0.2-0.2C13.7,3.5,13.8,3.5,13.8,3.5L13.8,3.5L13.8,3.5z
			 M13.1,4.5L13.1,4.5C13.2,4.5,13.2,4.6,13.1,4.5c0.1,0.1-0.5,0.5-0.5,0.6c-0.1,0.1-0.4,0.4-0.4,0.4c0,0,0,0,0,0c0,0,0,0,0,0
			c0,0,0.4-0.3,0.5-0.4C12.7,5.1,12.9,5,12.9,5c0,0,0.2-0.1,0.2-0.2c0,0,0,0,0.1,0c0,0,0.1,0,0.1,0.1c0,0-0.3,0.3-0.3,0.3
			c0,0-0.4,0.3-0.4,0.4c0,0-0.3,0.3-0.3,0.3c0,0-0.2,0.2-0.3,0.2c-0.1,0-0.2,0-0.2-0.1c0,0,0-0.2,0-0.2c0,0,0.4-0.4,0.5-0.4
			c0.1-0.1,0.2-0.2,0.3-0.3c0.1-0.1,0.2-0.2,0.3-0.3C12.9,4.7,13,4.6,13.1,4.5L13.1,4.5L13.1,4.5z M12.6,4.3L12.6,4.3
			C12.7,4.3,12.7,4.3,12.6,4.3C12.7,4.3,12.7,4.3,12.6,4.3c0,0.1-0.6,0.7-0.7,0.8c-0.1,0.1-0.6,0.5-0.6,0.7C11.2,5.9,11.2,6,11.2,6
			c0,0.1,0,0.3,0,0.4c0,0.1,0,0.2-0.1,0.3c-0.1,0.1-0.2-0.1-0.2-0.1c0,0,0-0.2,0.1-0.3C11,6.2,11,6.1,11.1,6c0-0.1,0-0.3,0-0.3
			s0.5-0.6,0.7-0.8c0.2-0.1,0.5-0.4,0.6-0.5C12.5,4.4,12.6,4.3,12.6,4.3L12.6,4.3L12.6,4.3z M13.3,5L13.3,5c-0.1,0-0.6,0.4-0.8,0.6
			c-0.2,0.2-0.5,0.5-0.5,0.5c0,0-0.2,0-0.3,0.1c-0.1,0-0.3,0.1-0.3,0.2c0,0.1-0.1,0.2-0.1,0.2c0,0,0.2,0,0.2,0c0,0,0.1-0.2,0.2-0.2
			c0.1,0,0.2,0,0.2,0s0.5-0.5,0.6-0.6C12.7,5.6,13.3,5.1,13.3,5C13.3,5.1,13.4,5.1,13.3,5L13.3,5L13.3,5z M13,6.3l0-0.2
			c0,0-0.1,0.1-0.1,0.1c0,0-0.2-0.1-0.3,0c-0.1,0.1-0.2,0.2-0.2,0.3c0,0.1,0,0.5,0,0.6c0,0.1,0,0.1,0,0.2c0,0-0.1,0.1-0.1,0.1
			s0.1,0,0.1-0.1c0,0,0-0.1,0.1-0.2c0.1-0.1,0.1-0.2,0.3-0.2c0.1,0,0.2-0.1,0.2-0.2C13,6.6,13,6.5,13,6.5C13,6.5,13,6.3,13,6.3
			L13,6.3L13,6.3z M10.8,6.1L10.8,6.1C10.9,6,10.9,6,10.9,6l0,0l0,0.1c0,0-0.1,0.1-0.1,0.1c0,0-0.1,0.1-0.1,0.1l0-0.1c0,0,0,0,0-0.1
			C10.7,6.2,10.8,6.1,10.8,6.1L10.8,6.1L10.8,6.1z M11.8,6.4L11.8,6.4c0.1,0,0.1,0,0.1,0s-0.2,0.4-0.3,0.4c0,0-0.2,0-0.2,0
			c-0.1,0-0.2,0.2-0.2,0.3c-0.1,0-0.3,0.1-0.3,0.1S10.8,7,11,6.9c0.1-0.1,0.2-0.2,0.4-0.2c0.2,0,0.2,0,0.3,0
			C11.6,6.6,11.8,6.4,11.8,6.4L11.8,6.4L11.8,6.4z M12.3,6.7l0-0.2C12.3,6.5,12.2,6.6,12.3,6.7c-0.1-0.1-0.3-0.1-0.3,0
			c0,0-0.1,0.2-0.1,0.2c0,0-0.1,0.1-0.1,0.2c0,0.1,0,0.2,0,0.2s0.2-0.1,0.3-0.1c0.1,0,0.1,0.1,0.1,0.1s0.2-0.2,0.2-0.3
			C12.3,6.9,12.3,6.8,12.3,6.7L12.3,6.7L12.3,6.7z M12.9,7.1l0.3-0.4c0,0-0.1,0.1-0.1,0.1c0,0-0.3,0.2-0.3,0.3c0,0-0.2,0.2-0.2,0.2
			c0,0,0,0.1,0,0.1C12.7,7.3,12.8,7.1,12.9,7.1L12.9,7.1L12.9,7.1z M10.5,5.9L10.5,5.9c0,0-0.1,0.1-0.1,0.1c0,0-0.1,0.1-0.1,0.1
			c0,0,0.2,0.2,0.2,0.2c0,0,0.1,0.2,0,0.2c0,0-0.2-0.1-0.2-0.1c0,0-0.2-0.1-0.2-0.1c0,0-0.1,0.2-0.1,0.2c0,0-0.1,0.1-0.1,0.1
			c0,0,0.1,0.1,0.1,0.1c0,0,0.3,0,0.3,0c0.1,0,0.1,0,0.2,0c0,0,0.1-0.1,0.1-0.2c0-0.1,0-0.3-0.1-0.3C10.6,6.2,10.5,6,10.5,5.9
			C10.5,6,10.5,5.9,10.5,5.9L10.5,5.9L10.5,5.9z M10.7,6.9l0-0.2c0,0-0.1,0.1-0.1,0.1c0,0-0.1,0-0.2,0c0,0-0.1,0.2-0.1,0.2
			c0,0.1,0,0.2,0,0.2c0,0,0.1,0.1,0.2,0c0.1,0,0.1-0.1,0.2-0.2C10.7,7.1,10.7,7,10.7,6.9L10.7,6.9L10.7,6.9z M11.4,7L11.4,7
			C11.5,6.9,11.5,7,11.4,7c0.1,0-0.2,0.5-0.2,0.5c0,0-0.2,0.1-0.3,0.1c-0.1,0.1-0.2,0.2-0.2,0.2c0,0-0.2,0.1-0.3,0
			c-0.1-0.1,0-0.2,0.1-0.4c0.1-0.1,0.2-0.2,0.4-0.2c0.2,0,0.2,0,0.3-0.1C11.3,7.1,11.3,7,11.4,7L11.4,7L11.4,7z M11.9,7.4l0-0.2
			c0,0-0.2,0.1-0.2,0.1c-0.1,0-0.1,0-0.2,0c0,0-0.2,0.2-0.3,0.3c0,0.1,0,0.2,0,0.2c0,0,0.2,0,0.2-0.1c0.1,0,0.1-0.1,0.1,0
			c0,0,0.1,0.1,0,0.1c0,0,0,0.1,0,0.1c0,0,0.1,0,0.1,0s0-0.1,0-0.1c0,0,0-0.2,0-0.2C11.7,7.6,11.8,7.5,11.9,7.4L11.9,7.4L11.9,7.4z
			 M12.5,7.4L12.5,7.4c-0.1-0.1-0.2,0-0.2,0c-0.1,0-0.2,0-0.3,0.1c-0.1,0.1-0.2,0.1-0.2,0.3c-0.1,0.2,0,0.3,0,0.3c0,0.1,0.3,0,0.3,0
			c0,0,0.2-0.3,0.3-0.4C12.4,7.6,12.5,7.4,12.5,7.4L12.5,7.4L12.5,7.4z M10.3,6.9L10.3,6.9c0-0.1-0.2,0.1-0.2,0.2
			C10,7.3,10,7.3,10,7.4c0,0,0.1,0.2,0,0.4C9.8,8,9.9,8.2,9.9,8.3c0,0,0.2,0,0.3-0.2c0.1-0.2,0.1-0.4,0.1-0.5c0-0.1-0.1-0.3-0.1-0.4
			C10.2,7.1,10.3,7,10.3,6.9L10.3,6.9L10.3,6.9z M11.4,8.2l0.1-0.3c0,0-0.2,0.1-0.3,0.1c-0.1,0-0.2,0-0.2,0.1c0,0-0.2,0.2-0.2,0.3
			c0,0.1-0.1,0.2,0,0.2c0,0,0.1,0,0.1-0.1c0,0,0.1-0.1,0.1-0.1c0,0,0,0.1,0.1,0.1c0,0,0.1-0.1,0.1-0.1C11.3,8.3,11.4,8.2,11.4,8.2
			L11.4,8.2L11.4,8.2z M10.7,8.3L11,7.7c0,0-0.2,0.2-0.2,0.2c0,0-0.3,0.1-0.5,0.2C10.1,8.3,10,8.5,9.9,8.5c0,0.1,0,0.2,0.1,0.2
			c0.1,0,0.3-0.1,0.4-0.3C10.5,8.3,10.6,8.3,10.7,8.3L10.7,8.3L10.7,8.3z M9.8,7.7L9.8,7.7C9.8,7.7,9.9,7.7,9.8,7.7
			c0.1,0-0.1,0.3-0.1,0.4c0,0.1,0.1,0.4,0.1,0.5c0,0.2-0.2,0.4-0.2,0.4C9.6,9.2,9.4,9,9.5,8.9c0-0.1,0.1-0.3,0.1-0.4
			c0-0.1-0.1-0.3-0.1-0.3C9.5,8.2,9.8,7.8,9.8,7.7L9.8,7.7L9.8,7.7z M12,8.2L12,8.2c0-0.1-0.2,0-0.2,0c0,0-0.1,0-0.2,0
			c-0.1,0-0.2,0.3-0.2,0.3c0,0,0.2-0.1,0.2,0c0,0.1,0,0.2,0,0.3c0,0.1,0,0.2,0,0.2s0.1-0.1,0.1-0.1c0.1,0,0.2-0.3,0.2-0.3
			C11.9,8.4,12,8.3,12,8.2L12,8.2L12,8.2z M9.4,8.5L9.4,8.5L9.4,8.5c0.1,0-0.1,0.3-0.1,0.4c0,0.1,0.1,0.3,0.1,0.3c0,0,0,0.3,0,0.3
			l-0.4,0c0,0,0.1-0.5,0.2-0.6C9.3,8.8,9.4,8.5,9.4,8.5L9.4,8.5L9.4,8.5z M10.5,8.5L10.5,8.5l0.1-0.1c0,0-0.3,0.7-0.3,0.8
			c0,0-0.2,0.1-0.2,0.1c0,0-0.2,0.4-0.3,0.3c-0.1,0-0.2-0.3-0.1-0.5c0.1-0.2,0.4-0.3,0.5-0.3C10.3,8.8,10.5,8.6,10.5,8.5L10.5,8.5
			L10.5,8.5z M11,8.6L11,8.6c0,0-0.1,0-0.1,0.1c-0.1,0-0.2,0-0.3,0.3c-0.1,0.3-0.1,0.6-0.1,0.6s0.1-0.2,0.1-0.4
			c0-0.2,0.1-0.2,0.2-0.3c0.1-0.1,0.1-0.2,0.2-0.2C11,8.7,11,8.6,11,8.6L11,8.6L11,8.6z M11.4,8.8l0-0.2c0,0-0.1,0.1-0.1,0.1
			c0,0-0.1,0-0.2,0c-0.1,0-0.3,0.2-0.3,0.4c-0.1,0.2-0.1,0.4-0.1,0.4c0,0-0.2,0.2-0.2,0.2l0,0.1l0-0.1c0,0,0.1-0.1,0.1-0.1
			c0,0,0.1-0.1,0.1-0.1c0.1,0,0.2,0,0.2,0c0.1,0,0.3-0.2,0.3-0.3C11.4,9,11.4,8.9,11.4,8.8L11.4,8.8L11.4,8.8z M11.3,9.9l0-0.4
			c0,0-0.2,0.2-0.2,0.2c-0.1,0-0.1,0.1-0.2,0.2c0,0.1,0,0.2,0,0.2s0.1-0.1,0.2-0.1c0.1,0,0.1,0.1,0.1,0.1c0,0,0,0.1,0,0.1
			c0,0,0,0.2,0,0.2s0-0.2,0.1-0.2C11.2,10.1,11.3,9.9,11.3,9.9L11.3,9.9L11.3,9.9z M10.4,9.8L10.4,9.8L10.4,9.8
			C10.4,9.7,10.4,9.8,10.4,9.8c0.1,0,0.2,0.2,0.2,0.2c0,0.1,0,0.3,0,0.4c0,0.1-0.1,0.3-0.1,0.3s-0.1-0.1-0.1-0.1c0,0,0,0-0.1,0
			c0,0-0.1-0.2-0.1-0.2c-0.1,0-0.2,0.1-0.2,0.1s0-0.3,0.1-0.4C10.3,9.9,10.4,9.8,10.4,9.8L10.4,9.8L10.4,9.8z M10.8,10.3l0.2-0.2
			c0,0,0.1,0.3,0.1,0.5c-0.1,0.2-0.4,0.5-0.4,0.5c0,0,0-0.2,0-0.2s0.1-0.1,0.1-0.2C10.7,10.6,10.7,10.3,10.8,10.3L10.8,10.3
			L10.8,10.3z M10.3,10.6l-0.1-0.2l0,0c0,0,0,0.1-0.1,0.2c0,0-0.1,0.1-0.1,0.2c0,0,0,0.4,0,0.4s0.1-0.1,0.1,0c0,0,0.1,0.2,0.1,0.2
			l0.3-0.3c0,0,0-0.3,0-0.3c0,0,0,0,0,0C10.4,10.7,10.3,10.6,10.3,10.6L10.3,10.6L10.3,10.6z M10,11.4L10,11.4c0-0.1,0.1,0,0.1,0
			c0,0-0.2,0.2-0.2,0.2S9.9,11.5,10,11.4C9.9,11.4,10,11.4,10,11.4L10,11.4L10,11.4z M9.4,9.9L9.4,9.9L9.4,9.9l0.1,0
			c0,0,0,0.1,0,0.1c0,0-0.1,0.5-0.2,0.8c0,0.2-0.1,0.7-0.1,0.7l0,0l0.1,0c0,0,0.1-0.7,0.1-0.8c0-0.1,0.1-0.4,0.1-0.4
			c0,0,0-0.2,0.1-0.2c0,0,0,0,0.1,0c0,0,0,0,0,0c0,0,0,0,0,0.1c0,0-0.1,0.4-0.1,0.5c0,0.1-0.1,0.7-0.1,0.8c0,0.1,0,0.2-0.1,0.3
			c0,0.1-0.1,0.1-0.1,0.1c0,0-0.2-0.1-0.2-0.2c0,0,0-0.1,0-0.2c0,0,0,0,0-0.1c0,0,0.1-0.6,0.1-0.6c0-0.1,0.1-0.4,0.1-0.4
			c0-0.1,0-0.3,0.1-0.3C9.3,10,9.4,9.9,9.4,9.9L9.4,9.9L9.4,9.9z M9.2,9.8L9.2,9.8L9.2,9.8L9.2,9.8l0.1,0c0,0-0.1,0.6-0.2,0.8
			c0,0.2-0.1,0.9-0.1,1c0,0.1,0,0.2,0.1,0.2c0,0,0.2,0.2,0.2,0.2l0,0.3c0,0,0,0.1,0,0.1c0,0-0.3-0.2-0.3-0.4c0-0.2,0-0.3,0-0.3
			c0-0.1,0.1-0.8,0.1-0.9c0-0.1,0.1-0.6,0.1-0.6C9.1,10.1,9.2,9.8,9.2,9.8L9.2,9.8L9.2,9.8z M9.8,10.1L9.8,10.1
			C9.9,10.1,9.9,10.1,9.8,10.1c0.1,0,0,0.6-0.1,0.8c0,0.2-0.1,0.9-0.1,0.9c0,0-0.4,0.5-0.4,0.5c0,0,0,0,0-0.1c0-0.1,0-0.2,0.1-0.3
			c0.1-0.1,0.2-0.2,0.2-0.3c0,0,0.1-0.7,0.1-0.8C9.6,10.9,9.8,10.2,9.8,10.1C9.8,10.2,9.8,10.1,9.8,10.1L9.8,10.1L9.8,10.1z M8.8,10
			L8.8,10C8.9,9.9,8.9,9.9,8.8,10c0.1,0,0,0.4,0,0.6c0,0.3-0.1,0.8-0.1,0.9c0,0.1-0.1,0.4,0,0.5c0.1,0.2,0.2,0.3,0.2,0.3
			c0,0,0.1,0.1,0.1,0.1c0,0,0,0,0,0.1c0,0-0.2,0.3-0.2,0.3s-0.1-0.2-0.1-0.3c0-0.1,0-0.2,0-0.3c0-0.1-0.1-0.1-0.1-0.2
			c0-0.1,0.1-0.9,0.1-1c0-0.2,0.1-0.5,0.1-0.6C8.7,10.3,8.8,10,8.8,10L8.8,10L8.8,10z M8.5,12.4L8.5,12.4L8.5,12.4L8.5,12.4
			L8.5,12.4c0.1,0,0.1,0.2,0.1,0.3c0,0.1,0.1,0.2,0.1,0.2s0,0,0,0c0,0-0.1,0.1-0.1,0.1l-0.1,0c0,0,0-0.3,0-0.4
			C8.5,12.6,8.5,12.4,8.5,12.4L8.5,12.4L8.5,12.4z M10.7,12.5L10.7,12.5c0-0.1,0.1,0.2,0.2,0.3c0,0.2,0,0.2,0,0.4c0,0.1,0,0.2,0,0.3
			c0,0.1,0,0.1,0,0.1s0-0.1-0.1-0.1c0,0-0.1-0.1-0.1-0.1l-0.1,0.1c0,0,0-0.1,0-0.1c0,0,0.1-0.1,0.1-0.1c0,0,0-0.1,0-0.2
			c0-0.1-0.1-0.2-0.1-0.3C10.6,12.7,10.7,12.5,10.7,12.5L10.7,12.5L10.7,12.5z M10.5,12.7l-0.1-0.1l-0.3,0.3c0,0,0,0.3,0.1,0.4
			c0.1,0.1,0.3,0.2,0.3,0.2s0.1-0.1,0.1-0.3c0-0.2,0-0.2,0-0.2C10.6,12.9,10.5,12.8,10.5,12.7L10.5,12.7L10.5,12.7z M10.1,13.3
			L10,13.1c0,0,0,0.1,0,0.2c0,0-0.1,0.1-0.1,0.3C9.9,13.6,10,14,10,14c0,0,0.1-0.3,0.2-0.3c0.1,0,0.2,0.1,0.2,0.1l0.1-0.1
			c0,0-0.1-0.1-0.1-0.1C10.3,13.5,10.2,13.4,10.1,13.3L10.1,13.3L10.1,13.3z M10.7,13.7l0-0.1l0,0c0,0,0.1,0.1,0.1,0.2
			c0.1,0.1,0.1,0.1,0.2,0.2c0,0.1,0,0.4,0,0.4s-0.1,0-0.1,0c-0.1,0-0.1,0.2-0.1,0.2s0-0.2-0.1-0.3c-0.1-0.1-0.2-0.2-0.2-0.2
			s0-0.1,0.1-0.1C10.6,13.8,10.7,13.7,10.7,13.7L10.7,13.7L10.7,13.7z M9.1,14L9.1,14l0.5-0.6v0.1c0,0-0.1,0.1-0.1,0.1
			c0,0.1,0,0.4-0.1,0.5c-0.1,0.1-0.2,0.1-0.2,0.1C9.2,14.1,9.1,14,9.1,14L9.1,14L9.1,14z M9.1,14.1L9.1,14.1l-0.3,0.1
			c0,0,0.1,0.3,0.1,0.4c0,0.1,0.1,0.2,0.2,0.1c0.1,0,0.1-0.1,0.1-0.3C9.2,14.2,9.2,14.2,9.1,14.1L9.1,14.1L9.1,14.1z M9.6,13.7
			L9.6,13.7C9.6,13.7,9.6,13.6,9.6,13.7C9.7,13.6,9.7,13.7,9.6,13.7l0.1,0.4c0,0,0,0.2,0,0.2c0,0.1-0.1,0.2-0.1,0.2
			c0,0.1,0,0.3,0,0.4c0,0.1-0.1,0.1-0.1,0.1c0,0-0.2,0-0.2-0.2c0-0.1,0-0.3,0.1-0.5c0.1-0.2,0.2-0.3,0.2-0.3
			C9.6,14,9.6,13.8,9.6,13.7L9.6,13.7L9.6,13.7z M10.3,13.9l-0.1-0.1l0,0l0,0.1c0,0-0.1,0.2-0.1,0.3c0,0.1,0.1,0.3,0.1,0.3
			c0,0,0.1,0.2,0.1,0.2s0.1-0.2,0.2-0.2c0.1,0,0.2,0.2,0.2,0.2s0.1,0,0.1-0.1c0-0.1-0.1-0.3-0.1-0.4C10.5,14,10.4,13.9,10.3,13.9
			L10.3,13.9L10.3,13.9z M11,14.4L11,14.4c-0.1,0-0.1,0-0.1,0.1c0,0,0,0.1-0.1,0.1c0,0-0.1,0.1-0.1,0.2c0,0.1,0,0.3,0,0.3
			c0,0,0.1-0.1,0.2-0.1c0.1,0,0.2,0.2,0.2,0.2c0,0,0,0,0.1,0c0,0,0.1,0,0.1-0.2c0-0.2-0.1-0.4-0.1-0.4C11,14.5,11,14.4,11,14.4
			L11,14.4L11,14.4z M8.8,14.4L8.8,14.4C8.8,14.4,8.7,14.4,8.8,14.4C8.7,14.4,8.7,14.4,8.8,14.4c-0.1,0.1,0,0.5,0,0.5
			c0,0,0,0.1,0.1,0.1c0,0,0.1,0.1,0.2,0.1c0,0.1,0,0.1,0,0.2c0,0.1,0,0.1,0.1,0.2c0.1,0,0.1,0.1,0.2,0.1c0,0,0.2,0.6,0.3,0.7
			c0,0.1,0.3,0.7,0.4,0.8c0,0.1,0.1,0.3,0.1,0.4c0,0.1,0.1,0.2,0.2,0.2c0.1,0,0.2,0.1,0.3,0.1c0,0,0.1,0,0.1-0.1
			c0,0-0.1-0.2-0.1-0.3c0,0-0.3-0.1-0.3-0.1c0-0.1-0.1-0.2-0.2-0.3c0-0.1-0.3-0.7-0.3-0.8c0-0.1-0.2-0.5-0.2-0.6c0-0.1,0-0.3,0-0.4
			c0-0.1-0.2-0.3-0.3-0.4C9,14.8,9,14.8,8.9,14.8c0-0.1-0.1-0.2-0.1-0.2C8.8,14.5,8.8,14.4,8.8,14.4L8.8,14.4L8.8,14.4z M9.8,14.5
			L9.8,14.5C9.8,14.5,9.8,14.5,9.8,14.5c-0.1,0,0,0.4-0.1,0.5c0,0.1-0.2,0.3-0.2,0.5c0,0.2,0,0.2,0.1,0.3c0,0,0.1,0.1,0.2,0.3
			c0.1,0.3,0.2,0.4,0.2,0.5c0.1,0.1,0.1,0.2,0.2,0.3c0,0.1,0,0.1,0,0.2c0,0,0.1,0.1,0.1,0.1c0.1,0,0.2,0.1,0.2,0.1
			c0,0,0.1-0.1,0-0.3c-0.1-0.2-0.3-0.5-0.3-0.8c-0.1-0.2-0.2-0.5-0.2-0.6c0-0.2,0-0.2,0-0.3c0-0.1,0-0.1,0-0.1c0,0-0.1-0.4-0.1-0.5
			C9.9,14.7,9.8,14.5,9.8,14.5L9.8,14.5L9.8,14.5z M10.3,14.7l0-0.1c0,0,0,0,0.1,0c0,0,0.2,0.1,0.2,0.1s0,0.2,0,0.3
			c0,0.1,0.1,0.2,0.1,0.3c0,0,0,0.1,0,0.1c0,0,0,0.2,0,0.2s-0.1-0.1-0.2-0.1c0,0-0.1,0-0.1,0c0,0-0.2-0.4-0.1-0.5
			C10.2,14.8,10.3,14.8,10.3,14.7L10.3,14.7L10.3,14.7z M10.9,15.1L10.9,15.1c0,0-0.1,0.3-0.1,0.5c0,0.2,0.1,0.4,0.2,0.5
			c0.1,0.1,0.2,0.2,0.2,0.1c0,0,0-0.1,0-0.2c0-0.1,0.1-0.2,0.1-0.3c0-0.1,0-0.2-0.1-0.3c-0.1-0.1-0.2-0.1-0.2-0.2
			C11,15.2,10.9,15.1,10.9,15.1L10.9,15.1L10.9,15.1z M10.4,15.7l0-0.2l0.2,0.2c0,0,0,0.2,0.1,0.4s0.4,0.3,0.4,0.3l0.1,0.2
			c0,0-0.2-0.1-0.2,0c0,0,0,0.2,0,0.2c0,0-0.3-0.3-0.4-0.6C10.5,15.9,10.4,15.8,10.4,15.7L10.4,15.7L10.4,15.7z M11.4,15.8
			L11.4,15.8L11.4,15.8l0.2,0.2l-0.2,0.5l0,0c0,0-0.1-0.1-0.1-0.3c0-0.1,0-0.2,0-0.2c0,0,0.1-0.1,0.1-0.1
			C11.3,15.9,11.4,15.8,11.4,15.8L11.4,15.8L11.4,15.8z M11,16.7l0-0.1c0,0,0.1,0,0.2,0c0,0,0.1,0,0.1,0c0,0,0,0,0,0.1
			c0,0-0.2,0.5-0.2,0.5S11,17,11,16.9C11,16.8,11,16.8,11,16.7L11,16.7L11,16.7z M10.9,17.4L10.9,17.4l0-0.1l0,0l0,0.1
			c0,0,0,0.1,0,0.1C11,17.5,10.9,17.4,10.9,17.4L10.9,17.4L10.9,17.4z M10.2,15.5L10.2,15.5L10.2,15.5L10.2,15.5
			c-0.1,0.1,0.1,0.6,0.1,0.7c0.1,0.1,0.3,0.6,0.3,0.6c0,0.1,0.1,0.1,0.1,0.2c0,0-0.1,0.3,0,0.4c0,0.2,0.2,0.4,0.2,0.4l0.1-0.2
			c0,0-0.1-0.1-0.1-0.3c0-0.1,0.1-0.2,0-0.3c0-0.1-0.3-0.7-0.4-0.9c-0.1-0.2-0.2-0.5-0.2-0.6C10.2,15.6,10.2,15.5,10.2,15.5
			L10.2,15.5L10.2,15.5z M9.2,15.9L9.2,15.9L9.2,15.9c-0.1,0,0.2,0.7,0.3,0.9c0.1,0.2,0.5,1,0.5,1c0,0,0.1,0.1,0.1,0.1
			c0,0,0.1,0,0.1,0.1c0,0,0.2,0.2,0.3,0.3c0.1,0.1,0.1,0.1,0.1,0.1s0.1-0.3,0.1-0.3c0,0-0.3-0.1-0.4-0.1c-0.1,0-0.3-0.1-0.3-0.2
			c0,0-0.3-0.4-0.5-0.9C9.4,16.3,9.3,16,9.2,15.9C9.3,15.9,9.2,15.9,9.2,15.9L9.2,15.9L9.2,15.9z M10.2,18.1L10.2,18.1L10.2,18.1
			c-0.1,0.1,0.1,0.3,0.2,0.4c0.1,0.1,0.2,0.2,0.2,0.2l0.1-0.2l0,0c0,0-0.2-0.1-0.2-0.1C10.3,18.2,10.3,18.1,10.2,18.1L10.2,18.1
			L10.2,18.1z M12,16.5l-1.2,3c0,0-0.2-0.2-0.2-0.3c0,0,0-0.2,0-0.3c0-0.1,1.1-3,1.1-3l0.5,1l-1.1,3L11,19.6l1.2-2.9L12,16.5
			L12,16.5L12,16.5z M12.5,17.6l-0.1-0.2l-0.2,0.4c0,0,0.1,0,0.1,0c0,0,0.1,0.1,0.1,0.1C12.5,17.9,12.5,17.7,12.5,17.6L12.5,17.6
			L12.5,17.6z M12.3,17.9l-0.2,0L12.1,18c0,0,0,0.3,0,0.3c0,0,0.2,0.3,0.3,0.3c0.1,0,0.4,0,0.5,0c0.1,0,0.2,0.1,0.2,0.1
			c0,0,0,0.1,0,0.1s0-0.1-0.1-0.1c-0.1-0.1-0.1,0-0.2-0.1c-0.1-0.1-0.1-0.3-0.1-0.3C12.7,18.1,12.4,17.9,12.3,17.9L12.3,17.9
			L12.3,17.9z M13.5,18.7l-0.3-0.2c0,0,0.1,0.1,0,0.3c0,0.1,0,0.3,0,0.3c0,0.1,0.2,0.3,0.3,0.3c0.1,0,0.3,0,0.3,0s0-0.2,0-0.3
			c0,0,0-0.1,0-0.1S13.6,18.8,13.5,18.7L13.5,18.7L13.5,18.7z M12.5,18.7l-0.2-0.1c0,0,0.1,0.1,0.1,0.2c0,0.1,0,0.2,0.1,0.2
			c0,0,0.2,0.3,0.3,0.3c0.1,0,0.2,0.1,0.2,0.1s-0.1-0.2-0.1-0.2c0-0.1,0-0.1,0-0.1c0,0,0.1,0,0.1,0s0-0.1-0.2-0.2
			C12.6,18.7,12.6,18.7,12.5,18.7L12.5,18.7L12.5,18.7z M13.1,19.3L13,19.1c0,0,0.2,0,0.2,0.1c0,0,0.3,0.3,0.3,0.3
			c0.1,0,0.2,0,0.2,0l0.1,0l0.1,0.1c0,0-0.1,0-0.1,0c0,0-0.1,0-0.2,0c0,0,0,0.1,0,0.1c0,0,0.1,0.3,0.1,0.3c0,0-0.1,0-0.2,0
			c0,0-0.3-0.2-0.3-0.3C13.1,19.5,13.1,19.4,13.1,19.3L13.1,19.3L13.1,19.3z M13.9,19.3l0-0.1C13.9,19.2,14,19.2,13.9,19.3
			c0.2-0.1,0.4,0.1,0.4,0.1l0.1,0.4c0,0-0.2-0.1-0.2,0c0,0,0,0.2,0,0.2S14,19.8,14,19.7c0-0.1,0-0.1,0-0.2
			C13.9,19.4,13.9,19.4,13.9,19.3L13.9,19.3L13.9,19.3z M14.3,19.9l-0.1-0.1l0.2,0l0.1,0.6c0,0-0.2-0.2-0.2-0.3
			C14.3,20.1,14.3,20,14.3,19.9L14.3,19.9L14.3,19.9z M16.2,20.2L15.6,20l0,0.2c0,0,0.3,0.1,0.5,0.2c0.1,0,0.5,0.2,0.5,0.2l0.1-0.1
			C16.8,20.4,16.3,20.3,16.2,20.2L16.2,20.2L16.2,20.2z M16.2,20.5l-0.5-0.2l0,0.2c0,0,0.3,0.1,0.4,0.2c0.1,0,0.5,0.2,0.5,0.2l0-0.1
			C16.6,20.6,16.3,20.5,16.2,20.5L16.2,20.5L16.2,20.5z M16.6,20.9l-0.8-0.3l0,0.1l0.9,0.3v0L16.6,20.9L16.6,20.9L16.6,20.9
			L16.6,20.9z M16.3,21l-0.5-0.2l0,0.2c0,0,0.3,0.1,0.5,0.2c0.1,0.1,0.5,0.2,0.5,0.2l0-0.1C16.8,21.2,16.5,21.1,16.3,21L16.3,21
			L16.3,21z M15.9,21.5L15.9,21.5l-0.1,0c0,0,0.6,0.4,0.8,0.4c0.2,0,0.6,0,0.7,0c0.1,0,0.8,0,0.8,0c0,0,0.2,0,0.2,0
			c0,0,0.1-0.1,0.1-0.1c0,0,0-0.1,0-0.1c0,0-0.1,0-0.1,0c0,0-0.1,0.1-0.1,0.1c0,0-0.5,0.1-0.7,0.1c-0.2,0-0.6,0-0.7,0
			c-0.1,0-0.3-0.1-0.5-0.2C16.1,21.6,15.9,21.5,15.9,21.5L15.9,21.5L15.9,21.5z M12.7,20.3v-0.4l0.1,0c0,0,0,0.7,0.2,1.1
			c0.2,0.4,0.4,0.7,0.5,0.8c0.2,0.2,0.3,0.3,0.5,0.4c0.2,0.1,0.6,0.3,0.7,0.4c0.1,0,0.2,0.1,0.2,0.1l-0.1,0.1c0,0-0.6-0.2-0.7-0.3
			c-0.1-0.1-0.3-0.2-0.3-0.2l0,2.1l-0.6,0v0.2l1,0.1l-0.1-0.7L14,23.3l0,0l0.4,0.8l0.3,0.4l2.5-1.1l0,0l-0.5,0.2l-0.1,1l0.1,0l0,0.2
			l-0.4,0l0-0.1l-0.6-0.1l0-0.5l-0.2,0.2l-0.8,0.3l-0.2-0.3l0,0.5l-1.3-0.1v-0.3l-0.7-0.1l0-0.5l-0.8-0.1l0-0.5l-0.6-0.1l0.4-2.9
			l0.6,0.5c0,0-0.2-0.5-0.3-0.8c-0.1-0.3-0.1-0.7-0.1-0.7l0.1-0.3c0,0-0.1,0.6,0.1,0.9c0.1,0.4,0.3,0.6,0.4,0.8
			c0.1,0.2,0.5,0.5,0.5,0.5c0,0-0.3-0.5-0.4-0.9c-0.1-0.4-0.1-0.9-0.1-1c0,0,0-0.2,0-0.2l0.1,0c0,0,0,0.8,0.1,1.1
			c0.1,0.2,0.1,0.4,0.2,0.6c0.1,0.2,0.2,0.5,0.3,0.6c0.1,0.1,0.4,0.3,0.4,0.3S13,21.3,12.9,21C12.8,20.7,12.7,20.5,12.7,20.3
			L12.7,20.3L12.7,20.3z M11.3,23l0.3-2.4l0.9,0.8l-0.1,1.8L11.3,23L11.3,23L11.3,23z M14.2,23.4l-0.1-0.2l0.9-0.4l0.3,0.1
			L14.2,23.4L14.2,23.4L14.2,23.4z M14.3,23.6l0-0.2l1.3-0.6l0.4,0L14.3,23.6L14.3,23.6L14.3,23.6z M14.4,23.9l-0.1-0.2l1.9-0.8
			l0.4,0L14.4,23.9L14.4,23.9L14.4,23.9z M16.7,23.1L14.5,24l0.1,0.1l2.5-1.1L16.7,23.1L16.7,23.1L16.7,23.1z M14.7,24.4l-0.1-0.1
			l2.5-1.1L17,23.4L14.7,24.4L14.7,24.4L14.7,24.4z M17.6,24.9l0-0.8l0.2,0l0,0.7l1.1,0.1l0-0.4H19l0,0.6L18,25l0,0.1L17.2,25l0-0.2
			L17.6,24.9L17.6,24.9L17.6,24.9z M20.2,21.5c-0.1-0.5-0.5-0.8-1-0.8c-0.5,0-0.9,0.3-1,0.8l-0.2,0c0.1-0.6,0.6-1,1.2-1
			c0.6,0,1.2,0.5,1.2,1.1L20.2,21.5L20.2,21.5L20.2,21.5z M20.8,21.6c-0.1-0.9-0.8-1.5-1.7-1.5c-0.9,0-1.6,0.6-1.7,1.5l-0.2,0
			c0.1-1,0.9-1.7,1.9-1.7c1,0,1.8,0.8,1.9,1.8L20.8,21.6L20.8,21.6L20.8,21.6z M15.8,24.6l0-0.4l0.7-0.3l-0.1,0.8L15.8,24.6
			L15.8,24.6L15.8,24.6z M13.3,24l0-2l0.4,0.2l0,2.1l-1.1-0.1l0-0.3L13.3,24L13.3,24L13.3,24z M12.5,23.3l0.1-1.8
			c0,0,0.2,0.2,0.3,0.2c0,0,0,0,0,0l0.2,0.2l0,1.9l-1.4-0.2l0-0.4L12.5,23.3L12.5,23.3L12.5,23.3z M24.6,18.5
			C24.5,18.6,24.5,18.6,24.6,18.5l-10.7-0.1c0,0,0,0-0.1-0.1L24.6,18.5L24.6,18.5L24.6,18.5z M19.2,4.4c4.4,0,8.1,3.6,8.1,8.1
			c0,1.9-0.6,3.6-1.7,4.9l0-0.2l-4.1-0.1l0,0.2l0,0l0.1-0.1l0.1,0.1v0.1l0,0.1l-0.1,0.1l-0.1,0h-0.1l0,0.6h0.1v0.2l0,0l0-0.1l0,0
			l0,0l0,0l0.1,0v-0.3c0,0,0.1-0.1,0.2-0.1c0.2,0,0.2,0.1,0.2,0.1l0,0.3l0.1,0l0,0l0,0c0,0,0,0.1,0,0.1c0,0,0,0,0,0c0,0,0,0.1,0,0.1
			l1.7,0l0-0.2l0.1,0v0l0.7,0c0,0-0.1,0.1-0.1,0.1l-0.6,0l0,0.1l0.5,0c0,0,0,0-0.1,0.1l-11-0.1c0,0,0,0-0.1-0.1l0.6,0v-0.1l-0.7,0
			c0,0-0.1-0.1-0.1-0.1l0,0l0.8,0l0,0l0.1,0v0.2l1.7,0l0.1-0.1l0,0l0-0.1h0l0,0l0,0l0-0.3c0,0,0-0.2,0.2-0.2c0.2,0,0.2,0.2,0.2,0.2
			l0,0.3l0,0l0,0l0,0c0,0,0,0,0,0c0,0,0.1,0.1,0.1,0.1c0,0,0,0,0,0c0,0,0-0.1,0-0.1c0,0,0,0,0,0c0,0,0,0,0,0h0.1l0-0.6
			c0,0-0.1,0-0.1,0c0,0-0.1-0.1-0.1-0.2c0-0.1,0.1-0.1,0.1-0.1l0,0l0,0l0,0l0,0v0l0,0l0,0l0-0.1l-4.1,0c0,0,0,0.2,0,0.3
			c-1-1.3-1.6-3-1.6-4.8C11.2,8,14.8,4.4,19.2,4.4L19.2,4.4L19.2,4.4z M9.8,16L9.8,16c0,0,0.1,0,0.2,0.3c0.1,0.3,0.2,0.4,0.2,0.5
			c0,0.1,0,0.1,0,0.2c0,0-0.1,0,0,0c0,0-0.1-0.2-0.2-0.4c-0.1-0.2-0.1-0.3-0.2-0.4C9.8,16,9.8,16,9.8,16L9.8,16L9.8,16z M19.2,4.5
			l0.6,1.8l1.9,0l-1.5,1.1l0.6,1.8L19.2,8l-1.5,1.1l0.6-1.8l-1.5-1.1l1.9,0L19.2,4.5L19.2,4.5L19.2,4.5z"/>
	</g>
</g>
</svg>
